<?xml version="1.0" encoding="utf-8" standalone="no"?>
<!DOCTYPE svg PUBLIC "-//W3C//DTD SVG 1.1//EN"
  "http://www.w3.org/Graphics/SVG/1.1/DTD/svg11.dtd">
<svg xmlns:xlink="http://www.w3.org/1999/xlink" width="460.8pt" height="345.6pt" viewBox="0 0 460.8 345.6" xmlns="http://www.w3.org/2000/svg" version="1.1">
 <metadata>
  <rdf:RDF xmlns:dc="http://purl.org/dc/elements/1.1/" xmlns:cc="http://creativecommons.org/ns#" xmlns:rdf="http://www.w3.org/1999/02/22-rdf-syntax-ns#">
   <cc:Work>
    <dc:type rdf:resource="http://purl.org/dc/dcmitype/StillImage"/>
    <dc:date>2023-07-04T09:28:54.966115</dc:date>
    <dc:format>image/svg+xml</dc:format>
    <dc:creator>
     <cc:Agent>
      <dc:title>Matplotlib v3.7.1, https://matplotlib.org/</dc:title>
     </cc:Agent>
    </dc:creator>
   </cc:Work>
  </rdf:RDF>
 </metadata>
 <defs>
  <style type="text/css">*{stroke-linejoin: round; stroke-linecap: butt}</style>
 </defs>
 <g id="figure_1">
  <g id="patch_1">
   <path d="M 0 345.6 
L 460.8 345.6 
L 460.8 0 
L 0 0 
z
" style="fill: #ffffff"/>
  </g>
  <g id="axes_1">
   <g id="patch_2">
    <path d="M 57.6 307.584 
L 414.72 307.584 
L 414.72 41.472 
L 57.6 41.472 
z
" style="fill: #ffffff"/>
   </g>
   <g id="matplotlib.axis_1">
    <g id="xtick_1">
     <g id="line2d_1">
      <defs>
       <path id="m411fa6e879" d="M 0 0 
L 0 3.5 
" style="stroke: #000000; stroke-width: 0.8"/>
      </defs>
      <g>
       <use xlink:href="#m411fa6e879" x="73.832727" y="307.584" style="stroke: #000000; stroke-width: 0.8"/>
      </g>
     </g>
     <g id="text_1">
      <!-- 0 -->
      <g transform="translate(70.651477 322.182437) scale(0.1 -0.1)">
       <defs>
        <path id="DejaVuSans-30" d="M 2034 4250 
Q 1547 4250 1301 3770 
Q 1056 3291 1056 2328 
Q 1056 1369 1301 889 
Q 1547 409 2034 409 
Q 2525 409 2770 889 
Q 3016 1369 3016 2328 
Q 3016 3291 2770 3770 
Q 2525 4250 2034 4250 
z
M 2034 4750 
Q 2819 4750 3233 4129 
Q 3647 3509 3647 2328 
Q 3647 1150 3233 529 
Q 2819 -91 2034 -91 
Q 1250 -91 836 529 
Q 422 1150 422 2328 
Q 422 3509 836 4129 
Q 1250 4750 2034 4750 
z
" transform="scale(0.015625)"/>
       </defs>
       <use xlink:href="#DejaVuSans-30"/>
      </g>
     </g>
    </g>
    <g id="xtick_2">
     <g id="line2d_2">
      <g>
       <use xlink:href="#m411fa6e879" x="144.409802" y="307.584" style="stroke: #000000; stroke-width: 0.8"/>
      </g>
     </g>
     <g id="text_2">
      <!-- 5 -->
      <g transform="translate(141.228552 322.182437) scale(0.1 -0.1)">
       <defs>
        <path id="DejaVuSans-35" d="M 691 4666 
L 3169 4666 
L 3169 4134 
L 1269 4134 
L 1269 2991 
Q 1406 3038 1543 3061 
Q 1681 3084 1819 3084 
Q 2600 3084 3056 2656 
Q 3513 2228 3513 1497 
Q 3513 744 3044 326 
Q 2575 -91 1722 -91 
Q 1428 -91 1123 -41 
Q 819 9 494 109 
L 494 744 
Q 775 591 1075 516 
Q 1375 441 1709 441 
Q 2250 441 2565 725 
Q 2881 1009 2881 1497 
Q 2881 1984 2565 2268 
Q 2250 2553 1709 2553 
Q 1456 2553 1204 2497 
Q 953 2441 691 2322 
L 691 4666 
z
" transform="scale(0.015625)"/>
       </defs>
       <use xlink:href="#DejaVuSans-35"/>
      </g>
     </g>
    </g>
    <g id="xtick_3">
     <g id="line2d_3">
      <g>
       <use xlink:href="#m411fa6e879" x="214.986877" y="307.584" style="stroke: #000000; stroke-width: 0.8"/>
      </g>
     </g>
     <g id="text_3">
      <!-- 10 -->
      <g transform="translate(208.624377 322.182437) scale(0.1 -0.1)">
       <defs>
        <path id="DejaVuSans-31" d="M 794 531 
L 1825 531 
L 1825 4091 
L 703 3866 
L 703 4441 
L 1819 4666 
L 2450 4666 
L 2450 531 
L 3481 531 
L 3481 0 
L 794 0 
L 794 531 
z
" transform="scale(0.015625)"/>
       </defs>
       <use xlink:href="#DejaVuSans-31"/>
       <use xlink:href="#DejaVuSans-30" x="63.623047"/>
      </g>
     </g>
    </g>
    <g id="xtick_4">
     <g id="line2d_4">
      <g>
       <use xlink:href="#m411fa6e879" x="285.563953" y="307.584" style="stroke: #000000; stroke-width: 0.8"/>
      </g>
     </g>
     <g id="text_4">
      <!-- 15 -->
      <g transform="translate(279.201453 322.182437) scale(0.1 -0.1)">
       <use xlink:href="#DejaVuSans-31"/>
       <use xlink:href="#DejaVuSans-35" x="63.623047"/>
      </g>
     </g>
    </g>
    <g id="xtick_5">
     <g id="line2d_5">
      <g>
       <use xlink:href="#m411fa6e879" x="356.141028" y="307.584" style="stroke: #000000; stroke-width: 0.8"/>
      </g>
     </g>
     <g id="text_5">
      <!-- 20 -->
      <g transform="translate(349.778528 322.182437) scale(0.1 -0.1)">
       <defs>
        <path id="DejaVuSans-32" d="M 1228 531 
L 3431 531 
L 3431 0 
L 469 0 
L 469 531 
Q 828 903 1448 1529 
Q 2069 2156 2228 2338 
Q 2531 2678 2651 2914 
Q 2772 3150 2772 3378 
Q 2772 3750 2511 3984 
Q 2250 4219 1831 4219 
Q 1534 4219 1204 4116 
Q 875 4013 500 3803 
L 500 4441 
Q 881 4594 1212 4672 
Q 1544 4750 1819 4750 
Q 2544 4750 2975 4387 
Q 3406 4025 3406 3419 
Q 3406 3131 3298 2873 
Q 3191 2616 2906 2266 
Q 2828 2175 2409 1742 
Q 1991 1309 1228 531 
z
" transform="scale(0.015625)"/>
       </defs>
       <use xlink:href="#DejaVuSans-32"/>
       <use xlink:href="#DejaVuSans-30" x="63.623047"/>
      </g>
     </g>
    </g>
    <g id="text_6">
     <!-- Time -->
     <g transform="translate(223.926406 335.860562) scale(0.1 -0.1)">
      <defs>
       <path id="DejaVuSans-54" d="M -19 4666 
L 3928 4666 
L 3928 4134 
L 2272 4134 
L 2272 0 
L 1638 0 
L 1638 4134 
L -19 4134 
L -19 4666 
z
" transform="scale(0.015625)"/>
       <path id="DejaVuSans-69" d="M 603 3500 
L 1178 3500 
L 1178 0 
L 603 0 
L 603 3500 
z
M 603 4863 
L 1178 4863 
L 1178 4134 
L 603 4134 
L 603 4863 
z
" transform="scale(0.015625)"/>
       <path id="DejaVuSans-6d" d="M 3328 2828 
Q 3544 3216 3844 3400 
Q 4144 3584 4550 3584 
Q 5097 3584 5394 3201 
Q 5691 2819 5691 2113 
L 5691 0 
L 5113 0 
L 5113 2094 
Q 5113 2597 4934 2840 
Q 4756 3084 4391 3084 
Q 3944 3084 3684 2787 
Q 3425 2491 3425 1978 
L 3425 0 
L 2847 0 
L 2847 2094 
Q 2847 2600 2669 2842 
Q 2491 3084 2119 3084 
Q 1678 3084 1418 2786 
Q 1159 2488 1159 1978 
L 1159 0 
L 581 0 
L 581 3500 
L 1159 3500 
L 1159 2956 
Q 1356 3278 1631 3431 
Q 1906 3584 2284 3584 
Q 2666 3584 2933 3390 
Q 3200 3197 3328 2828 
z
" transform="scale(0.015625)"/>
       <path id="DejaVuSans-65" d="M 3597 1894 
L 3597 1613 
L 953 1613 
Q 991 1019 1311 708 
Q 1631 397 2203 397 
Q 2534 397 2845 478 
Q 3156 559 3463 722 
L 3463 178 
Q 3153 47 2828 -22 
Q 2503 -91 2169 -91 
Q 1331 -91 842 396 
Q 353 884 353 1716 
Q 353 2575 817 3079 
Q 1281 3584 2069 3584 
Q 2775 3584 3186 3129 
Q 3597 2675 3597 1894 
z
M 3022 2063 
Q 3016 2534 2758 2815 
Q 2500 3097 2075 3097 
Q 1594 3097 1305 2825 
Q 1016 2553 972 2059 
L 3022 2063 
z
" transform="scale(0.015625)"/>
      </defs>
      <use xlink:href="#DejaVuSans-54"/>
      <use xlink:href="#DejaVuSans-69" x="57.958984"/>
      <use xlink:href="#DejaVuSans-6d" x="85.742188"/>
      <use xlink:href="#DejaVuSans-65" x="183.154297"/>
     </g>
    </g>
   </g>
   <g id="matplotlib.axis_2">
    <g id="ytick_1">
     <g id="line2d_6">
      <defs>
       <path id="m2234e25f6b" d="M 0 0 
L -3.5 0 
" style="stroke: #000000; stroke-width: 0.8"/>
      </defs>
      <g>
       <use xlink:href="#m2234e25f6b" x="57.6" y="296.64381" style="stroke: #000000; stroke-width: 0.8"/>
      </g>
     </g>
     <g id="text_7">
      <!-- 0 -->
      <g transform="translate(44.2375 300.443029) scale(0.1 -0.1)">
       <use xlink:href="#DejaVuSans-30"/>
      </g>
     </g>
    </g>
    <g id="ytick_2">
     <g id="line2d_7">
      <g>
       <use xlink:href="#m2234e25f6b" x="57.6" y="252.189566" style="stroke: #000000; stroke-width: 0.8"/>
      </g>
     </g>
     <g id="text_8">
      <!-- 500 -->
      <g transform="translate(31.5125 255.988784) scale(0.1 -0.1)">
       <use xlink:href="#DejaVuSans-35"/>
       <use xlink:href="#DejaVuSans-30" x="63.623047"/>
       <use xlink:href="#DejaVuSans-30" x="127.246094"/>
      </g>
     </g>
    </g>
    <g id="ytick_3">
     <g id="line2d_8">
      <g>
       <use xlink:href="#m2234e25f6b" x="57.6" y="207.735321" style="stroke: #000000; stroke-width: 0.8"/>
      </g>
     </g>
     <g id="text_9">
      <!-- 1000 -->
      <g transform="translate(25.15 211.53454) scale(0.1 -0.1)">
       <use xlink:href="#DejaVuSans-31"/>
       <use xlink:href="#DejaVuSans-30" x="63.623047"/>
       <use xlink:href="#DejaVuSans-30" x="127.246094"/>
       <use xlink:href="#DejaVuSans-30" x="190.869141"/>
      </g>
     </g>
    </g>
    <g id="ytick_4">
     <g id="line2d_9">
      <g>
       <use xlink:href="#m2234e25f6b" x="57.6" y="163.281076" style="stroke: #000000; stroke-width: 0.8"/>
      </g>
     </g>
     <g id="text_10">
      <!-- 1500 -->
      <g transform="translate(25.15 167.080295) scale(0.1 -0.1)">
       <use xlink:href="#DejaVuSans-31"/>
       <use xlink:href="#DejaVuSans-35" x="63.623047"/>
       <use xlink:href="#DejaVuSans-30" x="127.246094"/>
       <use xlink:href="#DejaVuSans-30" x="190.869141"/>
      </g>
     </g>
    </g>
    <g id="ytick_5">
     <g id="line2d_10">
      <g>
       <use xlink:href="#m2234e25f6b" x="57.6" y="118.826831" style="stroke: #000000; stroke-width: 0.8"/>
      </g>
     </g>
     <g id="text_11">
      <!-- 2000 -->
      <g transform="translate(25.15 122.62605) scale(0.1 -0.1)">
       <use xlink:href="#DejaVuSans-32"/>
       <use xlink:href="#DejaVuSans-30" x="63.623047"/>
       <use xlink:href="#DejaVuSans-30" x="127.246094"/>
       <use xlink:href="#DejaVuSans-30" x="190.869141"/>
      </g>
     </g>
    </g>
    <g id="ytick_6">
     <g id="line2d_11">
      <g>
       <use xlink:href="#m2234e25f6b" x="57.6" y="74.372587" style="stroke: #000000; stroke-width: 0.8"/>
      </g>
     </g>
     <g id="text_12">
      <!-- 2500 -->
      <g transform="translate(25.15 78.171805) scale(0.1 -0.1)">
       <use xlink:href="#DejaVuSans-32"/>
       <use xlink:href="#DejaVuSans-35" x="63.623047"/>
       <use xlink:href="#DejaVuSans-30" x="127.246094"/>
       <use xlink:href="#DejaVuSans-30" x="190.869141"/>
      </g>
     </g>
    </g>
    <g id="text_13">
     <!-- Amount of Devices -->
     <g transform="translate(19.070312 221.878781) rotate(-90) scale(0.1 -0.1)">
      <defs>
       <path id="DejaVuSans-41" d="M 2188 4044 
L 1331 1722 
L 3047 1722 
L 2188 4044 
z
M 1831 4666 
L 2547 4666 
L 4325 0 
L 3669 0 
L 3244 1197 
L 1141 1197 
L 716 0 
L 50 0 
L 1831 4666 
z
" transform="scale(0.015625)"/>
       <path id="DejaVuSans-6f" d="M 1959 3097 
Q 1497 3097 1228 2736 
Q 959 2375 959 1747 
Q 959 1119 1226 758 
Q 1494 397 1959 397 
Q 2419 397 2687 759 
Q 2956 1122 2956 1747 
Q 2956 2369 2687 2733 
Q 2419 3097 1959 3097 
z
M 1959 3584 
Q 2709 3584 3137 3096 
Q 3566 2609 3566 1747 
Q 3566 888 3137 398 
Q 2709 -91 1959 -91 
Q 1206 -91 779 398 
Q 353 888 353 1747 
Q 353 2609 779 3096 
Q 1206 3584 1959 3584 
z
" transform="scale(0.015625)"/>
       <path id="DejaVuSans-75" d="M 544 1381 
L 544 3500 
L 1119 3500 
L 1119 1403 
Q 1119 906 1312 657 
Q 1506 409 1894 409 
Q 2359 409 2629 706 
Q 2900 1003 2900 1516 
L 2900 3500 
L 3475 3500 
L 3475 0 
L 2900 0 
L 2900 538 
Q 2691 219 2414 64 
Q 2138 -91 1772 -91 
Q 1169 -91 856 284 
Q 544 659 544 1381 
z
M 1991 3584 
L 1991 3584 
z
" transform="scale(0.015625)"/>
       <path id="DejaVuSans-6e" d="M 3513 2113 
L 3513 0 
L 2938 0 
L 2938 2094 
Q 2938 2591 2744 2837 
Q 2550 3084 2163 3084 
Q 1697 3084 1428 2787 
Q 1159 2491 1159 1978 
L 1159 0 
L 581 0 
L 581 3500 
L 1159 3500 
L 1159 2956 
Q 1366 3272 1645 3428 
Q 1925 3584 2291 3584 
Q 2894 3584 3203 3211 
Q 3513 2838 3513 2113 
z
" transform="scale(0.015625)"/>
       <path id="DejaVuSans-74" d="M 1172 4494 
L 1172 3500 
L 2356 3500 
L 2356 3053 
L 1172 3053 
L 1172 1153 
Q 1172 725 1289 603 
Q 1406 481 1766 481 
L 2356 481 
L 2356 0 
L 1766 0 
Q 1100 0 847 248 
Q 594 497 594 1153 
L 594 3053 
L 172 3053 
L 172 3500 
L 594 3500 
L 594 4494 
L 1172 4494 
z
" transform="scale(0.015625)"/>
       <path id="DejaVuSans-20" transform="scale(0.015625)"/>
       <path id="DejaVuSans-66" d="M 2375 4863 
L 2375 4384 
L 1825 4384 
Q 1516 4384 1395 4259 
Q 1275 4134 1275 3809 
L 1275 3500 
L 2222 3500 
L 2222 3053 
L 1275 3053 
L 1275 0 
L 697 0 
L 697 3053 
L 147 3053 
L 147 3500 
L 697 3500 
L 697 3744 
Q 697 4328 969 4595 
Q 1241 4863 1831 4863 
L 2375 4863 
z
" transform="scale(0.015625)"/>
       <path id="DejaVuSans-44" d="M 1259 4147 
L 1259 519 
L 2022 519 
Q 2988 519 3436 956 
Q 3884 1394 3884 2338 
Q 3884 3275 3436 3711 
Q 2988 4147 2022 4147 
L 1259 4147 
z
M 628 4666 
L 1925 4666 
Q 3281 4666 3915 4102 
Q 4550 3538 4550 2338 
Q 4550 1131 3912 565 
Q 3275 0 1925 0 
L 628 0 
L 628 4666 
z
" transform="scale(0.015625)"/>
       <path id="DejaVuSans-76" d="M 191 3500 
L 800 3500 
L 1894 563 
L 2988 3500 
L 3597 3500 
L 2284 0 
L 1503 0 
L 191 3500 
z
" transform="scale(0.015625)"/>
       <path id="DejaVuSans-63" d="M 3122 3366 
L 3122 2828 
Q 2878 2963 2633 3030 
Q 2388 3097 2138 3097 
Q 1578 3097 1268 2742 
Q 959 2388 959 1747 
Q 959 1106 1268 751 
Q 1578 397 2138 397 
Q 2388 397 2633 464 
Q 2878 531 3122 666 
L 3122 134 
Q 2881 22 2623 -34 
Q 2366 -91 2075 -91 
Q 1284 -91 818 406 
Q 353 903 353 1747 
Q 353 2603 823 3093 
Q 1294 3584 2113 3584 
Q 2378 3584 2631 3529 
Q 2884 3475 3122 3366 
z
" transform="scale(0.015625)"/>
       <path id="DejaVuSans-73" d="M 2834 3397 
L 2834 2853 
Q 2591 2978 2328 3040 
Q 2066 3103 1784 3103 
Q 1356 3103 1142 2972 
Q 928 2841 928 2578 
Q 928 2378 1081 2264 
Q 1234 2150 1697 2047 
L 1894 2003 
Q 2506 1872 2764 1633 
Q 3022 1394 3022 966 
Q 3022 478 2636 193 
Q 2250 -91 1575 -91 
Q 1294 -91 989 -36 
Q 684 19 347 128 
L 347 722 
Q 666 556 975 473 
Q 1284 391 1588 391 
Q 1994 391 2212 530 
Q 2431 669 2431 922 
Q 2431 1156 2273 1281 
Q 2116 1406 1581 1522 
L 1381 1569 
Q 847 1681 609 1914 
Q 372 2147 372 2553 
Q 372 3047 722 3315 
Q 1072 3584 1716 3584 
Q 2034 3584 2315 3537 
Q 2597 3491 2834 3397 
z
" transform="scale(0.015625)"/>
      </defs>
      <use xlink:href="#DejaVuSans-41"/>
      <use xlink:href="#DejaVuSans-6d" x="68.408203"/>
      <use xlink:href="#DejaVuSans-6f" x="165.820312"/>
      <use xlink:href="#DejaVuSans-75" x="227.001953"/>
      <use xlink:href="#DejaVuSans-6e" x="290.380859"/>
      <use xlink:href="#DejaVuSans-74" x="353.759766"/>
      <use xlink:href="#DejaVuSans-20" x="392.96875"/>
      <use xlink:href="#DejaVuSans-6f" x="424.755859"/>
      <use xlink:href="#DejaVuSans-66" x="485.9375"/>
      <use xlink:href="#DejaVuSans-20" x="521.142578"/>
      <use xlink:href="#DejaVuSans-44" x="552.929688"/>
      <use xlink:href="#DejaVuSans-65" x="629.931641"/>
      <use xlink:href="#DejaVuSans-76" x="691.455078"/>
      <use xlink:href="#DejaVuSans-69" x="750.634766"/>
      <use xlink:href="#DejaVuSans-63" x="778.417969"/>
      <use xlink:href="#DejaVuSans-65" x="833.398438"/>
      <use xlink:href="#DejaVuSans-73" x="894.921875"/>
     </g>
    </g>
   </g>
   <g id="line2d_12">
    <path d="M 73.832727 283.485354 
L 87.948142 286.952785 
L 102.063557 291.042576 
L 116.178972 290.864759 
L 130.294387 293.798739 
L 144.409802 287.397327 
L 158.525217 274.416688 
L 172.640632 199.644648 
L 186.756047 90.731749 
L 200.871462 113.936864 
L 214.986877 154.034593 
L 229.102292 149.411352 
L 243.217708 116.604119 
L 257.333123 133.230007 
L 271.448538 146.56628 
L 285.563953 150.567162 
L 299.679368 161.502906 
L 313.794783 107.71327 
L 327.910198 106.024009 
L 342.025613 116.337394 
L 356.141028 153.0566 
L 370.256443 210.669301 
L 384.371858 235.830404 
L 398.487273 252.900834 
" clip-path="url(#p40e8839e32)" style="fill: none; stroke: #1f77b4; stroke-width: 1.5; stroke-linecap: square"/>
   </g>
   <g id="line2d_13">
    <path d="M 73.832727 270.504714 
L 87.948142 279.484472 
L 102.063557 283.752079 
L 116.178972 289.086589 
L 130.294387 290.686942 
L 144.409802 281.262642 
L 158.525217 272.638518 
L 172.640632 260.813689 
L 186.756047 209.869125 
L 200.871462 173.594461 
L 214.986877 152.789874 
L 229.102292 146.299555 
L 243.217708 141.320679 
L 257.333123 111.358518 
L 271.448538 91.79865 
L 285.563953 94.465905 
L 299.679368 92.598827 
L 313.794783 107.891087 
L 327.910198 87.797768 
L 342.025613 84.863788 
L 356.141028 115.715034 
L 370.256443 168.526677 
L 384.371858 218.40434 
L 398.487273 229.873535 
" clip-path="url(#p40e8839e32)" style="fill: none; stroke: #ff7f0e; stroke-width: 1.5; stroke-linecap: square"/>
   </g>
   <g id="line2d_14">
    <path d="M 73.832727 279.929014 
L 87.948142 288.286412 
L 102.063557 290.331308 
L 116.178972 291.664935 
L 130.294387 293.087471 
L 144.409802 284.107713 
L 158.525217 268.815453 
L 172.640632 204.26789 
L 186.756047 83.619069 
L 200.871462 127.71768 
L 214.986877 150.033711 
L 229.102292 153.234417 
L 243.217708 108.246721 
L 257.333123 128.784582 
L 271.448538 146.388463 
L 285.563953 145.143744 
L 299.679368 140.164869 
L 313.794783 88.953579 
L 327.910198 53.568 
L 342.025613 80.862906 
L 356.141028 146.921914 
L 370.256443 170.482664 
L 384.371858 233.340966 
L 398.487273 256.63499 
" clip-path="url(#p40e8839e32)" style="fill: none; stroke: #2ca02c; stroke-width: 1.5; stroke-linecap: square"/>
   </g>
   <g id="line2d_15">
    <path d="M 73.832727 281.173733 
L 87.948142 290.420216 
L 102.063557 290.420216 
L 116.178972 291.664935 
L 130.294387 292.109477 
L 144.409802 287.041693 
L 158.525217 275.394681 
L 172.640632 210.046942 
L 186.756047 98.022245 
L 200.871462 139.542509 
L 214.986877 180.796049 
L 229.102292 167.104141 
L 243.217708 115.181583 
L 257.333123 146.121738 
L 271.448538 167.548684 
L 285.563953 161.680723 
L 299.679368 135.98617 
L 313.794783 96.955343 
L 327.910198 80.773998 
L 342.025613 97.666611 
L 356.141028 144.699202 
L 370.256443 200.71155 
L 384.371858 231.651705 
L 398.487273 249.611219 
" clip-path="url(#p40e8839e32)" style="fill: none; stroke: #d62728; stroke-width: 1.5; stroke-linecap: square"/>
   </g>
   <g id="line2d_16">
    <path d="M 73.832727 282.951903 
L 87.948142 292.909654 
L 102.063557 289.175497 
L 116.178972 291.042576 
L 130.294387 291.753843 
L 144.409802 286.597151 
L 158.525217 272.016159 
L 172.640632 208.35768 
L 186.756047 103.178937 
L 200.871462 133.852366 
L 214.986877 168.704494 
L 229.102292 163.192168 
L 243.217708 124.428066 
L 257.333123 138.475607 
L 271.448538 149.144626 
L 285.563953 149.766986 
L 299.679368 143.365574 
L 313.794783 88.064494 
L 327.910198 66.815365 
L 342.025613 86.908684 
L 356.141028 131.540745 
L 370.256443 190.220348 
L 384.371858 219.915784 
L 398.487273 261.969499 
" clip-path="url(#p40e8839e32)" style="fill: none; stroke: #9467bd; stroke-width: 1.5; stroke-linecap: square"/>
   </g>
   <g id="line2d_17">
    <path d="M 73.832727 284.90789 
L 87.948142 289.708948 
L 102.063557 292.376203 
L 116.178972 291.576026 
L 130.294387 292.287294 
L 144.409802 287.130602 
L 158.525217 278.951021 
L 172.640632 231.829521 
L 186.756047 155.901671 
L 200.871462 164.881429 
L 214.986877 192.798695 
L 229.102292 191.553976 
L 243.217708 181.151682 
L 257.333123 187.642002 
L 271.448538 189.331264 
L 285.563953 179.55133 
L 299.679368 175.372631 
L 313.794783 145.766104 
L 327.910198 128.34004 
L 342.025613 109.580348 
L 356.141028 154.034593 
L 370.256443 201.689544 
L 384.371858 247.21069 
L 398.487273 258.768794 
" clip-path="url(#p40e8839e32)" style="fill: none; stroke: #8c564b; stroke-width: 1.5; stroke-linecap: square"/>
   </g>
   <g id="line2d_18">
    <path d="M 73.832727 292.198386 
L 87.948142 294.510007 
L 102.063557 295.488 
L 116.178972 294.776732 
L 130.294387 293.620922 
L 144.409802 290.420216 
L 158.525217 284.196622 
L 172.640632 237.075122 
L 186.756047 160.613821 
L 200.871462 161.502906 
L 214.986877 196.62176 
L 229.102292 198.93338 
L 243.217708 164.614703 
L 257.333123 188.708904 
L 271.448538 188.886721 
L 285.563953 183.107669 
L 299.679368 169.237945 
L 313.794783 143.721208 
L 327.910198 118.204472 
L 342.025613 137.942157 
L 356.141028 188.619996 
L 370.256443 212.536379 
L 384.371858 246.499422 
L 398.487273 260.102421 
" clip-path="url(#p40e8839e32)" style="fill: none; stroke: #e377c2; stroke-width: 1.5; stroke-linecap: square"/>
   </g>
   <g id="line2d_19">
    <path d="M 73.832727 280.640282 
L 87.948142 287.930778 
L 102.063557 292.109477 
L 116.178972 293.087471 
L 130.294387 292.55402 
L 144.409802 287.575144 
L 158.525217 275.039047 
L 172.640632 217.426346 
L 186.756047 125.494968 
L 200.871462 151.634064 
L 214.986877 169.149036 
L 229.102292 179.995872 
L 243.217708 137.053072 
L 257.333123 151.900789 
L 271.448538 163.014351 
L 285.563953 158.035475 
L 299.679368 149.678077 
L 313.794783 115.270492 
L 327.910198 84.419246 
L 342.025613 104.068022 
L 356.141028 156.435122 
L 370.256443 208.891131 
L 384.371858 238.230933 
L 398.487273 255.568088 
" clip-path="url(#p40e8839e32)" style="fill: none; stroke: #7f7f7f; stroke-width: 1.5; stroke-linecap: square"/>
   </g>
   <g id="line2d_20">
    <path d="M 73.832727 289.086589 
L 87.948142 289.886765 
L 102.063557 294.687824 
L 116.178972 294.421098 
L 130.294387 292.465111 
L 144.409802 290.153491 
L 158.525217 284.28553 
L 172.640632 238.586567 
L 186.756047 149.144626 
L 200.871462 165.325971 
L 214.986877 190.664891 
L 229.102292 195.554858 
L 243.217708 148.966809 
L 257.333123 165.325971 
L 271.448538 185.508198 
L 285.563953 191.020525 
L 299.679368 163.547802 
L 313.794783 131.451837 
L 327.910198 119.715916 
L 342.025613 118.826831 
L 356.141028 171.994108 
L 370.256443 215.114725 
L 384.371858 245.877063 
L 398.487273 258.41316 
" clip-path="url(#p40e8839e32)" style="fill: none; stroke: #bcbd22; stroke-width: 1.5; stroke-linecap: square"/>
   </g>
   <g id="line2d_21">
    <path d="M 73.832727 277.617394 
L 87.948142 284.552256 
L 102.063557 285.974792 
L 116.178972 291.487118 
L 130.294387 293.087471 
L 144.409802 289.886765 
L 158.525217 278.328662 
L 172.640632 228.006456 
L 186.756047 150.833888 
L 200.871462 164.525795 
L 214.986877 189.864714 
L 229.102292 190.487074 
L 243.217708 163.814527 
L 257.333123 176.350624 
L 271.448538 177.328617 
L 285.563953 192.443061 
L 299.679368 169.237945 
L 313.794783 143.00994 
L 327.910198 122.383171 
L 342.025613 131.185111 
L 356.141028 172.349742 
L 370.256443 217.337438 
L 384.371858 248.277592 
L 398.487273 262.947493 
" clip-path="url(#p40e8839e32)" style="fill: none; stroke: #17becf; stroke-width: 1.5; stroke-linecap: square"/>
   </g>
   <g id="patch_3">
    <path d="M 57.6 307.584 
L 57.6 41.472 
" style="fill: none; stroke: #000000; stroke-width: 0.8; stroke-linejoin: miter; stroke-linecap: square"/>
   </g>
   <g id="patch_4">
    <path d="M 414.72 307.584 
L 414.72 41.472 
" style="fill: none; stroke: #000000; stroke-width: 0.8; stroke-linejoin: miter; stroke-linecap: square"/>
   </g>
   <g id="patch_5">
    <path d="M 57.6 307.584 
L 414.72 307.584 
" style="fill: none; stroke: #000000; stroke-width: 0.8; stroke-linejoin: miter; stroke-linecap: square"/>
   </g>
   <g id="patch_6">
    <path d="M 57.6 41.472 
L 414.72 41.472 
" style="fill: none; stroke: #000000; stroke-width: 0.8; stroke-linejoin: miter; stroke-linecap: square"/>
   </g>
   <g id="text_14">
    <!-- Amount of Devices by Time at p020 (1) -->
    <g transform="translate(117.974063 35.472) scale(0.12 -0.12)">
     <defs>
      <path id="DejaVuSans-62" d="M 3116 1747 
Q 3116 2381 2855 2742 
Q 2594 3103 2138 3103 
Q 1681 3103 1420 2742 
Q 1159 2381 1159 1747 
Q 1159 1113 1420 752 
Q 1681 391 2138 391 
Q 2594 391 2855 752 
Q 3116 1113 3116 1747 
z
M 1159 2969 
Q 1341 3281 1617 3432 
Q 1894 3584 2278 3584 
Q 2916 3584 3314 3078 
Q 3713 2572 3713 1747 
Q 3713 922 3314 415 
Q 2916 -91 2278 -91 
Q 1894 -91 1617 61 
Q 1341 213 1159 525 
L 1159 0 
L 581 0 
L 581 4863 
L 1159 4863 
L 1159 2969 
z
" transform="scale(0.015625)"/>
      <path id="DejaVuSans-79" d="M 2059 -325 
Q 1816 -950 1584 -1140 
Q 1353 -1331 966 -1331 
L 506 -1331 
L 506 -850 
L 844 -850 
Q 1081 -850 1212 -737 
Q 1344 -625 1503 -206 
L 1606 56 
L 191 3500 
L 800 3500 
L 1894 763 
L 2988 3500 
L 3597 3500 
L 2059 -325 
z
" transform="scale(0.015625)"/>
      <path id="DejaVuSans-61" d="M 2194 1759 
Q 1497 1759 1228 1600 
Q 959 1441 959 1056 
Q 959 750 1161 570 
Q 1363 391 1709 391 
Q 2188 391 2477 730 
Q 2766 1069 2766 1631 
L 2766 1759 
L 2194 1759 
z
M 3341 1997 
L 3341 0 
L 2766 0 
L 2766 531 
Q 2569 213 2275 61 
Q 1981 -91 1556 -91 
Q 1019 -91 701 211 
Q 384 513 384 1019 
Q 384 1609 779 1909 
Q 1175 2209 1959 2209 
L 2766 2209 
L 2766 2266 
Q 2766 2663 2505 2880 
Q 2244 3097 1772 3097 
Q 1472 3097 1187 3025 
Q 903 2953 641 2809 
L 641 3341 
Q 956 3463 1253 3523 
Q 1550 3584 1831 3584 
Q 2591 3584 2966 3190 
Q 3341 2797 3341 1997 
z
" transform="scale(0.015625)"/>
      <path id="DejaVuSans-70" d="M 1159 525 
L 1159 -1331 
L 581 -1331 
L 581 3500 
L 1159 3500 
L 1159 2969 
Q 1341 3281 1617 3432 
Q 1894 3584 2278 3584 
Q 2916 3584 3314 3078 
Q 3713 2572 3713 1747 
Q 3713 922 3314 415 
Q 2916 -91 2278 -91 
Q 1894 -91 1617 61 
Q 1341 213 1159 525 
z
M 3116 1747 
Q 3116 2381 2855 2742 
Q 2594 3103 2138 3103 
Q 1681 3103 1420 2742 
Q 1159 2381 1159 1747 
Q 1159 1113 1420 752 
Q 1681 391 2138 391 
Q 2594 391 2855 752 
Q 3116 1113 3116 1747 
z
" transform="scale(0.015625)"/>
      <path id="DejaVuSans-28" d="M 1984 4856 
Q 1566 4138 1362 3434 
Q 1159 2731 1159 2009 
Q 1159 1288 1364 580 
Q 1569 -128 1984 -844 
L 1484 -844 
Q 1016 -109 783 600 
Q 550 1309 550 2009 
Q 550 2706 781 3412 
Q 1013 4119 1484 4856 
L 1984 4856 
z
" transform="scale(0.015625)"/>
      <path id="DejaVuSans-29" d="M 513 4856 
L 1013 4856 
Q 1481 4119 1714 3412 
Q 1947 2706 1947 2009 
Q 1947 1309 1714 600 
Q 1481 -109 1013 -844 
L 513 -844 
Q 928 -128 1133 580 
Q 1338 1288 1338 2009 
Q 1338 2731 1133 3434 
Q 928 4138 513 4856 
z
" transform="scale(0.015625)"/>
     </defs>
     <use xlink:href="#DejaVuSans-41"/>
     <use xlink:href="#DejaVuSans-6d" x="68.408203"/>
     <use xlink:href="#DejaVuSans-6f" x="165.820312"/>
     <use xlink:href="#DejaVuSans-75" x="227.001953"/>
     <use xlink:href="#DejaVuSans-6e" x="290.380859"/>
     <use xlink:href="#DejaVuSans-74" x="353.759766"/>
     <use xlink:href="#DejaVuSans-20" x="392.96875"/>
     <use xlink:href="#DejaVuSans-6f" x="424.755859"/>
     <use xlink:href="#DejaVuSans-66" x="485.9375"/>
     <use xlink:href="#DejaVuSans-20" x="521.142578"/>
     <use xlink:href="#DejaVuSans-44" x="552.929688"/>
     <use xlink:href="#DejaVuSans-65" x="629.931641"/>
     <use xlink:href="#DejaVuSans-76" x="691.455078"/>
     <use xlink:href="#DejaVuSans-69" x="750.634766"/>
     <use xlink:href="#DejaVuSans-63" x="778.417969"/>
     <use xlink:href="#DejaVuSans-65" x="833.398438"/>
     <use xlink:href="#DejaVuSans-73" x="894.921875"/>
     <use xlink:href="#DejaVuSans-20" x="947.021484"/>
     <use xlink:href="#DejaVuSans-62" x="978.808594"/>
     <use xlink:href="#DejaVuSans-79" x="1042.285156"/>
     <use xlink:href="#DejaVuSans-20" x="1101.464844"/>
     <use xlink:href="#DejaVuSans-54" x="1133.251953"/>
     <use xlink:href="#DejaVuSans-69" x="1191.210938"/>
     <use xlink:href="#DejaVuSans-6d" x="1218.994141"/>
     <use xlink:href="#DejaVuSans-65" x="1316.40625"/>
     <use xlink:href="#DejaVuSans-20" x="1377.929688"/>
     <use xlink:href="#DejaVuSans-61" x="1409.716797"/>
     <use xlink:href="#DejaVuSans-74" x="1470.996094"/>
     <use xlink:href="#DejaVuSans-20" x="1510.205078"/>
     <use xlink:href="#DejaVuSans-70" x="1541.992188"/>
     <use xlink:href="#DejaVuSans-30" x="1605.46875"/>
     <use xlink:href="#DejaVuSans-32" x="1669.091797"/>
     <use xlink:href="#DejaVuSans-30" x="1732.714844"/>
     <use xlink:href="#DejaVuSans-20" x="1796.337891"/>
     <use xlink:href="#DejaVuSans-28" x="1828.125"/>
     <use xlink:href="#DejaVuSans-31" x="1867.138672"/>
     <use xlink:href="#DejaVuSans-29" x="1930.761719"/>
    </g>
   </g>
   <g id="legend_1">
    <g id="patch_7">
     <path d="M 64.6 210.931375 
L 202.80625 210.931375 
Q 204.80625 210.931375 204.80625 208.931375 
L 204.80625 48.472 
Q 204.80625 46.472 202.80625 46.472 
L 64.6 46.472 
Q 62.6 46.472 62.6 48.472 
L 62.6 208.931375 
Q 62.6 210.931375 64.6 210.931375 
z
" style="fill: #ffffff; opacity: 0.8; stroke: #cccccc; stroke-linejoin: miter"/>
    </g>
    <g id="text_15">
     <!-- datetime -->
     <g transform="translate(111.132031 58.070437) scale(0.1 -0.1)">
      <defs>
       <path id="DejaVuSans-64" d="M 2906 2969 
L 2906 4863 
L 3481 4863 
L 3481 0 
L 2906 0 
L 2906 525 
Q 2725 213 2448 61 
Q 2172 -91 1784 -91 
Q 1150 -91 751 415 
Q 353 922 353 1747 
Q 353 2572 751 3078 
Q 1150 3584 1784 3584 
Q 2172 3584 2448 3432 
Q 2725 3281 2906 2969 
z
M 947 1747 
Q 947 1113 1208 752 
Q 1469 391 1925 391 
Q 2381 391 2643 752 
Q 2906 1113 2906 1747 
Q 2906 2381 2643 2742 
Q 2381 3103 1925 3103 
Q 1469 3103 1208 2742 
Q 947 2381 947 1747 
z
" transform="scale(0.015625)"/>
      </defs>
      <use xlink:href="#DejaVuSans-64"/>
      <use xlink:href="#DejaVuSans-61" x="63.476562"/>
      <use xlink:href="#DejaVuSans-74" x="124.755859"/>
      <use xlink:href="#DejaVuSans-65" x="163.964844"/>
      <use xlink:href="#DejaVuSans-74" x="225.488281"/>
      <use xlink:href="#DejaVuSans-69" x="264.697266"/>
      <use xlink:href="#DejaVuSans-6d" x="292.480469"/>
      <use xlink:href="#DejaVuSans-65" x="389.892578"/>
     </g>
    </g>
    <g id="line2d_22">
     <path d="M 66.6 69.248562 
L 76.6 69.248562 
L 86.6 69.248562 
" style="fill: none; stroke: #1f77b4; stroke-width: 1.5; stroke-linecap: square"/>
    </g>
    <g id="text_16">
     <!-- 2022-04-26 00:00:00 -->
     <g transform="translate(94.6 72.748562) scale(0.1 -0.1)">
      <defs>
       <path id="DejaVuSans-2d" d="M 313 2009 
L 1997 2009 
L 1997 1497 
L 313 1497 
L 313 2009 
z
" transform="scale(0.015625)"/>
       <path id="DejaVuSans-34" d="M 2419 4116 
L 825 1625 
L 2419 1625 
L 2419 4116 
z
M 2253 4666 
L 3047 4666 
L 3047 1625 
L 3713 1625 
L 3713 1100 
L 3047 1100 
L 3047 0 
L 2419 0 
L 2419 1100 
L 313 1100 
L 313 1709 
L 2253 4666 
z
" transform="scale(0.015625)"/>
       <path id="DejaVuSans-36" d="M 2113 2584 
Q 1688 2584 1439 2293 
Q 1191 2003 1191 1497 
Q 1191 994 1439 701 
Q 1688 409 2113 409 
Q 2538 409 2786 701 
Q 3034 994 3034 1497 
Q 3034 2003 2786 2293 
Q 2538 2584 2113 2584 
z
M 3366 4563 
L 3366 3988 
Q 3128 4100 2886 4159 
Q 2644 4219 2406 4219 
Q 1781 4219 1451 3797 
Q 1122 3375 1075 2522 
Q 1259 2794 1537 2939 
Q 1816 3084 2150 3084 
Q 2853 3084 3261 2657 
Q 3669 2231 3669 1497 
Q 3669 778 3244 343 
Q 2819 -91 2113 -91 
Q 1303 -91 875 529 
Q 447 1150 447 2328 
Q 447 3434 972 4092 
Q 1497 4750 2381 4750 
Q 2619 4750 2861 4703 
Q 3103 4656 3366 4563 
z
" transform="scale(0.015625)"/>
       <path id="DejaVuSans-3a" d="M 750 794 
L 1409 794 
L 1409 0 
L 750 0 
L 750 794 
z
M 750 3309 
L 1409 3309 
L 1409 2516 
L 750 2516 
L 750 3309 
z
" transform="scale(0.015625)"/>
      </defs>
      <use xlink:href="#DejaVuSans-32"/>
      <use xlink:href="#DejaVuSans-30" x="63.623047"/>
      <use xlink:href="#DejaVuSans-32" x="127.246094"/>
      <use xlink:href="#DejaVuSans-32" x="190.869141"/>
      <use xlink:href="#DejaVuSans-2d" x="254.492188"/>
      <use xlink:href="#DejaVuSans-30" x="290.576172"/>
      <use xlink:href="#DejaVuSans-34" x="354.199219"/>
      <use xlink:href="#DejaVuSans-2d" x="417.822266"/>
      <use xlink:href="#DejaVuSans-32" x="453.90625"/>
      <use xlink:href="#DejaVuSans-36" x="517.529297"/>
      <use xlink:href="#DejaVuSans-20" x="581.152344"/>
      <use xlink:href="#DejaVuSans-30" x="612.939453"/>
      <use xlink:href="#DejaVuSans-30" x="676.5625"/>
      <use xlink:href="#DejaVuSans-3a" x="740.185547"/>
      <use xlink:href="#DejaVuSans-30" x="773.876953"/>
      <use xlink:href="#DejaVuSans-30" x="837.5"/>
      <use xlink:href="#DejaVuSans-3a" x="901.123047"/>
      <use xlink:href="#DejaVuSans-30" x="934.814453"/>
      <use xlink:href="#DejaVuSans-30" x="998.4375"/>
     </g>
    </g>
    <g id="line2d_23">
     <path d="M 66.6 83.926688 
L 76.6 83.926688 
L 86.6 83.926688 
" style="fill: none; stroke: #ff7f0e; stroke-width: 1.5; stroke-linecap: square"/>
    </g>
    <g id="text_17">
     <!-- 2022-05-03 00:00:00 -->
     <g transform="translate(94.6 87.426688) scale(0.1 -0.1)">
      <defs>
       <path id="DejaVuSans-33" d="M 2597 2516 
Q 3050 2419 3304 2112 
Q 3559 1806 3559 1356 
Q 3559 666 3084 287 
Q 2609 -91 1734 -91 
Q 1441 -91 1130 -33 
Q 819 25 488 141 
L 488 750 
Q 750 597 1062 519 
Q 1375 441 1716 441 
Q 2309 441 2620 675 
Q 2931 909 2931 1356 
Q 2931 1769 2642 2001 
Q 2353 2234 1838 2234 
L 1294 2234 
L 1294 2753 
L 1863 2753 
Q 2328 2753 2575 2939 
Q 2822 3125 2822 3475 
Q 2822 3834 2567 4026 
Q 2313 4219 1838 4219 
Q 1578 4219 1281 4162 
Q 984 4106 628 3988 
L 628 4550 
Q 988 4650 1302 4700 
Q 1616 4750 1894 4750 
Q 2613 4750 3031 4423 
Q 3450 4097 3450 3541 
Q 3450 3153 3228 2886 
Q 3006 2619 2597 2516 
z
" transform="scale(0.015625)"/>
      </defs>
      <use xlink:href="#DejaVuSans-32"/>
      <use xlink:href="#DejaVuSans-30" x="63.623047"/>
      <use xlink:href="#DejaVuSans-32" x="127.246094"/>
      <use xlink:href="#DejaVuSans-32" x="190.869141"/>
      <use xlink:href="#DejaVuSans-2d" x="254.492188"/>
      <use xlink:href="#DejaVuSans-30" x="290.576172"/>
      <use xlink:href="#DejaVuSans-35" x="354.199219"/>
      <use xlink:href="#DejaVuSans-2d" x="417.822266"/>
      <use xlink:href="#DejaVuSans-30" x="453.90625"/>
      <use xlink:href="#DejaVuSans-33" x="517.529297"/>
      <use xlink:href="#DejaVuSans-20" x="581.152344"/>
      <use xlink:href="#DejaVuSans-30" x="612.939453"/>
      <use xlink:href="#DejaVuSans-30" x="676.5625"/>
      <use xlink:href="#DejaVuSans-3a" x="740.185547"/>
      <use xlink:href="#DejaVuSans-30" x="773.876953"/>
      <use xlink:href="#DejaVuSans-30" x="837.5"/>
      <use xlink:href="#DejaVuSans-3a" x="901.123047"/>
      <use xlink:href="#DejaVuSans-30" x="934.814453"/>
      <use xlink:href="#DejaVuSans-30" x="998.4375"/>
     </g>
    </g>
    <g id="line2d_24">
     <path d="M 66.6 98.604813 
L 76.6 98.604813 
L 86.6 98.604813 
" style="fill: none; stroke: #2ca02c; stroke-width: 1.5; stroke-linecap: square"/>
    </g>
    <g id="text_18">
     <!-- 2022-05-10 00:00:00 -->
     <g transform="translate(94.6 102.104813) scale(0.1 -0.1)">
      <use xlink:href="#DejaVuSans-32"/>
      <use xlink:href="#DejaVuSans-30" x="63.623047"/>
      <use xlink:href="#DejaVuSans-32" x="127.246094"/>
      <use xlink:href="#DejaVuSans-32" x="190.869141"/>
      <use xlink:href="#DejaVuSans-2d" x="254.492188"/>
      <use xlink:href="#DejaVuSans-30" x="290.576172"/>
      <use xlink:href="#DejaVuSans-35" x="354.199219"/>
      <use xlink:href="#DejaVuSans-2d" x="417.822266"/>
      <use xlink:href="#DejaVuSans-31" x="453.90625"/>
      <use xlink:href="#DejaVuSans-30" x="517.529297"/>
      <use xlink:href="#DejaVuSans-20" x="581.152344"/>
      <use xlink:href="#DejaVuSans-30" x="612.939453"/>
      <use xlink:href="#DejaVuSans-30" x="676.5625"/>
      <use xlink:href="#DejaVuSans-3a" x="740.185547"/>
      <use xlink:href="#DejaVuSans-30" x="773.876953"/>
      <use xlink:href="#DejaVuSans-30" x="837.5"/>
      <use xlink:href="#DejaVuSans-3a" x="901.123047"/>
      <use xlink:href="#DejaVuSans-30" x="934.814453"/>
      <use xlink:href="#DejaVuSans-30" x="998.4375"/>
     </g>
    </g>
    <g id="line2d_25">
     <path d="M 66.6 113.282938 
L 76.6 113.282938 
L 86.6 113.282938 
" style="fill: none; stroke: #d62728; stroke-width: 1.5; stroke-linecap: square"/>
    </g>
    <g id="text_19">
     <!-- 2022-05-17 00:00:00 -->
     <g transform="translate(94.6 116.782938) scale(0.1 -0.1)">
      <defs>
       <path id="DejaVuSans-37" d="M 525 4666 
L 3525 4666 
L 3525 4397 
L 1831 0 
L 1172 0 
L 2766 4134 
L 525 4134 
L 525 4666 
z
" transform="scale(0.015625)"/>
      </defs>
      <use xlink:href="#DejaVuSans-32"/>
      <use xlink:href="#DejaVuSans-30" x="63.623047"/>
      <use xlink:href="#DejaVuSans-32" x="127.246094"/>
      <use xlink:href="#DejaVuSans-32" x="190.869141"/>
      <use xlink:href="#DejaVuSans-2d" x="254.492188"/>
      <use xlink:href="#DejaVuSans-30" x="290.576172"/>
      <use xlink:href="#DejaVuSans-35" x="354.199219"/>
      <use xlink:href="#DejaVuSans-2d" x="417.822266"/>
      <use xlink:href="#DejaVuSans-31" x="453.90625"/>
      <use xlink:href="#DejaVuSans-37" x="517.529297"/>
      <use xlink:href="#DejaVuSans-20" x="581.152344"/>
      <use xlink:href="#DejaVuSans-30" x="612.939453"/>
      <use xlink:href="#DejaVuSans-30" x="676.5625"/>
      <use xlink:href="#DejaVuSans-3a" x="740.185547"/>
      <use xlink:href="#DejaVuSans-30" x="773.876953"/>
      <use xlink:href="#DejaVuSans-30" x="837.5"/>
      <use xlink:href="#DejaVuSans-3a" x="901.123047"/>
      <use xlink:href="#DejaVuSans-30" x="934.814453"/>
      <use xlink:href="#DejaVuSans-30" x="998.4375"/>
     </g>
    </g>
    <g id="line2d_26">
     <path d="M 66.6 127.961063 
L 76.6 127.961063 
L 86.6 127.961063 
" style="fill: none; stroke: #9467bd; stroke-width: 1.5; stroke-linecap: square"/>
    </g>
    <g id="text_20">
     <!-- 2022-05-24 00:00:00 -->
     <g transform="translate(94.6 131.461063) scale(0.1 -0.1)">
      <use xlink:href="#DejaVuSans-32"/>
      <use xlink:href="#DejaVuSans-30" x="63.623047"/>
      <use xlink:href="#DejaVuSans-32" x="127.246094"/>
      <use xlink:href="#DejaVuSans-32" x="190.869141"/>
      <use xlink:href="#DejaVuSans-2d" x="254.492188"/>
      <use xlink:href="#DejaVuSans-30" x="290.576172"/>
      <use xlink:href="#DejaVuSans-35" x="354.199219"/>
      <use xlink:href="#DejaVuSans-2d" x="417.822266"/>
      <use xlink:href="#DejaVuSans-32" x="453.90625"/>
      <use xlink:href="#DejaVuSans-34" x="517.529297"/>
      <use xlink:href="#DejaVuSans-20" x="581.152344"/>
      <use xlink:href="#DejaVuSans-30" x="612.939453"/>
      <use xlink:href="#DejaVuSans-30" x="676.5625"/>
      <use xlink:href="#DejaVuSans-3a" x="740.185547"/>
      <use xlink:href="#DejaVuSans-30" x="773.876953"/>
      <use xlink:href="#DejaVuSans-30" x="837.5"/>
      <use xlink:href="#DejaVuSans-3a" x="901.123047"/>
      <use xlink:href="#DejaVuSans-30" x="934.814453"/>
      <use xlink:href="#DejaVuSans-30" x="998.4375"/>
     </g>
    </g>
    <g id="line2d_27">
     <path d="M 66.6 142.639187 
L 76.6 142.639187 
L 86.6 142.639187 
" style="fill: none; stroke: #8c564b; stroke-width: 1.5; stroke-linecap: square"/>
    </g>
    <g id="text_21">
     <!-- 2022-05-31 00:00:00 -->
     <g transform="translate(94.6 146.139187) scale(0.1 -0.1)">
      <use xlink:href="#DejaVuSans-32"/>
      <use xlink:href="#DejaVuSans-30" x="63.623047"/>
      <use xlink:href="#DejaVuSans-32" x="127.246094"/>
      <use xlink:href="#DejaVuSans-32" x="190.869141"/>
      <use xlink:href="#DejaVuSans-2d" x="254.492188"/>
      <use xlink:href="#DejaVuSans-30" x="290.576172"/>
      <use xlink:href="#DejaVuSans-35" x="354.199219"/>
      <use xlink:href="#DejaVuSans-2d" x="417.822266"/>
      <use xlink:href="#DejaVuSans-33" x="453.90625"/>
      <use xlink:href="#DejaVuSans-31" x="517.529297"/>
      <use xlink:href="#DejaVuSans-20" x="581.152344"/>
      <use xlink:href="#DejaVuSans-30" x="612.939453"/>
      <use xlink:href="#DejaVuSans-30" x="676.5625"/>
      <use xlink:href="#DejaVuSans-3a" x="740.185547"/>
      <use xlink:href="#DejaVuSans-30" x="773.876953"/>
      <use xlink:href="#DejaVuSans-30" x="837.5"/>
      <use xlink:href="#DejaVuSans-3a" x="901.123047"/>
      <use xlink:href="#DejaVuSans-30" x="934.814453"/>
      <use xlink:href="#DejaVuSans-30" x="998.4375"/>
     </g>
    </g>
    <g id="line2d_28">
     <path d="M 66.6 157.317313 
L 76.6 157.317313 
L 86.6 157.317313 
" style="fill: none; stroke: #e377c2; stroke-width: 1.5; stroke-linecap: square"/>
    </g>
    <g id="text_22">
     <!-- 2022-06-07 00:00:00 -->
     <g transform="translate(94.6 160.817313) scale(0.1 -0.1)">
      <use xlink:href="#DejaVuSans-32"/>
      <use xlink:href="#DejaVuSans-30" x="63.623047"/>
      <use xlink:href="#DejaVuSans-32" x="127.246094"/>
      <use xlink:href="#DejaVuSans-32" x="190.869141"/>
      <use xlink:href="#DejaVuSans-2d" x="254.492188"/>
      <use xlink:href="#DejaVuSans-30" x="290.576172"/>
      <use xlink:href="#DejaVuSans-36" x="354.199219"/>
      <use xlink:href="#DejaVuSans-2d" x="417.822266"/>
      <use xlink:href="#DejaVuSans-30" x="453.90625"/>
      <use xlink:href="#DejaVuSans-37" x="517.529297"/>
      <use xlink:href="#DejaVuSans-20" x="581.152344"/>
      <use xlink:href="#DejaVuSans-30" x="612.939453"/>
      <use xlink:href="#DejaVuSans-30" x="676.5625"/>
      <use xlink:href="#DejaVuSans-3a" x="740.185547"/>
      <use xlink:href="#DejaVuSans-30" x="773.876953"/>
      <use xlink:href="#DejaVuSans-30" x="837.5"/>
      <use xlink:href="#DejaVuSans-3a" x="901.123047"/>
      <use xlink:href="#DejaVuSans-30" x="934.814453"/>
      <use xlink:href="#DejaVuSans-30" x="998.4375"/>
     </g>
    </g>
    <g id="line2d_29">
     <path d="M 66.6 171.995437 
L 76.6 171.995437 
L 86.6 171.995437 
" style="fill: none; stroke: #7f7f7f; stroke-width: 1.5; stroke-linecap: square"/>
    </g>
    <g id="text_23">
     <!-- 2022-06-14 00:00:00 -->
     <g transform="translate(94.6 175.495437) scale(0.1 -0.1)">
      <use xlink:href="#DejaVuSans-32"/>
      <use xlink:href="#DejaVuSans-30" x="63.623047"/>
      <use xlink:href="#DejaVuSans-32" x="127.246094"/>
      <use xlink:href="#DejaVuSans-32" x="190.869141"/>
      <use xlink:href="#DejaVuSans-2d" x="254.492188"/>
      <use xlink:href="#DejaVuSans-30" x="290.576172"/>
      <use xlink:href="#DejaVuSans-36" x="354.199219"/>
      <use xlink:href="#DejaVuSans-2d" x="417.822266"/>
      <use xlink:href="#DejaVuSans-31" x="453.90625"/>
      <use xlink:href="#DejaVuSans-34" x="517.529297"/>
      <use xlink:href="#DejaVuSans-20" x="581.152344"/>
      <use xlink:href="#DejaVuSans-30" x="612.939453"/>
      <use xlink:href="#DejaVuSans-30" x="676.5625"/>
      <use xlink:href="#DejaVuSans-3a" x="740.185547"/>
      <use xlink:href="#DejaVuSans-30" x="773.876953"/>
      <use xlink:href="#DejaVuSans-30" x="837.5"/>
      <use xlink:href="#DejaVuSans-3a" x="901.123047"/>
      <use xlink:href="#DejaVuSans-30" x="934.814453"/>
      <use xlink:href="#DejaVuSans-30" x="998.4375"/>
     </g>
    </g>
    <g id="line2d_30">
     <path d="M 66.6 186.673563 
L 76.6 186.673563 
L 86.6 186.673563 
" style="fill: none; stroke: #bcbd22; stroke-width: 1.5; stroke-linecap: square"/>
    </g>
    <g id="text_24">
     <!-- 2022-06-21 00:00:00 -->
     <g transform="translate(94.6 190.173563) scale(0.1 -0.1)">
      <use xlink:href="#DejaVuSans-32"/>
      <use xlink:href="#DejaVuSans-30" x="63.623047"/>
      <use xlink:href="#DejaVuSans-32" x="127.246094"/>
      <use xlink:href="#DejaVuSans-32" x="190.869141"/>
      <use xlink:href="#DejaVuSans-2d" x="254.492188"/>
      <use xlink:href="#DejaVuSans-30" x="290.576172"/>
      <use xlink:href="#DejaVuSans-36" x="354.199219"/>
      <use xlink:href="#DejaVuSans-2d" x="417.822266"/>
      <use xlink:href="#DejaVuSans-32" x="453.90625"/>
      <use xlink:href="#DejaVuSans-31" x="517.529297"/>
      <use xlink:href="#DejaVuSans-20" x="581.152344"/>
      <use xlink:href="#DejaVuSans-30" x="612.939453"/>
      <use xlink:href="#DejaVuSans-30" x="676.5625"/>
      <use xlink:href="#DejaVuSans-3a" x="740.185547"/>
      <use xlink:href="#DejaVuSans-30" x="773.876953"/>
      <use xlink:href="#DejaVuSans-30" x="837.5"/>
      <use xlink:href="#DejaVuSans-3a" x="901.123047"/>
      <use xlink:href="#DejaVuSans-30" x="934.814453"/>
      <use xlink:href="#DejaVuSans-30" x="998.4375"/>
     </g>
    </g>
    <g id="line2d_31">
     <path d="M 66.6 201.351687 
L 76.6 201.351687 
L 86.6 201.351687 
" style="fill: none; stroke: #17becf; stroke-width: 1.5; stroke-linecap: square"/>
    </g>
    <g id="text_25">
     <!-- 2022-06-28 00:00:00 -->
     <g transform="translate(94.6 204.851687) scale(0.1 -0.1)">
      <defs>
       <path id="DejaVuSans-38" d="M 2034 2216 
Q 1584 2216 1326 1975 
Q 1069 1734 1069 1313 
Q 1069 891 1326 650 
Q 1584 409 2034 409 
Q 2484 409 2743 651 
Q 3003 894 3003 1313 
Q 3003 1734 2745 1975 
Q 2488 2216 2034 2216 
z
M 1403 2484 
Q 997 2584 770 2862 
Q 544 3141 544 3541 
Q 544 4100 942 4425 
Q 1341 4750 2034 4750 
Q 2731 4750 3128 4425 
Q 3525 4100 3525 3541 
Q 3525 3141 3298 2862 
Q 3072 2584 2669 2484 
Q 3125 2378 3379 2068 
Q 3634 1759 3634 1313 
Q 3634 634 3220 271 
Q 2806 -91 2034 -91 
Q 1263 -91 848 271 
Q 434 634 434 1313 
Q 434 1759 690 2068 
Q 947 2378 1403 2484 
z
M 1172 3481 
Q 1172 3119 1398 2916 
Q 1625 2713 2034 2713 
Q 2441 2713 2670 2916 
Q 2900 3119 2900 3481 
Q 2900 3844 2670 4047 
Q 2441 4250 2034 4250 
Q 1625 4250 1398 4047 
Q 1172 3844 1172 3481 
z
" transform="scale(0.015625)"/>
      </defs>
      <use xlink:href="#DejaVuSans-32"/>
      <use xlink:href="#DejaVuSans-30" x="63.623047"/>
      <use xlink:href="#DejaVuSans-32" x="127.246094"/>
      <use xlink:href="#DejaVuSans-32" x="190.869141"/>
      <use xlink:href="#DejaVuSans-2d" x="254.492188"/>
      <use xlink:href="#DejaVuSans-30" x="290.576172"/>
      <use xlink:href="#DejaVuSans-36" x="354.199219"/>
      <use xlink:href="#DejaVuSans-2d" x="417.822266"/>
      <use xlink:href="#DejaVuSans-32" x="453.90625"/>
      <use xlink:href="#DejaVuSans-38" x="517.529297"/>
      <use xlink:href="#DejaVuSans-20" x="581.152344"/>
      <use xlink:href="#DejaVuSans-30" x="612.939453"/>
      <use xlink:href="#DejaVuSans-30" x="676.5625"/>
      <use xlink:href="#DejaVuSans-3a" x="740.185547"/>
      <use xlink:href="#DejaVuSans-30" x="773.876953"/>
      <use xlink:href="#DejaVuSans-30" x="837.5"/>
      <use xlink:href="#DejaVuSans-3a" x="901.123047"/>
      <use xlink:href="#DejaVuSans-30" x="934.814453"/>
      <use xlink:href="#DejaVuSans-30" x="998.4375"/>
     </g>
    </g>
   </g>
  </g>
 </g>
 <defs>
  <clipPath id="p40e8839e32">
   <rect x="57.6" y="41.472" width="357.12" height="266.112"/>
  </clipPath>
 </defs>
</svg>
