<?xml version="1.0" encoding="utf-8" standalone="no"?>
<!DOCTYPE svg PUBLIC "-//W3C//DTD SVG 1.1//EN"
  "http://www.w3.org/Graphics/SVG/1.1/DTD/svg11.dtd">
<svg xmlns:xlink="http://www.w3.org/1999/xlink" width="460.8pt" height="345.6pt" viewBox="0 0 460.8 345.6" xmlns="http://www.w3.org/2000/svg" version="1.1">
 <metadata>
  <rdf:RDF xmlns:dc="http://purl.org/dc/elements/1.1/" xmlns:cc="http://creativecommons.org/ns#" xmlns:rdf="http://www.w3.org/1999/02/22-rdf-syntax-ns#">
   <cc:Work>
    <dc:type rdf:resource="http://purl.org/dc/dcmitype/StillImage"/>
    <dc:date>2023-07-04T09:23:12.789432</dc:date>
    <dc:format>image/svg+xml</dc:format>
    <dc:creator>
     <cc:Agent>
      <dc:title>Matplotlib v3.7.1, https://matplotlib.org/</dc:title>
     </cc:Agent>
    </dc:creator>
   </cc:Work>
  </rdf:RDF>
 </metadata>
 <defs>
  <style type="text/css">*{stroke-linejoin: round; stroke-linecap: butt}</style>
 </defs>
 <g id="figure_1">
  <g id="patch_1">
   <path d="M 0 345.6 
L 460.8 345.6 
L 460.8 0 
L 0 0 
z
" style="fill: #ffffff"/>
  </g>
  <g id="axes_1">
   <g id="patch_2">
    <path d="M 57.6 307.584 
L 414.72 307.584 
L 414.72 41.472 
L 57.6 41.472 
z
" style="fill: #ffffff"/>
   </g>
   <g id="matplotlib.axis_1">
    <g id="xtick_1">
     <g id="line2d_1">
      <defs>
       <path id="mf2b2b8ed53" d="M 0 0 
L 0 3.5 
" style="stroke: #000000; stroke-width: 0.8"/>
      </defs>
      <g>
       <use xlink:href="#mf2b2b8ed53" x="73.832727" y="307.584" style="stroke: #000000; stroke-width: 0.8"/>
      </g>
     </g>
     <g id="text_1">
      <!-- 0 -->
      <g transform="translate(70.651477 322.182437) scale(0.1 -0.1)">
       <defs>
        <path id="DejaVuSans-30" d="M 2034 4250 
Q 1547 4250 1301 3770 
Q 1056 3291 1056 2328 
Q 1056 1369 1301 889 
Q 1547 409 2034 409 
Q 2525 409 2770 889 
Q 3016 1369 3016 2328 
Q 3016 3291 2770 3770 
Q 2525 4250 2034 4250 
z
M 2034 4750 
Q 2819 4750 3233 4129 
Q 3647 3509 3647 2328 
Q 3647 1150 3233 529 
Q 2819 -91 2034 -91 
Q 1250 -91 836 529 
Q 422 1150 422 2328 
Q 422 3509 836 4129 
Q 1250 4750 2034 4750 
z
" transform="scale(0.015625)"/>
       </defs>
       <use xlink:href="#DejaVuSans-30"/>
      </g>
     </g>
    </g>
    <g id="xtick_2">
     <g id="line2d_2">
      <g>
       <use xlink:href="#mf2b2b8ed53" x="144.409802" y="307.584" style="stroke: #000000; stroke-width: 0.8"/>
      </g>
     </g>
     <g id="text_2">
      <!-- 5 -->
      <g transform="translate(141.228552 322.182437) scale(0.1 -0.1)">
       <defs>
        <path id="DejaVuSans-35" d="M 691 4666 
L 3169 4666 
L 3169 4134 
L 1269 4134 
L 1269 2991 
Q 1406 3038 1543 3061 
Q 1681 3084 1819 3084 
Q 2600 3084 3056 2656 
Q 3513 2228 3513 1497 
Q 3513 744 3044 326 
Q 2575 -91 1722 -91 
Q 1428 -91 1123 -41 
Q 819 9 494 109 
L 494 744 
Q 775 591 1075 516 
Q 1375 441 1709 441 
Q 2250 441 2565 725 
Q 2881 1009 2881 1497 
Q 2881 1984 2565 2268 
Q 2250 2553 1709 2553 
Q 1456 2553 1204 2497 
Q 953 2441 691 2322 
L 691 4666 
z
" transform="scale(0.015625)"/>
       </defs>
       <use xlink:href="#DejaVuSans-35"/>
      </g>
     </g>
    </g>
    <g id="xtick_3">
     <g id="line2d_3">
      <g>
       <use xlink:href="#mf2b2b8ed53" x="214.986877" y="307.584" style="stroke: #000000; stroke-width: 0.8"/>
      </g>
     </g>
     <g id="text_3">
      <!-- 10 -->
      <g transform="translate(208.624377 322.182437) scale(0.1 -0.1)">
       <defs>
        <path id="DejaVuSans-31" d="M 794 531 
L 1825 531 
L 1825 4091 
L 703 3866 
L 703 4441 
L 1819 4666 
L 2450 4666 
L 2450 531 
L 3481 531 
L 3481 0 
L 794 0 
L 794 531 
z
" transform="scale(0.015625)"/>
       </defs>
       <use xlink:href="#DejaVuSans-31"/>
       <use xlink:href="#DejaVuSans-30" x="63.623047"/>
      </g>
     </g>
    </g>
    <g id="xtick_4">
     <g id="line2d_4">
      <g>
       <use xlink:href="#mf2b2b8ed53" x="285.563953" y="307.584" style="stroke: #000000; stroke-width: 0.8"/>
      </g>
     </g>
     <g id="text_4">
      <!-- 15 -->
      <g transform="translate(279.201453 322.182437) scale(0.1 -0.1)">
       <use xlink:href="#DejaVuSans-31"/>
       <use xlink:href="#DejaVuSans-35" x="63.623047"/>
      </g>
     </g>
    </g>
    <g id="xtick_5">
     <g id="line2d_5">
      <g>
       <use xlink:href="#mf2b2b8ed53" x="356.141028" y="307.584" style="stroke: #000000; stroke-width: 0.8"/>
      </g>
     </g>
     <g id="text_5">
      <!-- 20 -->
      <g transform="translate(349.778528 322.182437) scale(0.1 -0.1)">
       <defs>
        <path id="DejaVuSans-32" d="M 1228 531 
L 3431 531 
L 3431 0 
L 469 0 
L 469 531 
Q 828 903 1448 1529 
Q 2069 2156 2228 2338 
Q 2531 2678 2651 2914 
Q 2772 3150 2772 3378 
Q 2772 3750 2511 3984 
Q 2250 4219 1831 4219 
Q 1534 4219 1204 4116 
Q 875 4013 500 3803 
L 500 4441 
Q 881 4594 1212 4672 
Q 1544 4750 1819 4750 
Q 2544 4750 2975 4387 
Q 3406 4025 3406 3419 
Q 3406 3131 3298 2873 
Q 3191 2616 2906 2266 
Q 2828 2175 2409 1742 
Q 1991 1309 1228 531 
z
" transform="scale(0.015625)"/>
       </defs>
       <use xlink:href="#DejaVuSans-32"/>
       <use xlink:href="#DejaVuSans-30" x="63.623047"/>
      </g>
     </g>
    </g>
    <g id="text_6">
     <!-- Time -->
     <g transform="translate(223.926406 335.860562) scale(0.1 -0.1)">
      <defs>
       <path id="DejaVuSans-54" d="M -19 4666 
L 3928 4666 
L 3928 4134 
L 2272 4134 
L 2272 0 
L 1638 0 
L 1638 4134 
L -19 4134 
L -19 4666 
z
" transform="scale(0.015625)"/>
       <path id="DejaVuSans-69" d="M 603 3500 
L 1178 3500 
L 1178 0 
L 603 0 
L 603 3500 
z
M 603 4863 
L 1178 4863 
L 1178 4134 
L 603 4134 
L 603 4863 
z
" transform="scale(0.015625)"/>
       <path id="DejaVuSans-6d" d="M 3328 2828 
Q 3544 3216 3844 3400 
Q 4144 3584 4550 3584 
Q 5097 3584 5394 3201 
Q 5691 2819 5691 2113 
L 5691 0 
L 5113 0 
L 5113 2094 
Q 5113 2597 4934 2840 
Q 4756 3084 4391 3084 
Q 3944 3084 3684 2787 
Q 3425 2491 3425 1978 
L 3425 0 
L 2847 0 
L 2847 2094 
Q 2847 2600 2669 2842 
Q 2491 3084 2119 3084 
Q 1678 3084 1418 2786 
Q 1159 2488 1159 1978 
L 1159 0 
L 581 0 
L 581 3500 
L 1159 3500 
L 1159 2956 
Q 1356 3278 1631 3431 
Q 1906 3584 2284 3584 
Q 2666 3584 2933 3390 
Q 3200 3197 3328 2828 
z
" transform="scale(0.015625)"/>
       <path id="DejaVuSans-65" d="M 3597 1894 
L 3597 1613 
L 953 1613 
Q 991 1019 1311 708 
Q 1631 397 2203 397 
Q 2534 397 2845 478 
Q 3156 559 3463 722 
L 3463 178 
Q 3153 47 2828 -22 
Q 2503 -91 2169 -91 
Q 1331 -91 842 396 
Q 353 884 353 1716 
Q 353 2575 817 3079 
Q 1281 3584 2069 3584 
Q 2775 3584 3186 3129 
Q 3597 2675 3597 1894 
z
M 3022 2063 
Q 3016 2534 2758 2815 
Q 2500 3097 2075 3097 
Q 1594 3097 1305 2825 
Q 1016 2553 972 2059 
L 3022 2063 
z
" transform="scale(0.015625)"/>
      </defs>
      <use xlink:href="#DejaVuSans-54"/>
      <use xlink:href="#DejaVuSans-69" x="57.958984"/>
      <use xlink:href="#DejaVuSans-6d" x="85.742188"/>
      <use xlink:href="#DejaVuSans-65" x="183.154297"/>
     </g>
    </g>
   </g>
   <g id="matplotlib.axis_2">
    <g id="ytick_1">
     <g id="line2d_6">
      <defs>
       <path id="me151a4c13d" d="M 0 0 
L -3.5 0 
" style="stroke: #000000; stroke-width: 0.8"/>
      </defs>
      <g>
       <use xlink:href="#me151a4c13d" x="57.6" y="302.999283" style="stroke: #000000; stroke-width: 0.8"/>
      </g>
     </g>
     <g id="text_7">
      <!-- 0 -->
      <g transform="translate(44.2375 306.798502) scale(0.1 -0.1)">
       <use xlink:href="#DejaVuSans-30"/>
      </g>
     </g>
    </g>
    <g id="ytick_2">
     <g id="line2d_7">
      <g>
       <use xlink:href="#me151a4c13d" x="57.6" y="255.75851" style="stroke: #000000; stroke-width: 0.8"/>
      </g>
     </g>
     <g id="text_8">
      <!-- 1000 -->
      <g transform="translate(25.15 259.557728) scale(0.1 -0.1)">
       <use xlink:href="#DejaVuSans-31"/>
       <use xlink:href="#DejaVuSans-30" x="63.623047"/>
       <use xlink:href="#DejaVuSans-30" x="127.246094"/>
       <use xlink:href="#DejaVuSans-30" x="190.869141"/>
      </g>
     </g>
    </g>
    <g id="ytick_3">
     <g id="line2d_8">
      <g>
       <use xlink:href="#me151a4c13d" x="57.6" y="208.517736" style="stroke: #000000; stroke-width: 0.8"/>
      </g>
     </g>
     <g id="text_9">
      <!-- 2000 -->
      <g transform="translate(25.15 212.316955) scale(0.1 -0.1)">
       <use xlink:href="#DejaVuSans-32"/>
       <use xlink:href="#DejaVuSans-30" x="63.623047"/>
       <use xlink:href="#DejaVuSans-30" x="127.246094"/>
       <use xlink:href="#DejaVuSans-30" x="190.869141"/>
      </g>
     </g>
    </g>
    <g id="ytick_4">
     <g id="line2d_9">
      <g>
       <use xlink:href="#me151a4c13d" x="57.6" y="161.276963" style="stroke: #000000; stroke-width: 0.8"/>
      </g>
     </g>
     <g id="text_10">
      <!-- 3000 -->
      <g transform="translate(25.15 165.076182) scale(0.1 -0.1)">
       <defs>
        <path id="DejaVuSans-33" d="M 2597 2516 
Q 3050 2419 3304 2112 
Q 3559 1806 3559 1356 
Q 3559 666 3084 287 
Q 2609 -91 1734 -91 
Q 1441 -91 1130 -33 
Q 819 25 488 141 
L 488 750 
Q 750 597 1062 519 
Q 1375 441 1716 441 
Q 2309 441 2620 675 
Q 2931 909 2931 1356 
Q 2931 1769 2642 2001 
Q 2353 2234 1838 2234 
L 1294 2234 
L 1294 2753 
L 1863 2753 
Q 2328 2753 2575 2939 
Q 2822 3125 2822 3475 
Q 2822 3834 2567 4026 
Q 2313 4219 1838 4219 
Q 1578 4219 1281 4162 
Q 984 4106 628 3988 
L 628 4550 
Q 988 4650 1302 4700 
Q 1616 4750 1894 4750 
Q 2613 4750 3031 4423 
Q 3450 4097 3450 3541 
Q 3450 3153 3228 2886 
Q 3006 2619 2597 2516 
z
" transform="scale(0.015625)"/>
       </defs>
       <use xlink:href="#DejaVuSans-33"/>
       <use xlink:href="#DejaVuSans-30" x="63.623047"/>
       <use xlink:href="#DejaVuSans-30" x="127.246094"/>
       <use xlink:href="#DejaVuSans-30" x="190.869141"/>
      </g>
     </g>
    </g>
    <g id="ytick_5">
     <g id="line2d_10">
      <g>
       <use xlink:href="#me151a4c13d" x="57.6" y="114.03619" style="stroke: #000000; stroke-width: 0.8"/>
      </g>
     </g>
     <g id="text_11">
      <!-- 4000 -->
      <g transform="translate(25.15 117.835409) scale(0.1 -0.1)">
       <defs>
        <path id="DejaVuSans-34" d="M 2419 4116 
L 825 1625 
L 2419 1625 
L 2419 4116 
z
M 2253 4666 
L 3047 4666 
L 3047 1625 
L 3713 1625 
L 3713 1100 
L 3047 1100 
L 3047 0 
L 2419 0 
L 2419 1100 
L 313 1100 
L 313 1709 
L 2253 4666 
z
" transform="scale(0.015625)"/>
       </defs>
       <use xlink:href="#DejaVuSans-34"/>
       <use xlink:href="#DejaVuSans-30" x="63.623047"/>
       <use xlink:href="#DejaVuSans-30" x="127.246094"/>
       <use xlink:href="#DejaVuSans-30" x="190.869141"/>
      </g>
     </g>
    </g>
    <g id="ytick_6">
     <g id="line2d_11">
      <g>
       <use xlink:href="#me151a4c13d" x="57.6" y="66.795417" style="stroke: #000000; stroke-width: 0.8"/>
      </g>
     </g>
     <g id="text_12">
      <!-- 5000 -->
      <g transform="translate(25.15 70.594635) scale(0.1 -0.1)">
       <use xlink:href="#DejaVuSans-35"/>
       <use xlink:href="#DejaVuSans-30" x="63.623047"/>
       <use xlink:href="#DejaVuSans-30" x="127.246094"/>
       <use xlink:href="#DejaVuSans-30" x="190.869141"/>
      </g>
     </g>
    </g>
    <g id="text_13">
     <!-- Amount of Devices -->
     <g transform="translate(19.070312 221.878781) rotate(-90) scale(0.1 -0.1)">
      <defs>
       <path id="DejaVuSans-41" d="M 2188 4044 
L 1331 1722 
L 3047 1722 
L 2188 4044 
z
M 1831 4666 
L 2547 4666 
L 4325 0 
L 3669 0 
L 3244 1197 
L 1141 1197 
L 716 0 
L 50 0 
L 1831 4666 
z
" transform="scale(0.015625)"/>
       <path id="DejaVuSans-6f" d="M 1959 3097 
Q 1497 3097 1228 2736 
Q 959 2375 959 1747 
Q 959 1119 1226 758 
Q 1494 397 1959 397 
Q 2419 397 2687 759 
Q 2956 1122 2956 1747 
Q 2956 2369 2687 2733 
Q 2419 3097 1959 3097 
z
M 1959 3584 
Q 2709 3584 3137 3096 
Q 3566 2609 3566 1747 
Q 3566 888 3137 398 
Q 2709 -91 1959 -91 
Q 1206 -91 779 398 
Q 353 888 353 1747 
Q 353 2609 779 3096 
Q 1206 3584 1959 3584 
z
" transform="scale(0.015625)"/>
       <path id="DejaVuSans-75" d="M 544 1381 
L 544 3500 
L 1119 3500 
L 1119 1403 
Q 1119 906 1312 657 
Q 1506 409 1894 409 
Q 2359 409 2629 706 
Q 2900 1003 2900 1516 
L 2900 3500 
L 3475 3500 
L 3475 0 
L 2900 0 
L 2900 538 
Q 2691 219 2414 64 
Q 2138 -91 1772 -91 
Q 1169 -91 856 284 
Q 544 659 544 1381 
z
M 1991 3584 
L 1991 3584 
z
" transform="scale(0.015625)"/>
       <path id="DejaVuSans-6e" d="M 3513 2113 
L 3513 0 
L 2938 0 
L 2938 2094 
Q 2938 2591 2744 2837 
Q 2550 3084 2163 3084 
Q 1697 3084 1428 2787 
Q 1159 2491 1159 1978 
L 1159 0 
L 581 0 
L 581 3500 
L 1159 3500 
L 1159 2956 
Q 1366 3272 1645 3428 
Q 1925 3584 2291 3584 
Q 2894 3584 3203 3211 
Q 3513 2838 3513 2113 
z
" transform="scale(0.015625)"/>
       <path id="DejaVuSans-74" d="M 1172 4494 
L 1172 3500 
L 2356 3500 
L 2356 3053 
L 1172 3053 
L 1172 1153 
Q 1172 725 1289 603 
Q 1406 481 1766 481 
L 2356 481 
L 2356 0 
L 1766 0 
Q 1100 0 847 248 
Q 594 497 594 1153 
L 594 3053 
L 172 3053 
L 172 3500 
L 594 3500 
L 594 4494 
L 1172 4494 
z
" transform="scale(0.015625)"/>
       <path id="DejaVuSans-20" transform="scale(0.015625)"/>
       <path id="DejaVuSans-66" d="M 2375 4863 
L 2375 4384 
L 1825 4384 
Q 1516 4384 1395 4259 
Q 1275 4134 1275 3809 
L 1275 3500 
L 2222 3500 
L 2222 3053 
L 1275 3053 
L 1275 0 
L 697 0 
L 697 3053 
L 147 3053 
L 147 3500 
L 697 3500 
L 697 3744 
Q 697 4328 969 4595 
Q 1241 4863 1831 4863 
L 2375 4863 
z
" transform="scale(0.015625)"/>
       <path id="DejaVuSans-44" d="M 1259 4147 
L 1259 519 
L 2022 519 
Q 2988 519 3436 956 
Q 3884 1394 3884 2338 
Q 3884 3275 3436 3711 
Q 2988 4147 2022 4147 
L 1259 4147 
z
M 628 4666 
L 1925 4666 
Q 3281 4666 3915 4102 
Q 4550 3538 4550 2338 
Q 4550 1131 3912 565 
Q 3275 0 1925 0 
L 628 0 
L 628 4666 
z
" transform="scale(0.015625)"/>
       <path id="DejaVuSans-76" d="M 191 3500 
L 800 3500 
L 1894 563 
L 2988 3500 
L 3597 3500 
L 2284 0 
L 1503 0 
L 191 3500 
z
" transform="scale(0.015625)"/>
       <path id="DejaVuSans-63" d="M 3122 3366 
L 3122 2828 
Q 2878 2963 2633 3030 
Q 2388 3097 2138 3097 
Q 1578 3097 1268 2742 
Q 959 2388 959 1747 
Q 959 1106 1268 751 
Q 1578 397 2138 397 
Q 2388 397 2633 464 
Q 2878 531 3122 666 
L 3122 134 
Q 2881 22 2623 -34 
Q 2366 -91 2075 -91 
Q 1284 -91 818 406 
Q 353 903 353 1747 
Q 353 2603 823 3093 
Q 1294 3584 2113 3584 
Q 2378 3584 2631 3529 
Q 2884 3475 3122 3366 
z
" transform="scale(0.015625)"/>
       <path id="DejaVuSans-73" d="M 2834 3397 
L 2834 2853 
Q 2591 2978 2328 3040 
Q 2066 3103 1784 3103 
Q 1356 3103 1142 2972 
Q 928 2841 928 2578 
Q 928 2378 1081 2264 
Q 1234 2150 1697 2047 
L 1894 2003 
Q 2506 1872 2764 1633 
Q 3022 1394 3022 966 
Q 3022 478 2636 193 
Q 2250 -91 1575 -91 
Q 1294 -91 989 -36 
Q 684 19 347 128 
L 347 722 
Q 666 556 975 473 
Q 1284 391 1588 391 
Q 1994 391 2212 530 
Q 2431 669 2431 922 
Q 2431 1156 2273 1281 
Q 2116 1406 1581 1522 
L 1381 1569 
Q 847 1681 609 1914 
Q 372 2147 372 2553 
Q 372 3047 722 3315 
Q 1072 3584 1716 3584 
Q 2034 3584 2315 3537 
Q 2597 3491 2834 3397 
z
" transform="scale(0.015625)"/>
      </defs>
      <use xlink:href="#DejaVuSans-41"/>
      <use xlink:href="#DejaVuSans-6d" x="68.408203"/>
      <use xlink:href="#DejaVuSans-6f" x="165.820312"/>
      <use xlink:href="#DejaVuSans-75" x="227.001953"/>
      <use xlink:href="#DejaVuSans-6e" x="290.380859"/>
      <use xlink:href="#DejaVuSans-74" x="353.759766"/>
      <use xlink:href="#DejaVuSans-20" x="392.96875"/>
      <use xlink:href="#DejaVuSans-6f" x="424.755859"/>
      <use xlink:href="#DejaVuSans-66" x="485.9375"/>
      <use xlink:href="#DejaVuSans-20" x="521.142578"/>
      <use xlink:href="#DejaVuSans-44" x="552.929688"/>
      <use xlink:href="#DejaVuSans-65" x="629.931641"/>
      <use xlink:href="#DejaVuSans-76" x="691.455078"/>
      <use xlink:href="#DejaVuSans-69" x="750.634766"/>
      <use xlink:href="#DejaVuSans-63" x="778.417969"/>
      <use xlink:href="#DejaVuSans-65" x="833.398438"/>
      <use xlink:href="#DejaVuSans-73" x="894.921875"/>
     </g>
    </g>
   </g>
   <g id="line2d_12">
    <path d="M 73.832727 269.977982 
L 87.948142 276.922376 
L 102.063557 290.952886 
L 116.178972 293.267684 
L 130.294387 295.488 
L 144.409802 288.732569 
L 158.525217 265.206664 
L 172.640632 180.03155 
L 186.756047 89.707192 
L 200.871462 156.269441 
L 214.986877 180.173272 
L 229.102292 176.819178 
L 243.217708 147.151972 
L 257.333123 151.970531 
L 271.448538 167.087578 
L 285.563953 164.867262 
L 299.679368 151.876049 
L 313.794783 99.108105 
L 327.910198 110.39865 
L 342.025613 112.146559 
L 356.141028 141.766524 
L 370.256443 167.371023 
L 384.371858 199.636471 
L 398.487273 218.580021 
" clip-path="url(#p0a9551ff15)" style="fill: none; stroke: #1f77b4; stroke-width: 1.5; stroke-linecap: square"/>
   </g>
   <g id="line2d_13">
    <path d="M 73.832727 257.6009 
L 87.948142 277.867192 
L 102.063557 284.197455 
L 116.178972 289.299459 
L 130.294387 294.165258 
L 144.409802 291.378053 
L 158.525217 268.182833 
L 172.640632 209.226348 
L 186.756047 139.971374 
L 200.871462 180.834643 
L 214.986877 207.950847 
L 229.102292 202.329195 
L 243.217708 193.117244 
L 257.333123 189.668668 
L 271.448538 189.857631 
L 285.563953 178.378123 
L 299.679368 159.718018 
L 313.794783 121.452991 
L 327.910198 105.48561 
L 342.025613 123.578826 
L 356.141028 139.546207 
L 370.256443 161.607649 
L 384.371858 200.675768 
L 398.487273 212.674924 
" clip-path="url(#p0a9551ff15)" style="fill: none; stroke: #ff7f0e; stroke-width: 1.5; stroke-linecap: square"/>
   </g>
   <g id="line2d_14">
    <path d="M 73.832727 255.75851 
L 87.948142 274.985504 
L 102.063557 284.669863 
L 116.178972 290.102552 
L 130.294387 291.85046 
L 144.409802 282.921954 
L 158.525217 253.91612 
L 172.640632 173.228879 
L 186.756047 80.353518 
L 200.871462 156.2222 
L 214.986877 180.598439 
L 229.102292 159.103888 
L 243.217708 141.388598 
L 257.333123 156.600127 
L 271.448538 163.497279 
L 285.563953 156.741849 
L 299.679368 119.279916 
L 313.794783 102.651163 
L 327.910198 75.629441 
L 342.025613 98.257772 
L 356.141028 117.626489 
L 370.256443 137.325891 
L 384.371858 176.299529 
L 398.487273 188.062482 
" clip-path="url(#p0a9551ff15)" style="fill: none; stroke: #2ca02c; stroke-width: 1.5; stroke-linecap: square"/>
   </g>
   <g id="line2d_15">
    <path d="M 73.832727 259.301568 
L 87.948142 275.174467 
L 102.063557 286.653975 
L 116.178972 290.716682 
L 130.294387 293.456647 
L 144.409802 284.433659 
L 158.525217 258.403993 
L 172.640632 171.48097 
L 186.756047 80.495241 
L 200.871462 140.349301 
L 214.986877 173.93749 
L 229.102292 151.403641 
L 243.217708 126.035346 
L 257.333123 140.065856 
L 271.448538 138.743114 
L 285.563953 137.27865 
L 299.679368 119.846805 
L 313.794783 70.763641 
L 327.910198 53.568 
L 342.025613 73.172921 
L 356.141028 96.462622 
L 370.256443 110.918299 
L 384.371858 148.710917 
L 398.487273 180.787402 
" clip-path="url(#p0a9551ff15)" style="fill: none; stroke: #d62728; stroke-width: 1.5; stroke-linecap: square"/>
   </g>
   <g id="line2d_16">
    <path d="M 73.832727 259.821216 
L 87.948142 267.710425 
L 102.063557 281.504731 
L 116.178972 288.921533 
L 130.294387 292.984239 
L 144.409802 285.898123 
L 158.525217 257.978826 
L 172.640632 179.700865 
L 186.756047 100.336366 
L 200.871462 157.497701 
L 214.986877 173.748527 
L 229.102292 167.937912 
L 243.217708 128.491866 
L 257.333123 144.317525 
L 271.448538 143.042025 
L 285.563953 144.317525 
L 299.679368 126.980162 
L 313.794783 63.34684 
L 327.910198 63.016155 
L 342.025613 64.858545 
L 356.141028 100.714292 
L 370.256443 135.247297 
L 384.371858 162.694186 
L 398.487273 181.118088 
" clip-path="url(#p0a9551ff15)" style="fill: none; stroke: #9467bd; stroke-width: 1.5; stroke-linecap: square"/>
   </g>
   <g id="line2d_17">
    <path d="M 73.832727 255.002657 
L 87.948142 276.54445 
L 102.063557 284.197455 
L 116.178972 292.41735 
L 130.294387 294.826629 
L 144.409802 286.32329 
L 158.525217 261.096717 
L 172.640632 169.544098 
L 186.756047 81.629019 
L 200.871462 149.325047 
L 214.986877 170.86684 
L 229.102292 156.741849 
L 243.217708 126.224309 
L 257.333123 132.318369 
L 271.448538 143.892359 
L 285.563953 135.955909 
L 299.679368 118.996471 
L 313.794783 83.329687 
L 327.910198 62.685469 
L 342.025613 69.299178 
L 356.141028 111.768633 
L 370.256443 131.893202 
L 384.371858 151.876049 
L 398.487273 180.64568 
" clip-path="url(#p0a9551ff15)" style="fill: none; stroke: #8c564b; stroke-width: 1.5; stroke-linecap: square"/>
   </g>
   <g id="patch_3">
    <path d="M 57.6 307.584 
L 57.6 41.472 
" style="fill: none; stroke: #000000; stroke-width: 0.8; stroke-linejoin: miter; stroke-linecap: square"/>
   </g>
   <g id="patch_4">
    <path d="M 414.72 307.584 
L 414.72 41.472 
" style="fill: none; stroke: #000000; stroke-width: 0.8; stroke-linejoin: miter; stroke-linecap: square"/>
   </g>
   <g id="patch_5">
    <path d="M 57.6 307.584 
L 414.72 307.584 
" style="fill: none; stroke: #000000; stroke-width: 0.8; stroke-linejoin: miter; stroke-linecap: square"/>
   </g>
   <g id="patch_6">
    <path d="M 57.6 41.472 
L 414.72 41.472 
" style="fill: none; stroke: #000000; stroke-width: 0.8; stroke-linejoin: miter; stroke-linecap: square"/>
   </g>
   <g id="text_14">
    <!-- Amount of Devices by Time at p004 (4) -->
    <g transform="translate(117.974063 35.472) scale(0.12 -0.12)">
     <defs>
      <path id="DejaVuSans-62" d="M 3116 1747 
Q 3116 2381 2855 2742 
Q 2594 3103 2138 3103 
Q 1681 3103 1420 2742 
Q 1159 2381 1159 1747 
Q 1159 1113 1420 752 
Q 1681 391 2138 391 
Q 2594 391 2855 752 
Q 3116 1113 3116 1747 
z
M 1159 2969 
Q 1341 3281 1617 3432 
Q 1894 3584 2278 3584 
Q 2916 3584 3314 3078 
Q 3713 2572 3713 1747 
Q 3713 922 3314 415 
Q 2916 -91 2278 -91 
Q 1894 -91 1617 61 
Q 1341 213 1159 525 
L 1159 0 
L 581 0 
L 581 4863 
L 1159 4863 
L 1159 2969 
z
" transform="scale(0.015625)"/>
      <path id="DejaVuSans-79" d="M 2059 -325 
Q 1816 -950 1584 -1140 
Q 1353 -1331 966 -1331 
L 506 -1331 
L 506 -850 
L 844 -850 
Q 1081 -850 1212 -737 
Q 1344 -625 1503 -206 
L 1606 56 
L 191 3500 
L 800 3500 
L 1894 763 
L 2988 3500 
L 3597 3500 
L 2059 -325 
z
" transform="scale(0.015625)"/>
      <path id="DejaVuSans-61" d="M 2194 1759 
Q 1497 1759 1228 1600 
Q 959 1441 959 1056 
Q 959 750 1161 570 
Q 1363 391 1709 391 
Q 2188 391 2477 730 
Q 2766 1069 2766 1631 
L 2766 1759 
L 2194 1759 
z
M 3341 1997 
L 3341 0 
L 2766 0 
L 2766 531 
Q 2569 213 2275 61 
Q 1981 -91 1556 -91 
Q 1019 -91 701 211 
Q 384 513 384 1019 
Q 384 1609 779 1909 
Q 1175 2209 1959 2209 
L 2766 2209 
L 2766 2266 
Q 2766 2663 2505 2880 
Q 2244 3097 1772 3097 
Q 1472 3097 1187 3025 
Q 903 2953 641 2809 
L 641 3341 
Q 956 3463 1253 3523 
Q 1550 3584 1831 3584 
Q 2591 3584 2966 3190 
Q 3341 2797 3341 1997 
z
" transform="scale(0.015625)"/>
      <path id="DejaVuSans-70" d="M 1159 525 
L 1159 -1331 
L 581 -1331 
L 581 3500 
L 1159 3500 
L 1159 2969 
Q 1341 3281 1617 3432 
Q 1894 3584 2278 3584 
Q 2916 3584 3314 3078 
Q 3713 2572 3713 1747 
Q 3713 922 3314 415 
Q 2916 -91 2278 -91 
Q 1894 -91 1617 61 
Q 1341 213 1159 525 
z
M 3116 1747 
Q 3116 2381 2855 2742 
Q 2594 3103 2138 3103 
Q 1681 3103 1420 2742 
Q 1159 2381 1159 1747 
Q 1159 1113 1420 752 
Q 1681 391 2138 391 
Q 2594 391 2855 752 
Q 3116 1113 3116 1747 
z
" transform="scale(0.015625)"/>
      <path id="DejaVuSans-28" d="M 1984 4856 
Q 1566 4138 1362 3434 
Q 1159 2731 1159 2009 
Q 1159 1288 1364 580 
Q 1569 -128 1984 -844 
L 1484 -844 
Q 1016 -109 783 600 
Q 550 1309 550 2009 
Q 550 2706 781 3412 
Q 1013 4119 1484 4856 
L 1984 4856 
z
" transform="scale(0.015625)"/>
      <path id="DejaVuSans-29" d="M 513 4856 
L 1013 4856 
Q 1481 4119 1714 3412 
Q 1947 2706 1947 2009 
Q 1947 1309 1714 600 
Q 1481 -109 1013 -844 
L 513 -844 
Q 928 -128 1133 580 
Q 1338 1288 1338 2009 
Q 1338 2731 1133 3434 
Q 928 4138 513 4856 
z
" transform="scale(0.015625)"/>
     </defs>
     <use xlink:href="#DejaVuSans-41"/>
     <use xlink:href="#DejaVuSans-6d" x="68.408203"/>
     <use xlink:href="#DejaVuSans-6f" x="165.820312"/>
     <use xlink:href="#DejaVuSans-75" x="227.001953"/>
     <use xlink:href="#DejaVuSans-6e" x="290.380859"/>
     <use xlink:href="#DejaVuSans-74" x="353.759766"/>
     <use xlink:href="#DejaVuSans-20" x="392.96875"/>
     <use xlink:href="#DejaVuSans-6f" x="424.755859"/>
     <use xlink:href="#DejaVuSans-66" x="485.9375"/>
     <use xlink:href="#DejaVuSans-20" x="521.142578"/>
     <use xlink:href="#DejaVuSans-44" x="552.929688"/>
     <use xlink:href="#DejaVuSans-65" x="629.931641"/>
     <use xlink:href="#DejaVuSans-76" x="691.455078"/>
     <use xlink:href="#DejaVuSans-69" x="750.634766"/>
     <use xlink:href="#DejaVuSans-63" x="778.417969"/>
     <use xlink:href="#DejaVuSans-65" x="833.398438"/>
     <use xlink:href="#DejaVuSans-73" x="894.921875"/>
     <use xlink:href="#DejaVuSans-20" x="947.021484"/>
     <use xlink:href="#DejaVuSans-62" x="978.808594"/>
     <use xlink:href="#DejaVuSans-79" x="1042.285156"/>
     <use xlink:href="#DejaVuSans-20" x="1101.464844"/>
     <use xlink:href="#DejaVuSans-54" x="1133.251953"/>
     <use xlink:href="#DejaVuSans-69" x="1191.210938"/>
     <use xlink:href="#DejaVuSans-6d" x="1218.994141"/>
     <use xlink:href="#DejaVuSans-65" x="1316.40625"/>
     <use xlink:href="#DejaVuSans-20" x="1377.929688"/>
     <use xlink:href="#DejaVuSans-61" x="1409.716797"/>
     <use xlink:href="#DejaVuSans-74" x="1470.996094"/>
     <use xlink:href="#DejaVuSans-20" x="1510.205078"/>
     <use xlink:href="#DejaVuSans-70" x="1541.992188"/>
     <use xlink:href="#DejaVuSans-30" x="1605.46875"/>
     <use xlink:href="#DejaVuSans-30" x="1669.091797"/>
     <use xlink:href="#DejaVuSans-34" x="1732.714844"/>
     <use xlink:href="#DejaVuSans-20" x="1796.337891"/>
     <use xlink:href="#DejaVuSans-28" x="1828.125"/>
     <use xlink:href="#DejaVuSans-34" x="1867.138672"/>
     <use xlink:href="#DejaVuSans-29" x="1930.761719"/>
    </g>
   </g>
   <g id="legend_1">
    <g id="patch_7">
     <path d="M 269.51375 302.584 
L 407.72 302.584 
Q 409.72 302.584 409.72 300.584 
L 409.72 198.837125 
Q 409.72 196.837125 407.72 196.837125 
L 269.51375 196.837125 
Q 267.51375 196.837125 267.51375 198.837125 
L 267.51375 300.584 
Q 267.51375 302.584 269.51375 302.584 
z
" style="fill: #ffffff; opacity: 0.8; stroke: #cccccc; stroke-linejoin: miter"/>
    </g>
    <g id="text_15">
     <!-- datetime -->
     <g transform="translate(316.045781 208.435563) scale(0.1 -0.1)">
      <defs>
       <path id="DejaVuSans-64" d="M 2906 2969 
L 2906 4863 
L 3481 4863 
L 3481 0 
L 2906 0 
L 2906 525 
Q 2725 213 2448 61 
Q 2172 -91 1784 -91 
Q 1150 -91 751 415 
Q 353 922 353 1747 
Q 353 2572 751 3078 
Q 1150 3584 1784 3584 
Q 2172 3584 2448 3432 
Q 2725 3281 2906 2969 
z
M 947 1747 
Q 947 1113 1208 752 
Q 1469 391 1925 391 
Q 2381 391 2643 752 
Q 2906 1113 2906 1747 
Q 2906 2381 2643 2742 
Q 2381 3103 1925 3103 
Q 1469 3103 1208 2742 
Q 947 2381 947 1747 
z
" transform="scale(0.015625)"/>
      </defs>
      <use xlink:href="#DejaVuSans-64"/>
      <use xlink:href="#DejaVuSans-61" x="63.476562"/>
      <use xlink:href="#DejaVuSans-74" x="124.755859"/>
      <use xlink:href="#DejaVuSans-65" x="163.964844"/>
      <use xlink:href="#DejaVuSans-74" x="225.488281"/>
      <use xlink:href="#DejaVuSans-69" x="264.697266"/>
      <use xlink:href="#DejaVuSans-6d" x="292.480469"/>
      <use xlink:href="#DejaVuSans-65" x="389.892578"/>
     </g>
    </g>
    <g id="line2d_18">
     <path d="M 271.51375 219.613688 
L 281.51375 219.613688 
L 291.51375 219.613688 
" style="fill: none; stroke: #1f77b4; stroke-width: 1.5; stroke-linecap: square"/>
    </g>
    <g id="text_16">
     <!-- 2022-05-13 00:00:00 -->
     <g transform="translate(299.51375 223.113688) scale(0.1 -0.1)">
      <defs>
       <path id="DejaVuSans-2d" d="M 313 2009 
L 1997 2009 
L 1997 1497 
L 313 1497 
L 313 2009 
z
" transform="scale(0.015625)"/>
       <path id="DejaVuSans-3a" d="M 750 794 
L 1409 794 
L 1409 0 
L 750 0 
L 750 794 
z
M 750 3309 
L 1409 3309 
L 1409 2516 
L 750 2516 
L 750 3309 
z
" transform="scale(0.015625)"/>
      </defs>
      <use xlink:href="#DejaVuSans-32"/>
      <use xlink:href="#DejaVuSans-30" x="63.623047"/>
      <use xlink:href="#DejaVuSans-32" x="127.246094"/>
      <use xlink:href="#DejaVuSans-32" x="190.869141"/>
      <use xlink:href="#DejaVuSans-2d" x="254.492188"/>
      <use xlink:href="#DejaVuSans-30" x="290.576172"/>
      <use xlink:href="#DejaVuSans-35" x="354.199219"/>
      <use xlink:href="#DejaVuSans-2d" x="417.822266"/>
      <use xlink:href="#DejaVuSans-31" x="453.90625"/>
      <use xlink:href="#DejaVuSans-33" x="517.529297"/>
      <use xlink:href="#DejaVuSans-20" x="581.152344"/>
      <use xlink:href="#DejaVuSans-30" x="612.939453"/>
      <use xlink:href="#DejaVuSans-30" x="676.5625"/>
      <use xlink:href="#DejaVuSans-3a" x="740.185547"/>
      <use xlink:href="#DejaVuSans-30" x="773.876953"/>
      <use xlink:href="#DejaVuSans-30" x="837.5"/>
      <use xlink:href="#DejaVuSans-3a" x="901.123047"/>
      <use xlink:href="#DejaVuSans-30" x="934.814453"/>
      <use xlink:href="#DejaVuSans-30" x="998.4375"/>
     </g>
    </g>
    <g id="line2d_19">
     <path d="M 271.51375 234.291813 
L 281.51375 234.291813 
L 291.51375 234.291813 
" style="fill: none; stroke: #ff7f0e; stroke-width: 1.5; stroke-linecap: square"/>
    </g>
    <g id="text_17">
     <!-- 2022-05-27 00:00:00 -->
     <g transform="translate(299.51375 237.791813) scale(0.1 -0.1)">
      <defs>
       <path id="DejaVuSans-37" d="M 525 4666 
L 3525 4666 
L 3525 4397 
L 1831 0 
L 1172 0 
L 2766 4134 
L 525 4134 
L 525 4666 
z
" transform="scale(0.015625)"/>
      </defs>
      <use xlink:href="#DejaVuSans-32"/>
      <use xlink:href="#DejaVuSans-30" x="63.623047"/>
      <use xlink:href="#DejaVuSans-32" x="127.246094"/>
      <use xlink:href="#DejaVuSans-32" x="190.869141"/>
      <use xlink:href="#DejaVuSans-2d" x="254.492188"/>
      <use xlink:href="#DejaVuSans-30" x="290.576172"/>
      <use xlink:href="#DejaVuSans-35" x="354.199219"/>
      <use xlink:href="#DejaVuSans-2d" x="417.822266"/>
      <use xlink:href="#DejaVuSans-32" x="453.90625"/>
      <use xlink:href="#DejaVuSans-37" x="517.529297"/>
      <use xlink:href="#DejaVuSans-20" x="581.152344"/>
      <use xlink:href="#DejaVuSans-30" x="612.939453"/>
      <use xlink:href="#DejaVuSans-30" x="676.5625"/>
      <use xlink:href="#DejaVuSans-3a" x="740.185547"/>
      <use xlink:href="#DejaVuSans-30" x="773.876953"/>
      <use xlink:href="#DejaVuSans-30" x="837.5"/>
      <use xlink:href="#DejaVuSans-3a" x="901.123047"/>
      <use xlink:href="#DejaVuSans-30" x="934.814453"/>
      <use xlink:href="#DejaVuSans-30" x="998.4375"/>
     </g>
    </g>
    <g id="line2d_20">
     <path d="M 271.51375 248.969938 
L 281.51375 248.969938 
L 291.51375 248.969938 
" style="fill: none; stroke: #2ca02c; stroke-width: 1.5; stroke-linecap: square"/>
    </g>
    <g id="text_18">
     <!-- 2022-06-03 00:00:00 -->
     <g transform="translate(299.51375 252.469938) scale(0.1 -0.1)">
      <defs>
       <path id="DejaVuSans-36" d="M 2113 2584 
Q 1688 2584 1439 2293 
Q 1191 2003 1191 1497 
Q 1191 994 1439 701 
Q 1688 409 2113 409 
Q 2538 409 2786 701 
Q 3034 994 3034 1497 
Q 3034 2003 2786 2293 
Q 2538 2584 2113 2584 
z
M 3366 4563 
L 3366 3988 
Q 3128 4100 2886 4159 
Q 2644 4219 2406 4219 
Q 1781 4219 1451 3797 
Q 1122 3375 1075 2522 
Q 1259 2794 1537 2939 
Q 1816 3084 2150 3084 
Q 2853 3084 3261 2657 
Q 3669 2231 3669 1497 
Q 3669 778 3244 343 
Q 2819 -91 2113 -91 
Q 1303 -91 875 529 
Q 447 1150 447 2328 
Q 447 3434 972 4092 
Q 1497 4750 2381 4750 
Q 2619 4750 2861 4703 
Q 3103 4656 3366 4563 
z
" transform="scale(0.015625)"/>
      </defs>
      <use xlink:href="#DejaVuSans-32"/>
      <use xlink:href="#DejaVuSans-30" x="63.623047"/>
      <use xlink:href="#DejaVuSans-32" x="127.246094"/>
      <use xlink:href="#DejaVuSans-32" x="190.869141"/>
      <use xlink:href="#DejaVuSans-2d" x="254.492188"/>
      <use xlink:href="#DejaVuSans-30" x="290.576172"/>
      <use xlink:href="#DejaVuSans-36" x="354.199219"/>
      <use xlink:href="#DejaVuSans-2d" x="417.822266"/>
      <use xlink:href="#DejaVuSans-30" x="453.90625"/>
      <use xlink:href="#DejaVuSans-33" x="517.529297"/>
      <use xlink:href="#DejaVuSans-20" x="581.152344"/>
      <use xlink:href="#DejaVuSans-30" x="612.939453"/>
      <use xlink:href="#DejaVuSans-30" x="676.5625"/>
      <use xlink:href="#DejaVuSans-3a" x="740.185547"/>
      <use xlink:href="#DejaVuSans-30" x="773.876953"/>
      <use xlink:href="#DejaVuSans-30" x="837.5"/>
      <use xlink:href="#DejaVuSans-3a" x="901.123047"/>
      <use xlink:href="#DejaVuSans-30" x="934.814453"/>
      <use xlink:href="#DejaVuSans-30" x="998.4375"/>
     </g>
    </g>
    <g id="line2d_21">
     <path d="M 271.51375 263.648063 
L 281.51375 263.648063 
L 291.51375 263.648063 
" style="fill: none; stroke: #d62728; stroke-width: 1.5; stroke-linecap: square"/>
    </g>
    <g id="text_19">
     <!-- 2022-06-10 00:00:00 -->
     <g transform="translate(299.51375 267.148063) scale(0.1 -0.1)">
      <use xlink:href="#DejaVuSans-32"/>
      <use xlink:href="#DejaVuSans-30" x="63.623047"/>
      <use xlink:href="#DejaVuSans-32" x="127.246094"/>
      <use xlink:href="#DejaVuSans-32" x="190.869141"/>
      <use xlink:href="#DejaVuSans-2d" x="254.492188"/>
      <use xlink:href="#DejaVuSans-30" x="290.576172"/>
      <use xlink:href="#DejaVuSans-36" x="354.199219"/>
      <use xlink:href="#DejaVuSans-2d" x="417.822266"/>
      <use xlink:href="#DejaVuSans-31" x="453.90625"/>
      <use xlink:href="#DejaVuSans-30" x="517.529297"/>
      <use xlink:href="#DejaVuSans-20" x="581.152344"/>
      <use xlink:href="#DejaVuSans-30" x="612.939453"/>
      <use xlink:href="#DejaVuSans-30" x="676.5625"/>
      <use xlink:href="#DejaVuSans-3a" x="740.185547"/>
      <use xlink:href="#DejaVuSans-30" x="773.876953"/>
      <use xlink:href="#DejaVuSans-30" x="837.5"/>
      <use xlink:href="#DejaVuSans-3a" x="901.123047"/>
      <use xlink:href="#DejaVuSans-30" x="934.814453"/>
      <use xlink:href="#DejaVuSans-30" x="998.4375"/>
     </g>
    </g>
    <g id="line2d_22">
     <path d="M 271.51375 278.326188 
L 281.51375 278.326188 
L 291.51375 278.326188 
" style="fill: none; stroke: #9467bd; stroke-width: 1.5; stroke-linecap: square"/>
    </g>
    <g id="text_20">
     <!-- 2022-06-17 00:00:00 -->
     <g transform="translate(299.51375 281.826188) scale(0.1 -0.1)">
      <use xlink:href="#DejaVuSans-32"/>
      <use xlink:href="#DejaVuSans-30" x="63.623047"/>
      <use xlink:href="#DejaVuSans-32" x="127.246094"/>
      <use xlink:href="#DejaVuSans-32" x="190.869141"/>
      <use xlink:href="#DejaVuSans-2d" x="254.492188"/>
      <use xlink:href="#DejaVuSans-30" x="290.576172"/>
      <use xlink:href="#DejaVuSans-36" x="354.199219"/>
      <use xlink:href="#DejaVuSans-2d" x="417.822266"/>
      <use xlink:href="#DejaVuSans-31" x="453.90625"/>
      <use xlink:href="#DejaVuSans-37" x="517.529297"/>
      <use xlink:href="#DejaVuSans-20" x="581.152344"/>
      <use xlink:href="#DejaVuSans-30" x="612.939453"/>
      <use xlink:href="#DejaVuSans-30" x="676.5625"/>
      <use xlink:href="#DejaVuSans-3a" x="740.185547"/>
      <use xlink:href="#DejaVuSans-30" x="773.876953"/>
      <use xlink:href="#DejaVuSans-30" x="837.5"/>
      <use xlink:href="#DejaVuSans-3a" x="901.123047"/>
      <use xlink:href="#DejaVuSans-30" x="934.814453"/>
      <use xlink:href="#DejaVuSans-30" x="998.4375"/>
     </g>
    </g>
    <g id="line2d_23">
     <path d="M 271.51375 293.004313 
L 281.51375 293.004313 
L 291.51375 293.004313 
" style="fill: none; stroke: #8c564b; stroke-width: 1.5; stroke-linecap: square"/>
    </g>
    <g id="text_21">
     <!-- 2022-06-24 00:00:00 -->
     <g transform="translate(299.51375 296.504313) scale(0.1 -0.1)">
      <use xlink:href="#DejaVuSans-32"/>
      <use xlink:href="#DejaVuSans-30" x="63.623047"/>
      <use xlink:href="#DejaVuSans-32" x="127.246094"/>
      <use xlink:href="#DejaVuSans-32" x="190.869141"/>
      <use xlink:href="#DejaVuSans-2d" x="254.492188"/>
      <use xlink:href="#DejaVuSans-30" x="290.576172"/>
      <use xlink:href="#DejaVuSans-36" x="354.199219"/>
      <use xlink:href="#DejaVuSans-2d" x="417.822266"/>
      <use xlink:href="#DejaVuSans-32" x="453.90625"/>
      <use xlink:href="#DejaVuSans-34" x="517.529297"/>
      <use xlink:href="#DejaVuSans-20" x="581.152344"/>
      <use xlink:href="#DejaVuSans-30" x="612.939453"/>
      <use xlink:href="#DejaVuSans-30" x="676.5625"/>
      <use xlink:href="#DejaVuSans-3a" x="740.185547"/>
      <use xlink:href="#DejaVuSans-30" x="773.876953"/>
      <use xlink:href="#DejaVuSans-30" x="837.5"/>
      <use xlink:href="#DejaVuSans-3a" x="901.123047"/>
      <use xlink:href="#DejaVuSans-30" x="934.814453"/>
      <use xlink:href="#DejaVuSans-30" x="998.4375"/>
     </g>
    </g>
   </g>
  </g>
 </g>
 <defs>
  <clipPath id="p0a9551ff15">
   <rect x="57.6" y="41.472" width="357.12" height="266.112"/>
  </clipPath>
 </defs>
</svg>
