<?xml version="1.0" encoding="utf-8" standalone="no"?>
<!DOCTYPE svg PUBLIC "-//W3C//DTD SVG 1.1//EN"
  "http://www.w3.org/Graphics/SVG/1.1/DTD/svg11.dtd">
<svg xmlns:xlink="http://www.w3.org/1999/xlink" width="460.8pt" height="345.6pt" viewBox="0 0 460.8 345.6" xmlns="http://www.w3.org/2000/svg" version="1.1">
 <metadata>
  <rdf:RDF xmlns:dc="http://purl.org/dc/elements/1.1/" xmlns:cc="http://creativecommons.org/ns#" xmlns:rdf="http://www.w3.org/1999/02/22-rdf-syntax-ns#">
   <cc:Work>
    <dc:type rdf:resource="http://purl.org/dc/dcmitype/StillImage"/>
    <dc:date>2023-07-04T11:37:58.503572</dc:date>
    <dc:format>image/svg+xml</dc:format>
    <dc:creator>
     <cc:Agent>
      <dc:title>Matplotlib v3.7.1, https://matplotlib.org/</dc:title>
     </cc:Agent>
    </dc:creator>
   </cc:Work>
  </rdf:RDF>
 </metadata>
 <defs>
  <style type="text/css">*{stroke-linejoin: round; stroke-linecap: butt}</style>
 </defs>
 <g id="figure_1">
  <g id="patch_1">
   <path d="M 0 345.6 
L 460.8 345.6 
L 460.8 0 
L 0 0 
z
" style="fill: #ffffff"/>
  </g>
  <g id="axes_1">
   <g id="patch_2">
    <path d="M 57.6 307.584 
L 414.72 307.584 
L 414.72 41.472 
L 57.6 41.472 
z
" style="fill: #ffffff"/>
   </g>
   <g id="matplotlib.axis_1">
    <g id="xtick_1">
     <g id="line2d_1">
      <defs>
       <path id="m310ec8a3da" d="M 0 0 
L 0 3.5 
" style="stroke: #000000; stroke-width: 0.8"/>
      </defs>
      <g>
       <use xlink:href="#m310ec8a3da" x="73.832727" y="307.584" style="stroke: #000000; stroke-width: 0.8"/>
      </g>
     </g>
     <g id="text_1">
      <!-- 0 -->
      <g transform="translate(70.651477 322.182437) scale(0.1 -0.1)">
       <defs>
        <path id="DejaVuSans-30" d="M 2034 4250 
Q 1547 4250 1301 3770 
Q 1056 3291 1056 2328 
Q 1056 1369 1301 889 
Q 1547 409 2034 409 
Q 2525 409 2770 889 
Q 3016 1369 3016 2328 
Q 3016 3291 2770 3770 
Q 2525 4250 2034 4250 
z
M 2034 4750 
Q 2819 4750 3233 4129 
Q 3647 3509 3647 2328 
Q 3647 1150 3233 529 
Q 2819 -91 2034 -91 
Q 1250 -91 836 529 
Q 422 1150 422 2328 
Q 422 3509 836 4129 
Q 1250 4750 2034 4750 
z
" transform="scale(0.015625)"/>
       </defs>
       <use xlink:href="#DejaVuSans-30"/>
      </g>
     </g>
    </g>
    <g id="xtick_2">
     <g id="line2d_2">
      <g>
       <use xlink:href="#m310ec8a3da" x="144.409802" y="307.584" style="stroke: #000000; stroke-width: 0.8"/>
      </g>
     </g>
     <g id="text_2">
      <!-- 5 -->
      <g transform="translate(141.228552 322.182437) scale(0.1 -0.1)">
       <defs>
        <path id="DejaVuSans-35" d="M 691 4666 
L 3169 4666 
L 3169 4134 
L 1269 4134 
L 1269 2991 
Q 1406 3038 1543 3061 
Q 1681 3084 1819 3084 
Q 2600 3084 3056 2656 
Q 3513 2228 3513 1497 
Q 3513 744 3044 326 
Q 2575 -91 1722 -91 
Q 1428 -91 1123 -41 
Q 819 9 494 109 
L 494 744 
Q 775 591 1075 516 
Q 1375 441 1709 441 
Q 2250 441 2565 725 
Q 2881 1009 2881 1497 
Q 2881 1984 2565 2268 
Q 2250 2553 1709 2553 
Q 1456 2553 1204 2497 
Q 953 2441 691 2322 
L 691 4666 
z
" transform="scale(0.015625)"/>
       </defs>
       <use xlink:href="#DejaVuSans-35"/>
      </g>
     </g>
    </g>
    <g id="xtick_3">
     <g id="line2d_3">
      <g>
       <use xlink:href="#m310ec8a3da" x="214.986877" y="307.584" style="stroke: #000000; stroke-width: 0.8"/>
      </g>
     </g>
     <g id="text_3">
      <!-- 10 -->
      <g transform="translate(208.624377 322.182437) scale(0.1 -0.1)">
       <defs>
        <path id="DejaVuSans-31" d="M 794 531 
L 1825 531 
L 1825 4091 
L 703 3866 
L 703 4441 
L 1819 4666 
L 2450 4666 
L 2450 531 
L 3481 531 
L 3481 0 
L 794 0 
L 794 531 
z
" transform="scale(0.015625)"/>
       </defs>
       <use xlink:href="#DejaVuSans-31"/>
       <use xlink:href="#DejaVuSans-30" x="63.623047"/>
      </g>
     </g>
    </g>
    <g id="xtick_4">
     <g id="line2d_4">
      <g>
       <use xlink:href="#m310ec8a3da" x="285.563953" y="307.584" style="stroke: #000000; stroke-width: 0.8"/>
      </g>
     </g>
     <g id="text_4">
      <!-- 15 -->
      <g transform="translate(279.201453 322.182437) scale(0.1 -0.1)">
       <use xlink:href="#DejaVuSans-31"/>
       <use xlink:href="#DejaVuSans-35" x="63.623047"/>
      </g>
     </g>
    </g>
    <g id="xtick_5">
     <g id="line2d_5">
      <g>
       <use xlink:href="#m310ec8a3da" x="356.141028" y="307.584" style="stroke: #000000; stroke-width: 0.8"/>
      </g>
     </g>
     <g id="text_5">
      <!-- 20 -->
      <g transform="translate(349.778528 322.182437) scale(0.1 -0.1)">
       <defs>
        <path id="DejaVuSans-32" d="M 1228 531 
L 3431 531 
L 3431 0 
L 469 0 
L 469 531 
Q 828 903 1448 1529 
Q 2069 2156 2228 2338 
Q 2531 2678 2651 2914 
Q 2772 3150 2772 3378 
Q 2772 3750 2511 3984 
Q 2250 4219 1831 4219 
Q 1534 4219 1204 4116 
Q 875 4013 500 3803 
L 500 4441 
Q 881 4594 1212 4672 
Q 1544 4750 1819 4750 
Q 2544 4750 2975 4387 
Q 3406 4025 3406 3419 
Q 3406 3131 3298 2873 
Q 3191 2616 2906 2266 
Q 2828 2175 2409 1742 
Q 1991 1309 1228 531 
z
" transform="scale(0.015625)"/>
       </defs>
       <use xlink:href="#DejaVuSans-32"/>
       <use xlink:href="#DejaVuSans-30" x="63.623047"/>
      </g>
     </g>
    </g>
    <g id="text_6">
     <!-- Time -->
     <g transform="translate(223.926406 335.860562) scale(0.1 -0.1)">
      <defs>
       <path id="DejaVuSans-54" d="M -19 4666 
L 3928 4666 
L 3928 4134 
L 2272 4134 
L 2272 0 
L 1638 0 
L 1638 4134 
L -19 4134 
L -19 4666 
z
" transform="scale(0.015625)"/>
       <path id="DejaVuSans-69" d="M 603 3500 
L 1178 3500 
L 1178 0 
L 603 0 
L 603 3500 
z
M 603 4863 
L 1178 4863 
L 1178 4134 
L 603 4134 
L 603 4863 
z
" transform="scale(0.015625)"/>
       <path id="DejaVuSans-6d" d="M 3328 2828 
Q 3544 3216 3844 3400 
Q 4144 3584 4550 3584 
Q 5097 3584 5394 3201 
Q 5691 2819 5691 2113 
L 5691 0 
L 5113 0 
L 5113 2094 
Q 5113 2597 4934 2840 
Q 4756 3084 4391 3084 
Q 3944 3084 3684 2787 
Q 3425 2491 3425 1978 
L 3425 0 
L 2847 0 
L 2847 2094 
Q 2847 2600 2669 2842 
Q 2491 3084 2119 3084 
Q 1678 3084 1418 2786 
Q 1159 2488 1159 1978 
L 1159 0 
L 581 0 
L 581 3500 
L 1159 3500 
L 1159 2956 
Q 1356 3278 1631 3431 
Q 1906 3584 2284 3584 
Q 2666 3584 2933 3390 
Q 3200 3197 3328 2828 
z
" transform="scale(0.015625)"/>
       <path id="DejaVuSans-65" d="M 3597 1894 
L 3597 1613 
L 953 1613 
Q 991 1019 1311 708 
Q 1631 397 2203 397 
Q 2534 397 2845 478 
Q 3156 559 3463 722 
L 3463 178 
Q 3153 47 2828 -22 
Q 2503 -91 2169 -91 
Q 1331 -91 842 396 
Q 353 884 353 1716 
Q 353 2575 817 3079 
Q 1281 3584 2069 3584 
Q 2775 3584 3186 3129 
Q 3597 2675 3597 1894 
z
M 3022 2063 
Q 3016 2534 2758 2815 
Q 2500 3097 2075 3097 
Q 1594 3097 1305 2825 
Q 1016 2553 972 2059 
L 3022 2063 
z
" transform="scale(0.015625)"/>
      </defs>
      <use xlink:href="#DejaVuSans-54"/>
      <use xlink:href="#DejaVuSans-69" x="57.958984"/>
      <use xlink:href="#DejaVuSans-6d" x="85.742188"/>
      <use xlink:href="#DejaVuSans-65" x="183.154297"/>
     </g>
    </g>
   </g>
   <g id="matplotlib.axis_2">
    <g id="ytick_1">
     <g id="line2d_6">
      <defs>
       <path id="mf656abbad1" d="M 0 0 
L -3.5 0 
" style="stroke: #000000; stroke-width: 0.8"/>
      </defs>
      <g>
       <use xlink:href="#mf656abbad1" x="57.6" y="300.18952" style="stroke: #000000; stroke-width: 0.8"/>
      </g>
     </g>
     <g id="text_7">
      <!-- 0 -->
      <g transform="translate(44.2375 303.988739) scale(0.1 -0.1)">
       <use xlink:href="#DejaVuSans-30"/>
      </g>
     </g>
    </g>
    <g id="ytick_2">
     <g id="line2d_7">
      <g>
       <use xlink:href="#mf656abbad1" x="57.6" y="270.433063" style="stroke: #000000; stroke-width: 0.8"/>
      </g>
     </g>
     <g id="text_8">
      <!-- 500 -->
      <g transform="translate(31.5125 274.232281) scale(0.1 -0.1)">
       <use xlink:href="#DejaVuSans-35"/>
       <use xlink:href="#DejaVuSans-30" x="63.623047"/>
       <use xlink:href="#DejaVuSans-30" x="127.246094"/>
      </g>
     </g>
    </g>
    <g id="ytick_3">
     <g id="line2d_8">
      <g>
       <use xlink:href="#mf656abbad1" x="57.6" y="240.676605" style="stroke: #000000; stroke-width: 0.8"/>
      </g>
     </g>
     <g id="text_9">
      <!-- 1000 -->
      <g transform="translate(25.15 244.475824) scale(0.1 -0.1)">
       <use xlink:href="#DejaVuSans-31"/>
       <use xlink:href="#DejaVuSans-30" x="63.623047"/>
       <use xlink:href="#DejaVuSans-30" x="127.246094"/>
       <use xlink:href="#DejaVuSans-30" x="190.869141"/>
      </g>
     </g>
    </g>
    <g id="ytick_4">
     <g id="line2d_9">
      <g>
       <use xlink:href="#mf656abbad1" x="57.6" y="210.920148" style="stroke: #000000; stroke-width: 0.8"/>
      </g>
     </g>
     <g id="text_10">
      <!-- 1500 -->
      <g transform="translate(25.15 214.719366) scale(0.1 -0.1)">
       <use xlink:href="#DejaVuSans-31"/>
       <use xlink:href="#DejaVuSans-35" x="63.623047"/>
       <use xlink:href="#DejaVuSans-30" x="127.246094"/>
       <use xlink:href="#DejaVuSans-30" x="190.869141"/>
      </g>
     </g>
    </g>
    <g id="ytick_5">
     <g id="line2d_10">
      <g>
       <use xlink:href="#mf656abbad1" x="57.6" y="181.16369" style="stroke: #000000; stroke-width: 0.8"/>
      </g>
     </g>
     <g id="text_11">
      <!-- 2000 -->
      <g transform="translate(25.15 184.962909) scale(0.1 -0.1)">
       <use xlink:href="#DejaVuSans-32"/>
       <use xlink:href="#DejaVuSans-30" x="63.623047"/>
       <use xlink:href="#DejaVuSans-30" x="127.246094"/>
       <use xlink:href="#DejaVuSans-30" x="190.869141"/>
      </g>
     </g>
    </g>
    <g id="ytick_6">
     <g id="line2d_11">
      <g>
       <use xlink:href="#mf656abbad1" x="57.6" y="151.407232" style="stroke: #000000; stroke-width: 0.8"/>
      </g>
     </g>
     <g id="text_12">
      <!-- 2500 -->
      <g transform="translate(25.15 155.206451) scale(0.1 -0.1)">
       <use xlink:href="#DejaVuSans-32"/>
       <use xlink:href="#DejaVuSans-35" x="63.623047"/>
       <use xlink:href="#DejaVuSans-30" x="127.246094"/>
       <use xlink:href="#DejaVuSans-30" x="190.869141"/>
      </g>
     </g>
    </g>
    <g id="ytick_7">
     <g id="line2d_12">
      <g>
       <use xlink:href="#mf656abbad1" x="57.6" y="121.650775" style="stroke: #000000; stroke-width: 0.8"/>
      </g>
     </g>
     <g id="text_13">
      <!-- 3000 -->
      <g transform="translate(25.15 125.449994) scale(0.1 -0.1)">
       <defs>
        <path id="DejaVuSans-33" d="M 2597 2516 
Q 3050 2419 3304 2112 
Q 3559 1806 3559 1356 
Q 3559 666 3084 287 
Q 2609 -91 1734 -91 
Q 1441 -91 1130 -33 
Q 819 25 488 141 
L 488 750 
Q 750 597 1062 519 
Q 1375 441 1716 441 
Q 2309 441 2620 675 
Q 2931 909 2931 1356 
Q 2931 1769 2642 2001 
Q 2353 2234 1838 2234 
L 1294 2234 
L 1294 2753 
L 1863 2753 
Q 2328 2753 2575 2939 
Q 2822 3125 2822 3475 
Q 2822 3834 2567 4026 
Q 2313 4219 1838 4219 
Q 1578 4219 1281 4162 
Q 984 4106 628 3988 
L 628 4550 
Q 988 4650 1302 4700 
Q 1616 4750 1894 4750 
Q 2613 4750 3031 4423 
Q 3450 4097 3450 3541 
Q 3450 3153 3228 2886 
Q 3006 2619 2597 2516 
z
" transform="scale(0.015625)"/>
       </defs>
       <use xlink:href="#DejaVuSans-33"/>
       <use xlink:href="#DejaVuSans-30" x="63.623047"/>
       <use xlink:href="#DejaVuSans-30" x="127.246094"/>
       <use xlink:href="#DejaVuSans-30" x="190.869141"/>
      </g>
     </g>
    </g>
    <g id="ytick_8">
     <g id="line2d_13">
      <g>
       <use xlink:href="#mf656abbad1" x="57.6" y="91.894317" style="stroke: #000000; stroke-width: 0.8"/>
      </g>
     </g>
     <g id="text_14">
      <!-- 3500 -->
      <g transform="translate(25.15 95.693536) scale(0.1 -0.1)">
       <use xlink:href="#DejaVuSans-33"/>
       <use xlink:href="#DejaVuSans-35" x="63.623047"/>
       <use xlink:href="#DejaVuSans-30" x="127.246094"/>
       <use xlink:href="#DejaVuSans-30" x="190.869141"/>
      </g>
     </g>
    </g>
    <g id="ytick_9">
     <g id="line2d_14">
      <g>
       <use xlink:href="#mf656abbad1" x="57.6" y="62.13786" style="stroke: #000000; stroke-width: 0.8"/>
      </g>
     </g>
     <g id="text_15">
      <!-- 4000 -->
      <g transform="translate(25.15 65.937079) scale(0.1 -0.1)">
       <defs>
        <path id="DejaVuSans-34" d="M 2419 4116 
L 825 1625 
L 2419 1625 
L 2419 4116 
z
M 2253 4666 
L 3047 4666 
L 3047 1625 
L 3713 1625 
L 3713 1100 
L 3047 1100 
L 3047 0 
L 2419 0 
L 2419 1100 
L 313 1100 
L 313 1709 
L 2253 4666 
z
" transform="scale(0.015625)"/>
       </defs>
       <use xlink:href="#DejaVuSans-34"/>
       <use xlink:href="#DejaVuSans-30" x="63.623047"/>
       <use xlink:href="#DejaVuSans-30" x="127.246094"/>
       <use xlink:href="#DejaVuSans-30" x="190.869141"/>
      </g>
     </g>
    </g>
    <g id="text_16">
     <!-- Amount of Devices -->
     <g transform="translate(19.070312 221.878781) rotate(-90) scale(0.1 -0.1)">
      <defs>
       <path id="DejaVuSans-41" d="M 2188 4044 
L 1331 1722 
L 3047 1722 
L 2188 4044 
z
M 1831 4666 
L 2547 4666 
L 4325 0 
L 3669 0 
L 3244 1197 
L 1141 1197 
L 716 0 
L 50 0 
L 1831 4666 
z
" transform="scale(0.015625)"/>
       <path id="DejaVuSans-6f" d="M 1959 3097 
Q 1497 3097 1228 2736 
Q 959 2375 959 1747 
Q 959 1119 1226 758 
Q 1494 397 1959 397 
Q 2419 397 2687 759 
Q 2956 1122 2956 1747 
Q 2956 2369 2687 2733 
Q 2419 3097 1959 3097 
z
M 1959 3584 
Q 2709 3584 3137 3096 
Q 3566 2609 3566 1747 
Q 3566 888 3137 398 
Q 2709 -91 1959 -91 
Q 1206 -91 779 398 
Q 353 888 353 1747 
Q 353 2609 779 3096 
Q 1206 3584 1959 3584 
z
" transform="scale(0.015625)"/>
       <path id="DejaVuSans-75" d="M 544 1381 
L 544 3500 
L 1119 3500 
L 1119 1403 
Q 1119 906 1312 657 
Q 1506 409 1894 409 
Q 2359 409 2629 706 
Q 2900 1003 2900 1516 
L 2900 3500 
L 3475 3500 
L 3475 0 
L 2900 0 
L 2900 538 
Q 2691 219 2414 64 
Q 2138 -91 1772 -91 
Q 1169 -91 856 284 
Q 544 659 544 1381 
z
M 1991 3584 
L 1991 3584 
z
" transform="scale(0.015625)"/>
       <path id="DejaVuSans-6e" d="M 3513 2113 
L 3513 0 
L 2938 0 
L 2938 2094 
Q 2938 2591 2744 2837 
Q 2550 3084 2163 3084 
Q 1697 3084 1428 2787 
Q 1159 2491 1159 1978 
L 1159 0 
L 581 0 
L 581 3500 
L 1159 3500 
L 1159 2956 
Q 1366 3272 1645 3428 
Q 1925 3584 2291 3584 
Q 2894 3584 3203 3211 
Q 3513 2838 3513 2113 
z
" transform="scale(0.015625)"/>
       <path id="DejaVuSans-74" d="M 1172 4494 
L 1172 3500 
L 2356 3500 
L 2356 3053 
L 1172 3053 
L 1172 1153 
Q 1172 725 1289 603 
Q 1406 481 1766 481 
L 2356 481 
L 2356 0 
L 1766 0 
Q 1100 0 847 248 
Q 594 497 594 1153 
L 594 3053 
L 172 3053 
L 172 3500 
L 594 3500 
L 594 4494 
L 1172 4494 
z
" transform="scale(0.015625)"/>
       <path id="DejaVuSans-20" transform="scale(0.015625)"/>
       <path id="DejaVuSans-66" d="M 2375 4863 
L 2375 4384 
L 1825 4384 
Q 1516 4384 1395 4259 
Q 1275 4134 1275 3809 
L 1275 3500 
L 2222 3500 
L 2222 3053 
L 1275 3053 
L 1275 0 
L 697 0 
L 697 3053 
L 147 3053 
L 147 3500 
L 697 3500 
L 697 3744 
Q 697 4328 969 4595 
Q 1241 4863 1831 4863 
L 2375 4863 
z
" transform="scale(0.015625)"/>
       <path id="DejaVuSans-44" d="M 1259 4147 
L 1259 519 
L 2022 519 
Q 2988 519 3436 956 
Q 3884 1394 3884 2338 
Q 3884 3275 3436 3711 
Q 2988 4147 2022 4147 
L 1259 4147 
z
M 628 4666 
L 1925 4666 
Q 3281 4666 3915 4102 
Q 4550 3538 4550 2338 
Q 4550 1131 3912 565 
Q 3275 0 1925 0 
L 628 0 
L 628 4666 
z
" transform="scale(0.015625)"/>
       <path id="DejaVuSans-76" d="M 191 3500 
L 800 3500 
L 1894 563 
L 2988 3500 
L 3597 3500 
L 2284 0 
L 1503 0 
L 191 3500 
z
" transform="scale(0.015625)"/>
       <path id="DejaVuSans-63" d="M 3122 3366 
L 3122 2828 
Q 2878 2963 2633 3030 
Q 2388 3097 2138 3097 
Q 1578 3097 1268 2742 
Q 959 2388 959 1747 
Q 959 1106 1268 751 
Q 1578 397 2138 397 
Q 2388 397 2633 464 
Q 2878 531 3122 666 
L 3122 134 
Q 2881 22 2623 -34 
Q 2366 -91 2075 -91 
Q 1284 -91 818 406 
Q 353 903 353 1747 
Q 353 2603 823 3093 
Q 1294 3584 2113 3584 
Q 2378 3584 2631 3529 
Q 2884 3475 3122 3366 
z
" transform="scale(0.015625)"/>
       <path id="DejaVuSans-73" d="M 2834 3397 
L 2834 2853 
Q 2591 2978 2328 3040 
Q 2066 3103 1784 3103 
Q 1356 3103 1142 2972 
Q 928 2841 928 2578 
Q 928 2378 1081 2264 
Q 1234 2150 1697 2047 
L 1894 2003 
Q 2506 1872 2764 1633 
Q 3022 1394 3022 966 
Q 3022 478 2636 193 
Q 2250 -91 1575 -91 
Q 1294 -91 989 -36 
Q 684 19 347 128 
L 347 722 
Q 666 556 975 473 
Q 1284 391 1588 391 
Q 1994 391 2212 530 
Q 2431 669 2431 922 
Q 2431 1156 2273 1281 
Q 2116 1406 1581 1522 
L 1381 1569 
Q 847 1681 609 1914 
Q 372 2147 372 2553 
Q 372 3047 722 3315 
Q 1072 3584 1716 3584 
Q 2034 3584 2315 3537 
Q 2597 3491 2834 3397 
z
" transform="scale(0.015625)"/>
      </defs>
      <use xlink:href="#DejaVuSans-41"/>
      <use xlink:href="#DejaVuSans-6d" x="68.408203"/>
      <use xlink:href="#DejaVuSans-6f" x="165.820312"/>
      <use xlink:href="#DejaVuSans-75" x="227.001953"/>
      <use xlink:href="#DejaVuSans-6e" x="290.380859"/>
      <use xlink:href="#DejaVuSans-74" x="353.759766"/>
      <use xlink:href="#DejaVuSans-20" x="392.96875"/>
      <use xlink:href="#DejaVuSans-6f" x="424.755859"/>
      <use xlink:href="#DejaVuSans-66" x="485.9375"/>
      <use xlink:href="#DejaVuSans-20" x="521.142578"/>
      <use xlink:href="#DejaVuSans-44" x="552.929688"/>
      <use xlink:href="#DejaVuSans-65" x="629.931641"/>
      <use xlink:href="#DejaVuSans-76" x="691.455078"/>
      <use xlink:href="#DejaVuSans-69" x="750.634766"/>
      <use xlink:href="#DejaVuSans-63" x="778.417969"/>
      <use xlink:href="#DejaVuSans-65" x="833.398438"/>
      <use xlink:href="#DejaVuSans-73" x="894.921875"/>
     </g>
    </g>
   </g>
   <g id="line2d_15">
    <path d="M 271.448538 207.111321 
L 285.563953 154.501904 
L 299.679368 157.775114 
L 313.794783 97.190967 
L 327.910198 85.585948 
L 342.025613 113.735557 
L 356.141028 166.583026 
L 370.256443 210.205993 
L 384.371858 237.879498 
L 398.487273 253.293343 
" clip-path="url(#pb752bb6aa3)" style="fill: none; stroke: #1f77b4; stroke-width: 1.5; stroke-linecap: square"/>
   </g>
   <g id="line2d_16">
    <path d="M 73.832727 274.063351 
L 87.948142 282.63321 
L 102.063557 284.478111 
L 116.178972 288.882066 
L 130.294387 293.881151 
L 144.409802 288.286937 
L 158.525217 278.169742 
L 172.640632 256.983144 
L 186.756047 204.909343 
L 200.871462 199.017565 
L 214.986877 170.927469 
L 229.102292 141.587601 
L 243.217708 98.976354 
L 257.333123 105.998878 
L 271.448538 98.67879 
L 285.563953 109.153063 
L 299.679368 107.129624 
L 313.794783 67.077432 
L 327.910198 75.111675 
L 342.025613 113.79507 
L 356.141028 148.193535 
L 370.256443 176.997786 
L 384.371858 204.909343 
L 398.487273 235.320443 
" clip-path="url(#pb752bb6aa3)" style="fill: none; stroke: #ff7f0e; stroke-width: 1.5; stroke-linecap: square"/>
   </g>
   <g id="line2d_17">
    <path d="M 73.832727 285.668369 
L 87.948142 288.405963 
L 102.063557 292.869432 
L 116.178972 292.393328 
L 130.294387 295.488 
L 144.409802 289.298657 
L 158.525217 279.895616 
L 172.640632 233.773107 
L 186.756047 151.466745 
L 200.871462 206.397166 
L 214.986877 214.014819 
L 229.102292 192.59017 
L 243.217708 131.232354 
L 257.333123 173.307985 
L 271.448538 177.235838 
L 285.563953 184.674952 
L 299.679368 173.60555 
L 313.794783 121.293697 
L 327.910198 116.711203 
L 342.025613 144.801299 
L 356.141028 189.138421 
L 370.256443 220.620753 
L 384.371858 243.235661 
L 398.487273 264.600797 
" clip-path="url(#pb752bb6aa3)" style="fill: none; stroke: #2ca02c; stroke-width: 1.5; stroke-linecap: square"/>
   </g>
   <g id="line2d_18">
    <path d="M 73.832727 288.108399 
L 87.948142 286.977653 
L 102.063557 290.726967 
L 116.178972 293.6431 
L 130.294387 294.357255 
L 144.409802 289.120118 
L 158.525217 284.06152 
L 172.640632 246.568384 
L 186.756047 182.711026 
L 200.871462 216.752413 
L 214.986877 229.54769 
L 229.102292 210.622583 
L 243.217708 173.843601 
L 257.333123 196.934613 
L 271.448538 202.766878 
L 285.563953 198.898539 
L 299.679368 195.387277 
L 313.794783 167.713771 
L 327.910198 165.333255 
L 342.025613 194.554096 
L 356.141028 224.489092 
L 370.256443 244.24738 
L 384.371858 266.267159 
L 398.487273 275.194096 
" clip-path="url(#pb752bb6aa3)" style="fill: none; stroke: #d62728; stroke-width: 1.5; stroke-linecap: square"/>
   </g>
   <g id="line2d_19">
    <path d="M 73.832727 282.454672 
L 87.948142 288.227424 
L 102.063557 290.131838 
L 116.178972 293.583587 
L 130.294387 292.333815 
L 144.409802 291.738686 
L 158.525217 283.287852 
L 172.640632 245.913742 
L 186.756047 175.688502 
L 200.871462 217.70462 
L 214.986877 219.728059 
L 229.102292 191.102347 
L 243.217708 140.694908 
L 257.333123 171.998701 
L 271.448538 179.73538 
L 285.563953 180.7471 
L 299.679368 175.271911 
L 313.794783 139.802214 
L 327.910198 138.195365 
L 342.025613 157.060959 
L 356.141028 195.030199 
L 370.256443 220.085137 
L 384.371858 249.008413 
L 398.487273 266.862288 
" clip-path="url(#pb752bb6aa3)" style="fill: none; stroke: #9467bd; stroke-width: 1.5; stroke-linecap: square"/>
   </g>
   <g id="line2d_20">
    <path d="M 73.832727 284.359085 
L 87.948142 287.572782 
L 102.063557 291.619661 
L 116.178972 293.166996 
L 130.294387 294.535793 
L 144.409802 290.131838 
L 158.525217 286.91814 
L 172.640632 245.437638 
L 186.756047 177.652428 
L 200.871462 214.371897 
L 214.986877 214.252871 
L 229.102292 193.661402 
L 243.217708 141.944679 
L 257.333123 165.749845 
L 271.448538 183.127616 
L 285.563953 186.936443 
L 299.679368 182.234923 
L 313.794783 149.443306 
L 327.910198 130.637225 
L 342.025613 163.488354 
L 356.141028 189.793063 
L 370.256443 223.536886 
L 384.371858 249.186952 
L 398.487273 258.411454 
" clip-path="url(#pb752bb6aa3)" style="fill: none; stroke: #8c564b; stroke-width: 1.5; stroke-linecap: square"/>
   </g>
   <g id="line2d_21">
    <path d="M 73.832727 283.942494 
L 87.948142 288.703528 
L 102.063557 293.166996 
L 116.178972 293.6431 
L 130.294387 294.773845 
L 144.409802 291.560148 
L 158.525217 284.597137 
L 172.640632 252.519675 
L 186.756047 185.567646 
L 200.871462 227.70279 
L 214.986877 229.190613 
L 229.102292 209.075247 
L 243.217708 159.739041 
L 257.333123 181.16369 
L 271.448538 197.886819 
L 285.563953 196.696561 
L 299.679368 190.090627 
L 313.794783 148.848177 
L 327.910198 145.753506 
L 342.025613 163.904945 
L 356.141028 193.601889 
L 370.256443 228.059867 
L 384.371858 247.580103 
L 398.487273 261.982229 
" clip-path="url(#pb752bb6aa3)" style="fill: none; stroke: #e377c2; stroke-width: 1.5; stroke-linecap: square"/>
   </g>
   <g id="line2d_22">
    <path d="M 73.832727 286.442037 
L 87.948142 289.77476 
L 102.063557 291.381609 
L 116.178972 293.583587 
L 130.294387 293.524074 
L 144.409802 291.679173 
L 158.525217 284.418598 
L 172.640632 251.091365 
L 186.756047 179.973432 
L 200.871462 224.548605 
L 214.986877 233.297004 
L 229.102292 201.933697 
L 243.217708 156.584856 
L 257.333123 177.116812 
L 271.448538 189.614524 
L 285.563953 196.637048 
L 299.679368 190.269166 
L 313.794783 151.645284 
L 327.910198 143.432502 
L 342.025613 159.977092 
L 356.141028 197.113151 
L 370.256443 230.916487 
L 384.371858 246.925461 
L 398.487273 260.37538 
" clip-path="url(#pb752bb6aa3)" style="fill: none; stroke: #7f7f7f; stroke-width: 1.5; stroke-linecap: square"/>
   </g>
   <g id="line2d_23">
    <path d="M 73.832727 280.074155 
L 87.948142 289.060605 
L 102.063557 290.012812 
L 116.178972 292.452841 
L 130.294387 294.05969 
L 144.409802 289.001092 
L 158.525217 283.882982 
L 172.640632 249.008413 
L 186.756047 176.045579 
L 200.871462 223.596399 
L 214.986877 225.441299 
L 229.102292 208.599144 
L 243.217708 164.440561 
L 257.333123 184.317875 
L 271.448538 192.114066 
L 285.563953 197.589255 
L 299.679368 191.935528 
L 313.794783 149.800384 
L 327.910198 148.431587 
L 342.025613 166.04741 
L 356.141028 198.422435 
L 370.256443 222.584679 
L 384.371858 250.972339 
L 398.487273 265.374465 
" clip-path="url(#pb752bb6aa3)" style="fill: none; stroke: #bcbd22; stroke-width: 1.5; stroke-linecap: square"/>
   </g>
   <g id="line2d_24">
    <path d="M 73.832727 269.599882 
L 87.948142 278.764871 
L 102.063557 283.763956 
L 116.178972 287.334731 
L 130.294387 286.263498 
L 144.409802 281.859542 
L 158.525217 282.276133 
L 172.640632 282.276133 
L 186.756047 258.828044 
L 200.871462 236.153624 
L 214.986877 203.897624 
L 229.102292 164.440561 
L 243.217708 148.4911 
L 257.333123 131.946509 
L 271.448538 137.48121 
L 285.563953 146.289122 
L 299.679368 147.06279 
L 313.794783 149.800384 
L 327.910198 147.836458 
L 342.025613 171.344059 
L 356.141028 199.553181 
L 370.256443 240.319528 
L 384.371858 257.10217 
L 398.487273 270.254524 
" clip-path="url(#pb752bb6aa3)" style="fill: none; stroke: #17becf; stroke-width: 1.5; stroke-linecap: square"/>
   </g>
   <g id="line2d_25">
    <path d="M 73.832727 286.144472 
L 87.948142 290.667454 
L 102.063557 293.345535 
L 116.178972 294.05969 
L 130.294387 293.107483 
L 144.409802 290.429402 
L 158.525217 284.002007 
L 172.640632 244.366406 
L 186.756047 177.354863 
L 200.871462 208.658657 
L 214.986877 211.158199 
L 229.102292 195.149225 
L 243.217708 139.266598 
L 257.333123 172.653343 
L 271.448538 176.283631 
L 285.563953 172.831882 
L 299.679368 172.59383 
L 313.794783 142.063705 
L 327.910198 121.948339 
L 342.025613 159.381963 
L 356.141028 192.947247 
L 370.256443 232.285284 
L 384.371858 256.983144 
L 398.487273 266.207646 
" clip-path="url(#pb752bb6aa3)" style="fill: none; stroke: #1f77b4; stroke-width: 1.5; stroke-linecap: square"/>
   </g>
   <g id="line2d_26">
    <path d="M 73.832727 284.954214 
L 87.948142 288.405963 
L 102.063557 290.845993 
L 116.178972 293.286022 
L 130.294387 293.524074 
L 144.409802 287.453756 
L 158.525217 283.763956 
L 172.640632 250.555749 
L 186.756047 182.830052 
L 200.871462 218.954391 
L 214.986877 220.204162 
L 229.102292 202.826391 
L 243.217708 157.179985 
L 257.333123 179.675867 
L 271.448538 176.938273 
L 285.563953 190.685756 
L 299.679368 190.15014 
L 313.794783 148.074509 
L 327.910198 136.350465 
L 342.025613 172.236753 
L 356.141028 206.635218 
L 370.256443 235.796546 
L 384.371858 255.078731 
L 398.487273 269.421343 
" clip-path="url(#pb752bb6aa3)" style="fill: none; stroke: #ff7f0e; stroke-width: 1.5; stroke-linecap: square"/>
   </g>
   <g id="line2d_27">
    <path d="M 73.832727 277.277048 
L 87.948142 282.335646 
L 102.063557 289.179631 
L 116.178972 292.571867 
L 130.294387 294.773845 
L 144.409802 282.335646 
L 158.525217 276.384354 
L 172.640632 230.55941 
L 186.756047 155.692162 
L 200.871462 191.221373 
L 214.986877 158.251218 
L 229.102292 132.3631 
L 243.217708 87.014258 
L 257.333123 95.703144 
L 271.448538 89.335262 
L 285.563953 97.607557 
L 299.679368 90.644546 
L 313.794783 56.484133 
L 327.910198 53.568 
L 342.025613 70.529181 
L 356.141028 143.551528 
L 370.256443 207.646937 
L 384.371858 254.24555 
L 398.487273 260.434893 
" clip-path="url(#pb752bb6aa3)" style="fill: none; stroke: #2ca02c; stroke-width: 1.5; stroke-linecap: square"/>
   </g>
   <g id="line2d_28">
    <path d="M 73.832727 280.609771 
L 87.948142 285.608856 
L 102.063557 288.703528 
L 116.178972 291.798199 
L 130.294387 291.976738 
L 144.409802 284.418598 
L 158.525217 287.989373 
L 172.640632 267.695469 
L 186.756047 232.344797 
L 200.871462 243.057122 
L 214.986877 225.619838 
L 229.102292 184.02031 
L 243.217708 149.443306 
L 257.333123 152.1809 
L 271.448538 156.525343 
L 285.563953 158.251218 
L 299.679368 154.025801 
L 313.794783 139.385624 
L 327.910198 137.421697 
L 342.025613 168.3089 
L 356.141028 195.86338 
L 370.256443 221.394421 
L 384.371858 241.331247 
L 398.487273 251.448443 
" clip-path="url(#pb752bb6aa3)" style="fill: none; stroke: #d62728; stroke-width: 1.5; stroke-linecap: square"/>
   </g>
   <g id="line2d_29">
    <path d="M 73.832727 285.430317 
L 87.948142 288.048886 
L 102.063557 292.690893 
L 116.178972 292.809919 
L 130.294387 293.762125 
L 144.409802 289.298657 
L 158.525217 283.228339 
L 172.640632 242.104915 
L 186.756047 173.665063 
L 200.871462 211.158199 
L 214.986877 211.634303 
L 229.102292 190.328679 
L 243.217708 143.670554 
L 257.333123 171.463085 
L 271.448538 171.463085 
L 285.563953 178.664148 
L 299.679368 170.272827 
L 313.794783 128.316221 
L 327.910198 122.841033 
L 342.025613 148.193535 
L 356.141028 196.637048 
L 370.256443 230.678435 
L 384.371858 253.650421 
L 398.487273 267.754982 
" clip-path="url(#pb752bb6aa3)" style="fill: none; stroke: #9467bd; stroke-width: 1.5; stroke-linecap: square"/>
   </g>
   <g id="line2d_30">
    <path d="M 73.832727 284.121033 
L 87.948142 290.607941 
L 102.063557 291.679173 
L 116.178972 294.47628 
L 130.294387 294.357255 
L 144.409802 288.703528 
L 158.525217 284.299572 
L 172.640632 247.639616 
L 186.756047 172.712856 
L 200.871462 208.004015 
L 214.986877 212.884074 
L 229.102292 187.829137 
L 243.217708 138.790494 
L 257.333123 165.690332 
L 271.448538 171.284546 
L 285.563953 172.17724 
L 299.679368 167.594745 
L 313.794783 129.685018 
L 327.910198 125.459601 
L 342.025613 143.253963 
L 356.141028 200.981491 
L 370.256443 233.297004 
L 384.371858 251.80552 
L 398.487273 259.006583 
" clip-path="url(#pb752bb6aa3)" style="fill: none; stroke: #8c564b; stroke-width: 1.5; stroke-linecap: square"/>
   </g>
   <g id="patch_3">
    <path d="M 57.6 307.584 
L 57.6 41.472 
" style="fill: none; stroke: #000000; stroke-width: 0.8; stroke-linejoin: miter; stroke-linecap: square"/>
   </g>
   <g id="patch_4">
    <path d="M 414.72 307.584 
L 414.72 41.472 
" style="fill: none; stroke: #000000; stroke-width: 0.8; stroke-linejoin: miter; stroke-linecap: square"/>
   </g>
   <g id="patch_5">
    <path d="M 57.6 307.584 
L 414.72 307.584 
" style="fill: none; stroke: #000000; stroke-width: 0.8; stroke-linejoin: miter; stroke-linecap: square"/>
   </g>
   <g id="patch_6">
    <path d="M 57.6 41.472 
L 414.72 41.472 
" style="fill: none; stroke: #000000; stroke-width: 0.8; stroke-linejoin: miter; stroke-linecap: square"/>
   </g>
   <g id="text_17">
    <!-- Amount of Devices by Time at p021 (Mon) -->
    <g transform="translate(109.140938 35.472) scale(0.12 -0.12)">
     <defs>
      <path id="DejaVuSans-62" d="M 3116 1747 
Q 3116 2381 2855 2742 
Q 2594 3103 2138 3103 
Q 1681 3103 1420 2742 
Q 1159 2381 1159 1747 
Q 1159 1113 1420 752 
Q 1681 391 2138 391 
Q 2594 391 2855 752 
Q 3116 1113 3116 1747 
z
M 1159 2969 
Q 1341 3281 1617 3432 
Q 1894 3584 2278 3584 
Q 2916 3584 3314 3078 
Q 3713 2572 3713 1747 
Q 3713 922 3314 415 
Q 2916 -91 2278 -91 
Q 1894 -91 1617 61 
Q 1341 213 1159 525 
L 1159 0 
L 581 0 
L 581 4863 
L 1159 4863 
L 1159 2969 
z
" transform="scale(0.015625)"/>
      <path id="DejaVuSans-79" d="M 2059 -325 
Q 1816 -950 1584 -1140 
Q 1353 -1331 966 -1331 
L 506 -1331 
L 506 -850 
L 844 -850 
Q 1081 -850 1212 -737 
Q 1344 -625 1503 -206 
L 1606 56 
L 191 3500 
L 800 3500 
L 1894 763 
L 2988 3500 
L 3597 3500 
L 2059 -325 
z
" transform="scale(0.015625)"/>
      <path id="DejaVuSans-61" d="M 2194 1759 
Q 1497 1759 1228 1600 
Q 959 1441 959 1056 
Q 959 750 1161 570 
Q 1363 391 1709 391 
Q 2188 391 2477 730 
Q 2766 1069 2766 1631 
L 2766 1759 
L 2194 1759 
z
M 3341 1997 
L 3341 0 
L 2766 0 
L 2766 531 
Q 2569 213 2275 61 
Q 1981 -91 1556 -91 
Q 1019 -91 701 211 
Q 384 513 384 1019 
Q 384 1609 779 1909 
Q 1175 2209 1959 2209 
L 2766 2209 
L 2766 2266 
Q 2766 2663 2505 2880 
Q 2244 3097 1772 3097 
Q 1472 3097 1187 3025 
Q 903 2953 641 2809 
L 641 3341 
Q 956 3463 1253 3523 
Q 1550 3584 1831 3584 
Q 2591 3584 2966 3190 
Q 3341 2797 3341 1997 
z
" transform="scale(0.015625)"/>
      <path id="DejaVuSans-70" d="M 1159 525 
L 1159 -1331 
L 581 -1331 
L 581 3500 
L 1159 3500 
L 1159 2969 
Q 1341 3281 1617 3432 
Q 1894 3584 2278 3584 
Q 2916 3584 3314 3078 
Q 3713 2572 3713 1747 
Q 3713 922 3314 415 
Q 2916 -91 2278 -91 
Q 1894 -91 1617 61 
Q 1341 213 1159 525 
z
M 3116 1747 
Q 3116 2381 2855 2742 
Q 2594 3103 2138 3103 
Q 1681 3103 1420 2742 
Q 1159 2381 1159 1747 
Q 1159 1113 1420 752 
Q 1681 391 2138 391 
Q 2594 391 2855 752 
Q 3116 1113 3116 1747 
z
" transform="scale(0.015625)"/>
      <path id="DejaVuSans-28" d="M 1984 4856 
Q 1566 4138 1362 3434 
Q 1159 2731 1159 2009 
Q 1159 1288 1364 580 
Q 1569 -128 1984 -844 
L 1484 -844 
Q 1016 -109 783 600 
Q 550 1309 550 2009 
Q 550 2706 781 3412 
Q 1013 4119 1484 4856 
L 1984 4856 
z
" transform="scale(0.015625)"/>
      <path id="DejaVuSans-4d" d="M 628 4666 
L 1569 4666 
L 2759 1491 
L 3956 4666 
L 4897 4666 
L 4897 0 
L 4281 0 
L 4281 4097 
L 3078 897 
L 2444 897 
L 1241 4097 
L 1241 0 
L 628 0 
L 628 4666 
z
" transform="scale(0.015625)"/>
      <path id="DejaVuSans-29" d="M 513 4856 
L 1013 4856 
Q 1481 4119 1714 3412 
Q 1947 2706 1947 2009 
Q 1947 1309 1714 600 
Q 1481 -109 1013 -844 
L 513 -844 
Q 928 -128 1133 580 
Q 1338 1288 1338 2009 
Q 1338 2731 1133 3434 
Q 928 4138 513 4856 
z
" transform="scale(0.015625)"/>
     </defs>
     <use xlink:href="#DejaVuSans-41"/>
     <use xlink:href="#DejaVuSans-6d" x="68.408203"/>
     <use xlink:href="#DejaVuSans-6f" x="165.820312"/>
     <use xlink:href="#DejaVuSans-75" x="227.001953"/>
     <use xlink:href="#DejaVuSans-6e" x="290.380859"/>
     <use xlink:href="#DejaVuSans-74" x="353.759766"/>
     <use xlink:href="#DejaVuSans-20" x="392.96875"/>
     <use xlink:href="#DejaVuSans-6f" x="424.755859"/>
     <use xlink:href="#DejaVuSans-66" x="485.9375"/>
     <use xlink:href="#DejaVuSans-20" x="521.142578"/>
     <use xlink:href="#DejaVuSans-44" x="552.929688"/>
     <use xlink:href="#DejaVuSans-65" x="629.931641"/>
     <use xlink:href="#DejaVuSans-76" x="691.455078"/>
     <use xlink:href="#DejaVuSans-69" x="750.634766"/>
     <use xlink:href="#DejaVuSans-63" x="778.417969"/>
     <use xlink:href="#DejaVuSans-65" x="833.398438"/>
     <use xlink:href="#DejaVuSans-73" x="894.921875"/>
     <use xlink:href="#DejaVuSans-20" x="947.021484"/>
     <use xlink:href="#DejaVuSans-62" x="978.808594"/>
     <use xlink:href="#DejaVuSans-79" x="1042.285156"/>
     <use xlink:href="#DejaVuSans-20" x="1101.464844"/>
     <use xlink:href="#DejaVuSans-54" x="1133.251953"/>
     <use xlink:href="#DejaVuSans-69" x="1191.210938"/>
     <use xlink:href="#DejaVuSans-6d" x="1218.994141"/>
     <use xlink:href="#DejaVuSans-65" x="1316.40625"/>
     <use xlink:href="#DejaVuSans-20" x="1377.929688"/>
     <use xlink:href="#DejaVuSans-61" x="1409.716797"/>
     <use xlink:href="#DejaVuSans-74" x="1470.996094"/>
     <use xlink:href="#DejaVuSans-20" x="1510.205078"/>
     <use xlink:href="#DejaVuSans-70" x="1541.992188"/>
     <use xlink:href="#DejaVuSans-30" x="1605.46875"/>
     <use xlink:href="#DejaVuSans-32" x="1669.091797"/>
     <use xlink:href="#DejaVuSans-31" x="1732.714844"/>
     <use xlink:href="#DejaVuSans-20" x="1796.337891"/>
     <use xlink:href="#DejaVuSans-28" x="1828.125"/>
     <use xlink:href="#DejaVuSans-4d" x="1867.138672"/>
     <use xlink:href="#DejaVuSans-6f" x="1953.417969"/>
     <use xlink:href="#DejaVuSans-6e" x="2014.599609"/>
     <use xlink:href="#DejaVuSans-29" x="2077.978516"/>
    </g>
   </g>
   <g id="legend_1">
    <g id="patch_7">
     <path d="M 64.6 299.000125 
L 202.80625 299.000125 
Q 204.80625 299.000125 204.80625 297.000125 
L 204.80625 48.472 
Q 204.80625 46.472 202.80625 46.472 
L 64.6 46.472 
Q 62.6 46.472 62.6 48.472 
L 62.6 297.000125 
Q 62.6 299.000125 64.6 299.000125 
z
" style="fill: #ffffff; opacity: 0.8; stroke: #cccccc; stroke-linejoin: miter"/>
    </g>
    <g id="text_18">
     <!-- datetime -->
     <g transform="translate(111.132031 58.070437) scale(0.1 -0.1)">
      <defs>
       <path id="DejaVuSans-64" d="M 2906 2969 
L 2906 4863 
L 3481 4863 
L 3481 0 
L 2906 0 
L 2906 525 
Q 2725 213 2448 61 
Q 2172 -91 1784 -91 
Q 1150 -91 751 415 
Q 353 922 353 1747 
Q 353 2572 751 3078 
Q 1150 3584 1784 3584 
Q 2172 3584 2448 3432 
Q 2725 3281 2906 2969 
z
M 947 1747 
Q 947 1113 1208 752 
Q 1469 391 1925 391 
Q 2381 391 2643 752 
Q 2906 1113 2906 1747 
Q 2906 2381 2643 2742 
Q 2381 3103 1925 3103 
Q 1469 3103 1208 2742 
Q 947 2381 947 1747 
z
" transform="scale(0.015625)"/>
      </defs>
      <use xlink:href="#DejaVuSans-64"/>
      <use xlink:href="#DejaVuSans-61" x="63.476562"/>
      <use xlink:href="#DejaVuSans-74" x="124.755859"/>
      <use xlink:href="#DejaVuSans-65" x="163.964844"/>
      <use xlink:href="#DejaVuSans-74" x="225.488281"/>
      <use xlink:href="#DejaVuSans-69" x="264.697266"/>
      <use xlink:href="#DejaVuSans-6d" x="292.480469"/>
      <use xlink:href="#DejaVuSans-65" x="389.892578"/>
     </g>
    </g>
    <g id="line2d_31">
     <path d="M 66.6 69.248562 
L 76.6 69.248562 
L 86.6 69.248562 
" style="fill: none; stroke: #1f77b4; stroke-width: 1.5; stroke-linecap: square"/>
    </g>
    <g id="text_19">
     <!-- 2022-04-25 00:00:00 -->
     <g transform="translate(94.6 72.748562) scale(0.1 -0.1)">
      <defs>
       <path id="DejaVuSans-2d" d="M 313 2009 
L 1997 2009 
L 1997 1497 
L 313 1497 
L 313 2009 
z
" transform="scale(0.015625)"/>
       <path id="DejaVuSans-3a" d="M 750 794 
L 1409 794 
L 1409 0 
L 750 0 
L 750 794 
z
M 750 3309 
L 1409 3309 
L 1409 2516 
L 750 2516 
L 750 3309 
z
" transform="scale(0.015625)"/>
      </defs>
      <use xlink:href="#DejaVuSans-32"/>
      <use xlink:href="#DejaVuSans-30" x="63.623047"/>
      <use xlink:href="#DejaVuSans-32" x="127.246094"/>
      <use xlink:href="#DejaVuSans-32" x="190.869141"/>
      <use xlink:href="#DejaVuSans-2d" x="254.492188"/>
      <use xlink:href="#DejaVuSans-30" x="290.576172"/>
      <use xlink:href="#DejaVuSans-34" x="354.199219"/>
      <use xlink:href="#DejaVuSans-2d" x="417.822266"/>
      <use xlink:href="#DejaVuSans-32" x="453.90625"/>
      <use xlink:href="#DejaVuSans-35" x="517.529297"/>
      <use xlink:href="#DejaVuSans-20" x="581.152344"/>
      <use xlink:href="#DejaVuSans-30" x="612.939453"/>
      <use xlink:href="#DejaVuSans-30" x="676.5625"/>
      <use xlink:href="#DejaVuSans-3a" x="740.185547"/>
      <use xlink:href="#DejaVuSans-30" x="773.876953"/>
      <use xlink:href="#DejaVuSans-30" x="837.5"/>
      <use xlink:href="#DejaVuSans-3a" x="901.123047"/>
      <use xlink:href="#DejaVuSans-30" x="934.814453"/>
      <use xlink:href="#DejaVuSans-30" x="998.4375"/>
     </g>
    </g>
    <g id="line2d_32">
     <path d="M 66.6 83.926688 
L 76.6 83.926688 
L 86.6 83.926688 
" style="fill: none; stroke: #ff7f0e; stroke-width: 1.5; stroke-linecap: square"/>
    </g>
    <g id="text_20">
     <!-- 2022-05-02 00:00:00 -->
     <g transform="translate(94.6 87.426688) scale(0.1 -0.1)">
      <use xlink:href="#DejaVuSans-32"/>
      <use xlink:href="#DejaVuSans-30" x="63.623047"/>
      <use xlink:href="#DejaVuSans-32" x="127.246094"/>
      <use xlink:href="#DejaVuSans-32" x="190.869141"/>
      <use xlink:href="#DejaVuSans-2d" x="254.492188"/>
      <use xlink:href="#DejaVuSans-30" x="290.576172"/>
      <use xlink:href="#DejaVuSans-35" x="354.199219"/>
      <use xlink:href="#DejaVuSans-2d" x="417.822266"/>
      <use xlink:href="#DejaVuSans-30" x="453.90625"/>
      <use xlink:href="#DejaVuSans-32" x="517.529297"/>
      <use xlink:href="#DejaVuSans-20" x="581.152344"/>
      <use xlink:href="#DejaVuSans-30" x="612.939453"/>
      <use xlink:href="#DejaVuSans-30" x="676.5625"/>
      <use xlink:href="#DejaVuSans-3a" x="740.185547"/>
      <use xlink:href="#DejaVuSans-30" x="773.876953"/>
      <use xlink:href="#DejaVuSans-30" x="837.5"/>
      <use xlink:href="#DejaVuSans-3a" x="901.123047"/>
      <use xlink:href="#DejaVuSans-30" x="934.814453"/>
      <use xlink:href="#DejaVuSans-30" x="998.4375"/>
     </g>
    </g>
    <g id="line2d_33">
     <path d="M 66.6 98.604813 
L 76.6 98.604813 
L 86.6 98.604813 
" style="fill: none; stroke: #2ca02c; stroke-width: 1.5; stroke-linecap: square"/>
    </g>
    <g id="text_21">
     <!-- 2022-05-09 00:00:00 -->
     <g transform="translate(94.6 102.104813) scale(0.1 -0.1)">
      <defs>
       <path id="DejaVuSans-39" d="M 703 97 
L 703 672 
Q 941 559 1184 500 
Q 1428 441 1663 441 
Q 2288 441 2617 861 
Q 2947 1281 2994 2138 
Q 2813 1869 2534 1725 
Q 2256 1581 1919 1581 
Q 1219 1581 811 2004 
Q 403 2428 403 3163 
Q 403 3881 828 4315 
Q 1253 4750 1959 4750 
Q 2769 4750 3195 4129 
Q 3622 3509 3622 2328 
Q 3622 1225 3098 567 
Q 2575 -91 1691 -91 
Q 1453 -91 1209 -44 
Q 966 3 703 97 
z
M 1959 2075 
Q 2384 2075 2632 2365 
Q 2881 2656 2881 3163 
Q 2881 3666 2632 3958 
Q 2384 4250 1959 4250 
Q 1534 4250 1286 3958 
Q 1038 3666 1038 3163 
Q 1038 2656 1286 2365 
Q 1534 2075 1959 2075 
z
" transform="scale(0.015625)"/>
      </defs>
      <use xlink:href="#DejaVuSans-32"/>
      <use xlink:href="#DejaVuSans-30" x="63.623047"/>
      <use xlink:href="#DejaVuSans-32" x="127.246094"/>
      <use xlink:href="#DejaVuSans-32" x="190.869141"/>
      <use xlink:href="#DejaVuSans-2d" x="254.492188"/>
      <use xlink:href="#DejaVuSans-30" x="290.576172"/>
      <use xlink:href="#DejaVuSans-35" x="354.199219"/>
      <use xlink:href="#DejaVuSans-2d" x="417.822266"/>
      <use xlink:href="#DejaVuSans-30" x="453.90625"/>
      <use xlink:href="#DejaVuSans-39" x="517.529297"/>
      <use xlink:href="#DejaVuSans-20" x="581.152344"/>
      <use xlink:href="#DejaVuSans-30" x="612.939453"/>
      <use xlink:href="#DejaVuSans-30" x="676.5625"/>
      <use xlink:href="#DejaVuSans-3a" x="740.185547"/>
      <use xlink:href="#DejaVuSans-30" x="773.876953"/>
      <use xlink:href="#DejaVuSans-30" x="837.5"/>
      <use xlink:href="#DejaVuSans-3a" x="901.123047"/>
      <use xlink:href="#DejaVuSans-30" x="934.814453"/>
      <use xlink:href="#DejaVuSans-30" x="998.4375"/>
     </g>
    </g>
    <g id="line2d_34">
     <path d="M 66.6 113.282938 
L 76.6 113.282938 
L 86.6 113.282938 
" style="fill: none; stroke: #d62728; stroke-width: 1.5; stroke-linecap: square"/>
    </g>
    <g id="text_22">
     <!-- 2022-06-06 00:00:00 -->
     <g transform="translate(94.6 116.782938) scale(0.1 -0.1)">
      <defs>
       <path id="DejaVuSans-36" d="M 2113 2584 
Q 1688 2584 1439 2293 
Q 1191 2003 1191 1497 
Q 1191 994 1439 701 
Q 1688 409 2113 409 
Q 2538 409 2786 701 
Q 3034 994 3034 1497 
Q 3034 2003 2786 2293 
Q 2538 2584 2113 2584 
z
M 3366 4563 
L 3366 3988 
Q 3128 4100 2886 4159 
Q 2644 4219 2406 4219 
Q 1781 4219 1451 3797 
Q 1122 3375 1075 2522 
Q 1259 2794 1537 2939 
Q 1816 3084 2150 3084 
Q 2853 3084 3261 2657 
Q 3669 2231 3669 1497 
Q 3669 778 3244 343 
Q 2819 -91 2113 -91 
Q 1303 -91 875 529 
Q 447 1150 447 2328 
Q 447 3434 972 4092 
Q 1497 4750 2381 4750 
Q 2619 4750 2861 4703 
Q 3103 4656 3366 4563 
z
" transform="scale(0.015625)"/>
      </defs>
      <use xlink:href="#DejaVuSans-32"/>
      <use xlink:href="#DejaVuSans-30" x="63.623047"/>
      <use xlink:href="#DejaVuSans-32" x="127.246094"/>
      <use xlink:href="#DejaVuSans-32" x="190.869141"/>
      <use xlink:href="#DejaVuSans-2d" x="254.492188"/>
      <use xlink:href="#DejaVuSans-30" x="290.576172"/>
      <use xlink:href="#DejaVuSans-36" x="354.199219"/>
      <use xlink:href="#DejaVuSans-2d" x="417.822266"/>
      <use xlink:href="#DejaVuSans-30" x="453.90625"/>
      <use xlink:href="#DejaVuSans-36" x="517.529297"/>
      <use xlink:href="#DejaVuSans-20" x="581.152344"/>
      <use xlink:href="#DejaVuSans-30" x="612.939453"/>
      <use xlink:href="#DejaVuSans-30" x="676.5625"/>
      <use xlink:href="#DejaVuSans-3a" x="740.185547"/>
      <use xlink:href="#DejaVuSans-30" x="773.876953"/>
      <use xlink:href="#DejaVuSans-30" x="837.5"/>
      <use xlink:href="#DejaVuSans-3a" x="901.123047"/>
      <use xlink:href="#DejaVuSans-30" x="934.814453"/>
      <use xlink:href="#DejaVuSans-30" x="998.4375"/>
     </g>
    </g>
    <g id="line2d_35">
     <path d="M 66.6 127.961062 
L 76.6 127.961062 
L 86.6 127.961062 
" style="fill: none; stroke: #9467bd; stroke-width: 1.5; stroke-linecap: square"/>
    </g>
    <g id="text_23">
     <!-- 2022-06-13 00:00:00 -->
     <g transform="translate(94.6 131.461062) scale(0.1 -0.1)">
      <use xlink:href="#DejaVuSans-32"/>
      <use xlink:href="#DejaVuSans-30" x="63.623047"/>
      <use xlink:href="#DejaVuSans-32" x="127.246094"/>
      <use xlink:href="#DejaVuSans-32" x="190.869141"/>
      <use xlink:href="#DejaVuSans-2d" x="254.492188"/>
      <use xlink:href="#DejaVuSans-30" x="290.576172"/>
      <use xlink:href="#DejaVuSans-36" x="354.199219"/>
      <use xlink:href="#DejaVuSans-2d" x="417.822266"/>
      <use xlink:href="#DejaVuSans-31" x="453.90625"/>
      <use xlink:href="#DejaVuSans-33" x="517.529297"/>
      <use xlink:href="#DejaVuSans-20" x="581.152344"/>
      <use xlink:href="#DejaVuSans-30" x="612.939453"/>
      <use xlink:href="#DejaVuSans-30" x="676.5625"/>
      <use xlink:href="#DejaVuSans-3a" x="740.185547"/>
      <use xlink:href="#DejaVuSans-30" x="773.876953"/>
      <use xlink:href="#DejaVuSans-30" x="837.5"/>
      <use xlink:href="#DejaVuSans-3a" x="901.123047"/>
      <use xlink:href="#DejaVuSans-30" x="934.814453"/>
      <use xlink:href="#DejaVuSans-30" x="998.4375"/>
     </g>
    </g>
    <g id="line2d_36">
     <path d="M 66.6 142.639188 
L 76.6 142.639188 
L 86.6 142.639188 
" style="fill: none; stroke: #8c564b; stroke-width: 1.5; stroke-linecap: square"/>
    </g>
    <g id="text_24">
     <!-- 2022-06-20 00:00:00 -->
     <g transform="translate(94.6 146.139188) scale(0.1 -0.1)">
      <use xlink:href="#DejaVuSans-32"/>
      <use xlink:href="#DejaVuSans-30" x="63.623047"/>
      <use xlink:href="#DejaVuSans-32" x="127.246094"/>
      <use xlink:href="#DejaVuSans-32" x="190.869141"/>
      <use xlink:href="#DejaVuSans-2d" x="254.492188"/>
      <use xlink:href="#DejaVuSans-30" x="290.576172"/>
      <use xlink:href="#DejaVuSans-36" x="354.199219"/>
      <use xlink:href="#DejaVuSans-2d" x="417.822266"/>
      <use xlink:href="#DejaVuSans-32" x="453.90625"/>
      <use xlink:href="#DejaVuSans-30" x="517.529297"/>
      <use xlink:href="#DejaVuSans-20" x="581.152344"/>
      <use xlink:href="#DejaVuSans-30" x="612.939453"/>
      <use xlink:href="#DejaVuSans-30" x="676.5625"/>
      <use xlink:href="#DejaVuSans-3a" x="740.185547"/>
      <use xlink:href="#DejaVuSans-30" x="773.876953"/>
      <use xlink:href="#DejaVuSans-30" x="837.5"/>
      <use xlink:href="#DejaVuSans-3a" x="901.123047"/>
      <use xlink:href="#DejaVuSans-30" x="934.814453"/>
      <use xlink:href="#DejaVuSans-30" x="998.4375"/>
     </g>
    </g>
    <g id="line2d_37">
     <path d="M 66.6 157.317312 
L 76.6 157.317312 
L 86.6 157.317312 
" style="fill: none; stroke: #e377c2; stroke-width: 1.5; stroke-linecap: square"/>
    </g>
    <g id="text_25">
     <!-- 2022-06-27 00:00:00 -->
     <g transform="translate(94.6 160.817312) scale(0.1 -0.1)">
      <defs>
       <path id="DejaVuSans-37" d="M 525 4666 
L 3525 4666 
L 3525 4397 
L 1831 0 
L 1172 0 
L 2766 4134 
L 525 4134 
L 525 4666 
z
" transform="scale(0.015625)"/>
      </defs>
      <use xlink:href="#DejaVuSans-32"/>
      <use xlink:href="#DejaVuSans-30" x="63.623047"/>
      <use xlink:href="#DejaVuSans-32" x="127.246094"/>
      <use xlink:href="#DejaVuSans-32" x="190.869141"/>
      <use xlink:href="#DejaVuSans-2d" x="254.492188"/>
      <use xlink:href="#DejaVuSans-30" x="290.576172"/>
      <use xlink:href="#DejaVuSans-36" x="354.199219"/>
      <use xlink:href="#DejaVuSans-2d" x="417.822266"/>
      <use xlink:href="#DejaVuSans-32" x="453.90625"/>
      <use xlink:href="#DejaVuSans-37" x="517.529297"/>
      <use xlink:href="#DejaVuSans-20" x="581.152344"/>
      <use xlink:href="#DejaVuSans-30" x="612.939453"/>
      <use xlink:href="#DejaVuSans-30" x="676.5625"/>
      <use xlink:href="#DejaVuSans-3a" x="740.185547"/>
      <use xlink:href="#DejaVuSans-30" x="773.876953"/>
      <use xlink:href="#DejaVuSans-30" x="837.5"/>
      <use xlink:href="#DejaVuSans-3a" x="901.123047"/>
      <use xlink:href="#DejaVuSans-30" x="934.814453"/>
      <use xlink:href="#DejaVuSans-30" x="998.4375"/>
     </g>
    </g>
    <g id="line2d_38">
     <path d="M 66.6 171.995437 
L 76.6 171.995437 
L 86.6 171.995437 
" style="fill: none; stroke: #7f7f7f; stroke-width: 1.5; stroke-linecap: square"/>
    </g>
    <g id="text_26">
     <!-- 2022-07-04 00:00:00 -->
     <g transform="translate(94.6 175.495437) scale(0.1 -0.1)">
      <use xlink:href="#DejaVuSans-32"/>
      <use xlink:href="#DejaVuSans-30" x="63.623047"/>
      <use xlink:href="#DejaVuSans-32" x="127.246094"/>
      <use xlink:href="#DejaVuSans-32" x="190.869141"/>
      <use xlink:href="#DejaVuSans-2d" x="254.492188"/>
      <use xlink:href="#DejaVuSans-30" x="290.576172"/>
      <use xlink:href="#DejaVuSans-37" x="354.199219"/>
      <use xlink:href="#DejaVuSans-2d" x="417.822266"/>
      <use xlink:href="#DejaVuSans-30" x="453.90625"/>
      <use xlink:href="#DejaVuSans-34" x="517.529297"/>
      <use xlink:href="#DejaVuSans-20" x="581.152344"/>
      <use xlink:href="#DejaVuSans-30" x="612.939453"/>
      <use xlink:href="#DejaVuSans-30" x="676.5625"/>
      <use xlink:href="#DejaVuSans-3a" x="740.185547"/>
      <use xlink:href="#DejaVuSans-30" x="773.876953"/>
      <use xlink:href="#DejaVuSans-30" x="837.5"/>
      <use xlink:href="#DejaVuSans-3a" x="901.123047"/>
      <use xlink:href="#DejaVuSans-30" x="934.814453"/>
      <use xlink:href="#DejaVuSans-30" x="998.4375"/>
     </g>
    </g>
    <g id="line2d_39">
     <path d="M 66.6 186.673563 
L 76.6 186.673563 
L 86.6 186.673563 
" style="fill: none; stroke: #bcbd22; stroke-width: 1.5; stroke-linecap: square"/>
    </g>
    <g id="text_27">
     <!-- 2022-07-11 00:00:00 -->
     <g transform="translate(94.6 190.173563) scale(0.1 -0.1)">
      <use xlink:href="#DejaVuSans-32"/>
      <use xlink:href="#DejaVuSans-30" x="63.623047"/>
      <use xlink:href="#DejaVuSans-32" x="127.246094"/>
      <use xlink:href="#DejaVuSans-32" x="190.869141"/>
      <use xlink:href="#DejaVuSans-2d" x="254.492188"/>
      <use xlink:href="#DejaVuSans-30" x="290.576172"/>
      <use xlink:href="#DejaVuSans-37" x="354.199219"/>
      <use xlink:href="#DejaVuSans-2d" x="417.822266"/>
      <use xlink:href="#DejaVuSans-31" x="453.90625"/>
      <use xlink:href="#DejaVuSans-31" x="517.529297"/>
      <use xlink:href="#DejaVuSans-20" x="581.152344"/>
      <use xlink:href="#DejaVuSans-30" x="612.939453"/>
      <use xlink:href="#DejaVuSans-30" x="676.5625"/>
      <use xlink:href="#DejaVuSans-3a" x="740.185547"/>
      <use xlink:href="#DejaVuSans-30" x="773.876953"/>
      <use xlink:href="#DejaVuSans-30" x="837.5"/>
      <use xlink:href="#DejaVuSans-3a" x="901.123047"/>
      <use xlink:href="#DejaVuSans-30" x="934.814453"/>
      <use xlink:href="#DejaVuSans-30" x="998.4375"/>
     </g>
    </g>
    <g id="line2d_40">
     <path d="M 66.6 201.351687 
L 76.6 201.351687 
L 86.6 201.351687 
" style="fill: none; stroke: #17becf; stroke-width: 1.5; stroke-linecap: square"/>
    </g>
    <g id="text_28">
     <!-- 2022-07-18 00:00:00 -->
     <g transform="translate(94.6 204.851687) scale(0.1 -0.1)">
      <defs>
       <path id="DejaVuSans-38" d="M 2034 2216 
Q 1584 2216 1326 1975 
Q 1069 1734 1069 1313 
Q 1069 891 1326 650 
Q 1584 409 2034 409 
Q 2484 409 2743 651 
Q 3003 894 3003 1313 
Q 3003 1734 2745 1975 
Q 2488 2216 2034 2216 
z
M 1403 2484 
Q 997 2584 770 2862 
Q 544 3141 544 3541 
Q 544 4100 942 4425 
Q 1341 4750 2034 4750 
Q 2731 4750 3128 4425 
Q 3525 4100 3525 3541 
Q 3525 3141 3298 2862 
Q 3072 2584 2669 2484 
Q 3125 2378 3379 2068 
Q 3634 1759 3634 1313 
Q 3634 634 3220 271 
Q 2806 -91 2034 -91 
Q 1263 -91 848 271 
Q 434 634 434 1313 
Q 434 1759 690 2068 
Q 947 2378 1403 2484 
z
M 1172 3481 
Q 1172 3119 1398 2916 
Q 1625 2713 2034 2713 
Q 2441 2713 2670 2916 
Q 2900 3119 2900 3481 
Q 2900 3844 2670 4047 
Q 2441 4250 2034 4250 
Q 1625 4250 1398 4047 
Q 1172 3844 1172 3481 
z
" transform="scale(0.015625)"/>
      </defs>
      <use xlink:href="#DejaVuSans-32"/>
      <use xlink:href="#DejaVuSans-30" x="63.623047"/>
      <use xlink:href="#DejaVuSans-32" x="127.246094"/>
      <use xlink:href="#DejaVuSans-32" x="190.869141"/>
      <use xlink:href="#DejaVuSans-2d" x="254.492188"/>
      <use xlink:href="#DejaVuSans-30" x="290.576172"/>
      <use xlink:href="#DejaVuSans-37" x="354.199219"/>
      <use xlink:href="#DejaVuSans-2d" x="417.822266"/>
      <use xlink:href="#DejaVuSans-31" x="453.90625"/>
      <use xlink:href="#DejaVuSans-38" x="517.529297"/>
      <use xlink:href="#DejaVuSans-20" x="581.152344"/>
      <use xlink:href="#DejaVuSans-30" x="612.939453"/>
      <use xlink:href="#DejaVuSans-30" x="676.5625"/>
      <use xlink:href="#DejaVuSans-3a" x="740.185547"/>
      <use xlink:href="#DejaVuSans-30" x="773.876953"/>
      <use xlink:href="#DejaVuSans-30" x="837.5"/>
      <use xlink:href="#DejaVuSans-3a" x="901.123047"/>
      <use xlink:href="#DejaVuSans-30" x="934.814453"/>
      <use xlink:href="#DejaVuSans-30" x="998.4375"/>
     </g>
    </g>
    <g id="line2d_41">
     <path d="M 66.6 216.029812 
L 76.6 216.029812 
L 86.6 216.029812 
" style="fill: none; stroke: #1f77b4; stroke-width: 1.5; stroke-linecap: square"/>
    </g>
    <g id="text_29">
     <!-- 2022-07-25 00:00:00 -->
     <g transform="translate(94.6 219.529812) scale(0.1 -0.1)">
      <use xlink:href="#DejaVuSans-32"/>
      <use xlink:href="#DejaVuSans-30" x="63.623047"/>
      <use xlink:href="#DejaVuSans-32" x="127.246094"/>
      <use xlink:href="#DejaVuSans-32" x="190.869141"/>
      <use xlink:href="#DejaVuSans-2d" x="254.492188"/>
      <use xlink:href="#DejaVuSans-30" x="290.576172"/>
      <use xlink:href="#DejaVuSans-37" x="354.199219"/>
      <use xlink:href="#DejaVuSans-2d" x="417.822266"/>
      <use xlink:href="#DejaVuSans-32" x="453.90625"/>
      <use xlink:href="#DejaVuSans-35" x="517.529297"/>
      <use xlink:href="#DejaVuSans-20" x="581.152344"/>
      <use xlink:href="#DejaVuSans-30" x="612.939453"/>
      <use xlink:href="#DejaVuSans-30" x="676.5625"/>
      <use xlink:href="#DejaVuSans-3a" x="740.185547"/>
      <use xlink:href="#DejaVuSans-30" x="773.876953"/>
      <use xlink:href="#DejaVuSans-30" x="837.5"/>
      <use xlink:href="#DejaVuSans-3a" x="901.123047"/>
      <use xlink:href="#DejaVuSans-30" x="934.814453"/>
      <use xlink:href="#DejaVuSans-30" x="998.4375"/>
     </g>
    </g>
    <g id="line2d_42">
     <path d="M 66.6 230.707937 
L 76.6 230.707937 
L 86.6 230.707937 
" style="fill: none; stroke: #ff7f0e; stroke-width: 1.5; stroke-linecap: square"/>
    </g>
    <g id="text_30">
     <!-- 2022-08-01 00:00:00 -->
     <g transform="translate(94.6 234.207937) scale(0.1 -0.1)">
      <use xlink:href="#DejaVuSans-32"/>
      <use xlink:href="#DejaVuSans-30" x="63.623047"/>
      <use xlink:href="#DejaVuSans-32" x="127.246094"/>
      <use xlink:href="#DejaVuSans-32" x="190.869141"/>
      <use xlink:href="#DejaVuSans-2d" x="254.492188"/>
      <use xlink:href="#DejaVuSans-30" x="290.576172"/>
      <use xlink:href="#DejaVuSans-38" x="354.199219"/>
      <use xlink:href="#DejaVuSans-2d" x="417.822266"/>
      <use xlink:href="#DejaVuSans-30" x="453.90625"/>
      <use xlink:href="#DejaVuSans-31" x="517.529297"/>
      <use xlink:href="#DejaVuSans-20" x="581.152344"/>
      <use xlink:href="#DejaVuSans-30" x="612.939453"/>
      <use xlink:href="#DejaVuSans-30" x="676.5625"/>
      <use xlink:href="#DejaVuSans-3a" x="740.185547"/>
      <use xlink:href="#DejaVuSans-30" x="773.876953"/>
      <use xlink:href="#DejaVuSans-30" x="837.5"/>
      <use xlink:href="#DejaVuSans-3a" x="901.123047"/>
      <use xlink:href="#DejaVuSans-30" x="934.814453"/>
      <use xlink:href="#DejaVuSans-30" x="998.4375"/>
     </g>
    </g>
    <g id="line2d_43">
     <path d="M 66.6 245.386062 
L 76.6 245.386062 
L 86.6 245.386062 
" style="fill: none; stroke: #2ca02c; stroke-width: 1.5; stroke-linecap: square"/>
    </g>
    <g id="text_31">
     <!-- 2022-08-08 00:00:00 -->
     <g transform="translate(94.6 248.886062) scale(0.1 -0.1)">
      <use xlink:href="#DejaVuSans-32"/>
      <use xlink:href="#DejaVuSans-30" x="63.623047"/>
      <use xlink:href="#DejaVuSans-32" x="127.246094"/>
      <use xlink:href="#DejaVuSans-32" x="190.869141"/>
      <use xlink:href="#DejaVuSans-2d" x="254.492188"/>
      <use xlink:href="#DejaVuSans-30" x="290.576172"/>
      <use xlink:href="#DejaVuSans-38" x="354.199219"/>
      <use xlink:href="#DejaVuSans-2d" x="417.822266"/>
      <use xlink:href="#DejaVuSans-30" x="453.90625"/>
      <use xlink:href="#DejaVuSans-38" x="517.529297"/>
      <use xlink:href="#DejaVuSans-20" x="581.152344"/>
      <use xlink:href="#DejaVuSans-30" x="612.939453"/>
      <use xlink:href="#DejaVuSans-30" x="676.5625"/>
      <use xlink:href="#DejaVuSans-3a" x="740.185547"/>
      <use xlink:href="#DejaVuSans-30" x="773.876953"/>
      <use xlink:href="#DejaVuSans-30" x="837.5"/>
      <use xlink:href="#DejaVuSans-3a" x="901.123047"/>
      <use xlink:href="#DejaVuSans-30" x="934.814453"/>
      <use xlink:href="#DejaVuSans-30" x="998.4375"/>
     </g>
    </g>
    <g id="line2d_44">
     <path d="M 66.6 260.064187 
L 76.6 260.064187 
L 86.6 260.064187 
" style="fill: none; stroke: #d62728; stroke-width: 1.5; stroke-linecap: square"/>
    </g>
    <g id="text_32">
     <!-- 2022-08-15 00:00:00 -->
     <g transform="translate(94.6 263.564187) scale(0.1 -0.1)">
      <use xlink:href="#DejaVuSans-32"/>
      <use xlink:href="#DejaVuSans-30" x="63.623047"/>
      <use xlink:href="#DejaVuSans-32" x="127.246094"/>
      <use xlink:href="#DejaVuSans-32" x="190.869141"/>
      <use xlink:href="#DejaVuSans-2d" x="254.492188"/>
      <use xlink:href="#DejaVuSans-30" x="290.576172"/>
      <use xlink:href="#DejaVuSans-38" x="354.199219"/>
      <use xlink:href="#DejaVuSans-2d" x="417.822266"/>
      <use xlink:href="#DejaVuSans-31" x="453.90625"/>
      <use xlink:href="#DejaVuSans-35" x="517.529297"/>
      <use xlink:href="#DejaVuSans-20" x="581.152344"/>
      <use xlink:href="#DejaVuSans-30" x="612.939453"/>
      <use xlink:href="#DejaVuSans-30" x="676.5625"/>
      <use xlink:href="#DejaVuSans-3a" x="740.185547"/>
      <use xlink:href="#DejaVuSans-30" x="773.876953"/>
      <use xlink:href="#DejaVuSans-30" x="837.5"/>
      <use xlink:href="#DejaVuSans-3a" x="901.123047"/>
      <use xlink:href="#DejaVuSans-30" x="934.814453"/>
      <use xlink:href="#DejaVuSans-30" x="998.4375"/>
     </g>
    </g>
    <g id="line2d_45">
     <path d="M 66.6 274.742312 
L 76.6 274.742312 
L 86.6 274.742312 
" style="fill: none; stroke: #9467bd; stroke-width: 1.5; stroke-linecap: square"/>
    </g>
    <g id="text_33">
     <!-- 2022-08-22 00:00:00 -->
     <g transform="translate(94.6 278.242312) scale(0.1 -0.1)">
      <use xlink:href="#DejaVuSans-32"/>
      <use xlink:href="#DejaVuSans-30" x="63.623047"/>
      <use xlink:href="#DejaVuSans-32" x="127.246094"/>
      <use xlink:href="#DejaVuSans-32" x="190.869141"/>
      <use xlink:href="#DejaVuSans-2d" x="254.492188"/>
      <use xlink:href="#DejaVuSans-30" x="290.576172"/>
      <use xlink:href="#DejaVuSans-38" x="354.199219"/>
      <use xlink:href="#DejaVuSans-2d" x="417.822266"/>
      <use xlink:href="#DejaVuSans-32" x="453.90625"/>
      <use xlink:href="#DejaVuSans-32" x="517.529297"/>
      <use xlink:href="#DejaVuSans-20" x="581.152344"/>
      <use xlink:href="#DejaVuSans-30" x="612.939453"/>
      <use xlink:href="#DejaVuSans-30" x="676.5625"/>
      <use xlink:href="#DejaVuSans-3a" x="740.185547"/>
      <use xlink:href="#DejaVuSans-30" x="773.876953"/>
      <use xlink:href="#DejaVuSans-30" x="837.5"/>
      <use xlink:href="#DejaVuSans-3a" x="901.123047"/>
      <use xlink:href="#DejaVuSans-30" x="934.814453"/>
      <use xlink:href="#DejaVuSans-30" x="998.4375"/>
     </g>
    </g>
    <g id="line2d_46">
     <path d="M 66.6 289.420437 
L 76.6 289.420437 
L 86.6 289.420437 
" style="fill: none; stroke: #8c564b; stroke-width: 1.5; stroke-linecap: square"/>
    </g>
    <g id="text_34">
     <!-- 2022-08-29 00:00:00 -->
     <g transform="translate(94.6 292.920437) scale(0.1 -0.1)">
      <use xlink:href="#DejaVuSans-32"/>
      <use xlink:href="#DejaVuSans-30" x="63.623047"/>
      <use xlink:href="#DejaVuSans-32" x="127.246094"/>
      <use xlink:href="#DejaVuSans-32" x="190.869141"/>
      <use xlink:href="#DejaVuSans-2d" x="254.492188"/>
      <use xlink:href="#DejaVuSans-30" x="290.576172"/>
      <use xlink:href="#DejaVuSans-38" x="354.199219"/>
      <use xlink:href="#DejaVuSans-2d" x="417.822266"/>
      <use xlink:href="#DejaVuSans-32" x="453.90625"/>
      <use xlink:href="#DejaVuSans-39" x="517.529297"/>
      <use xlink:href="#DejaVuSans-20" x="581.152344"/>
      <use xlink:href="#DejaVuSans-30" x="612.939453"/>
      <use xlink:href="#DejaVuSans-30" x="676.5625"/>
      <use xlink:href="#DejaVuSans-3a" x="740.185547"/>
      <use xlink:href="#DejaVuSans-30" x="773.876953"/>
      <use xlink:href="#DejaVuSans-30" x="837.5"/>
      <use xlink:href="#DejaVuSans-3a" x="901.123047"/>
      <use xlink:href="#DejaVuSans-30" x="934.814453"/>
      <use xlink:href="#DejaVuSans-30" x="998.4375"/>
     </g>
    </g>
   </g>
  </g>
 </g>
 <defs>
  <clipPath id="pb752bb6aa3">
   <rect x="57.6" y="41.472" width="357.12" height="266.112"/>
  </clipPath>
 </defs>
</svg>
