<?xml version="1.0" encoding="utf-8" standalone="no"?>
<!DOCTYPE svg PUBLIC "-//W3C//DTD SVG 1.1//EN"
  "http://www.w3.org/Graphics/SVG/1.1/DTD/svg11.dtd">
<svg xmlns:xlink="http://www.w3.org/1999/xlink" width="460.8pt" height="345.6pt" viewBox="0 0 460.8 345.6" xmlns="http://www.w3.org/2000/svg" version="1.1">
 <metadata>
  <rdf:RDF xmlns:dc="http://purl.org/dc/elements/1.1/" xmlns:cc="http://creativecommons.org/ns#" xmlns:rdf="http://www.w3.org/1999/02/22-rdf-syntax-ns#">
   <cc:Work>
    <dc:type rdf:resource="http://purl.org/dc/dcmitype/StillImage"/>
    <dc:date>2023-07-04T11:38:10.112310</dc:date>
    <dc:format>image/svg+xml</dc:format>
    <dc:creator>
     <cc:Agent>
      <dc:title>Matplotlib v3.7.1, https://matplotlib.org/</dc:title>
     </cc:Agent>
    </dc:creator>
   </cc:Work>
  </rdf:RDF>
 </metadata>
 <defs>
  <style type="text/css">*{stroke-linejoin: round; stroke-linecap: butt}</style>
 </defs>
 <g id="figure_1">
  <g id="patch_1">
   <path d="M 0 345.6 
L 460.8 345.6 
L 460.8 0 
L 0 0 
z
" style="fill: #ffffff"/>
  </g>
  <g id="axes_1">
   <g id="patch_2">
    <path d="M 57.6 307.584 
L 414.72 307.584 
L 414.72 41.472 
L 57.6 41.472 
z
" style="fill: #ffffff"/>
   </g>
   <g id="matplotlib.axis_1">
    <g id="xtick_1">
     <g id="line2d_1">
      <defs>
       <path id="m0afdf9e4d3" d="M 0 0 
L 0 3.5 
" style="stroke: #000000; stroke-width: 0.8"/>
      </defs>
      <g>
       <use xlink:href="#m0afdf9e4d3" x="73.832727" y="307.584" style="stroke: #000000; stroke-width: 0.8"/>
      </g>
     </g>
     <g id="text_1">
      <!-- 0 -->
      <g transform="translate(70.651477 322.182437) scale(0.1 -0.1)">
       <defs>
        <path id="DejaVuSans-30" d="M 2034 4250 
Q 1547 4250 1301 3770 
Q 1056 3291 1056 2328 
Q 1056 1369 1301 889 
Q 1547 409 2034 409 
Q 2525 409 2770 889 
Q 3016 1369 3016 2328 
Q 3016 3291 2770 3770 
Q 2525 4250 2034 4250 
z
M 2034 4750 
Q 2819 4750 3233 4129 
Q 3647 3509 3647 2328 
Q 3647 1150 3233 529 
Q 2819 -91 2034 -91 
Q 1250 -91 836 529 
Q 422 1150 422 2328 
Q 422 3509 836 4129 
Q 1250 4750 2034 4750 
z
" transform="scale(0.015625)"/>
       </defs>
       <use xlink:href="#DejaVuSans-30"/>
      </g>
     </g>
    </g>
    <g id="xtick_2">
     <g id="line2d_2">
      <g>
       <use xlink:href="#m0afdf9e4d3" x="144.409802" y="307.584" style="stroke: #000000; stroke-width: 0.8"/>
      </g>
     </g>
     <g id="text_2">
      <!-- 5 -->
      <g transform="translate(141.228552 322.182437) scale(0.1 -0.1)">
       <defs>
        <path id="DejaVuSans-35" d="M 691 4666 
L 3169 4666 
L 3169 4134 
L 1269 4134 
L 1269 2991 
Q 1406 3038 1543 3061 
Q 1681 3084 1819 3084 
Q 2600 3084 3056 2656 
Q 3513 2228 3513 1497 
Q 3513 744 3044 326 
Q 2575 -91 1722 -91 
Q 1428 -91 1123 -41 
Q 819 9 494 109 
L 494 744 
Q 775 591 1075 516 
Q 1375 441 1709 441 
Q 2250 441 2565 725 
Q 2881 1009 2881 1497 
Q 2881 1984 2565 2268 
Q 2250 2553 1709 2553 
Q 1456 2553 1204 2497 
Q 953 2441 691 2322 
L 691 4666 
z
" transform="scale(0.015625)"/>
       </defs>
       <use xlink:href="#DejaVuSans-35"/>
      </g>
     </g>
    </g>
    <g id="xtick_3">
     <g id="line2d_3">
      <g>
       <use xlink:href="#m0afdf9e4d3" x="214.986877" y="307.584" style="stroke: #000000; stroke-width: 0.8"/>
      </g>
     </g>
     <g id="text_3">
      <!-- 10 -->
      <g transform="translate(208.624377 322.182437) scale(0.1 -0.1)">
       <defs>
        <path id="DejaVuSans-31" d="M 794 531 
L 1825 531 
L 1825 4091 
L 703 3866 
L 703 4441 
L 1819 4666 
L 2450 4666 
L 2450 531 
L 3481 531 
L 3481 0 
L 794 0 
L 794 531 
z
" transform="scale(0.015625)"/>
       </defs>
       <use xlink:href="#DejaVuSans-31"/>
       <use xlink:href="#DejaVuSans-30" x="63.623047"/>
      </g>
     </g>
    </g>
    <g id="xtick_4">
     <g id="line2d_4">
      <g>
       <use xlink:href="#m0afdf9e4d3" x="285.563953" y="307.584" style="stroke: #000000; stroke-width: 0.8"/>
      </g>
     </g>
     <g id="text_4">
      <!-- 15 -->
      <g transform="translate(279.201453 322.182437) scale(0.1 -0.1)">
       <use xlink:href="#DejaVuSans-31"/>
       <use xlink:href="#DejaVuSans-35" x="63.623047"/>
      </g>
     </g>
    </g>
    <g id="xtick_5">
     <g id="line2d_5">
      <g>
       <use xlink:href="#m0afdf9e4d3" x="356.141028" y="307.584" style="stroke: #000000; stroke-width: 0.8"/>
      </g>
     </g>
     <g id="text_5">
      <!-- 20 -->
      <g transform="translate(349.778528 322.182437) scale(0.1 -0.1)">
       <defs>
        <path id="DejaVuSans-32" d="M 1228 531 
L 3431 531 
L 3431 0 
L 469 0 
L 469 531 
Q 828 903 1448 1529 
Q 2069 2156 2228 2338 
Q 2531 2678 2651 2914 
Q 2772 3150 2772 3378 
Q 2772 3750 2511 3984 
Q 2250 4219 1831 4219 
Q 1534 4219 1204 4116 
Q 875 4013 500 3803 
L 500 4441 
Q 881 4594 1212 4672 
Q 1544 4750 1819 4750 
Q 2544 4750 2975 4387 
Q 3406 4025 3406 3419 
Q 3406 3131 3298 2873 
Q 3191 2616 2906 2266 
Q 2828 2175 2409 1742 
Q 1991 1309 1228 531 
z
" transform="scale(0.015625)"/>
       </defs>
       <use xlink:href="#DejaVuSans-32"/>
       <use xlink:href="#DejaVuSans-30" x="63.623047"/>
      </g>
     </g>
    </g>
    <g id="text_6">
     <!-- Time -->
     <g transform="translate(223.926406 335.860562) scale(0.1 -0.1)">
      <defs>
       <path id="DejaVuSans-54" d="M -19 4666 
L 3928 4666 
L 3928 4134 
L 2272 4134 
L 2272 0 
L 1638 0 
L 1638 4134 
L -19 4134 
L -19 4666 
z
" transform="scale(0.015625)"/>
       <path id="DejaVuSans-69" d="M 603 3500 
L 1178 3500 
L 1178 0 
L 603 0 
L 603 3500 
z
M 603 4863 
L 1178 4863 
L 1178 4134 
L 603 4134 
L 603 4863 
z
" transform="scale(0.015625)"/>
       <path id="DejaVuSans-6d" d="M 3328 2828 
Q 3544 3216 3844 3400 
Q 4144 3584 4550 3584 
Q 5097 3584 5394 3201 
Q 5691 2819 5691 2113 
L 5691 0 
L 5113 0 
L 5113 2094 
Q 5113 2597 4934 2840 
Q 4756 3084 4391 3084 
Q 3944 3084 3684 2787 
Q 3425 2491 3425 1978 
L 3425 0 
L 2847 0 
L 2847 2094 
Q 2847 2600 2669 2842 
Q 2491 3084 2119 3084 
Q 1678 3084 1418 2786 
Q 1159 2488 1159 1978 
L 1159 0 
L 581 0 
L 581 3500 
L 1159 3500 
L 1159 2956 
Q 1356 3278 1631 3431 
Q 1906 3584 2284 3584 
Q 2666 3584 2933 3390 
Q 3200 3197 3328 2828 
z
" transform="scale(0.015625)"/>
       <path id="DejaVuSans-65" d="M 3597 1894 
L 3597 1613 
L 953 1613 
Q 991 1019 1311 708 
Q 1631 397 2203 397 
Q 2534 397 2845 478 
Q 3156 559 3463 722 
L 3463 178 
Q 3153 47 2828 -22 
Q 2503 -91 2169 -91 
Q 1331 -91 842 396 
Q 353 884 353 1716 
Q 353 2575 817 3079 
Q 1281 3584 2069 3584 
Q 2775 3584 3186 3129 
Q 3597 2675 3597 1894 
z
M 3022 2063 
Q 3016 2534 2758 2815 
Q 2500 3097 2075 3097 
Q 1594 3097 1305 2825 
Q 1016 2553 972 2059 
L 3022 2063 
z
" transform="scale(0.015625)"/>
      </defs>
      <use xlink:href="#DejaVuSans-54"/>
      <use xlink:href="#DejaVuSans-69" x="57.958984"/>
      <use xlink:href="#DejaVuSans-6d" x="85.742188"/>
      <use xlink:href="#DejaVuSans-65" x="183.154297"/>
     </g>
    </g>
   </g>
   <g id="matplotlib.axis_2">
    <g id="ytick_1">
     <g id="line2d_6">
      <defs>
       <path id="mabe8182d13" d="M 0 0 
L -3.5 0 
" style="stroke: #000000; stroke-width: 0.8"/>
      </defs>
      <g>
       <use xlink:href="#mabe8182d13" x="57.6" y="296.617827" style="stroke: #000000; stroke-width: 0.8"/>
      </g>
     </g>
     <g id="text_7">
      <!-- 0 -->
      <g transform="translate(44.2375 300.417046) scale(0.1 -0.1)">
       <use xlink:href="#DejaVuSans-30"/>
      </g>
     </g>
    </g>
    <g id="ytick_2">
     <g id="line2d_7">
      <g>
       <use xlink:href="#mabe8182d13" x="57.6" y="262.380635" style="stroke: #000000; stroke-width: 0.8"/>
      </g>
     </g>
     <g id="text_8">
      <!-- 1000 -->
      <g transform="translate(25.15 266.179854) scale(0.1 -0.1)">
       <use xlink:href="#DejaVuSans-31"/>
       <use xlink:href="#DejaVuSans-30" x="63.623047"/>
       <use xlink:href="#DejaVuSans-30" x="127.246094"/>
       <use xlink:href="#DejaVuSans-30" x="190.869141"/>
      </g>
     </g>
    </g>
    <g id="ytick_3">
     <g id="line2d_8">
      <g>
       <use xlink:href="#mabe8182d13" x="57.6" y="228.143443" style="stroke: #000000; stroke-width: 0.8"/>
      </g>
     </g>
     <g id="text_9">
      <!-- 2000 -->
      <g transform="translate(25.15 231.942662) scale(0.1 -0.1)">
       <use xlink:href="#DejaVuSans-32"/>
       <use xlink:href="#DejaVuSans-30" x="63.623047"/>
       <use xlink:href="#DejaVuSans-30" x="127.246094"/>
       <use xlink:href="#DejaVuSans-30" x="190.869141"/>
      </g>
     </g>
    </g>
    <g id="ytick_4">
     <g id="line2d_9">
      <g>
       <use xlink:href="#mabe8182d13" x="57.6" y="193.906251" style="stroke: #000000; stroke-width: 0.8"/>
      </g>
     </g>
     <g id="text_10">
      <!-- 3000 -->
      <g transform="translate(25.15 197.70547) scale(0.1 -0.1)">
       <defs>
        <path id="DejaVuSans-33" d="M 2597 2516 
Q 3050 2419 3304 2112 
Q 3559 1806 3559 1356 
Q 3559 666 3084 287 
Q 2609 -91 1734 -91 
Q 1441 -91 1130 -33 
Q 819 25 488 141 
L 488 750 
Q 750 597 1062 519 
Q 1375 441 1716 441 
Q 2309 441 2620 675 
Q 2931 909 2931 1356 
Q 2931 1769 2642 2001 
Q 2353 2234 1838 2234 
L 1294 2234 
L 1294 2753 
L 1863 2753 
Q 2328 2753 2575 2939 
Q 2822 3125 2822 3475 
Q 2822 3834 2567 4026 
Q 2313 4219 1838 4219 
Q 1578 4219 1281 4162 
Q 984 4106 628 3988 
L 628 4550 
Q 988 4650 1302 4700 
Q 1616 4750 1894 4750 
Q 2613 4750 3031 4423 
Q 3450 4097 3450 3541 
Q 3450 3153 3228 2886 
Q 3006 2619 2597 2516 
z
" transform="scale(0.015625)"/>
       </defs>
       <use xlink:href="#DejaVuSans-33"/>
       <use xlink:href="#DejaVuSans-30" x="63.623047"/>
       <use xlink:href="#DejaVuSans-30" x="127.246094"/>
       <use xlink:href="#DejaVuSans-30" x="190.869141"/>
      </g>
     </g>
    </g>
    <g id="ytick_5">
     <g id="line2d_10">
      <g>
       <use xlink:href="#mabe8182d13" x="57.6" y="159.669059" style="stroke: #000000; stroke-width: 0.8"/>
      </g>
     </g>
     <g id="text_11">
      <!-- 4000 -->
      <g transform="translate(25.15 163.468277) scale(0.1 -0.1)">
       <defs>
        <path id="DejaVuSans-34" d="M 2419 4116 
L 825 1625 
L 2419 1625 
L 2419 4116 
z
M 2253 4666 
L 3047 4666 
L 3047 1625 
L 3713 1625 
L 3713 1100 
L 3047 1100 
L 3047 0 
L 2419 0 
L 2419 1100 
L 313 1100 
L 313 1709 
L 2253 4666 
z
" transform="scale(0.015625)"/>
       </defs>
       <use xlink:href="#DejaVuSans-34"/>
       <use xlink:href="#DejaVuSans-30" x="63.623047"/>
       <use xlink:href="#DejaVuSans-30" x="127.246094"/>
       <use xlink:href="#DejaVuSans-30" x="190.869141"/>
      </g>
     </g>
    </g>
    <g id="ytick_6">
     <g id="line2d_11">
      <g>
       <use xlink:href="#mabe8182d13" x="57.6" y="125.431866" style="stroke: #000000; stroke-width: 0.8"/>
      </g>
     </g>
     <g id="text_12">
      <!-- 5000 -->
      <g transform="translate(25.15 129.231085) scale(0.1 -0.1)">
       <use xlink:href="#DejaVuSans-35"/>
       <use xlink:href="#DejaVuSans-30" x="63.623047"/>
       <use xlink:href="#DejaVuSans-30" x="127.246094"/>
       <use xlink:href="#DejaVuSans-30" x="190.869141"/>
      </g>
     </g>
    </g>
    <g id="ytick_7">
     <g id="line2d_12">
      <g>
       <use xlink:href="#mabe8182d13" x="57.6" y="91.194674" style="stroke: #000000; stroke-width: 0.8"/>
      </g>
     </g>
     <g id="text_13">
      <!-- 6000 -->
      <g transform="translate(25.15 94.993893) scale(0.1 -0.1)">
       <defs>
        <path id="DejaVuSans-36" d="M 2113 2584 
Q 1688 2584 1439 2293 
Q 1191 2003 1191 1497 
Q 1191 994 1439 701 
Q 1688 409 2113 409 
Q 2538 409 2786 701 
Q 3034 994 3034 1497 
Q 3034 2003 2786 2293 
Q 2538 2584 2113 2584 
z
M 3366 4563 
L 3366 3988 
Q 3128 4100 2886 4159 
Q 2644 4219 2406 4219 
Q 1781 4219 1451 3797 
Q 1122 3375 1075 2522 
Q 1259 2794 1537 2939 
Q 1816 3084 2150 3084 
Q 2853 3084 3261 2657 
Q 3669 2231 3669 1497 
Q 3669 778 3244 343 
Q 2819 -91 2113 -91 
Q 1303 -91 875 529 
Q 447 1150 447 2328 
Q 447 3434 972 4092 
Q 1497 4750 2381 4750 
Q 2619 4750 2861 4703 
Q 3103 4656 3366 4563 
z
" transform="scale(0.015625)"/>
       </defs>
       <use xlink:href="#DejaVuSans-36"/>
       <use xlink:href="#DejaVuSans-30" x="63.623047"/>
       <use xlink:href="#DejaVuSans-30" x="127.246094"/>
       <use xlink:href="#DejaVuSans-30" x="190.869141"/>
      </g>
     </g>
    </g>
    <g id="ytick_8">
     <g id="line2d_13">
      <g>
       <use xlink:href="#mabe8182d13" x="57.6" y="56.957482" style="stroke: #000000; stroke-width: 0.8"/>
      </g>
     </g>
     <g id="text_14">
      <!-- 7000 -->
      <g transform="translate(25.15 60.756701) scale(0.1 -0.1)">
       <defs>
        <path id="DejaVuSans-37" d="M 525 4666 
L 3525 4666 
L 3525 4397 
L 1831 0 
L 1172 0 
L 2766 4134 
L 525 4134 
L 525 4666 
z
" transform="scale(0.015625)"/>
       </defs>
       <use xlink:href="#DejaVuSans-37"/>
       <use xlink:href="#DejaVuSans-30" x="63.623047"/>
       <use xlink:href="#DejaVuSans-30" x="127.246094"/>
       <use xlink:href="#DejaVuSans-30" x="190.869141"/>
      </g>
     </g>
    </g>
    <g id="text_15">
     <!-- Amount of Devices -->
     <g transform="translate(19.070312 221.878781) rotate(-90) scale(0.1 -0.1)">
      <defs>
       <path id="DejaVuSans-41" d="M 2188 4044 
L 1331 1722 
L 3047 1722 
L 2188 4044 
z
M 1831 4666 
L 2547 4666 
L 4325 0 
L 3669 0 
L 3244 1197 
L 1141 1197 
L 716 0 
L 50 0 
L 1831 4666 
z
" transform="scale(0.015625)"/>
       <path id="DejaVuSans-6f" d="M 1959 3097 
Q 1497 3097 1228 2736 
Q 959 2375 959 1747 
Q 959 1119 1226 758 
Q 1494 397 1959 397 
Q 2419 397 2687 759 
Q 2956 1122 2956 1747 
Q 2956 2369 2687 2733 
Q 2419 3097 1959 3097 
z
M 1959 3584 
Q 2709 3584 3137 3096 
Q 3566 2609 3566 1747 
Q 3566 888 3137 398 
Q 2709 -91 1959 -91 
Q 1206 -91 779 398 
Q 353 888 353 1747 
Q 353 2609 779 3096 
Q 1206 3584 1959 3584 
z
" transform="scale(0.015625)"/>
       <path id="DejaVuSans-75" d="M 544 1381 
L 544 3500 
L 1119 3500 
L 1119 1403 
Q 1119 906 1312 657 
Q 1506 409 1894 409 
Q 2359 409 2629 706 
Q 2900 1003 2900 1516 
L 2900 3500 
L 3475 3500 
L 3475 0 
L 2900 0 
L 2900 538 
Q 2691 219 2414 64 
Q 2138 -91 1772 -91 
Q 1169 -91 856 284 
Q 544 659 544 1381 
z
M 1991 3584 
L 1991 3584 
z
" transform="scale(0.015625)"/>
       <path id="DejaVuSans-6e" d="M 3513 2113 
L 3513 0 
L 2938 0 
L 2938 2094 
Q 2938 2591 2744 2837 
Q 2550 3084 2163 3084 
Q 1697 3084 1428 2787 
Q 1159 2491 1159 1978 
L 1159 0 
L 581 0 
L 581 3500 
L 1159 3500 
L 1159 2956 
Q 1366 3272 1645 3428 
Q 1925 3584 2291 3584 
Q 2894 3584 3203 3211 
Q 3513 2838 3513 2113 
z
" transform="scale(0.015625)"/>
       <path id="DejaVuSans-74" d="M 1172 4494 
L 1172 3500 
L 2356 3500 
L 2356 3053 
L 1172 3053 
L 1172 1153 
Q 1172 725 1289 603 
Q 1406 481 1766 481 
L 2356 481 
L 2356 0 
L 1766 0 
Q 1100 0 847 248 
Q 594 497 594 1153 
L 594 3053 
L 172 3053 
L 172 3500 
L 594 3500 
L 594 4494 
L 1172 4494 
z
" transform="scale(0.015625)"/>
       <path id="DejaVuSans-20" transform="scale(0.015625)"/>
       <path id="DejaVuSans-66" d="M 2375 4863 
L 2375 4384 
L 1825 4384 
Q 1516 4384 1395 4259 
Q 1275 4134 1275 3809 
L 1275 3500 
L 2222 3500 
L 2222 3053 
L 1275 3053 
L 1275 0 
L 697 0 
L 697 3053 
L 147 3053 
L 147 3500 
L 697 3500 
L 697 3744 
Q 697 4328 969 4595 
Q 1241 4863 1831 4863 
L 2375 4863 
z
" transform="scale(0.015625)"/>
       <path id="DejaVuSans-44" d="M 1259 4147 
L 1259 519 
L 2022 519 
Q 2988 519 3436 956 
Q 3884 1394 3884 2338 
Q 3884 3275 3436 3711 
Q 2988 4147 2022 4147 
L 1259 4147 
z
M 628 4666 
L 1925 4666 
Q 3281 4666 3915 4102 
Q 4550 3538 4550 2338 
Q 4550 1131 3912 565 
Q 3275 0 1925 0 
L 628 0 
L 628 4666 
z
" transform="scale(0.015625)"/>
       <path id="DejaVuSans-76" d="M 191 3500 
L 800 3500 
L 1894 563 
L 2988 3500 
L 3597 3500 
L 2284 0 
L 1503 0 
L 191 3500 
z
" transform="scale(0.015625)"/>
       <path id="DejaVuSans-63" d="M 3122 3366 
L 3122 2828 
Q 2878 2963 2633 3030 
Q 2388 3097 2138 3097 
Q 1578 3097 1268 2742 
Q 959 2388 959 1747 
Q 959 1106 1268 751 
Q 1578 397 2138 397 
Q 2388 397 2633 464 
Q 2878 531 3122 666 
L 3122 134 
Q 2881 22 2623 -34 
Q 2366 -91 2075 -91 
Q 1284 -91 818 406 
Q 353 903 353 1747 
Q 353 2603 823 3093 
Q 1294 3584 2113 3584 
Q 2378 3584 2631 3529 
Q 2884 3475 3122 3366 
z
" transform="scale(0.015625)"/>
       <path id="DejaVuSans-73" d="M 2834 3397 
L 2834 2853 
Q 2591 2978 2328 3040 
Q 2066 3103 1784 3103 
Q 1356 3103 1142 2972 
Q 928 2841 928 2578 
Q 928 2378 1081 2264 
Q 1234 2150 1697 2047 
L 1894 2003 
Q 2506 1872 2764 1633 
Q 3022 1394 3022 966 
Q 3022 478 2636 193 
Q 2250 -91 1575 -91 
Q 1294 -91 989 -36 
Q 684 19 347 128 
L 347 722 
Q 666 556 975 473 
Q 1284 391 1588 391 
Q 1994 391 2212 530 
Q 2431 669 2431 922 
Q 2431 1156 2273 1281 
Q 2116 1406 1581 1522 
L 1381 1569 
Q 847 1681 609 1914 
Q 372 2147 372 2553 
Q 372 3047 722 3315 
Q 1072 3584 1716 3584 
Q 2034 3584 2315 3537 
Q 2597 3491 2834 3397 
z
" transform="scale(0.015625)"/>
      </defs>
      <use xlink:href="#DejaVuSans-41"/>
      <use xlink:href="#DejaVuSans-6d" x="68.408203"/>
      <use xlink:href="#DejaVuSans-6f" x="165.820312"/>
      <use xlink:href="#DejaVuSans-75" x="227.001953"/>
      <use xlink:href="#DejaVuSans-6e" x="290.380859"/>
      <use xlink:href="#DejaVuSans-74" x="353.759766"/>
      <use xlink:href="#DejaVuSans-20" x="392.96875"/>
      <use xlink:href="#DejaVuSans-6f" x="424.755859"/>
      <use xlink:href="#DejaVuSans-66" x="485.9375"/>
      <use xlink:href="#DejaVuSans-20" x="521.142578"/>
      <use xlink:href="#DejaVuSans-44" x="552.929688"/>
      <use xlink:href="#DejaVuSans-65" x="629.931641"/>
      <use xlink:href="#DejaVuSans-76" x="691.455078"/>
      <use xlink:href="#DejaVuSans-69" x="750.634766"/>
      <use xlink:href="#DejaVuSans-63" x="778.417969"/>
      <use xlink:href="#DejaVuSans-65" x="833.398438"/>
      <use xlink:href="#DejaVuSans-73" x="894.921875"/>
     </g>
    </g>
   </g>
   <g id="line2d_14">
    <path d="M 271.448538 295.419526 
M 356.141028 294.940205 
" clip-path="url(#pce04ec4093)" style="fill: none; stroke: #1f77b4; stroke-width: 1.5; stroke-linecap: square"/>
   </g>
   <g id="line2d_15">
    <path d="M 214.986877 224.651249 
L 229.102292 167.851748 
L 243.217708 121.323403 
L 257.333123 142.105379 
L 271.448538 147.240958 
L 285.563953 140.87284 
L 299.679368 128.273553 
L 313.794783 74.076078 
L 327.910198 67.673723 
L 342.025613 116.153587 
L 356.141028 163.298201 
L 370.256443 195.37845 
L 384.371858 213.284502 
L 398.487273 239.304768 
" clip-path="url(#pce04ec4093)" style="fill: none; stroke: #ff7f0e; stroke-width: 1.5; stroke-linecap: square"/>
   </g>
   <g id="line2d_16">
    <path d="M 73.832727 264.914187 
L 87.948142 276.280935 
L 102.063557 282.169732 
L 116.178972 284.360913 
L 130.294387 293.399531 
L 144.409802 283.813117 
L 158.525217 277.479237 
L 172.640632 270.015529 
L 186.756047 241.667134 
L 200.871462 211.367219 
L 214.986877 160.114142 
L 229.102292 125.363392 
L 243.217708 115.26342 
M 285.563953 166.48226 
L 299.679368 84.347236 
L 313.794783 85.100454 
L 327.910198 96.261779 
L 342.025613 129.300669 
L 356.141028 160.524988 
L 370.256443 186.682203 
L 384.371858 213.318739 
L 398.487273 227.732597 
" clip-path="url(#pce04ec4093)" style="fill: none; stroke: #2ca02c; stroke-width: 1.5; stroke-linecap: square"/>
   </g>
   <g id="line2d_17">
    <path d="M 73.832727 274.979922 
L 87.948142 285.627689 
L 102.063557 288.640562 
L 116.178972 291.82462 
L 130.294387 294.426647 
L 144.409802 290.181235 
L 158.525217 276.726019 
L 172.640632 216.571272 
L 186.756047 127.862707 
L 200.871462 199.931997 
L 214.986877 207.635365 
L 229.102292 187.709319 
L 243.217708 148.815869 
L 257.333123 171.617839 
L 271.448538 178.43104 
L 285.563953 176.47952 
L 299.679368 168.570729 
L 313.794783 112.010887 
L 327.910198 103.999384 
L 342.025613 153.095518 
L 356.141028 184.388311 
L 370.256443 214.688226 
L 384.371858 235.949523 
L 398.487273 254.608793 
" clip-path="url(#pce04ec4093)" style="fill: none; stroke: #d62728; stroke-width: 1.5; stroke-linecap: square"/>
   </g>
   <g id="line2d_18">
    <path d="M 73.832727 278.129744 
L 87.948142 286.107009 
L 102.063557 288.914459 
L 116.178972 290.283947 
L 130.294387 295.488 
L 144.409802 288.709036 
L 158.525217 275.322294 
L 172.640632 217.08483 
L 186.756047 124.644411 
L 200.871462 192.434052 
L 214.986877 200.103183 
L 229.102292 185.175767 
L 243.217708 137.654544 
L 257.333123 152.479248 
L 271.448538 159.942956 
L 285.563953 157.512115 
L 299.679368 149.500613 
L 313.794783 97.768215 
L 327.910198 94.960765 
L 342.025613 141.180975 
L 356.141028 179.800528 
L 370.256443 203.42419 
L 384.371858 228.383103 
L 398.487273 240.948153 
" clip-path="url(#pce04ec4093)" style="fill: none; stroke: #9467bd; stroke-width: 1.5; stroke-linecap: square"/>
   </g>
   <g id="line2d_19">
    <path d="M 73.832727 276.726019 
L 87.948142 284.258201 
L 102.063557 286.517856 
L 116.178972 289.462254 
L 130.294387 289.907338 
L 144.409802 287.339548 
L 158.525217 274.774499 
L 172.640632 212.565521 
L 186.756047 121.871198 
L 200.871462 180.964592 
L 214.986877 186.305594 
L 229.102292 159.497873 
L 243.217708 122.555942 
L 257.333123 141.078263 
L 271.448538 157.306692 
L 285.563953 142.790123 
L 299.679368 134.77862 
L 313.794783 85.305877 
L 327.910198 85.477063 
L 342.025613 131.217952 
L 356.141028 172.302583 
L 370.256443 194.830655 
L 384.371858 223.555659 
L 398.487273 242.146455 
" clip-path="url(#pce04ec4093)" style="fill: none; stroke: #8c564b; stroke-width: 1.5; stroke-linecap: square"/>
   </g>
   <g id="line2d_20">
    <path d="M 73.832727 276.862967 
L 87.948142 280.971431 
L 102.063557 287.168362 
L 116.178972 290.044286 
L 130.294387 291.927332 
L 144.409802 286.552093 
L 158.525217 276.178224 
L 172.640632 213.763822 
L 186.756047 124.438988 
L 200.871462 195.926245 
L 214.986877 205.101813 
L 229.102292 184.422549 
L 243.217708 138.202339 
L 257.333123 158.162622 
L 271.448538 166.858869 
L 285.563953 169.118524 
L 299.679368 160.011431 
L 313.794783 100.50719 
L 327.910198 99.480075 
L 342.025613 140.01691 
L 356.141028 183.908991 
L 370.256443 199.144541 
L 384.371858 228.348866 
L 398.487273 242.728487 
" clip-path="url(#pce04ec4093)" style="fill: none; stroke: #e377c2; stroke-width: 1.5; stroke-linecap: square"/>
   </g>
   <g id="line2d_21">
    <path d="M 73.832727 274.500601 
L 87.948142 283.059899 
L 102.063557 287.44226 
L 116.178972 291.482249 
L 130.294387 291.208351 
L 144.409802 287.339548 
L 158.525217 276.417884 
L 172.640632 214.482803 
L 186.756047 123.92543 
L 200.871462 198.767932 
L 214.986877 210.203154 
L 229.102292 190.37982 
L 243.217708 156.587711 
L 257.333123 177.951719 
L 271.448538 181.580862 
L 285.563953 179.321207 
L 299.679368 163.811759 
L 313.794783 111.73699 
L 327.910198 110.88106 
L 342.025613 155.355172 
L 356.141028 184.319837 
L 370.256443 207.532653 
L 384.371858 223.761082 
L 398.487273 248.343386 
" clip-path="url(#pce04ec4093)" style="fill: none; stroke: #7f7f7f; stroke-width: 1.5; stroke-linecap: square"/>
   </g>
   <g id="line2d_22">
    <path d="M 73.832727 276.82873 
L 87.948142 282.957188 
L 102.063557 289.39378 
L 116.178972 289.051408 
L 130.294387 290.763267 
L 144.409802 287.099888 
L 158.525217 275.73314 
L 172.640632 219.89228 
L 186.756047 132.142356 
L 200.871462 201.335721 
L 214.986877 202.260126 
L 229.102292 187.435421 
L 243.217708 144.228085 
L 257.333123 168.262594 
L 271.448538 174.699186 
L 285.563953 168.639203 
L 299.679368 165.62633 
L 313.794783 103.828198 
L 327.910198 107.423103 
L 342.025613 152.82162 
L 356.141028 181.033067 
L 370.256443 198.117425 
L 384.371858 226.294635 
L 398.487273 241.83832 
" clip-path="url(#pce04ec4093)" style="fill: none; stroke: #bcbd22; stroke-width: 1.5; stroke-linecap: square"/>
   </g>
   <g id="line2d_23">
    <path d="M 73.832727 273.199588 
L 87.948142 280.320924 
L 102.063557 286.689042 
L 116.178972 288.743273 
L 130.294387 291.174114 
L 144.409802 284.977182 
L 158.525217 275.151108 
L 172.640632 221.330242 
L 186.756047 135.63455 
L 200.871462 198.220137 
L 214.986877 208.114686 
L 229.102292 181.820522 
L 243.217708 146.179605 
L 257.333123 164.496503 
L 271.448538 163.845996 
L 285.563953 168.570729 
L 299.679368 145.220963 
L 313.794783 104.547179 
L 327.910198 94.584156 
L 342.025613 142.208091 
L 356.141028 178.533751 
L 370.256443 188.051691 
L 384.371858 247.418982 
" clip-path="url(#pce04ec4093)" style="fill: none; stroke: #17becf; stroke-width: 1.5; stroke-linecap: square"/>
   </g>
   <g id="line2d_24">
    <path d="M 73.832727 273.028402 
L 87.948142 279.910078 
L 102.063557 286.689042 
L 116.178972 289.838863 
L 130.294387 290.523607 
L 144.409802 284.463624 
L 158.525217 272.44637 
L 172.640632 208.628243 
L 186.756047 110.401739 
L 200.871462 185.449664 
L 214.986877 201.301484 
L 229.102292 177.164264 
L 243.217708 137.038275 
L 257.333123 155.0128 
L 271.448538 162.202611 
L 285.563953 156.621948 
L 299.679368 142.002667 
L 313.794783 93.043483 
L 327.910198 78.526913 
L 342.025613 133.135235 
L 356.141028 174.528 
L 370.256443 194.659469 
L 384.371858 218.591266 
L 398.487273 251.59592 
" clip-path="url(#pce04ec4093)" style="fill: none; stroke: #1f77b4; stroke-width: 1.5; stroke-linecap: square"/>
   </g>
   <g id="line2d_25">
    <path d="M 73.832727 276.34941 
L 87.948142 280.320924 
L 102.063557 285.011419 
L 116.178972 290.660556 
L 130.294387 291.071402 
L 144.409802 283.641932 
L 158.525217 275.185345 
L 172.640632 210.511289 
L 186.756047 110.812585 
L 200.871462 188.941858 
L 214.986877 212.736706 
L 229.102292 190.003211 
L 243.217708 147.617567 
L 257.333123 171.446653 
L 271.448538 178.944598 
L 285.563953 176.342571 
L 299.679368 161.586341 
L 313.794783 103.657012 
L 327.910198 110.02513 
L 342.025613 153.848736 
L 356.141028 183.326958 
L 370.256443 209.689596 
L 384.371858 227.766834 
L 398.487273 251.116599 
" clip-path="url(#pce04ec4093)" style="fill: none; stroke: #ff7f0e; stroke-width: 1.5; stroke-linecap: square"/>
   </g>
   <g id="line2d_26">
    <path d="M 73.832727 273.747383 
L 87.948142 283.77888 
L 102.063557 284.360913 
L 116.178972 290.865979 
L 130.294387 291.653434 
L 144.409802 287.544971 
L 158.525217 273.987043 
L 172.640632 211.949251 
L 186.756047 116.324773 
L 200.871462 191.269987 
L 214.986877 196.200143 
L 229.102292 164.462265 
L 243.217708 120.467474 
L 257.333123 149.397901 
L 271.448538 152.890095 
L 285.563953 153.848736 
L 299.679368 139.195218 
L 313.794783 89.482815 
L 327.910198 76.815053 
L 342.025613 128.650162 
L 356.141028 169.460896 
L 370.256443 191.817782 
L 384.371858 221.569902 
L 398.487273 249.918297 
" clip-path="url(#pce04ec4093)" style="fill: none; stroke: #2ca02c; stroke-width: 1.5; stroke-linecap: square"/>
   </g>
   <g id="line2d_27">
    <path d="M 73.832727 273.096876 
L 87.948142 282.512104 
L 102.063557 287.168362 
L 116.178972 291.413774 
L 130.294387 289.63344 
L 144.409802 285.764637 
L 158.525217 273.473485 
L 172.640632 210.511289 
L 186.756047 110.641399 
L 200.871462 184.593735 
L 214.986877 196.679463 
L 229.102292 164.325317 
L 243.217708 119.097986 
L 257.333123 139.708776 
L 271.448538 151.96569 
L 285.563953 150.835863 
L 299.679368 146.864349 
L 313.794783 93.659752 
L 327.910198 87.531295 
L 342.025613 136.524717 
L 356.141028 170.933095 
L 370.256443 195.481162 
L 384.371858 228.006494 
L 398.487273 242.112217 
" clip-path="url(#pce04ec4093)" style="fill: none; stroke: #d62728; stroke-width: 1.5; stroke-linecap: square"/>
   </g>
   <g id="line2d_28">
    <path d="M 73.832727 279.87584 
L 87.948142 284.429387 
L 102.063557 286.58633 
L 116.178972 288.914459 
L 130.294387 288.53785 
L 144.409802 284.087015 
L 158.525217 275.938563 
L 172.640632 214.585515 
L 186.756047 126.013899 
L 200.871462 194.659469 
L 214.986877 195.892008 
L 229.102292 189.797788 
L 243.217708 149.637561 
L 257.333123 163.67481 
L 271.448538 170.967332 
L 285.563953 169.803267 
L 299.679368 157.82025 
L 313.794783 112.421733 
L 327.910198 108.07361 
L 342.025613 150.698914 
L 356.141028 189.797788 
L 370.256443 205.957742 
L 384.371858 232.217669 
L 398.487273 251.458971 
" clip-path="url(#pce04ec4093)" style="fill: none; stroke: #9467bd; stroke-width: 1.5; stroke-linecap: square"/>
   </g>
   <g id="line2d_29">
    <path d="M 73.832727 272.994165 
L 87.948142 281.211091 
L 102.063557 284.87447 
L 116.178972 291.516486 
L 130.294387 291.071402 
L 144.409802 283.333797 
L 158.525217 275.698903 
L 172.640632 226.773955 
L 186.756047 146.96706 
L 200.871462 183.532382 
L 214.986877 190.61948 
L 229.102292 163.572098 
L 243.217708 123.617295 
L 257.333123 130.293548 
L 271.448538 137.483358 
L 285.563953 137.277935 
L 299.679368 129.916939 
L 313.794783 89.551289 
L 327.910198 79.280131 
L 342.025613 122.350519 
L 356.141028 169.563607 
L 370.256443 182.57374 
L 384.371858 214.825175 
L 398.487273 229.786828 
" clip-path="url(#pce04ec4093)" style="fill: none; stroke: #8c564b; stroke-width: 1.5; stroke-linecap: square"/>
   </g>
   <g id="line2d_30">
    <path d="M 73.832727 269.091125 
L 87.948142 279.704654 
L 102.063557 284.63481 
L 116.178972 289.051408 
L 130.294387 285.833112 
L 144.409802 283.504983 
L 158.525217 272.001286 
L 172.640632 187.503896 
L 186.756047 71.782186 
L 200.871462 166.002939 
L 214.986877 177.506636 
L 229.102292 145.597573 
L 243.217708 112.284785 
L 257.333123 124.986783 
L 271.448538 121.802724 
L 285.563953 136.935563 
L 299.679368 120.87832 
L 313.794783 74.110315 
L 327.910198 53.568 
L 342.025613 109.1692 
L 356.141028 157.82025 
L 370.256443 187.777793 
L 384.371858 212.94213 
L 398.487273 244.337635 
" clip-path="url(#pce04ec4093)" style="fill: none; stroke: #e377c2; stroke-width: 1.5; stroke-linecap: square"/>
   </g>
   <g id="patch_3">
    <path d="M 57.6 307.584 
L 57.6 41.472 
" style="fill: none; stroke: #000000; stroke-width: 0.8; stroke-linejoin: miter; stroke-linecap: square"/>
   </g>
   <g id="patch_4">
    <path d="M 414.72 307.584 
L 414.72 41.472 
" style="fill: none; stroke: #000000; stroke-width: 0.8; stroke-linejoin: miter; stroke-linecap: square"/>
   </g>
   <g id="patch_5">
    <path d="M 57.6 307.584 
L 414.72 307.584 
" style="fill: none; stroke: #000000; stroke-width: 0.8; stroke-linejoin: miter; stroke-linecap: square"/>
   </g>
   <g id="patch_6">
    <path d="M 57.6 41.472 
L 414.72 41.472 
" style="fill: none; stroke: #000000; stroke-width: 0.8; stroke-linejoin: miter; stroke-linecap: square"/>
   </g>
   <g id="text_16">
    <!-- Amount of Devices by Time at p023 (Wed) -->
    <g transform="translate(108.710625 35.472) scale(0.12 -0.12)">
     <defs>
      <path id="DejaVuSans-62" d="M 3116 1747 
Q 3116 2381 2855 2742 
Q 2594 3103 2138 3103 
Q 1681 3103 1420 2742 
Q 1159 2381 1159 1747 
Q 1159 1113 1420 752 
Q 1681 391 2138 391 
Q 2594 391 2855 752 
Q 3116 1113 3116 1747 
z
M 1159 2969 
Q 1341 3281 1617 3432 
Q 1894 3584 2278 3584 
Q 2916 3584 3314 3078 
Q 3713 2572 3713 1747 
Q 3713 922 3314 415 
Q 2916 -91 2278 -91 
Q 1894 -91 1617 61 
Q 1341 213 1159 525 
L 1159 0 
L 581 0 
L 581 4863 
L 1159 4863 
L 1159 2969 
z
" transform="scale(0.015625)"/>
      <path id="DejaVuSans-79" d="M 2059 -325 
Q 1816 -950 1584 -1140 
Q 1353 -1331 966 -1331 
L 506 -1331 
L 506 -850 
L 844 -850 
Q 1081 -850 1212 -737 
Q 1344 -625 1503 -206 
L 1606 56 
L 191 3500 
L 800 3500 
L 1894 763 
L 2988 3500 
L 3597 3500 
L 2059 -325 
z
" transform="scale(0.015625)"/>
      <path id="DejaVuSans-61" d="M 2194 1759 
Q 1497 1759 1228 1600 
Q 959 1441 959 1056 
Q 959 750 1161 570 
Q 1363 391 1709 391 
Q 2188 391 2477 730 
Q 2766 1069 2766 1631 
L 2766 1759 
L 2194 1759 
z
M 3341 1997 
L 3341 0 
L 2766 0 
L 2766 531 
Q 2569 213 2275 61 
Q 1981 -91 1556 -91 
Q 1019 -91 701 211 
Q 384 513 384 1019 
Q 384 1609 779 1909 
Q 1175 2209 1959 2209 
L 2766 2209 
L 2766 2266 
Q 2766 2663 2505 2880 
Q 2244 3097 1772 3097 
Q 1472 3097 1187 3025 
Q 903 2953 641 2809 
L 641 3341 
Q 956 3463 1253 3523 
Q 1550 3584 1831 3584 
Q 2591 3584 2966 3190 
Q 3341 2797 3341 1997 
z
" transform="scale(0.015625)"/>
      <path id="DejaVuSans-70" d="M 1159 525 
L 1159 -1331 
L 581 -1331 
L 581 3500 
L 1159 3500 
L 1159 2969 
Q 1341 3281 1617 3432 
Q 1894 3584 2278 3584 
Q 2916 3584 3314 3078 
Q 3713 2572 3713 1747 
Q 3713 922 3314 415 
Q 2916 -91 2278 -91 
Q 1894 -91 1617 61 
Q 1341 213 1159 525 
z
M 3116 1747 
Q 3116 2381 2855 2742 
Q 2594 3103 2138 3103 
Q 1681 3103 1420 2742 
Q 1159 2381 1159 1747 
Q 1159 1113 1420 752 
Q 1681 391 2138 391 
Q 2594 391 2855 752 
Q 3116 1113 3116 1747 
z
" transform="scale(0.015625)"/>
      <path id="DejaVuSans-28" d="M 1984 4856 
Q 1566 4138 1362 3434 
Q 1159 2731 1159 2009 
Q 1159 1288 1364 580 
Q 1569 -128 1984 -844 
L 1484 -844 
Q 1016 -109 783 600 
Q 550 1309 550 2009 
Q 550 2706 781 3412 
Q 1013 4119 1484 4856 
L 1984 4856 
z
" transform="scale(0.015625)"/>
      <path id="DejaVuSans-57" d="M 213 4666 
L 850 4666 
L 1831 722 
L 2809 4666 
L 3519 4666 
L 4500 722 
L 5478 4666 
L 6119 4666 
L 4947 0 
L 4153 0 
L 3169 4050 
L 2175 0 
L 1381 0 
L 213 4666 
z
" transform="scale(0.015625)"/>
      <path id="DejaVuSans-64" d="M 2906 2969 
L 2906 4863 
L 3481 4863 
L 3481 0 
L 2906 0 
L 2906 525 
Q 2725 213 2448 61 
Q 2172 -91 1784 -91 
Q 1150 -91 751 415 
Q 353 922 353 1747 
Q 353 2572 751 3078 
Q 1150 3584 1784 3584 
Q 2172 3584 2448 3432 
Q 2725 3281 2906 2969 
z
M 947 1747 
Q 947 1113 1208 752 
Q 1469 391 1925 391 
Q 2381 391 2643 752 
Q 2906 1113 2906 1747 
Q 2906 2381 2643 2742 
Q 2381 3103 1925 3103 
Q 1469 3103 1208 2742 
Q 947 2381 947 1747 
z
" transform="scale(0.015625)"/>
      <path id="DejaVuSans-29" d="M 513 4856 
L 1013 4856 
Q 1481 4119 1714 3412 
Q 1947 2706 1947 2009 
Q 1947 1309 1714 600 
Q 1481 -109 1013 -844 
L 513 -844 
Q 928 -128 1133 580 
Q 1338 1288 1338 2009 
Q 1338 2731 1133 3434 
Q 928 4138 513 4856 
z
" transform="scale(0.015625)"/>
     </defs>
     <use xlink:href="#DejaVuSans-41"/>
     <use xlink:href="#DejaVuSans-6d" x="68.408203"/>
     <use xlink:href="#DejaVuSans-6f" x="165.820312"/>
     <use xlink:href="#DejaVuSans-75" x="227.001953"/>
     <use xlink:href="#DejaVuSans-6e" x="290.380859"/>
     <use xlink:href="#DejaVuSans-74" x="353.759766"/>
     <use xlink:href="#DejaVuSans-20" x="392.96875"/>
     <use xlink:href="#DejaVuSans-6f" x="424.755859"/>
     <use xlink:href="#DejaVuSans-66" x="485.9375"/>
     <use xlink:href="#DejaVuSans-20" x="521.142578"/>
     <use xlink:href="#DejaVuSans-44" x="552.929688"/>
     <use xlink:href="#DejaVuSans-65" x="629.931641"/>
     <use xlink:href="#DejaVuSans-76" x="691.455078"/>
     <use xlink:href="#DejaVuSans-69" x="750.634766"/>
     <use xlink:href="#DejaVuSans-63" x="778.417969"/>
     <use xlink:href="#DejaVuSans-65" x="833.398438"/>
     <use xlink:href="#DejaVuSans-73" x="894.921875"/>
     <use xlink:href="#DejaVuSans-20" x="947.021484"/>
     <use xlink:href="#DejaVuSans-62" x="978.808594"/>
     <use xlink:href="#DejaVuSans-79" x="1042.285156"/>
     <use xlink:href="#DejaVuSans-20" x="1101.464844"/>
     <use xlink:href="#DejaVuSans-54" x="1133.251953"/>
     <use xlink:href="#DejaVuSans-69" x="1191.210938"/>
     <use xlink:href="#DejaVuSans-6d" x="1218.994141"/>
     <use xlink:href="#DejaVuSans-65" x="1316.40625"/>
     <use xlink:href="#DejaVuSans-20" x="1377.929688"/>
     <use xlink:href="#DejaVuSans-61" x="1409.716797"/>
     <use xlink:href="#DejaVuSans-74" x="1470.996094"/>
     <use xlink:href="#DejaVuSans-20" x="1510.205078"/>
     <use xlink:href="#DejaVuSans-70" x="1541.992188"/>
     <use xlink:href="#DejaVuSans-30" x="1605.46875"/>
     <use xlink:href="#DejaVuSans-32" x="1669.091797"/>
     <use xlink:href="#DejaVuSans-33" x="1732.714844"/>
     <use xlink:href="#DejaVuSans-20" x="1796.337891"/>
     <use xlink:href="#DejaVuSans-28" x="1828.125"/>
     <use xlink:href="#DejaVuSans-57" x="1867.138672"/>
     <use xlink:href="#DejaVuSans-65" x="1960.140625"/>
     <use xlink:href="#DejaVuSans-64" x="2021.664062"/>
     <use xlink:href="#DejaVuSans-29" x="2085.140625"/>
    </g>
   </g>
   <g id="legend_1">
    <g id="patch_7">
     <path d="M 64.6 313.67825 
L 202.80625 313.67825 
Q 204.80625 313.67825 204.80625 311.67825 
L 204.80625 48.472 
Q 204.80625 46.472 202.80625 46.472 
L 64.6 46.472 
Q 62.6 46.472 62.6 48.472 
L 62.6 311.67825 
Q 62.6 313.67825 64.6 313.67825 
z
" style="fill: #ffffff; opacity: 0.8; stroke: #cccccc; stroke-linejoin: miter"/>
    </g>
    <g id="text_17">
     <!-- datetime -->
     <g transform="translate(111.132031 58.070437) scale(0.1 -0.1)">
      <use xlink:href="#DejaVuSans-64"/>
      <use xlink:href="#DejaVuSans-61" x="63.476562"/>
      <use xlink:href="#DejaVuSans-74" x="124.755859"/>
      <use xlink:href="#DejaVuSans-65" x="163.964844"/>
      <use xlink:href="#DejaVuSans-74" x="225.488281"/>
      <use xlink:href="#DejaVuSans-69" x="264.697266"/>
      <use xlink:href="#DejaVuSans-6d" x="292.480469"/>
      <use xlink:href="#DejaVuSans-65" x="389.892578"/>
     </g>
    </g>
    <g id="line2d_31">
     <path d="M 66.6 69.248562 
L 76.6 69.248562 
L 86.6 69.248562 
" style="fill: none; stroke: #1f77b4; stroke-width: 1.5; stroke-linecap: square"/>
    </g>
    <g id="text_18">
     <!-- 2022-04-20 00:00:00 -->
     <g transform="translate(94.6 72.748562) scale(0.1 -0.1)">
      <defs>
       <path id="DejaVuSans-2d" d="M 313 2009 
L 1997 2009 
L 1997 1497 
L 313 1497 
L 313 2009 
z
" transform="scale(0.015625)"/>
       <path id="DejaVuSans-3a" d="M 750 794 
L 1409 794 
L 1409 0 
L 750 0 
L 750 794 
z
M 750 3309 
L 1409 3309 
L 1409 2516 
L 750 2516 
L 750 3309 
z
" transform="scale(0.015625)"/>
      </defs>
      <use xlink:href="#DejaVuSans-32"/>
      <use xlink:href="#DejaVuSans-30" x="63.623047"/>
      <use xlink:href="#DejaVuSans-32" x="127.246094"/>
      <use xlink:href="#DejaVuSans-32" x="190.869141"/>
      <use xlink:href="#DejaVuSans-2d" x="254.492188"/>
      <use xlink:href="#DejaVuSans-30" x="290.576172"/>
      <use xlink:href="#DejaVuSans-34" x="354.199219"/>
      <use xlink:href="#DejaVuSans-2d" x="417.822266"/>
      <use xlink:href="#DejaVuSans-32" x="453.90625"/>
      <use xlink:href="#DejaVuSans-30" x="517.529297"/>
      <use xlink:href="#DejaVuSans-20" x="581.152344"/>
      <use xlink:href="#DejaVuSans-30" x="612.939453"/>
      <use xlink:href="#DejaVuSans-30" x="676.5625"/>
      <use xlink:href="#DejaVuSans-3a" x="740.185547"/>
      <use xlink:href="#DejaVuSans-30" x="773.876953"/>
      <use xlink:href="#DejaVuSans-30" x="837.5"/>
      <use xlink:href="#DejaVuSans-3a" x="901.123047"/>
      <use xlink:href="#DejaVuSans-30" x="934.814453"/>
      <use xlink:href="#DejaVuSans-30" x="998.4375"/>
     </g>
    </g>
    <g id="line2d_32">
     <path d="M 66.6 83.926688 
L 76.6 83.926688 
L 86.6 83.926688 
" style="fill: none; stroke: #ff7f0e; stroke-width: 1.5; stroke-linecap: square"/>
    </g>
    <g id="text_19">
     <!-- 2022-04-27 00:00:00 -->
     <g transform="translate(94.6 87.426688) scale(0.1 -0.1)">
      <use xlink:href="#DejaVuSans-32"/>
      <use xlink:href="#DejaVuSans-30" x="63.623047"/>
      <use xlink:href="#DejaVuSans-32" x="127.246094"/>
      <use xlink:href="#DejaVuSans-32" x="190.869141"/>
      <use xlink:href="#DejaVuSans-2d" x="254.492188"/>
      <use xlink:href="#DejaVuSans-30" x="290.576172"/>
      <use xlink:href="#DejaVuSans-34" x="354.199219"/>
      <use xlink:href="#DejaVuSans-2d" x="417.822266"/>
      <use xlink:href="#DejaVuSans-32" x="453.90625"/>
      <use xlink:href="#DejaVuSans-37" x="517.529297"/>
      <use xlink:href="#DejaVuSans-20" x="581.152344"/>
      <use xlink:href="#DejaVuSans-30" x="612.939453"/>
      <use xlink:href="#DejaVuSans-30" x="676.5625"/>
      <use xlink:href="#DejaVuSans-3a" x="740.185547"/>
      <use xlink:href="#DejaVuSans-30" x="773.876953"/>
      <use xlink:href="#DejaVuSans-30" x="837.5"/>
      <use xlink:href="#DejaVuSans-3a" x="901.123047"/>
      <use xlink:href="#DejaVuSans-30" x="934.814453"/>
      <use xlink:href="#DejaVuSans-30" x="998.4375"/>
     </g>
    </g>
    <g id="line2d_33">
     <path d="M 66.6 98.604813 
L 76.6 98.604813 
L 86.6 98.604813 
" style="fill: none; stroke: #2ca02c; stroke-width: 1.5; stroke-linecap: square"/>
    </g>
    <g id="text_20">
     <!-- 2022-05-04 00:00:00 -->
     <g transform="translate(94.6 102.104813) scale(0.1 -0.1)">
      <use xlink:href="#DejaVuSans-32"/>
      <use xlink:href="#DejaVuSans-30" x="63.623047"/>
      <use xlink:href="#DejaVuSans-32" x="127.246094"/>
      <use xlink:href="#DejaVuSans-32" x="190.869141"/>
      <use xlink:href="#DejaVuSans-2d" x="254.492188"/>
      <use xlink:href="#DejaVuSans-30" x="290.576172"/>
      <use xlink:href="#DejaVuSans-35" x="354.199219"/>
      <use xlink:href="#DejaVuSans-2d" x="417.822266"/>
      <use xlink:href="#DejaVuSans-30" x="453.90625"/>
      <use xlink:href="#DejaVuSans-34" x="517.529297"/>
      <use xlink:href="#DejaVuSans-20" x="581.152344"/>
      <use xlink:href="#DejaVuSans-30" x="612.939453"/>
      <use xlink:href="#DejaVuSans-30" x="676.5625"/>
      <use xlink:href="#DejaVuSans-3a" x="740.185547"/>
      <use xlink:href="#DejaVuSans-30" x="773.876953"/>
      <use xlink:href="#DejaVuSans-30" x="837.5"/>
      <use xlink:href="#DejaVuSans-3a" x="901.123047"/>
      <use xlink:href="#DejaVuSans-30" x="934.814453"/>
      <use xlink:href="#DejaVuSans-30" x="998.4375"/>
     </g>
    </g>
    <g id="line2d_34">
     <path d="M 66.6 113.282938 
L 76.6 113.282938 
L 86.6 113.282938 
" style="fill: none; stroke: #d62728; stroke-width: 1.5; stroke-linecap: square"/>
    </g>
    <g id="text_21">
     <!-- 2022-05-11 00:00:00 -->
     <g transform="translate(94.6 116.782938) scale(0.1 -0.1)">
      <use xlink:href="#DejaVuSans-32"/>
      <use xlink:href="#DejaVuSans-30" x="63.623047"/>
      <use xlink:href="#DejaVuSans-32" x="127.246094"/>
      <use xlink:href="#DejaVuSans-32" x="190.869141"/>
      <use xlink:href="#DejaVuSans-2d" x="254.492188"/>
      <use xlink:href="#DejaVuSans-30" x="290.576172"/>
      <use xlink:href="#DejaVuSans-35" x="354.199219"/>
      <use xlink:href="#DejaVuSans-2d" x="417.822266"/>
      <use xlink:href="#DejaVuSans-31" x="453.90625"/>
      <use xlink:href="#DejaVuSans-31" x="517.529297"/>
      <use xlink:href="#DejaVuSans-20" x="581.152344"/>
      <use xlink:href="#DejaVuSans-30" x="612.939453"/>
      <use xlink:href="#DejaVuSans-30" x="676.5625"/>
      <use xlink:href="#DejaVuSans-3a" x="740.185547"/>
      <use xlink:href="#DejaVuSans-30" x="773.876953"/>
      <use xlink:href="#DejaVuSans-30" x="837.5"/>
      <use xlink:href="#DejaVuSans-3a" x="901.123047"/>
      <use xlink:href="#DejaVuSans-30" x="934.814453"/>
      <use xlink:href="#DejaVuSans-30" x="998.4375"/>
     </g>
    </g>
    <g id="line2d_35">
     <path d="M 66.6 127.961063 
L 76.6 127.961063 
L 86.6 127.961063 
" style="fill: none; stroke: #9467bd; stroke-width: 1.5; stroke-linecap: square"/>
    </g>
    <g id="text_22">
     <!-- 2022-05-18 00:00:00 -->
     <g transform="translate(94.6 131.461063) scale(0.1 -0.1)">
      <defs>
       <path id="DejaVuSans-38" d="M 2034 2216 
Q 1584 2216 1326 1975 
Q 1069 1734 1069 1313 
Q 1069 891 1326 650 
Q 1584 409 2034 409 
Q 2484 409 2743 651 
Q 3003 894 3003 1313 
Q 3003 1734 2745 1975 
Q 2488 2216 2034 2216 
z
M 1403 2484 
Q 997 2584 770 2862 
Q 544 3141 544 3541 
Q 544 4100 942 4425 
Q 1341 4750 2034 4750 
Q 2731 4750 3128 4425 
Q 3525 4100 3525 3541 
Q 3525 3141 3298 2862 
Q 3072 2584 2669 2484 
Q 3125 2378 3379 2068 
Q 3634 1759 3634 1313 
Q 3634 634 3220 271 
Q 2806 -91 2034 -91 
Q 1263 -91 848 271 
Q 434 634 434 1313 
Q 434 1759 690 2068 
Q 947 2378 1403 2484 
z
M 1172 3481 
Q 1172 3119 1398 2916 
Q 1625 2713 2034 2713 
Q 2441 2713 2670 2916 
Q 2900 3119 2900 3481 
Q 2900 3844 2670 4047 
Q 2441 4250 2034 4250 
Q 1625 4250 1398 4047 
Q 1172 3844 1172 3481 
z
" transform="scale(0.015625)"/>
      </defs>
      <use xlink:href="#DejaVuSans-32"/>
      <use xlink:href="#DejaVuSans-30" x="63.623047"/>
      <use xlink:href="#DejaVuSans-32" x="127.246094"/>
      <use xlink:href="#DejaVuSans-32" x="190.869141"/>
      <use xlink:href="#DejaVuSans-2d" x="254.492188"/>
      <use xlink:href="#DejaVuSans-30" x="290.576172"/>
      <use xlink:href="#DejaVuSans-35" x="354.199219"/>
      <use xlink:href="#DejaVuSans-2d" x="417.822266"/>
      <use xlink:href="#DejaVuSans-31" x="453.90625"/>
      <use xlink:href="#DejaVuSans-38" x="517.529297"/>
      <use xlink:href="#DejaVuSans-20" x="581.152344"/>
      <use xlink:href="#DejaVuSans-30" x="612.939453"/>
      <use xlink:href="#DejaVuSans-30" x="676.5625"/>
      <use xlink:href="#DejaVuSans-3a" x="740.185547"/>
      <use xlink:href="#DejaVuSans-30" x="773.876953"/>
      <use xlink:href="#DejaVuSans-30" x="837.5"/>
      <use xlink:href="#DejaVuSans-3a" x="901.123047"/>
      <use xlink:href="#DejaVuSans-30" x="934.814453"/>
      <use xlink:href="#DejaVuSans-30" x="998.4375"/>
     </g>
    </g>
    <g id="line2d_36">
     <path d="M 66.6 142.639187 
L 76.6 142.639187 
L 86.6 142.639187 
" style="fill: none; stroke: #8c564b; stroke-width: 1.5; stroke-linecap: square"/>
    </g>
    <g id="text_23">
     <!-- 2022-05-25 00:00:00 -->
     <g transform="translate(94.6 146.139187) scale(0.1 -0.1)">
      <use xlink:href="#DejaVuSans-32"/>
      <use xlink:href="#DejaVuSans-30" x="63.623047"/>
      <use xlink:href="#DejaVuSans-32" x="127.246094"/>
      <use xlink:href="#DejaVuSans-32" x="190.869141"/>
      <use xlink:href="#DejaVuSans-2d" x="254.492188"/>
      <use xlink:href="#DejaVuSans-30" x="290.576172"/>
      <use xlink:href="#DejaVuSans-35" x="354.199219"/>
      <use xlink:href="#DejaVuSans-2d" x="417.822266"/>
      <use xlink:href="#DejaVuSans-32" x="453.90625"/>
      <use xlink:href="#DejaVuSans-35" x="517.529297"/>
      <use xlink:href="#DejaVuSans-20" x="581.152344"/>
      <use xlink:href="#DejaVuSans-30" x="612.939453"/>
      <use xlink:href="#DejaVuSans-30" x="676.5625"/>
      <use xlink:href="#DejaVuSans-3a" x="740.185547"/>
      <use xlink:href="#DejaVuSans-30" x="773.876953"/>
      <use xlink:href="#DejaVuSans-30" x="837.5"/>
      <use xlink:href="#DejaVuSans-3a" x="901.123047"/>
      <use xlink:href="#DejaVuSans-30" x="934.814453"/>
      <use xlink:href="#DejaVuSans-30" x="998.4375"/>
     </g>
    </g>
    <g id="line2d_37">
     <path d="M 66.6 157.317313 
L 76.6 157.317313 
L 86.6 157.317313 
" style="fill: none; stroke: #e377c2; stroke-width: 1.5; stroke-linecap: square"/>
    </g>
    <g id="text_24">
     <!-- 2022-06-01 00:00:00 -->
     <g transform="translate(94.6 160.817313) scale(0.1 -0.1)">
      <use xlink:href="#DejaVuSans-32"/>
      <use xlink:href="#DejaVuSans-30" x="63.623047"/>
      <use xlink:href="#DejaVuSans-32" x="127.246094"/>
      <use xlink:href="#DejaVuSans-32" x="190.869141"/>
      <use xlink:href="#DejaVuSans-2d" x="254.492188"/>
      <use xlink:href="#DejaVuSans-30" x="290.576172"/>
      <use xlink:href="#DejaVuSans-36" x="354.199219"/>
      <use xlink:href="#DejaVuSans-2d" x="417.822266"/>
      <use xlink:href="#DejaVuSans-30" x="453.90625"/>
      <use xlink:href="#DejaVuSans-31" x="517.529297"/>
      <use xlink:href="#DejaVuSans-20" x="581.152344"/>
      <use xlink:href="#DejaVuSans-30" x="612.939453"/>
      <use xlink:href="#DejaVuSans-30" x="676.5625"/>
      <use xlink:href="#DejaVuSans-3a" x="740.185547"/>
      <use xlink:href="#DejaVuSans-30" x="773.876953"/>
      <use xlink:href="#DejaVuSans-30" x="837.5"/>
      <use xlink:href="#DejaVuSans-3a" x="901.123047"/>
      <use xlink:href="#DejaVuSans-30" x="934.814453"/>
      <use xlink:href="#DejaVuSans-30" x="998.4375"/>
     </g>
    </g>
    <g id="line2d_38">
     <path d="M 66.6 171.995437 
L 76.6 171.995437 
L 86.6 171.995437 
" style="fill: none; stroke: #7f7f7f; stroke-width: 1.5; stroke-linecap: square"/>
    </g>
    <g id="text_25">
     <!-- 2022-06-08 00:00:00 -->
     <g transform="translate(94.6 175.495437) scale(0.1 -0.1)">
      <use xlink:href="#DejaVuSans-32"/>
      <use xlink:href="#DejaVuSans-30" x="63.623047"/>
      <use xlink:href="#DejaVuSans-32" x="127.246094"/>
      <use xlink:href="#DejaVuSans-32" x="190.869141"/>
      <use xlink:href="#DejaVuSans-2d" x="254.492188"/>
      <use xlink:href="#DejaVuSans-30" x="290.576172"/>
      <use xlink:href="#DejaVuSans-36" x="354.199219"/>
      <use xlink:href="#DejaVuSans-2d" x="417.822266"/>
      <use xlink:href="#DejaVuSans-30" x="453.90625"/>
      <use xlink:href="#DejaVuSans-38" x="517.529297"/>
      <use xlink:href="#DejaVuSans-20" x="581.152344"/>
      <use xlink:href="#DejaVuSans-30" x="612.939453"/>
      <use xlink:href="#DejaVuSans-30" x="676.5625"/>
      <use xlink:href="#DejaVuSans-3a" x="740.185547"/>
      <use xlink:href="#DejaVuSans-30" x="773.876953"/>
      <use xlink:href="#DejaVuSans-30" x="837.5"/>
      <use xlink:href="#DejaVuSans-3a" x="901.123047"/>
      <use xlink:href="#DejaVuSans-30" x="934.814453"/>
      <use xlink:href="#DejaVuSans-30" x="998.4375"/>
     </g>
    </g>
    <g id="line2d_39">
     <path d="M 66.6 186.673563 
L 76.6 186.673563 
L 86.6 186.673563 
" style="fill: none; stroke: #bcbd22; stroke-width: 1.5; stroke-linecap: square"/>
    </g>
    <g id="text_26">
     <!-- 2022-06-15 00:00:00 -->
     <g transform="translate(94.6 190.173563) scale(0.1 -0.1)">
      <use xlink:href="#DejaVuSans-32"/>
      <use xlink:href="#DejaVuSans-30" x="63.623047"/>
      <use xlink:href="#DejaVuSans-32" x="127.246094"/>
      <use xlink:href="#DejaVuSans-32" x="190.869141"/>
      <use xlink:href="#DejaVuSans-2d" x="254.492188"/>
      <use xlink:href="#DejaVuSans-30" x="290.576172"/>
      <use xlink:href="#DejaVuSans-36" x="354.199219"/>
      <use xlink:href="#DejaVuSans-2d" x="417.822266"/>
      <use xlink:href="#DejaVuSans-31" x="453.90625"/>
      <use xlink:href="#DejaVuSans-35" x="517.529297"/>
      <use xlink:href="#DejaVuSans-20" x="581.152344"/>
      <use xlink:href="#DejaVuSans-30" x="612.939453"/>
      <use xlink:href="#DejaVuSans-30" x="676.5625"/>
      <use xlink:href="#DejaVuSans-3a" x="740.185547"/>
      <use xlink:href="#DejaVuSans-30" x="773.876953"/>
      <use xlink:href="#DejaVuSans-30" x="837.5"/>
      <use xlink:href="#DejaVuSans-3a" x="901.123047"/>
      <use xlink:href="#DejaVuSans-30" x="934.814453"/>
      <use xlink:href="#DejaVuSans-30" x="998.4375"/>
     </g>
    </g>
    <g id="line2d_40">
     <path d="M 66.6 201.351687 
L 76.6 201.351687 
L 86.6 201.351687 
" style="fill: none; stroke: #17becf; stroke-width: 1.5; stroke-linecap: square"/>
    </g>
    <g id="text_27">
     <!-- 2022-06-22 00:00:00 -->
     <g transform="translate(94.6 204.851687) scale(0.1 -0.1)">
      <use xlink:href="#DejaVuSans-32"/>
      <use xlink:href="#DejaVuSans-30" x="63.623047"/>
      <use xlink:href="#DejaVuSans-32" x="127.246094"/>
      <use xlink:href="#DejaVuSans-32" x="190.869141"/>
      <use xlink:href="#DejaVuSans-2d" x="254.492188"/>
      <use xlink:href="#DejaVuSans-30" x="290.576172"/>
      <use xlink:href="#DejaVuSans-36" x="354.199219"/>
      <use xlink:href="#DejaVuSans-2d" x="417.822266"/>
      <use xlink:href="#DejaVuSans-32" x="453.90625"/>
      <use xlink:href="#DejaVuSans-32" x="517.529297"/>
      <use xlink:href="#DejaVuSans-20" x="581.152344"/>
      <use xlink:href="#DejaVuSans-30" x="612.939453"/>
      <use xlink:href="#DejaVuSans-30" x="676.5625"/>
      <use xlink:href="#DejaVuSans-3a" x="740.185547"/>
      <use xlink:href="#DejaVuSans-30" x="773.876953"/>
      <use xlink:href="#DejaVuSans-30" x="837.5"/>
      <use xlink:href="#DejaVuSans-3a" x="901.123047"/>
      <use xlink:href="#DejaVuSans-30" x="934.814453"/>
      <use xlink:href="#DejaVuSans-30" x="998.4375"/>
     </g>
    </g>
    <g id="line2d_41">
     <path d="M 66.6 216.029812 
L 76.6 216.029812 
L 86.6 216.029812 
" style="fill: none; stroke: #1f77b4; stroke-width: 1.5; stroke-linecap: square"/>
    </g>
    <g id="text_28">
     <!-- 2022-07-06 00:00:00 -->
     <g transform="translate(94.6 219.529812) scale(0.1 -0.1)">
      <use xlink:href="#DejaVuSans-32"/>
      <use xlink:href="#DejaVuSans-30" x="63.623047"/>
      <use xlink:href="#DejaVuSans-32" x="127.246094"/>
      <use xlink:href="#DejaVuSans-32" x="190.869141"/>
      <use xlink:href="#DejaVuSans-2d" x="254.492188"/>
      <use xlink:href="#DejaVuSans-30" x="290.576172"/>
      <use xlink:href="#DejaVuSans-37" x="354.199219"/>
      <use xlink:href="#DejaVuSans-2d" x="417.822266"/>
      <use xlink:href="#DejaVuSans-30" x="453.90625"/>
      <use xlink:href="#DejaVuSans-36" x="517.529297"/>
      <use xlink:href="#DejaVuSans-20" x="581.152344"/>
      <use xlink:href="#DejaVuSans-30" x="612.939453"/>
      <use xlink:href="#DejaVuSans-30" x="676.5625"/>
      <use xlink:href="#DejaVuSans-3a" x="740.185547"/>
      <use xlink:href="#DejaVuSans-30" x="773.876953"/>
      <use xlink:href="#DejaVuSans-30" x="837.5"/>
      <use xlink:href="#DejaVuSans-3a" x="901.123047"/>
      <use xlink:href="#DejaVuSans-30" x="934.814453"/>
      <use xlink:href="#DejaVuSans-30" x="998.4375"/>
     </g>
    </g>
    <g id="line2d_42">
     <path d="M 66.6 230.707937 
L 76.6 230.707937 
L 86.6 230.707937 
" style="fill: none; stroke: #ff7f0e; stroke-width: 1.5; stroke-linecap: square"/>
    </g>
    <g id="text_29">
     <!-- 2022-07-13 00:00:00 -->
     <g transform="translate(94.6 234.207937) scale(0.1 -0.1)">
      <use xlink:href="#DejaVuSans-32"/>
      <use xlink:href="#DejaVuSans-30" x="63.623047"/>
      <use xlink:href="#DejaVuSans-32" x="127.246094"/>
      <use xlink:href="#DejaVuSans-32" x="190.869141"/>
      <use xlink:href="#DejaVuSans-2d" x="254.492188"/>
      <use xlink:href="#DejaVuSans-30" x="290.576172"/>
      <use xlink:href="#DejaVuSans-37" x="354.199219"/>
      <use xlink:href="#DejaVuSans-2d" x="417.822266"/>
      <use xlink:href="#DejaVuSans-31" x="453.90625"/>
      <use xlink:href="#DejaVuSans-33" x="517.529297"/>
      <use xlink:href="#DejaVuSans-20" x="581.152344"/>
      <use xlink:href="#DejaVuSans-30" x="612.939453"/>
      <use xlink:href="#DejaVuSans-30" x="676.5625"/>
      <use xlink:href="#DejaVuSans-3a" x="740.185547"/>
      <use xlink:href="#DejaVuSans-30" x="773.876953"/>
      <use xlink:href="#DejaVuSans-30" x="837.5"/>
      <use xlink:href="#DejaVuSans-3a" x="901.123047"/>
      <use xlink:href="#DejaVuSans-30" x="934.814453"/>
      <use xlink:href="#DejaVuSans-30" x="998.4375"/>
     </g>
    </g>
    <g id="line2d_43">
     <path d="M 66.6 245.386062 
L 76.6 245.386062 
L 86.6 245.386062 
" style="fill: none; stroke: #2ca02c; stroke-width: 1.5; stroke-linecap: square"/>
    </g>
    <g id="text_30">
     <!-- 2022-07-20 00:00:00 -->
     <g transform="translate(94.6 248.886062) scale(0.1 -0.1)">
      <use xlink:href="#DejaVuSans-32"/>
      <use xlink:href="#DejaVuSans-30" x="63.623047"/>
      <use xlink:href="#DejaVuSans-32" x="127.246094"/>
      <use xlink:href="#DejaVuSans-32" x="190.869141"/>
      <use xlink:href="#DejaVuSans-2d" x="254.492188"/>
      <use xlink:href="#DejaVuSans-30" x="290.576172"/>
      <use xlink:href="#DejaVuSans-37" x="354.199219"/>
      <use xlink:href="#DejaVuSans-2d" x="417.822266"/>
      <use xlink:href="#DejaVuSans-32" x="453.90625"/>
      <use xlink:href="#DejaVuSans-30" x="517.529297"/>
      <use xlink:href="#DejaVuSans-20" x="581.152344"/>
      <use xlink:href="#DejaVuSans-30" x="612.939453"/>
      <use xlink:href="#DejaVuSans-30" x="676.5625"/>
      <use xlink:href="#DejaVuSans-3a" x="740.185547"/>
      <use xlink:href="#DejaVuSans-30" x="773.876953"/>
      <use xlink:href="#DejaVuSans-30" x="837.5"/>
      <use xlink:href="#DejaVuSans-3a" x="901.123047"/>
      <use xlink:href="#DejaVuSans-30" x="934.814453"/>
      <use xlink:href="#DejaVuSans-30" x="998.4375"/>
     </g>
    </g>
    <g id="line2d_44">
     <path d="M 66.6 260.064187 
L 76.6 260.064187 
L 86.6 260.064187 
" style="fill: none; stroke: #d62728; stroke-width: 1.5; stroke-linecap: square"/>
    </g>
    <g id="text_31">
     <!-- 2022-07-27 00:00:00 -->
     <g transform="translate(94.6 263.564187) scale(0.1 -0.1)">
      <use xlink:href="#DejaVuSans-32"/>
      <use xlink:href="#DejaVuSans-30" x="63.623047"/>
      <use xlink:href="#DejaVuSans-32" x="127.246094"/>
      <use xlink:href="#DejaVuSans-32" x="190.869141"/>
      <use xlink:href="#DejaVuSans-2d" x="254.492188"/>
      <use xlink:href="#DejaVuSans-30" x="290.576172"/>
      <use xlink:href="#DejaVuSans-37" x="354.199219"/>
      <use xlink:href="#DejaVuSans-2d" x="417.822266"/>
      <use xlink:href="#DejaVuSans-32" x="453.90625"/>
      <use xlink:href="#DejaVuSans-37" x="517.529297"/>
      <use xlink:href="#DejaVuSans-20" x="581.152344"/>
      <use xlink:href="#DejaVuSans-30" x="612.939453"/>
      <use xlink:href="#DejaVuSans-30" x="676.5625"/>
      <use xlink:href="#DejaVuSans-3a" x="740.185547"/>
      <use xlink:href="#DejaVuSans-30" x="773.876953"/>
      <use xlink:href="#DejaVuSans-30" x="837.5"/>
      <use xlink:href="#DejaVuSans-3a" x="901.123047"/>
      <use xlink:href="#DejaVuSans-30" x="934.814453"/>
      <use xlink:href="#DejaVuSans-30" x="998.4375"/>
     </g>
    </g>
    <g id="line2d_45">
     <path d="M 66.6 274.742312 
L 76.6 274.742312 
L 86.6 274.742312 
" style="fill: none; stroke: #9467bd; stroke-width: 1.5; stroke-linecap: square"/>
    </g>
    <g id="text_32">
     <!-- 2022-08-03 00:00:00 -->
     <g transform="translate(94.6 278.242312) scale(0.1 -0.1)">
      <use xlink:href="#DejaVuSans-32"/>
      <use xlink:href="#DejaVuSans-30" x="63.623047"/>
      <use xlink:href="#DejaVuSans-32" x="127.246094"/>
      <use xlink:href="#DejaVuSans-32" x="190.869141"/>
      <use xlink:href="#DejaVuSans-2d" x="254.492188"/>
      <use xlink:href="#DejaVuSans-30" x="290.576172"/>
      <use xlink:href="#DejaVuSans-38" x="354.199219"/>
      <use xlink:href="#DejaVuSans-2d" x="417.822266"/>
      <use xlink:href="#DejaVuSans-30" x="453.90625"/>
      <use xlink:href="#DejaVuSans-33" x="517.529297"/>
      <use xlink:href="#DejaVuSans-20" x="581.152344"/>
      <use xlink:href="#DejaVuSans-30" x="612.939453"/>
      <use xlink:href="#DejaVuSans-30" x="676.5625"/>
      <use xlink:href="#DejaVuSans-3a" x="740.185547"/>
      <use xlink:href="#DejaVuSans-30" x="773.876953"/>
      <use xlink:href="#DejaVuSans-30" x="837.5"/>
      <use xlink:href="#DejaVuSans-3a" x="901.123047"/>
      <use xlink:href="#DejaVuSans-30" x="934.814453"/>
      <use xlink:href="#DejaVuSans-30" x="998.4375"/>
     </g>
    </g>
    <g id="line2d_46">
     <path d="M 66.6 289.420437 
L 76.6 289.420437 
L 86.6 289.420437 
" style="fill: none; stroke: #8c564b; stroke-width: 1.5; stroke-linecap: square"/>
    </g>
    <g id="text_33">
     <!-- 2022-08-10 00:00:00 -->
     <g transform="translate(94.6 292.920437) scale(0.1 -0.1)">
      <use xlink:href="#DejaVuSans-32"/>
      <use xlink:href="#DejaVuSans-30" x="63.623047"/>
      <use xlink:href="#DejaVuSans-32" x="127.246094"/>
      <use xlink:href="#DejaVuSans-32" x="190.869141"/>
      <use xlink:href="#DejaVuSans-2d" x="254.492188"/>
      <use xlink:href="#DejaVuSans-30" x="290.576172"/>
      <use xlink:href="#DejaVuSans-38" x="354.199219"/>
      <use xlink:href="#DejaVuSans-2d" x="417.822266"/>
      <use xlink:href="#DejaVuSans-31" x="453.90625"/>
      <use xlink:href="#DejaVuSans-30" x="517.529297"/>
      <use xlink:href="#DejaVuSans-20" x="581.152344"/>
      <use xlink:href="#DejaVuSans-30" x="612.939453"/>
      <use xlink:href="#DejaVuSans-30" x="676.5625"/>
      <use xlink:href="#DejaVuSans-3a" x="740.185547"/>
      <use xlink:href="#DejaVuSans-30" x="773.876953"/>
      <use xlink:href="#DejaVuSans-30" x="837.5"/>
      <use xlink:href="#DejaVuSans-3a" x="901.123047"/>
      <use xlink:href="#DejaVuSans-30" x="934.814453"/>
      <use xlink:href="#DejaVuSans-30" x="998.4375"/>
     </g>
    </g>
    <g id="line2d_47">
     <path d="M 66.6 304.098562 
L 76.6 304.098562 
L 86.6 304.098562 
" style="fill: none; stroke: #e377c2; stroke-width: 1.5; stroke-linecap: square"/>
    </g>
    <g id="text_34">
     <!-- 2022-08-31 00:00:00 -->
     <g transform="translate(94.6 307.598562) scale(0.1 -0.1)">
      <use xlink:href="#DejaVuSans-32"/>
      <use xlink:href="#DejaVuSans-30" x="63.623047"/>
      <use xlink:href="#DejaVuSans-32" x="127.246094"/>
      <use xlink:href="#DejaVuSans-32" x="190.869141"/>
      <use xlink:href="#DejaVuSans-2d" x="254.492188"/>
      <use xlink:href="#DejaVuSans-30" x="290.576172"/>
      <use xlink:href="#DejaVuSans-38" x="354.199219"/>
      <use xlink:href="#DejaVuSans-2d" x="417.822266"/>
      <use xlink:href="#DejaVuSans-33" x="453.90625"/>
      <use xlink:href="#DejaVuSans-31" x="517.529297"/>
      <use xlink:href="#DejaVuSans-20" x="581.152344"/>
      <use xlink:href="#DejaVuSans-30" x="612.939453"/>
      <use xlink:href="#DejaVuSans-30" x="676.5625"/>
      <use xlink:href="#DejaVuSans-3a" x="740.185547"/>
      <use xlink:href="#DejaVuSans-30" x="773.876953"/>
      <use xlink:href="#DejaVuSans-30" x="837.5"/>
      <use xlink:href="#DejaVuSans-3a" x="901.123047"/>
      <use xlink:href="#DejaVuSans-30" x="934.814453"/>
      <use xlink:href="#DejaVuSans-30" x="998.4375"/>
     </g>
    </g>
   </g>
  </g>
 </g>
 <defs>
  <clipPath id="pce04ec4093">
   <rect x="57.6" y="41.472" width="357.12" height="266.112"/>
  </clipPath>
 </defs>
</svg>
