<?xml version="1.0" encoding="utf-8" standalone="no"?>
<!DOCTYPE svg PUBLIC "-//W3C//DTD SVG 1.1//EN"
  "http://www.w3.org/Graphics/SVG/1.1/DTD/svg11.dtd">
<svg xmlns:xlink="http://www.w3.org/1999/xlink" width="864pt" height="432pt" viewBox="0 0 864 432" xmlns="http://www.w3.org/2000/svg" version="1.1">
 <metadata>
  <rdf:RDF xmlns:dc="http://purl.org/dc/elements/1.1/" xmlns:cc="http://creativecommons.org/ns#" xmlns:rdf="http://www.w3.org/1999/02/22-rdf-syntax-ns#">
   <cc:Work>
    <dc:type rdf:resource="http://purl.org/dc/dcmitype/StillImage"/>
    <dc:date>2023-07-15T13:42:59.301854</dc:date>
    <dc:format>image/svg+xml</dc:format>
    <dc:creator>
     <cc:Agent>
      <dc:title>Matplotlib v3.7.1, https://matplotlib.org/</dc:title>
     </cc:Agent>
    </dc:creator>
   </cc:Work>
  </rdf:RDF>
 </metadata>
 <defs>
  <style type="text/css">*{stroke-linejoin: round; stroke-linecap: butt}</style>
 </defs>
 <g id="figure_1">
  <g id="patch_1">
   <path d="M 0 432 
L 864 432 
L 864 0 
L 0 0 
z
" style="fill: #ffffff"/>
  </g>
  <g id="axes_1">
   <g id="patch_2">
    <path d="M 63.47 390.04 
L 853.2 390.04 
L 853.2 26.88 
L 63.47 26.88 
z
" style="fill: #ffffff"/>
   </g>
   <g id="matplotlib.axis_1">
    <g id="xtick_1">
     <g id="line2d_1">
      <path d="M 75.402322 390.04 
L 75.402322 26.88 
" clip-path="url(#pa98559e3fc)" style="fill: none; stroke: #b0b0b0; stroke-width: 0.8; stroke-linecap: square"/>
     </g>
     <g id="line2d_2">
      <defs>
       <path id="m08d9823558" d="M 0 0 
L 0 3.5 
" style="stroke: #000000; stroke-width: 0.8"/>
      </defs>
      <g>
       <use xlink:href="#m08d9823558" x="75.402322" y="390.04" style="stroke: #000000; stroke-width: 0.8"/>
      </g>
     </g>
     <g id="text_1">
      <!-- 31 -->
      <g transform="translate(69.039822 404.638438) scale(0.1 -0.1)">
       <defs>
        <path id="DejaVuSans-33" d="M 2597 2516 
Q 3050 2419 3304 2112 
Q 3559 1806 3559 1356 
Q 3559 666 3084 287 
Q 2609 -91 1734 -91 
Q 1441 -91 1130 -33 
Q 819 25 488 141 
L 488 750 
Q 750 597 1062 519 
Q 1375 441 1716 441 
Q 2309 441 2620 675 
Q 2931 909 2931 1356 
Q 2931 1769 2642 2001 
Q 2353 2234 1838 2234 
L 1294 2234 
L 1294 2753 
L 1863 2753 
Q 2328 2753 2575 2939 
Q 2822 3125 2822 3475 
Q 2822 3834 2567 4026 
Q 2313 4219 1838 4219 
Q 1578 4219 1281 4162 
Q 984 4106 628 3988 
L 628 4550 
Q 988 4650 1302 4700 
Q 1616 4750 1894 4750 
Q 2613 4750 3031 4423 
Q 3450 4097 3450 3541 
Q 3450 3153 3228 2886 
Q 3006 2619 2597 2516 
z
" transform="scale(0.015625)"/>
        <path id="DejaVuSans-31" d="M 794 531 
L 1825 531 
L 1825 4091 
L 703 3866 
L 703 4441 
L 1819 4666 
L 2450 4666 
L 2450 531 
L 3481 531 
L 3481 0 
L 794 0 
L 794 531 
z
" transform="scale(0.015625)"/>
       </defs>
       <use xlink:href="#DejaVuSans-33"/>
       <use xlink:href="#DejaVuSans-31" x="63.623047"/>
      </g>
     </g>
    </g>
    <g id="xtick_2">
     <g id="line2d_3">
      <path d="M 99.366818 390.04 
L 99.366818 26.88 
" clip-path="url(#pa98559e3fc)" style="fill: none; stroke: #b0b0b0; stroke-width: 0.8; stroke-linecap: square"/>
     </g>
     <g id="line2d_4">
      <g>
       <use xlink:href="#m08d9823558" x="99.366818" y="390.04" style="stroke: #000000; stroke-width: 0.8"/>
      </g>
     </g>
     <g id="text_2">
      <!-- 01 -->
      <g transform="translate(93.004318 404.638438) scale(0.1 -0.1)">
       <defs>
        <path id="DejaVuSans-30" d="M 2034 4250 
Q 1547 4250 1301 3770 
Q 1056 3291 1056 2328 
Q 1056 1369 1301 889 
Q 1547 409 2034 409 
Q 2525 409 2770 889 
Q 3016 1369 3016 2328 
Q 3016 3291 2770 3770 
Q 2525 4250 2034 4250 
z
M 2034 4750 
Q 2819 4750 3233 4129 
Q 3647 3509 3647 2328 
Q 3647 1150 3233 529 
Q 2819 -91 2034 -91 
Q 1250 -91 836 529 
Q 422 1150 422 2328 
Q 422 3509 836 4129 
Q 1250 4750 2034 4750 
z
" transform="scale(0.015625)"/>
       </defs>
       <use xlink:href="#DejaVuSans-30"/>
       <use xlink:href="#DejaVuSans-31" x="63.623047"/>
      </g>
     </g>
    </g>
    <g id="xtick_3">
     <g id="line2d_5">
      <path d="M 123.331314 390.04 
L 123.331314 26.88 
" clip-path="url(#pa98559e3fc)" style="fill: none; stroke: #b0b0b0; stroke-width: 0.8; stroke-linecap: square"/>
     </g>
     <g id="line2d_6">
      <g>
       <use xlink:href="#m08d9823558" x="123.331314" y="390.04" style="stroke: #000000; stroke-width: 0.8"/>
      </g>
     </g>
     <g id="text_3">
      <!-- 02 -->
      <g transform="translate(116.968814 404.638438) scale(0.1 -0.1)">
       <defs>
        <path id="DejaVuSans-32" d="M 1228 531 
L 3431 531 
L 3431 0 
L 469 0 
L 469 531 
Q 828 903 1448 1529 
Q 2069 2156 2228 2338 
Q 2531 2678 2651 2914 
Q 2772 3150 2772 3378 
Q 2772 3750 2511 3984 
Q 2250 4219 1831 4219 
Q 1534 4219 1204 4116 
Q 875 4013 500 3803 
L 500 4441 
Q 881 4594 1212 4672 
Q 1544 4750 1819 4750 
Q 2544 4750 2975 4387 
Q 3406 4025 3406 3419 
Q 3406 3131 3298 2873 
Q 3191 2616 2906 2266 
Q 2828 2175 2409 1742 
Q 1991 1309 1228 531 
z
" transform="scale(0.015625)"/>
       </defs>
       <use xlink:href="#DejaVuSans-30"/>
       <use xlink:href="#DejaVuSans-32" x="63.623047"/>
      </g>
     </g>
    </g>
    <g id="xtick_4">
     <g id="line2d_7">
      <path d="M 147.29581 390.04 
L 147.29581 26.88 
" clip-path="url(#pa98559e3fc)" style="fill: none; stroke: #b0b0b0; stroke-width: 0.8; stroke-linecap: square"/>
     </g>
     <g id="line2d_8">
      <g>
       <use xlink:href="#m08d9823558" x="147.29581" y="390.04" style="stroke: #000000; stroke-width: 0.8"/>
      </g>
     </g>
     <g id="text_4">
      <!-- 03 -->
      <g transform="translate(140.93331 404.638438) scale(0.1 -0.1)">
       <use xlink:href="#DejaVuSans-30"/>
       <use xlink:href="#DejaVuSans-33" x="63.623047"/>
      </g>
     </g>
    </g>
    <g id="xtick_5">
     <g id="line2d_9">
      <path d="M 171.260307 390.04 
L 171.260307 26.88 
" clip-path="url(#pa98559e3fc)" style="fill: none; stroke: #b0b0b0; stroke-width: 0.8; stroke-linecap: square"/>
     </g>
     <g id="line2d_10">
      <g>
       <use xlink:href="#m08d9823558" x="171.260307" y="390.04" style="stroke: #000000; stroke-width: 0.8"/>
      </g>
     </g>
     <g id="text_5">
      <!-- 04 -->
      <g transform="translate(164.897807 404.638438) scale(0.1 -0.1)">
       <defs>
        <path id="DejaVuSans-34" d="M 2419 4116 
L 825 1625 
L 2419 1625 
L 2419 4116 
z
M 2253 4666 
L 3047 4666 
L 3047 1625 
L 3713 1625 
L 3713 1100 
L 3047 1100 
L 3047 0 
L 2419 0 
L 2419 1100 
L 313 1100 
L 313 1709 
L 2253 4666 
z
" transform="scale(0.015625)"/>
       </defs>
       <use xlink:href="#DejaVuSans-30"/>
       <use xlink:href="#DejaVuSans-34" x="63.623047"/>
      </g>
     </g>
    </g>
    <g id="xtick_6">
     <g id="line2d_11">
      <path d="M 195.224803 390.04 
L 195.224803 26.88 
" clip-path="url(#pa98559e3fc)" style="fill: none; stroke: #b0b0b0; stroke-width: 0.8; stroke-linecap: square"/>
     </g>
     <g id="line2d_12">
      <g>
       <use xlink:href="#m08d9823558" x="195.224803" y="390.04" style="stroke: #000000; stroke-width: 0.8"/>
      </g>
     </g>
     <g id="text_6">
      <!-- 05 -->
      <g transform="translate(188.862303 404.638438) scale(0.1 -0.1)">
       <defs>
        <path id="DejaVuSans-35" d="M 691 4666 
L 3169 4666 
L 3169 4134 
L 1269 4134 
L 1269 2991 
Q 1406 3038 1543 3061 
Q 1681 3084 1819 3084 
Q 2600 3084 3056 2656 
Q 3513 2228 3513 1497 
Q 3513 744 3044 326 
Q 2575 -91 1722 -91 
Q 1428 -91 1123 -41 
Q 819 9 494 109 
L 494 744 
Q 775 591 1075 516 
Q 1375 441 1709 441 
Q 2250 441 2565 725 
Q 2881 1009 2881 1497 
Q 2881 1984 2565 2268 
Q 2250 2553 1709 2553 
Q 1456 2553 1204 2497 
Q 953 2441 691 2322 
L 691 4666 
z
" transform="scale(0.015625)"/>
       </defs>
       <use xlink:href="#DejaVuSans-30"/>
       <use xlink:href="#DejaVuSans-35" x="63.623047"/>
      </g>
     </g>
    </g>
    <g id="xtick_7">
     <g id="line2d_13">
      <path d="M 219.189299 390.04 
L 219.189299 26.88 
" clip-path="url(#pa98559e3fc)" style="fill: none; stroke: #b0b0b0; stroke-width: 0.8; stroke-linecap: square"/>
     </g>
     <g id="line2d_14">
      <g>
       <use xlink:href="#m08d9823558" x="219.189299" y="390.04" style="stroke: #000000; stroke-width: 0.8"/>
      </g>
     </g>
     <g id="text_7">
      <!-- 06 -->
      <g transform="translate(212.826799 404.638438) scale(0.1 -0.1)">
       <defs>
        <path id="DejaVuSans-36" d="M 2113 2584 
Q 1688 2584 1439 2293 
Q 1191 2003 1191 1497 
Q 1191 994 1439 701 
Q 1688 409 2113 409 
Q 2538 409 2786 701 
Q 3034 994 3034 1497 
Q 3034 2003 2786 2293 
Q 2538 2584 2113 2584 
z
M 3366 4563 
L 3366 3988 
Q 3128 4100 2886 4159 
Q 2644 4219 2406 4219 
Q 1781 4219 1451 3797 
Q 1122 3375 1075 2522 
Q 1259 2794 1537 2939 
Q 1816 3084 2150 3084 
Q 2853 3084 3261 2657 
Q 3669 2231 3669 1497 
Q 3669 778 3244 343 
Q 2819 -91 2113 -91 
Q 1303 -91 875 529 
Q 447 1150 447 2328 
Q 447 3434 972 4092 
Q 1497 4750 2381 4750 
Q 2619 4750 2861 4703 
Q 3103 4656 3366 4563 
z
" transform="scale(0.015625)"/>
       </defs>
       <use xlink:href="#DejaVuSans-30"/>
       <use xlink:href="#DejaVuSans-36" x="63.623047"/>
      </g>
     </g>
    </g>
    <g id="xtick_8">
     <g id="line2d_15">
      <path d="M 243.153795 390.04 
L 243.153795 26.88 
" clip-path="url(#pa98559e3fc)" style="fill: none; stroke: #b0b0b0; stroke-width: 0.8; stroke-linecap: square"/>
     </g>
     <g id="line2d_16">
      <g>
       <use xlink:href="#m08d9823558" x="243.153795" y="390.04" style="stroke: #000000; stroke-width: 0.8"/>
      </g>
     </g>
     <g id="text_8">
      <!-- 07 -->
      <g transform="translate(236.791295 404.638438) scale(0.1 -0.1)">
       <defs>
        <path id="DejaVuSans-37" d="M 525 4666 
L 3525 4666 
L 3525 4397 
L 1831 0 
L 1172 0 
L 2766 4134 
L 525 4134 
L 525 4666 
z
" transform="scale(0.015625)"/>
       </defs>
       <use xlink:href="#DejaVuSans-30"/>
       <use xlink:href="#DejaVuSans-37" x="63.623047"/>
      </g>
     </g>
    </g>
    <g id="xtick_9">
     <g id="line2d_17">
      <path d="M 267.118291 390.04 
L 267.118291 26.88 
" clip-path="url(#pa98559e3fc)" style="fill: none; stroke: #b0b0b0; stroke-width: 0.8; stroke-linecap: square"/>
     </g>
     <g id="line2d_18">
      <g>
       <use xlink:href="#m08d9823558" x="267.118291" y="390.04" style="stroke: #000000; stroke-width: 0.8"/>
      </g>
     </g>
     <g id="text_9">
      <!-- 08 -->
      <g transform="translate(260.755791 404.638438) scale(0.1 -0.1)">
       <defs>
        <path id="DejaVuSans-38" d="M 2034 2216 
Q 1584 2216 1326 1975 
Q 1069 1734 1069 1313 
Q 1069 891 1326 650 
Q 1584 409 2034 409 
Q 2484 409 2743 651 
Q 3003 894 3003 1313 
Q 3003 1734 2745 1975 
Q 2488 2216 2034 2216 
z
M 1403 2484 
Q 997 2584 770 2862 
Q 544 3141 544 3541 
Q 544 4100 942 4425 
Q 1341 4750 2034 4750 
Q 2731 4750 3128 4425 
Q 3525 4100 3525 3541 
Q 3525 3141 3298 2862 
Q 3072 2584 2669 2484 
Q 3125 2378 3379 2068 
Q 3634 1759 3634 1313 
Q 3634 634 3220 271 
Q 2806 -91 2034 -91 
Q 1263 -91 848 271 
Q 434 634 434 1313 
Q 434 1759 690 2068 
Q 947 2378 1403 2484 
z
M 1172 3481 
Q 1172 3119 1398 2916 
Q 1625 2713 2034 2713 
Q 2441 2713 2670 2916 
Q 2900 3119 2900 3481 
Q 2900 3844 2670 4047 
Q 2441 4250 2034 4250 
Q 1625 4250 1398 4047 
Q 1172 3844 1172 3481 
z
" transform="scale(0.015625)"/>
       </defs>
       <use xlink:href="#DejaVuSans-30"/>
       <use xlink:href="#DejaVuSans-38" x="63.623047"/>
      </g>
     </g>
    </g>
    <g id="xtick_10">
     <g id="line2d_19">
      <path d="M 291.082787 390.04 
L 291.082787 26.88 
" clip-path="url(#pa98559e3fc)" style="fill: none; stroke: #b0b0b0; stroke-width: 0.8; stroke-linecap: square"/>
     </g>
     <g id="line2d_20">
      <g>
       <use xlink:href="#m08d9823558" x="291.082787" y="390.04" style="stroke: #000000; stroke-width: 0.8"/>
      </g>
     </g>
     <g id="text_10">
      <!-- 09 -->
      <g transform="translate(284.720287 404.638438) scale(0.1 -0.1)">
       <defs>
        <path id="DejaVuSans-39" d="M 703 97 
L 703 672 
Q 941 559 1184 500 
Q 1428 441 1663 441 
Q 2288 441 2617 861 
Q 2947 1281 2994 2138 
Q 2813 1869 2534 1725 
Q 2256 1581 1919 1581 
Q 1219 1581 811 2004 
Q 403 2428 403 3163 
Q 403 3881 828 4315 
Q 1253 4750 1959 4750 
Q 2769 4750 3195 4129 
Q 3622 3509 3622 2328 
Q 3622 1225 3098 567 
Q 2575 -91 1691 -91 
Q 1453 -91 1209 -44 
Q 966 3 703 97 
z
M 1959 2075 
Q 2384 2075 2632 2365 
Q 2881 2656 2881 3163 
Q 2881 3666 2632 3958 
Q 2384 4250 1959 4250 
Q 1534 4250 1286 3958 
Q 1038 3666 1038 3163 
Q 1038 2656 1286 2365 
Q 1534 2075 1959 2075 
z
" transform="scale(0.015625)"/>
       </defs>
       <use xlink:href="#DejaVuSans-30"/>
       <use xlink:href="#DejaVuSans-39" x="63.623047"/>
      </g>
     </g>
    </g>
    <g id="xtick_11">
     <g id="line2d_21">
      <path d="M 315.047283 390.04 
L 315.047283 26.88 
" clip-path="url(#pa98559e3fc)" style="fill: none; stroke: #b0b0b0; stroke-width: 0.8; stroke-linecap: square"/>
     </g>
     <g id="line2d_22">
      <g>
       <use xlink:href="#m08d9823558" x="315.047283" y="390.04" style="stroke: #000000; stroke-width: 0.8"/>
      </g>
     </g>
     <g id="text_11">
      <!-- 10 -->
      <g transform="translate(308.684783 404.638438) scale(0.1 -0.1)">
       <use xlink:href="#DejaVuSans-31"/>
       <use xlink:href="#DejaVuSans-30" x="63.623047"/>
      </g>
     </g>
    </g>
    <g id="xtick_12">
     <g id="line2d_23">
      <path d="M 339.01178 390.04 
L 339.01178 26.88 
" clip-path="url(#pa98559e3fc)" style="fill: none; stroke: #b0b0b0; stroke-width: 0.8; stroke-linecap: square"/>
     </g>
     <g id="line2d_24">
      <g>
       <use xlink:href="#m08d9823558" x="339.01178" y="390.04" style="stroke: #000000; stroke-width: 0.8"/>
      </g>
     </g>
     <g id="text_12">
      <!-- 11 -->
      <g transform="translate(332.64928 404.638438) scale(0.1 -0.1)">
       <use xlink:href="#DejaVuSans-31"/>
       <use xlink:href="#DejaVuSans-31" x="63.623047"/>
      </g>
     </g>
    </g>
    <g id="xtick_13">
     <g id="line2d_25">
      <path d="M 362.976276 390.04 
L 362.976276 26.88 
" clip-path="url(#pa98559e3fc)" style="fill: none; stroke: #b0b0b0; stroke-width: 0.8; stroke-linecap: square"/>
     </g>
     <g id="line2d_26">
      <g>
       <use xlink:href="#m08d9823558" x="362.976276" y="390.04" style="stroke: #000000; stroke-width: 0.8"/>
      </g>
     </g>
     <g id="text_13">
      <!-- 12 -->
      <g transform="translate(356.613776 404.638438) scale(0.1 -0.1)">
       <use xlink:href="#DejaVuSans-31"/>
       <use xlink:href="#DejaVuSans-32" x="63.623047"/>
      </g>
     </g>
    </g>
    <g id="xtick_14">
     <g id="line2d_27">
      <path d="M 386.940772 390.04 
L 386.940772 26.88 
" clip-path="url(#pa98559e3fc)" style="fill: none; stroke: #b0b0b0; stroke-width: 0.8; stroke-linecap: square"/>
     </g>
     <g id="line2d_28">
      <g>
       <use xlink:href="#m08d9823558" x="386.940772" y="390.04" style="stroke: #000000; stroke-width: 0.8"/>
      </g>
     </g>
     <g id="text_14">
      <!-- 13 -->
      <g transform="translate(380.578272 404.638438) scale(0.1 -0.1)">
       <use xlink:href="#DejaVuSans-31"/>
       <use xlink:href="#DejaVuSans-33" x="63.623047"/>
      </g>
     </g>
    </g>
    <g id="xtick_15">
     <g id="line2d_29">
      <path d="M 410.905268 390.04 
L 410.905268 26.88 
" clip-path="url(#pa98559e3fc)" style="fill: none; stroke: #b0b0b0; stroke-width: 0.8; stroke-linecap: square"/>
     </g>
     <g id="line2d_30">
      <g>
       <use xlink:href="#m08d9823558" x="410.905268" y="390.04" style="stroke: #000000; stroke-width: 0.8"/>
      </g>
     </g>
     <g id="text_15">
      <!-- 14 -->
      <g transform="translate(404.542768 404.638438) scale(0.1 -0.1)">
       <use xlink:href="#DejaVuSans-31"/>
       <use xlink:href="#DejaVuSans-34" x="63.623047"/>
      </g>
     </g>
    </g>
    <g id="xtick_16">
     <g id="line2d_31">
      <path d="M 434.869764 390.04 
L 434.869764 26.88 
" clip-path="url(#pa98559e3fc)" style="fill: none; stroke: #b0b0b0; stroke-width: 0.8; stroke-linecap: square"/>
     </g>
     <g id="line2d_32">
      <g>
       <use xlink:href="#m08d9823558" x="434.869764" y="390.04" style="stroke: #000000; stroke-width: 0.8"/>
      </g>
     </g>
     <g id="text_16">
      <!-- 15 -->
      <g transform="translate(428.507264 404.638438) scale(0.1 -0.1)">
       <use xlink:href="#DejaVuSans-31"/>
       <use xlink:href="#DejaVuSans-35" x="63.623047"/>
      </g>
     </g>
    </g>
    <g id="xtick_17">
     <g id="line2d_33">
      <path d="M 458.83426 390.04 
L 458.83426 26.88 
" clip-path="url(#pa98559e3fc)" style="fill: none; stroke: #b0b0b0; stroke-width: 0.8; stroke-linecap: square"/>
     </g>
     <g id="line2d_34">
      <g>
       <use xlink:href="#m08d9823558" x="458.83426" y="390.04" style="stroke: #000000; stroke-width: 0.8"/>
      </g>
     </g>
     <g id="text_17">
      <!-- 16 -->
      <g transform="translate(452.47176 404.638438) scale(0.1 -0.1)">
       <use xlink:href="#DejaVuSans-31"/>
       <use xlink:href="#DejaVuSans-36" x="63.623047"/>
      </g>
     </g>
    </g>
    <g id="xtick_18">
     <g id="line2d_35">
      <path d="M 482.798756 390.04 
L 482.798756 26.88 
" clip-path="url(#pa98559e3fc)" style="fill: none; stroke: #b0b0b0; stroke-width: 0.8; stroke-linecap: square"/>
     </g>
     <g id="line2d_36">
      <g>
       <use xlink:href="#m08d9823558" x="482.798756" y="390.04" style="stroke: #000000; stroke-width: 0.8"/>
      </g>
     </g>
     <g id="text_18">
      <!-- 17 -->
      <g transform="translate(476.436256 404.638438) scale(0.1 -0.1)">
       <use xlink:href="#DejaVuSans-31"/>
       <use xlink:href="#DejaVuSans-37" x="63.623047"/>
      </g>
     </g>
    </g>
    <g id="xtick_19">
     <g id="line2d_37">
      <path d="M 506.763253 390.04 
L 506.763253 26.88 
" clip-path="url(#pa98559e3fc)" style="fill: none; stroke: #b0b0b0; stroke-width: 0.8; stroke-linecap: square"/>
     </g>
     <g id="line2d_38">
      <g>
       <use xlink:href="#m08d9823558" x="506.763253" y="390.04" style="stroke: #000000; stroke-width: 0.8"/>
      </g>
     </g>
     <g id="text_19">
      <!-- 18 -->
      <g transform="translate(500.400753 404.638438) scale(0.1 -0.1)">
       <use xlink:href="#DejaVuSans-31"/>
       <use xlink:href="#DejaVuSans-38" x="63.623047"/>
      </g>
     </g>
    </g>
    <g id="xtick_20">
     <g id="line2d_39">
      <path d="M 530.727749 390.04 
L 530.727749 26.88 
" clip-path="url(#pa98559e3fc)" style="fill: none; stroke: #b0b0b0; stroke-width: 0.8; stroke-linecap: square"/>
     </g>
     <g id="line2d_40">
      <g>
       <use xlink:href="#m08d9823558" x="530.727749" y="390.04" style="stroke: #000000; stroke-width: 0.8"/>
      </g>
     </g>
     <g id="text_20">
      <!-- 19 -->
      <g transform="translate(524.365249 404.638438) scale(0.1 -0.1)">
       <use xlink:href="#DejaVuSans-31"/>
       <use xlink:href="#DejaVuSans-39" x="63.623047"/>
      </g>
     </g>
    </g>
    <g id="xtick_21">
     <g id="line2d_41">
      <path d="M 554.692245 390.04 
L 554.692245 26.88 
" clip-path="url(#pa98559e3fc)" style="fill: none; stroke: #b0b0b0; stroke-width: 0.8; stroke-linecap: square"/>
     </g>
     <g id="line2d_42">
      <g>
       <use xlink:href="#m08d9823558" x="554.692245" y="390.04" style="stroke: #000000; stroke-width: 0.8"/>
      </g>
     </g>
     <g id="text_21">
      <!-- 20 -->
      <g transform="translate(548.329745 404.638438) scale(0.1 -0.1)">
       <use xlink:href="#DejaVuSans-32"/>
       <use xlink:href="#DejaVuSans-30" x="63.623047"/>
      </g>
     </g>
    </g>
    <g id="xtick_22">
     <g id="line2d_43">
      <path d="M 578.656741 390.04 
L 578.656741 26.88 
" clip-path="url(#pa98559e3fc)" style="fill: none; stroke: #b0b0b0; stroke-width: 0.8; stroke-linecap: square"/>
     </g>
     <g id="line2d_44">
      <g>
       <use xlink:href="#m08d9823558" x="578.656741" y="390.04" style="stroke: #000000; stroke-width: 0.8"/>
      </g>
     </g>
     <g id="text_22">
      <!-- 21 -->
      <g transform="translate(572.294241 404.638438) scale(0.1 -0.1)">
       <use xlink:href="#DejaVuSans-32"/>
       <use xlink:href="#DejaVuSans-31" x="63.623047"/>
      </g>
     </g>
    </g>
    <g id="xtick_23">
     <g id="line2d_45">
      <path d="M 602.621237 390.04 
L 602.621237 26.88 
" clip-path="url(#pa98559e3fc)" style="fill: none; stroke: #b0b0b0; stroke-width: 0.8; stroke-linecap: square"/>
     </g>
     <g id="line2d_46">
      <g>
       <use xlink:href="#m08d9823558" x="602.621237" y="390.04" style="stroke: #000000; stroke-width: 0.8"/>
      </g>
     </g>
     <g id="text_23">
      <!-- 22 -->
      <g transform="translate(596.258737 404.638438) scale(0.1 -0.1)">
       <use xlink:href="#DejaVuSans-32"/>
       <use xlink:href="#DejaVuSans-32" x="63.623047"/>
      </g>
     </g>
    </g>
    <g id="xtick_24">
     <g id="line2d_47">
      <path d="M 626.585733 390.04 
L 626.585733 26.88 
" clip-path="url(#pa98559e3fc)" style="fill: none; stroke: #b0b0b0; stroke-width: 0.8; stroke-linecap: square"/>
     </g>
     <g id="line2d_48">
      <g>
       <use xlink:href="#m08d9823558" x="626.585733" y="390.04" style="stroke: #000000; stroke-width: 0.8"/>
      </g>
     </g>
     <g id="text_24">
      <!-- 23 -->
      <g transform="translate(620.223233 404.638438) scale(0.1 -0.1)">
       <use xlink:href="#DejaVuSans-32"/>
       <use xlink:href="#DejaVuSans-33" x="63.623047"/>
      </g>
     </g>
    </g>
    <g id="xtick_25">
     <g id="line2d_49">
      <path d="M 650.550229 390.04 
L 650.550229 26.88 
" clip-path="url(#pa98559e3fc)" style="fill: none; stroke: #b0b0b0; stroke-width: 0.8; stroke-linecap: square"/>
     </g>
     <g id="line2d_50">
      <g>
       <use xlink:href="#m08d9823558" x="650.550229" y="390.04" style="stroke: #000000; stroke-width: 0.8"/>
      </g>
     </g>
     <g id="text_25">
      <!-- 24 -->
      <g transform="translate(644.187729 404.638438) scale(0.1 -0.1)">
       <use xlink:href="#DejaVuSans-32"/>
       <use xlink:href="#DejaVuSans-34" x="63.623047"/>
      </g>
     </g>
    </g>
    <g id="xtick_26">
     <g id="line2d_51">
      <path d="M 674.514726 390.04 
L 674.514726 26.88 
" clip-path="url(#pa98559e3fc)" style="fill: none; stroke: #b0b0b0; stroke-width: 0.8; stroke-linecap: square"/>
     </g>
     <g id="line2d_52">
      <g>
       <use xlink:href="#m08d9823558" x="674.514726" y="390.04" style="stroke: #000000; stroke-width: 0.8"/>
      </g>
     </g>
     <g id="text_26">
      <!-- 25 -->
      <g transform="translate(668.152226 404.638438) scale(0.1 -0.1)">
       <use xlink:href="#DejaVuSans-32"/>
       <use xlink:href="#DejaVuSans-35" x="63.623047"/>
      </g>
     </g>
    </g>
    <g id="xtick_27">
     <g id="line2d_53">
      <path d="M 698.479222 390.04 
L 698.479222 26.88 
" clip-path="url(#pa98559e3fc)" style="fill: none; stroke: #b0b0b0; stroke-width: 0.8; stroke-linecap: square"/>
     </g>
     <g id="line2d_54">
      <g>
       <use xlink:href="#m08d9823558" x="698.479222" y="390.04" style="stroke: #000000; stroke-width: 0.8"/>
      </g>
     </g>
     <g id="text_27">
      <!-- 26 -->
      <g transform="translate(692.116722 404.638438) scale(0.1 -0.1)">
       <use xlink:href="#DejaVuSans-32"/>
       <use xlink:href="#DejaVuSans-36" x="63.623047"/>
      </g>
     </g>
    </g>
    <g id="xtick_28">
     <g id="line2d_55">
      <path d="M 722.443718 390.04 
L 722.443718 26.88 
" clip-path="url(#pa98559e3fc)" style="fill: none; stroke: #b0b0b0; stroke-width: 0.8; stroke-linecap: square"/>
     </g>
     <g id="line2d_56">
      <g>
       <use xlink:href="#m08d9823558" x="722.443718" y="390.04" style="stroke: #000000; stroke-width: 0.8"/>
      </g>
     </g>
     <g id="text_28">
      <!-- 27 -->
      <g transform="translate(716.081218 404.638438) scale(0.1 -0.1)">
       <use xlink:href="#DejaVuSans-32"/>
       <use xlink:href="#DejaVuSans-37" x="63.623047"/>
      </g>
     </g>
    </g>
    <g id="xtick_29">
     <g id="line2d_57">
      <path d="M 746.408214 390.04 
L 746.408214 26.88 
" clip-path="url(#pa98559e3fc)" style="fill: none; stroke: #b0b0b0; stroke-width: 0.8; stroke-linecap: square"/>
     </g>
     <g id="line2d_58">
      <g>
       <use xlink:href="#m08d9823558" x="746.408214" y="390.04" style="stroke: #000000; stroke-width: 0.8"/>
      </g>
     </g>
     <g id="text_29">
      <!-- 28 -->
      <g transform="translate(740.045714 404.638438) scale(0.1 -0.1)">
       <use xlink:href="#DejaVuSans-32"/>
       <use xlink:href="#DejaVuSans-38" x="63.623047"/>
      </g>
     </g>
    </g>
    <g id="xtick_30">
     <g id="line2d_59">
      <path d="M 770.37271 390.04 
L 770.37271 26.88 
" clip-path="url(#pa98559e3fc)" style="fill: none; stroke: #b0b0b0; stroke-width: 0.8; stroke-linecap: square"/>
     </g>
     <g id="line2d_60">
      <g>
       <use xlink:href="#m08d9823558" x="770.37271" y="390.04" style="stroke: #000000; stroke-width: 0.8"/>
      </g>
     </g>
     <g id="text_30">
      <!-- 29 -->
      <g transform="translate(764.01021 404.638438) scale(0.1 -0.1)">
       <use xlink:href="#DejaVuSans-32"/>
       <use xlink:href="#DejaVuSans-39" x="63.623047"/>
      </g>
     </g>
    </g>
    <g id="xtick_31">
     <g id="line2d_61">
      <path d="M 794.337206 390.04 
L 794.337206 26.88 
" clip-path="url(#pa98559e3fc)" style="fill: none; stroke: #b0b0b0; stroke-width: 0.8; stroke-linecap: square"/>
     </g>
     <g id="line2d_62">
      <g>
       <use xlink:href="#m08d9823558" x="794.337206" y="390.04" style="stroke: #000000; stroke-width: 0.8"/>
      </g>
     </g>
     <g id="text_31">
      <!-- 30 -->
      <g transform="translate(787.974706 404.638438) scale(0.1 -0.1)">
       <use xlink:href="#DejaVuSans-33"/>
       <use xlink:href="#DejaVuSans-30" x="63.623047"/>
      </g>
     </g>
    </g>
    <g id="xtick_32">
     <g id="line2d_63">
      <path d="M 818.301702 390.04 
L 818.301702 26.88 
" clip-path="url(#pa98559e3fc)" style="fill: none; stroke: #b0b0b0; stroke-width: 0.8; stroke-linecap: square"/>
     </g>
     <g id="line2d_64">
      <g>
       <use xlink:href="#m08d9823558" x="818.301702" y="390.04" style="stroke: #000000; stroke-width: 0.8"/>
      </g>
     </g>
     <g id="text_32">
      <!-- 01 -->
      <g transform="translate(811.939202 404.638438) scale(0.1 -0.1)">
       <use xlink:href="#DejaVuSans-30"/>
       <use xlink:href="#DejaVuSans-31" x="63.623047"/>
      </g>
     </g>
    </g>
    <g id="xtick_33">
     <g id="line2d_65">
      <path d="M 842.266199 390.04 
L 842.266199 26.88 
" clip-path="url(#pa98559e3fc)" style="fill: none; stroke: #b0b0b0; stroke-width: 0.8; stroke-linecap: square"/>
     </g>
     <g id="line2d_66">
      <g>
       <use xlink:href="#m08d9823558" x="842.266199" y="390.04" style="stroke: #000000; stroke-width: 0.8"/>
      </g>
     </g>
     <g id="text_33">
      <!-- 02 -->
      <g transform="translate(835.903699 404.638438) scale(0.1 -0.1)">
       <use xlink:href="#DejaVuSans-30"/>
       <use xlink:href="#DejaVuSans-32" x="63.623047"/>
      </g>
     </g>
    </g>
    <g id="text_34">
     <!-- Day -->
     <g transform="translate(448.461563 418.316562) scale(0.1 -0.1)">
      <defs>
       <path id="DejaVuSans-44" d="M 1259 4147 
L 1259 519 
L 2022 519 
Q 2988 519 3436 956 
Q 3884 1394 3884 2338 
Q 3884 3275 3436 3711 
Q 2988 4147 2022 4147 
L 1259 4147 
z
M 628 4666 
L 1925 4666 
Q 3281 4666 3915 4102 
Q 4550 3538 4550 2338 
Q 4550 1131 3912 565 
Q 3275 0 1925 0 
L 628 0 
L 628 4666 
z
" transform="scale(0.015625)"/>
       <path id="DejaVuSans-61" d="M 2194 1759 
Q 1497 1759 1228 1600 
Q 959 1441 959 1056 
Q 959 750 1161 570 
Q 1363 391 1709 391 
Q 2188 391 2477 730 
Q 2766 1069 2766 1631 
L 2766 1759 
L 2194 1759 
z
M 3341 1997 
L 3341 0 
L 2766 0 
L 2766 531 
Q 2569 213 2275 61 
Q 1981 -91 1556 -91 
Q 1019 -91 701 211 
Q 384 513 384 1019 
Q 384 1609 779 1909 
Q 1175 2209 1959 2209 
L 2766 2209 
L 2766 2266 
Q 2766 2663 2505 2880 
Q 2244 3097 1772 3097 
Q 1472 3097 1187 3025 
Q 903 2953 641 2809 
L 641 3341 
Q 956 3463 1253 3523 
Q 1550 3584 1831 3584 
Q 2591 3584 2966 3190 
Q 3341 2797 3341 1997 
z
" transform="scale(0.015625)"/>
       <path id="DejaVuSans-79" d="M 2059 -325 
Q 1816 -950 1584 -1140 
Q 1353 -1331 966 -1331 
L 506 -1331 
L 506 -850 
L 844 -850 
Q 1081 -850 1212 -737 
Q 1344 -625 1503 -206 
L 1606 56 
L 191 3500 
L 800 3500 
L 1894 763 
L 2988 3500 
L 3597 3500 
L 2059 -325 
z
" transform="scale(0.015625)"/>
      </defs>
      <use xlink:href="#DejaVuSans-44"/>
      <use xlink:href="#DejaVuSans-61" x="77.001953"/>
      <use xlink:href="#DejaVuSans-79" x="138.28125"/>
     </g>
    </g>
   </g>
   <g id="matplotlib.axis_2">
    <g id="ytick_1">
     <g id="line2d_67">
      <path d="M 63.47 373.555641 
L 853.2 373.555641 
" clip-path="url(#pa98559e3fc)" style="fill: none; stroke: #b0b0b0; stroke-width: 0.8; stroke-linecap: square"/>
     </g>
     <g id="line2d_68">
      <defs>
       <path id="m67a0c61d95" d="M 0 0 
L -3.5 0 
" style="stroke: #000000; stroke-width: 0.8"/>
      </defs>
      <g>
       <use xlink:href="#m67a0c61d95" x="63.47" y="373.555641" style="stroke: #000000; stroke-width: 0.8"/>
      </g>
     </g>
     <g id="text_35">
      <!-- 0 -->
      <g transform="translate(50.1075 377.35486) scale(0.1 -0.1)">
       <use xlink:href="#DejaVuSans-30"/>
      </g>
     </g>
    </g>
    <g id="ytick_2">
     <g id="line2d_69">
      <path d="M 63.47 327.727566 
L 853.2 327.727566 
" clip-path="url(#pa98559e3fc)" style="fill: none; stroke: #b0b0b0; stroke-width: 0.8; stroke-linecap: square"/>
     </g>
     <g id="line2d_70">
      <g>
       <use xlink:href="#m67a0c61d95" x="63.47" y="327.727566" style="stroke: #000000; stroke-width: 0.8"/>
      </g>
     </g>
     <g id="text_36">
      <!-- 2000 -->
      <g transform="translate(31.02 331.526785) scale(0.1 -0.1)">
       <use xlink:href="#DejaVuSans-32"/>
       <use xlink:href="#DejaVuSans-30" x="63.623047"/>
       <use xlink:href="#DejaVuSans-30" x="127.246094"/>
       <use xlink:href="#DejaVuSans-30" x="190.869141"/>
      </g>
     </g>
    </g>
    <g id="ytick_3">
     <g id="line2d_71">
      <path d="M 63.47 281.899491 
L 853.2 281.899491 
" clip-path="url(#pa98559e3fc)" style="fill: none; stroke: #b0b0b0; stroke-width: 0.8; stroke-linecap: square"/>
     </g>
     <g id="line2d_72">
      <g>
       <use xlink:href="#m67a0c61d95" x="63.47" y="281.899491" style="stroke: #000000; stroke-width: 0.8"/>
      </g>
     </g>
     <g id="text_37">
      <!-- 4000 -->
      <g transform="translate(31.02 285.698709) scale(0.1 -0.1)">
       <use xlink:href="#DejaVuSans-34"/>
       <use xlink:href="#DejaVuSans-30" x="63.623047"/>
       <use xlink:href="#DejaVuSans-30" x="127.246094"/>
       <use xlink:href="#DejaVuSans-30" x="190.869141"/>
      </g>
     </g>
    </g>
    <g id="ytick_4">
     <g id="line2d_73">
      <path d="M 63.47 236.071415 
L 853.2 236.071415 
" clip-path="url(#pa98559e3fc)" style="fill: none; stroke: #b0b0b0; stroke-width: 0.8; stroke-linecap: square"/>
     </g>
     <g id="line2d_74">
      <g>
       <use xlink:href="#m67a0c61d95" x="63.47" y="236.071415" style="stroke: #000000; stroke-width: 0.8"/>
      </g>
     </g>
     <g id="text_38">
      <!-- 6000 -->
      <g transform="translate(31.02 239.870634) scale(0.1 -0.1)">
       <use xlink:href="#DejaVuSans-36"/>
       <use xlink:href="#DejaVuSans-30" x="63.623047"/>
       <use xlink:href="#DejaVuSans-30" x="127.246094"/>
       <use xlink:href="#DejaVuSans-30" x="190.869141"/>
      </g>
     </g>
    </g>
    <g id="ytick_5">
     <g id="line2d_75">
      <path d="M 63.47 190.24334 
L 853.2 190.24334 
" clip-path="url(#pa98559e3fc)" style="fill: none; stroke: #b0b0b0; stroke-width: 0.8; stroke-linecap: square"/>
     </g>
     <g id="line2d_76">
      <g>
       <use xlink:href="#m67a0c61d95" x="63.47" y="190.24334" style="stroke: #000000; stroke-width: 0.8"/>
      </g>
     </g>
     <g id="text_39">
      <!-- 8000 -->
      <g transform="translate(31.02 194.042559) scale(0.1 -0.1)">
       <use xlink:href="#DejaVuSans-38"/>
       <use xlink:href="#DejaVuSans-30" x="63.623047"/>
       <use xlink:href="#DejaVuSans-30" x="127.246094"/>
       <use xlink:href="#DejaVuSans-30" x="190.869141"/>
      </g>
     </g>
    </g>
    <g id="ytick_6">
     <g id="line2d_77">
      <path d="M 63.47 144.415265 
L 853.2 144.415265 
" clip-path="url(#pa98559e3fc)" style="fill: none; stroke: #b0b0b0; stroke-width: 0.8; stroke-linecap: square"/>
     </g>
     <g id="line2d_78">
      <g>
       <use xlink:href="#m67a0c61d95" x="63.47" y="144.415265" style="stroke: #000000; stroke-width: 0.8"/>
      </g>
     </g>
     <g id="text_40">
      <!-- 10000 -->
      <g transform="translate(24.6575 148.214484) scale(0.1 -0.1)">
       <use xlink:href="#DejaVuSans-31"/>
       <use xlink:href="#DejaVuSans-30" x="63.623047"/>
       <use xlink:href="#DejaVuSans-30" x="127.246094"/>
       <use xlink:href="#DejaVuSans-30" x="190.869141"/>
       <use xlink:href="#DejaVuSans-30" x="254.492188"/>
      </g>
     </g>
    </g>
    <g id="ytick_7">
     <g id="line2d_79">
      <path d="M 63.47 98.587189 
L 853.2 98.587189 
" clip-path="url(#pa98559e3fc)" style="fill: none; stroke: #b0b0b0; stroke-width: 0.8; stroke-linecap: square"/>
     </g>
     <g id="line2d_80">
      <g>
       <use xlink:href="#m67a0c61d95" x="63.47" y="98.587189" style="stroke: #000000; stroke-width: 0.8"/>
      </g>
     </g>
     <g id="text_41">
      <!-- 12000 -->
      <g transform="translate(24.6575 102.386408) scale(0.1 -0.1)">
       <use xlink:href="#DejaVuSans-31"/>
       <use xlink:href="#DejaVuSans-32" x="63.623047"/>
       <use xlink:href="#DejaVuSans-30" x="127.246094"/>
       <use xlink:href="#DejaVuSans-30" x="190.869141"/>
       <use xlink:href="#DejaVuSans-30" x="254.492188"/>
      </g>
     </g>
    </g>
    <g id="ytick_8">
     <g id="line2d_81">
      <path d="M 63.47 52.759114 
L 853.2 52.759114 
" clip-path="url(#pa98559e3fc)" style="fill: none; stroke: #b0b0b0; stroke-width: 0.8; stroke-linecap: square"/>
     </g>
     <g id="line2d_82">
      <g>
       <use xlink:href="#m67a0c61d95" x="63.47" y="52.759114" style="stroke: #000000; stroke-width: 0.8"/>
      </g>
     </g>
     <g id="text_42">
      <!-- 14000 -->
      <g transform="translate(24.6575 56.558333) scale(0.1 -0.1)">
       <use xlink:href="#DejaVuSans-31"/>
       <use xlink:href="#DejaVuSans-34" x="63.623047"/>
       <use xlink:href="#DejaVuSans-30" x="127.246094"/>
       <use xlink:href="#DejaVuSans-30" x="190.869141"/>
       <use xlink:href="#DejaVuSans-30" x="254.492188"/>
      </g>
     </g>
    </g>
    <g id="text_43">
     <!-- Amount -->
     <g transform="translate(18.577812 228.107656) rotate(-90) scale(0.1 -0.1)">
      <defs>
       <path id="DejaVuSans-41" d="M 2188 4044 
L 1331 1722 
L 3047 1722 
L 2188 4044 
z
M 1831 4666 
L 2547 4666 
L 4325 0 
L 3669 0 
L 3244 1197 
L 1141 1197 
L 716 0 
L 50 0 
L 1831 4666 
z
" transform="scale(0.015625)"/>
       <path id="DejaVuSans-6d" d="M 3328 2828 
Q 3544 3216 3844 3400 
Q 4144 3584 4550 3584 
Q 5097 3584 5394 3201 
Q 5691 2819 5691 2113 
L 5691 0 
L 5113 0 
L 5113 2094 
Q 5113 2597 4934 2840 
Q 4756 3084 4391 3084 
Q 3944 3084 3684 2787 
Q 3425 2491 3425 1978 
L 3425 0 
L 2847 0 
L 2847 2094 
Q 2847 2600 2669 2842 
Q 2491 3084 2119 3084 
Q 1678 3084 1418 2786 
Q 1159 2488 1159 1978 
L 1159 0 
L 581 0 
L 581 3500 
L 1159 3500 
L 1159 2956 
Q 1356 3278 1631 3431 
Q 1906 3584 2284 3584 
Q 2666 3584 2933 3390 
Q 3200 3197 3328 2828 
z
" transform="scale(0.015625)"/>
       <path id="DejaVuSans-6f" d="M 1959 3097 
Q 1497 3097 1228 2736 
Q 959 2375 959 1747 
Q 959 1119 1226 758 
Q 1494 397 1959 397 
Q 2419 397 2687 759 
Q 2956 1122 2956 1747 
Q 2956 2369 2687 2733 
Q 2419 3097 1959 3097 
z
M 1959 3584 
Q 2709 3584 3137 3096 
Q 3566 2609 3566 1747 
Q 3566 888 3137 398 
Q 2709 -91 1959 -91 
Q 1206 -91 779 398 
Q 353 888 353 1747 
Q 353 2609 779 3096 
Q 1206 3584 1959 3584 
z
" transform="scale(0.015625)"/>
       <path id="DejaVuSans-75" d="M 544 1381 
L 544 3500 
L 1119 3500 
L 1119 1403 
Q 1119 906 1312 657 
Q 1506 409 1894 409 
Q 2359 409 2629 706 
Q 2900 1003 2900 1516 
L 2900 3500 
L 3475 3500 
L 3475 0 
L 2900 0 
L 2900 538 
Q 2691 219 2414 64 
Q 2138 -91 1772 -91 
Q 1169 -91 856 284 
Q 544 659 544 1381 
z
M 1991 3584 
L 1991 3584 
z
" transform="scale(0.015625)"/>
       <path id="DejaVuSans-6e" d="M 3513 2113 
L 3513 0 
L 2938 0 
L 2938 2094 
Q 2938 2591 2744 2837 
Q 2550 3084 2163 3084 
Q 1697 3084 1428 2787 
Q 1159 2491 1159 1978 
L 1159 0 
L 581 0 
L 581 3500 
L 1159 3500 
L 1159 2956 
Q 1366 3272 1645 3428 
Q 1925 3584 2291 3584 
Q 2894 3584 3203 3211 
Q 3513 2838 3513 2113 
z
" transform="scale(0.015625)"/>
       <path id="DejaVuSans-74" d="M 1172 4494 
L 1172 3500 
L 2356 3500 
L 2356 3053 
L 1172 3053 
L 1172 1153 
Q 1172 725 1289 603 
Q 1406 481 1766 481 
L 2356 481 
L 2356 0 
L 1766 0 
Q 1100 0 847 248 
Q 594 497 594 1153 
L 594 3053 
L 172 3053 
L 172 3500 
L 594 3500 
L 594 4494 
L 1172 4494 
z
" transform="scale(0.015625)"/>
      </defs>
      <use xlink:href="#DejaVuSans-41"/>
      <use xlink:href="#DejaVuSans-6d" x="68.408203"/>
      <use xlink:href="#DejaVuSans-6f" x="165.820312"/>
      <use xlink:href="#DejaVuSans-75" x="227.001953"/>
      <use xlink:href="#DejaVuSans-6e" x="290.380859"/>
      <use xlink:href="#DejaVuSans-74" x="353.759766"/>
     </g>
    </g>
   </g>
   <g id="line2d_83">
    <path d="M 99.366818 338.061797 
L 100.365339 340.444857 
L 101.36386 352.910093 
L 102.36238 357.401245 
L 103.360901 351.833134 
L 104.359422 325.59656 
L 105.357942 332.86031 
L 106.356463 291.477558 
L 107.354984 327.63591 
L 108.353504 248.536652 
L 109.352025 139.626231 
L 110.350546 142.696712 
L 111.349066 206.764361 
L 112.347587 233.711269 
L 113.346108 171.385087 
L 114.344628 120.859634 
L 115.343149 214.234337 
L 116.34167 187.562398 
L 117.34019 145.652623 
L 118.338711 315.903923 
L 119.337232 180.59653 
L 120.335752 226.035067 
L 121.334273 339.574123 
L 122.332794 335.174628 
L 123.331314 353.757913 
L 124.329835 363.519293 
L 125.328356 367.460507 
L 126.326876 343.927791 
L 127.325397 323.923836 
L 128.323918 330.316852 
L 129.322438 315.033189 
L 130.320959 271.198635 
L 131.31948 273.558781 
L 132.318 296.656131 
L 133.316521 208.299602 
L 134.315042 226.768316 
L 135.313562 179.06129 
L 136.312083 171.018462 
L 137.310604 100.878593 
L 138.309124 173.44735 
L 139.307645 94.05021 
L 140.306166 165.060813 
L 141.304686 186.43961 
L 142.303207 275.712701 
L 143.301728 297.251896 
L 144.300248 306.852878 
L 145.298769 333.478989 
L 146.29729 356.301371 
L 147.29581 369.110318 
L 148.294331 366.773086 
L 149.292852 354.284936 
L 151.289893 322.136541 
L 152.288414 248.261683 
L 153.286935 274.017062 
L 154.285455 238.889842 
L 155.283976 231.396952 
L 156.282497 280.47882 
L 157.281017 204.954152 
L 158.279538 216.984022 
L 159.278059 219.52748 
L 160.276579 161.509137 
L 161.2751 43.387273 
L 162.273621 89.444488 
L 163.272141 301.330595 
L 164.270662 110.639973 
L 165.269183 313.979143 
L 166.267703 291.523387 
L 167.266224 266.157547 
L 168.264745 330.500165 
L 169.263265 344.386071 
L 171.260307 361.457029 
L 172.258827 350.114581 
L 173.257348 326.604778 
L 174.255869 316.293461 
L 175.254389 323.190587 
L 176.25291 253.57774 
L 177.251431 271.427775 
L 178.249951 231.167811 
L 179.248472 257.243986 
L 180.246993 299.062105 
L 181.245513 246.497303 
L 183.242555 225.508044 
L 184.241075 279.837227 
L 185.239596 192.534744 
L 186.238117 202.227382 
L 187.236637 300.345291 
L 188.235158 262.560043 
L 189.233679 277.385425 
L 190.232199 351.168627 
L 191.23072 360.013445 
L 192.229241 360.861264 
L 193.227761 356.667996 
L 194.226282 367.460507 
L 195.224803 359.509336 
L 196.223323 357.447073 
L 197.221844 366.612688 
L 198.220365 311.80231 
L 199.218885 363.840089 
L 200.217406 308.938055 
L 201.215927 314.872791 
L 202.214447 207.26847 
L 203.212968 259.604132 
L 204.211489 250.346861 
L 205.210009 283.136849 
L 206.20853 192.007721 
L 207.207051 373.234845 
L 208.205572 192.924282 
L 209.204092 249.521955 
L 210.202613 266.317945 
L 211.201134 289.346553 
L 213.198175 349.450074 
L 214.196696 362.786044 
L 215.195216 361.961138 
L 216.193737 372.501596 
L 217.192258 369.797739 
L 218.190778 365.948181 
L 219.189299 355.72852 
L 220.18782 356.622167 
L 221.18634 311.573169 
L 222.184861 317.622475 
L 223.183382 338.451336 
L 224.181902 372.63908 
L 225.180423 286.894751 
L 226.178944 314.895705 
L 227.177464 289.667349 
L 228.175985 304.859356 
L 229.174506 287.421774 
L 230.173026 228.005674 
L 231.171547 345.165149 
L 232.170068 277.156285 
L 233.168588 296.106194 
L 234.167109 296.014538 
L 235.16563 332.86031 
L 236.16415 348.029403 
L 237.162671 355.132755 
L 238.161192 365.100361 
L 239.159712 368.94992 
L 240.158233 367.804218 
L 241.156754 373.532727 
L 242.155274 365.71904 
L 243.153795 341.430161 
L 244.152316 307.792353 
L 245.150836 321.540776 
L 246.149357 323.809266 
L 247.147878 324.611257 
L 248.146398 318.493209 
L 250.14344 281.509952 
L 251.14196 316.889226 
L 252.140481 259.260421 
L 253.139002 213.959369 
L 254.137522 201.746187 
L 255.136043 273.719179 
L 256.134564 371.928745 
L 257.133084 302.774179 
L 258.131605 305.409293 
L 259.130126 309.602562 
L 260.128646 353.712085 
L 261.127167 358.134494 
L 262.125688 365.741954 
L 263.124208 368.399983 
L 264.122729 364.550425 
L 265.12125 357.424159 
L 266.119771 342.736261 
L 267.118291 330.202282 
L 268.116812 299.016277 
L 269.115333 372.593252 
L 270.113853 334.670519 
L 271.112374 277.545824 
L 272.110895 307.952752 
L 273.109415 311.389857 
L 274.107936 273.1005 
L 275.106457 261.735138 
L 276.104977 329.377377 
L 277.103498 201.173336 
L 278.102019 208.551656 
L 279.100539 287.39886 
L 280.09906 308.594345 
L 281.097581 296.19785 
L 282.096101 313.177152 
L 283.094622 359.555164 
L 284.093143 357.240846 
L 285.091663 367.139711 
L 287.088705 365.833611 
L 288.087225 363.10684 
L 289.085746 338.81796 
L 290.084267 318.286982 
L 291.082787 372.295369 
L 292.081308 333.181107 
L 293.079829 311.80231 
L 294.078349 303.851139 
L 295.07687 323.09893 
L 296.075391 283.182677 
L 297.073911 282.97645 
L 298.072432 293.677306 
L 299.070953 211.942934 
L 300.069473 204.679184 
L 301.067994 260.268639 
L 302.066515 236.185986 
L 303.065035 284.099238 
L 304.063556 294.043931 
L 305.062077 347.777349 
L 306.060597 347.685693 
L 307.059118 359.051055 
L 308.057639 362.969356 
L 309.056159 368.285413 
L 310.05468 369.545685 
L 311.053201 359.440594 
L 312.051721 343.950705 
L 313.050242 340.97188 
L 314.048763 307.471557 
L 315.047283 308.594345 
L 316.045804 331.600038 
L 317.044325 290.492255 
L 318.042845 337.855571 
L 319.041366 330.293938 
L 320.039887 372.134971 
L 321.038408 273.192156 
L 322.036928 326.902661 
L 323.035449 188.570615 
L 324.03397 340.582341 
L 325.03249 243.289337 
L 326.031011 371.470464 
L 327.029532 327.085973 
L 446.852012 355.018185 
L 447.850533 321.265807 
L 448.849054 298.672566 
L 449.847574 254.242247 
L 450.846095 319.959707 
L 451.844616 187.447827 
L 452.843136 238.660702 
L 453.841657 355.132755 
L 454.840178 247.138896 
L 455.838698 281.257898 
L 456.837219 327.52134 
L 457.83574 328.621213 
L 458.83426 353.139234 
L 459.832781 360.288414 
L 460.831302 370.049794 
L 461.829822 369.431115 
L 462.828343 373.463985 
L 463.826864 364.206714 
L 464.825384 372.341197 
L 465.823905 302.980405 
L 466.822426 328.873268 
L 467.820946 308.548516 
L 468.819467 313.589605 
L 469.817988 302.934577 
L 470.816508 304.194849 
L 471.815029 287.719656 
L 472.81355 288.384163 
L 473.81207 324.450859 
L 474.810591 320.830441 
L 475.809112 206.328994 
L 476.807632 281.143327 
L 477.806153 265.515954 
L 478.804674 264.713962 
L 479.803194 311.985622 
L 480.801715 336.893181 
L 481.800236 344.500642 
L 482.798756 355.407723 
L 483.797277 370.851785 
L 485.794318 370.301848 
L 486.792839 368.904092 
L 487.79136 344.225673 
L 488.789881 300.780658 
L 489.788401 337.534774 
L 490.786922 326.031927 
L 491.785443 318.745263 
L 492.783963 313.910401 
L 493.782484 287.490516 
L 494.781005 371.814174 
L 495.779525 313.612519 
L 496.778046 277.133371 
L 497.776567 180.069507 
L 498.775087 359.600992 
L 499.773608 270.557042 
L 500.772129 215.83832 
L 501.770649 297.068584 
L 502.76917 278.279073 
L 503.767691 355.041099 
L 504.766211 313.704175 
L 505.764732 345.440117 
L 507.761773 370.668473 
L 508.760294 359.623906 
L 509.758815 361.91531 
L 510.757335 372.180799 
L 511.755856 347.685693 
L 512.754377 360.792522 
L 514.751418 290.721395 
L 515.749939 294.318899 
L 516.748459 275.896013 
L 517.74698 254.517216 
L 518.745501 261.872622 
L 520.742542 197.73623 
L 521.741063 370.324762 
L 522.739583 320.624214 
L 523.738104 228.326471 
L 526.733666 321.082495 
L 527.732187 268.884317 
L 528.730707 257.496041 
L 529.729228 261.460169 
L 530.727749 338.222195 
L 531.726269 340.994794 
L 532.72479 355.109841 
L 533.723311 360.815436 
L 534.721831 364.939963 
L 535.720352 346.127538 
L 536.718873 346.562905 
L 537.717393 350.022925 
L 538.715914 292.439948 
L 539.714435 264.874361 
L 540.712955 270.350816 
L 541.711476 255.73166 
L 542.709997 186.279212 
L 543.708518 234.856971 
L 544.707038 257.473127 
L 545.705559 187.493656 
L 546.70408 175.990809 
L 547.7026 283.136849 
L 548.701121 343.148713 
L 549.699642 237.423344 
L 550.698162 255.296293 
L 551.696683 283.045193 
L 553.693724 315.881009 
L 554.692245 351.466509 
L 556.689286 363.244324 
L 557.687807 368.445811 
L 558.686328 369.247802 
L 559.684848 363.015184 
L 560.683369 348.23563 
L 561.68189 326.696434 
L 562.68041 294.043931 
L 563.678931 309.19011 
L 564.677452 312.03145 
L 565.675972 299.88701 
L 566.674493 290.744309 
L 567.673014 286.986407 
L 568.671534 284.351293 
L 569.670055 284.099238 
L 570.668576 235.315252 
L 572.665617 194.917804 
L 573.664138 210.476435 
L 574.662658 241.502042 
L 576.6597 292.669088 
L 577.65822 311.939794 
L 578.656741 344.706868 
L 579.655262 356.713824 
L 580.653782 361.136233 
L 581.652303 366.589774 
L 582.650824 367.620906 
L 583.649344 361.961138 
L 584.647865 346.883701 
L 585.646386 322.228197 
L 586.644906 288.246679 
L 587.643427 318.286982 
L 588.641948 319.730567 
L 589.640468 297.091498 
L 590.638989 281.991147 
L 591.63751 279.447689 
L 592.63603 278.576955 
L 593.634551 275.666872 
L 594.633072 230.25125 
L 595.631592 215.127985 
L 596.630113 204.587528 
L 597.628634 218.129724 
L 599.625675 259.283336 
L 601.622717 318.195326 
L 602.621237 357.172104 
L 603.619758 356.645082 
L 604.618279 363.10684 
L 605.616799 365.421158 
L 606.61532 367.391765 
L 607.613841 361.273717 
L 608.612361 348.57934 
L 609.610882 330.454336 
L 610.609403 286.024017 
L 611.607923 305.913402 
L 612.606444 305.84466 
L 613.604965 306.600823 
L 614.603485 291.546301 
L 615.602006 282.289029 
L 616.600527 283.022279 
L 617.599047 271.381947 
L 618.597568 231.167811 
L 619.596089 206.07694 
L 620.594609 195.421913 
L 621.59313 226.401691 
L 622.591651 243.106025 
L 623.590171 257.15233 
L 624.588692 288.361249 
L 625.587213 307.013276 
L 626.585733 341.590559 
L 627.584254 354.972357 
L 628.582775 363.335981 
L 629.581295 367.575077 
L 630.579816 368.812436 
L 631.578337 364.206714 
L 632.576857 343.836134 
L 633.575378 334.120583 
L 634.573899 300.024494 
L 635.572419 314.322854 
L 636.57094 319.776395 
L 637.569461 302.315898 
L 638.567981 289.575693 
L 639.566502 283.847184 
L 640.565023 284.05341 
L 641.563543 279.103978 
L 642.562064 242.968541 
L 643.560585 235.842275 
L 644.559105 217.075678 
L 645.557626 232.359341 
L 646.556147 241.249988 
L 647.554667 254.448474 
L 648.553188 295.510429 
L 649.551709 302.705437 
L 650.550229 342.827917 
L 651.54875 356.278457 
L 652.547271 363.679691 
L 653.545792 368.881178 
L 654.544312 369.843567 
L 655.542833 363.565121 
L 656.541354 349.42716 
L 657.539874 328.437901 
L 658.538395 295.945796 
L 659.536916 318.768177 
L 660.535436 312.99384 
L 661.533957 299.680784 
L 662.532478 279.05815 
L 663.530998 289.277811 
L 664.529519 301.949274 
L 665.52804 267.853186 
L 666.52656 222.758359 
L 667.525081 203.69388 
L 668.523602 190.884933 
L 669.522122 195.857279 
L 671.519164 214.715532 
L 672.517684 251.217594 
L 673.516205 257.610611 
L 674.514726 310.49621 
L 676.511767 349.243847 
L 677.510288 357.630385 
L 678.508808 362.488161 
L 679.507329 350.916572 
L 680.50585 347.204498 
L 681.50437 340.467771 
L 682.502891 318.172412 
L 683.501412 308.411032 
L 684.499932 289.89649 
L 685.498453 268.448951 
L 686.496974 250.438517 
L 687.495494 246.405646 
L 688.494015 245.443257 
L 689.492536 245.420343 
L 690.491056 202.914803 
L 691.489577 201.173336 
L 692.488098 195.146944 
L 693.486618 199.958892 
L 695.48366 231.511522 
L 696.48218 271.588174 
L 697.480701 276.491778 
L 698.479222 324.565429 
L 699.477742 341.888441 
L 700.476263 352.749695 
L 701.474784 360.677952 
L 702.473304 362.740216 
L 703.471825 354.101623 
L 704.470346 349.77087 
L 705.468866 342.62169 
L 706.467387 313.10841 
L 707.465908 291.110934 
L 708.464428 272.573477 
L 709.462949 266.615828 
L 711.459991 225.37056 
L 712.458511 225.278904 
L 713.457032 219.367082 
L 714.455553 217.602701 
L 715.454073 216.182031 
L 716.452594 222.529219 
L 717.451115 230.961585 
L 718.449635 237.331687 
L 719.448156 266.592914 
L 720.446677 304.286505 
L 721.445197 322.411509 
L 722.443718 351.351939 
L 724.440759 367.391765 
L 725.43928 368.743693 
L 726.437801 368.537467 
L 727.436321 365.352416 
L 728.434842 354.399506 
L 729.433363 330.729305 
L 730.431883 282.059889 
L 731.430404 311.069061 
L 732.428925 316.499688 
L 733.427445 308.11315 
L 734.425966 293.516908 
L 735.424487 298.328856 
L 736.423007 297.733091 
L 737.421528 285.107456 
L 738.420049 239.737661 
L 739.418569 213.203206 
L 740.41709 207.910063 
L 741.415611 238.477389 
L 742.414131 248.69705 
L 743.412652 274.727397 
L 744.411173 306.944534 
L 745.409693 314.620736 
L 746.408214 349.495902 
L 748.405255 365.466986 
L 749.403776 367.850046 
L 750.402297 373.120275 
L 773.368272 367.666734 
L 774.366793 366.612688 
L 775.365314 363.977574 
L 776.363834 350.320807 
L 777.362355 321.105409 
L 778.360876 286.482298 
L 779.359396 314.964447 
L 780.357917 329.05658 
L 781.356438 302.659609 
L 782.354958 292.73783 
L 783.353479 281.234984 
L 784.352 288.475819 
L 785.35052 258.985453 
L 786.349041 224.110288 
L 788.346082 186.920805 
L 789.344603 210.72849 
L 790.343124 226.378777 
L 791.341644 254.150591 
L 792.340165 304.263591 
L 793.338686 303.736569 
L 794.337206 346.150452 
L 795.335727 356.782566 
L 796.334248 363.542207 
L 797.332768 368.216671 
L 798.331289 367.781304 
L 799.32981 363.244324 
L 800.32833 351.81022 
L 801.326851 323.09893 
L 802.325372 281.395382 
L 803.323892 296.106194 
L 804.322413 302.957491 
L 805.320934 299.680784 
L 806.319454 282.266115 
L 807.317975 276.148067 
L 808.316496 292.760745 
L 810.313537 233.573785 
L 811.312058 209.42239 
L 812.310578 192.420174 
L 813.309099 203.670966 
L 814.30762 229.265946 
L 815.30614 262.422559 
L 816.304661 285.336596 
L 817.303182 316.362203 
L 817.303182 316.362203 
" clip-path="url(#pa98559e3fc)" style="fill: none; stroke: #1f77b4; stroke-width: 1.5; stroke-linecap: square"/>
   </g>
   <g id="patch_3">
    <path d="M 63.47 390.04 
L 63.47 26.88 
" style="fill: none; stroke: #000000; stroke-width: 0.8; stroke-linejoin: miter; stroke-linecap: square"/>
   </g>
   <g id="patch_4">
    <path d="M 853.2 390.04 
L 853.2 26.88 
" style="fill: none; stroke: #000000; stroke-width: 0.8; stroke-linejoin: miter; stroke-linecap: square"/>
   </g>
   <g id="patch_5">
    <path d="M 63.47 390.04 
L 853.2 390.04 
" style="fill: none; stroke: #000000; stroke-width: 0.8; stroke-linejoin: miter; stroke-linecap: square"/>
   </g>
   <g id="patch_6">
    <path d="M 63.47 26.88 
L 853.2 26.88 
" style="fill: none; stroke: #000000; stroke-width: 0.8; stroke-linejoin: miter; stroke-linecap: square"/>
   </g>
   <g id="text_44">
    <!-- Amount in June 2022 at Don Quijote -->
    <g transform="translate(349.812813 20.88) scale(0.12 -0.12)">
     <defs>
      <path id="DejaVuSans-20" transform="scale(0.015625)"/>
      <path id="DejaVuSans-69" d="M 603 3500 
L 1178 3500 
L 1178 0 
L 603 0 
L 603 3500 
z
M 603 4863 
L 1178 4863 
L 1178 4134 
L 603 4134 
L 603 4863 
z
" transform="scale(0.015625)"/>
      <path id="DejaVuSans-4a" d="M 628 4666 
L 1259 4666 
L 1259 325 
Q 1259 -519 939 -900 
Q 619 -1281 -91 -1281 
L -331 -1281 
L -331 -750 
L -134 -750 
Q 284 -750 456 -515 
Q 628 -281 628 325 
L 628 4666 
z
" transform="scale(0.015625)"/>
      <path id="DejaVuSans-65" d="M 3597 1894 
L 3597 1613 
L 953 1613 
Q 991 1019 1311 708 
Q 1631 397 2203 397 
Q 2534 397 2845 478 
Q 3156 559 3463 722 
L 3463 178 
Q 3153 47 2828 -22 
Q 2503 -91 2169 -91 
Q 1331 -91 842 396 
Q 353 884 353 1716 
Q 353 2575 817 3079 
Q 1281 3584 2069 3584 
Q 2775 3584 3186 3129 
Q 3597 2675 3597 1894 
z
M 3022 2063 
Q 3016 2534 2758 2815 
Q 2500 3097 2075 3097 
Q 1594 3097 1305 2825 
Q 1016 2553 972 2059 
L 3022 2063 
z
" transform="scale(0.015625)"/>
      <path id="DejaVuSans-51" d="M 2522 4238 
Q 1834 4238 1429 3725 
Q 1025 3213 1025 2328 
Q 1025 1447 1429 934 
Q 1834 422 2522 422 
Q 3209 422 3611 934 
Q 4013 1447 4013 2328 
Q 4013 3213 3611 3725 
Q 3209 4238 2522 4238 
z
M 3406 84 
L 4238 -825 
L 3475 -825 
L 2784 -78 
Q 2681 -84 2626 -87 
Q 2572 -91 2522 -91 
Q 1538 -91 948 567 
Q 359 1225 359 2328 
Q 359 3434 948 4092 
Q 1538 4750 2522 4750 
Q 3503 4750 4090 4092 
Q 4678 3434 4678 2328 
Q 4678 1516 4351 937 
Q 4025 359 3406 84 
z
" transform="scale(0.015625)"/>
      <path id="DejaVuSans-6a" d="M 603 3500 
L 1178 3500 
L 1178 -63 
Q 1178 -731 923 -1031 
Q 669 -1331 103 -1331 
L -116 -1331 
L -116 -844 
L 38 -844 
Q 366 -844 484 -692 
Q 603 -541 603 -63 
L 603 3500 
z
M 603 4863 
L 1178 4863 
L 1178 4134 
L 603 4134 
L 603 4863 
z
" transform="scale(0.015625)"/>
     </defs>
     <use xlink:href="#DejaVuSans-41"/>
     <use xlink:href="#DejaVuSans-6d" x="68.408203"/>
     <use xlink:href="#DejaVuSans-6f" x="165.820312"/>
     <use xlink:href="#DejaVuSans-75" x="227.001953"/>
     <use xlink:href="#DejaVuSans-6e" x="290.380859"/>
     <use xlink:href="#DejaVuSans-74" x="353.759766"/>
     <use xlink:href="#DejaVuSans-20" x="392.96875"/>
     <use xlink:href="#DejaVuSans-69" x="424.755859"/>
     <use xlink:href="#DejaVuSans-6e" x="452.539062"/>
     <use xlink:href="#DejaVuSans-20" x="515.917969"/>
     <use xlink:href="#DejaVuSans-4a" x="547.705078"/>
     <use xlink:href="#DejaVuSans-75" x="577.197266"/>
     <use xlink:href="#DejaVuSans-6e" x="640.576172"/>
     <use xlink:href="#DejaVuSans-65" x="703.955078"/>
     <use xlink:href="#DejaVuSans-20" x="765.478516"/>
     <use xlink:href="#DejaVuSans-32" x="797.265625"/>
     <use xlink:href="#DejaVuSans-30" x="860.888672"/>
     <use xlink:href="#DejaVuSans-32" x="924.511719"/>
     <use xlink:href="#DejaVuSans-32" x="988.134766"/>
     <use xlink:href="#DejaVuSans-20" x="1051.757812"/>
     <use xlink:href="#DejaVuSans-61" x="1083.544922"/>
     <use xlink:href="#DejaVuSans-74" x="1144.824219"/>
     <use xlink:href="#DejaVuSans-20" x="1184.033203"/>
     <use xlink:href="#DejaVuSans-44" x="1215.820312"/>
     <use xlink:href="#DejaVuSans-6f" x="1292.822266"/>
     <use xlink:href="#DejaVuSans-6e" x="1354.003906"/>
     <use xlink:href="#DejaVuSans-20" x="1417.382812"/>
     <use xlink:href="#DejaVuSans-51" x="1449.169922"/>
     <use xlink:href="#DejaVuSans-75" x="1527.880859"/>
     <use xlink:href="#DejaVuSans-69" x="1591.259766"/>
     <use xlink:href="#DejaVuSans-6a" x="1619.042969"/>
     <use xlink:href="#DejaVuSans-6f" x="1646.826172"/>
     <use xlink:href="#DejaVuSans-74" x="1708.007812"/>
     <use xlink:href="#DejaVuSans-65" x="1747.216797"/>
    </g>
   </g>
  </g>
 </g>
 <defs>
  <clipPath id="pa98559e3fc">
   <rect x="63.47" y="26.88" width="789.73" height="363.16"/>
  </clipPath>
 </defs>
</svg>
