<?xml version="1.0" encoding="utf-8" standalone="no"?>
<!DOCTYPE svg PUBLIC "-//W3C//DTD SVG 1.1//EN"
  "http://www.w3.org/Graphics/SVG/1.1/DTD/svg11.dtd">
<svg xmlns:xlink="http://www.w3.org/1999/xlink" width="864pt" height="432pt" viewBox="0 0 864 432" xmlns="http://www.w3.org/2000/svg" version="1.1">
 <metadata>
  <rdf:RDF xmlns:dc="http://purl.org/dc/elements/1.1/" xmlns:cc="http://creativecommons.org/ns#" xmlns:rdf="http://www.w3.org/1999/02/22-rdf-syntax-ns#">
   <cc:Work>
    <dc:type rdf:resource="http://purl.org/dc/dcmitype/StillImage"/>
    <dc:date>2023-07-15T13:43:02.280351</dc:date>
    <dc:format>image/svg+xml</dc:format>
    <dc:creator>
     <cc:Agent>
      <dc:title>Matplotlib v3.7.1, https://matplotlib.org/</dc:title>
     </cc:Agent>
    </dc:creator>
   </cc:Work>
  </rdf:RDF>
 </metadata>
 <defs>
  <style type="text/css">*{stroke-linejoin: round; stroke-linecap: butt}</style>
 </defs>
 <g id="figure_1">
  <g id="patch_1">
   <path d="M 0 432 
L 864 432 
L 864 0 
L 0 0 
z
" style="fill: #ffffff"/>
  </g>
  <g id="axes_1">
   <g id="patch_2">
    <path d="M 57.17 390.04 
L 853.2 390.04 
L 853.2 26.88 
L 57.17 26.88 
z
" style="fill: #ffffff"/>
   </g>
   <g id="matplotlib.axis_1">
    <g id="xtick_1">
     <g id="line2d_1">
      <path d="M 69.977775 390.04 
L 69.977775 26.88 
" clip-path="url(#p119e1c6c1c)" style="fill: none; stroke: #b0b0b0; stroke-width: 0.8; stroke-linecap: square"/>
     </g>
     <g id="line2d_2">
      <defs>
       <path id="m2ee9300b9a" d="M 0 0 
L 0 3.5 
" style="stroke: #000000; stroke-width: 0.8"/>
      </defs>
      <g>
       <use xlink:href="#m2ee9300b9a" x="69.977775" y="390.04" style="stroke: #000000; stroke-width: 0.8"/>
      </g>
     </g>
     <g id="text_1">
      <!-- 30 -->
      <g transform="translate(63.615275 404.638438) scale(0.1 -0.1)">
       <defs>
        <path id="DejaVuSans-33" d="M 2597 2516 
Q 3050 2419 3304 2112 
Q 3559 1806 3559 1356 
Q 3559 666 3084 287 
Q 2609 -91 1734 -91 
Q 1441 -91 1130 -33 
Q 819 25 488 141 
L 488 750 
Q 750 597 1062 519 
Q 1375 441 1716 441 
Q 2309 441 2620 675 
Q 2931 909 2931 1356 
Q 2931 1769 2642 2001 
Q 2353 2234 1838 2234 
L 1294 2234 
L 1294 2753 
L 1863 2753 
Q 2328 2753 2575 2939 
Q 2822 3125 2822 3475 
Q 2822 3834 2567 4026 
Q 2313 4219 1838 4219 
Q 1578 4219 1281 4162 
Q 984 4106 628 3988 
L 628 4550 
Q 988 4650 1302 4700 
Q 1616 4750 1894 4750 
Q 2613 4750 3031 4423 
Q 3450 4097 3450 3541 
Q 3450 3153 3228 2886 
Q 3006 2619 2597 2516 
z
" transform="scale(0.015625)"/>
        <path id="DejaVuSans-30" d="M 2034 4250 
Q 1547 4250 1301 3770 
Q 1056 3291 1056 2328 
Q 1056 1369 1301 889 
Q 1547 409 2034 409 
Q 2525 409 2770 889 
Q 3016 1369 3016 2328 
Q 3016 3291 2770 3770 
Q 2525 4250 2034 4250 
z
M 2034 4750 
Q 2819 4750 3233 4129 
Q 3647 3509 3647 2328 
Q 3647 1150 3233 529 
Q 2819 -91 2034 -91 
Q 1250 -91 836 529 
Q 422 1150 422 2328 
Q 422 3509 836 4129 
Q 1250 4750 2034 4750 
z
" transform="scale(0.015625)"/>
       </defs>
       <use xlink:href="#DejaVuSans-33"/>
       <use xlink:href="#DejaVuSans-30" x="63.623047"/>
      </g>
     </g>
    </g>
    <g id="xtick_2">
     <g id="line2d_3">
      <path d="M 93.353182 390.04 
L 93.353182 26.88 
" clip-path="url(#p119e1c6c1c)" style="fill: none; stroke: #b0b0b0; stroke-width: 0.8; stroke-linecap: square"/>
     </g>
     <g id="line2d_4">
      <g>
       <use xlink:href="#m2ee9300b9a" x="93.353182" y="390.04" style="stroke: #000000; stroke-width: 0.8"/>
      </g>
     </g>
     <g id="text_2">
      <!-- 01 -->
      <g transform="translate(86.990682 404.638438) scale(0.1 -0.1)">
       <defs>
        <path id="DejaVuSans-31" d="M 794 531 
L 1825 531 
L 1825 4091 
L 703 3866 
L 703 4441 
L 1819 4666 
L 2450 4666 
L 2450 531 
L 3481 531 
L 3481 0 
L 794 0 
L 794 531 
z
" transform="scale(0.015625)"/>
       </defs>
       <use xlink:href="#DejaVuSans-30"/>
       <use xlink:href="#DejaVuSans-31" x="63.623047"/>
      </g>
     </g>
    </g>
    <g id="xtick_3">
     <g id="line2d_5">
      <path d="M 116.728589 390.04 
L 116.728589 26.88 
" clip-path="url(#p119e1c6c1c)" style="fill: none; stroke: #b0b0b0; stroke-width: 0.8; stroke-linecap: square"/>
     </g>
     <g id="line2d_6">
      <g>
       <use xlink:href="#m2ee9300b9a" x="116.728589" y="390.04" style="stroke: #000000; stroke-width: 0.8"/>
      </g>
     </g>
     <g id="text_3">
      <!-- 02 -->
      <g transform="translate(110.366089 404.638438) scale(0.1 -0.1)">
       <defs>
        <path id="DejaVuSans-32" d="M 1228 531 
L 3431 531 
L 3431 0 
L 469 0 
L 469 531 
Q 828 903 1448 1529 
Q 2069 2156 2228 2338 
Q 2531 2678 2651 2914 
Q 2772 3150 2772 3378 
Q 2772 3750 2511 3984 
Q 2250 4219 1831 4219 
Q 1534 4219 1204 4116 
Q 875 4013 500 3803 
L 500 4441 
Q 881 4594 1212 4672 
Q 1544 4750 1819 4750 
Q 2544 4750 2975 4387 
Q 3406 4025 3406 3419 
Q 3406 3131 3298 2873 
Q 3191 2616 2906 2266 
Q 2828 2175 2409 1742 
Q 1991 1309 1228 531 
z
" transform="scale(0.015625)"/>
       </defs>
       <use xlink:href="#DejaVuSans-30"/>
       <use xlink:href="#DejaVuSans-32" x="63.623047"/>
      </g>
     </g>
    </g>
    <g id="xtick_4">
     <g id="line2d_7">
      <path d="M 140.103995 390.04 
L 140.103995 26.88 
" clip-path="url(#p119e1c6c1c)" style="fill: none; stroke: #b0b0b0; stroke-width: 0.8; stroke-linecap: square"/>
     </g>
     <g id="line2d_8">
      <g>
       <use xlink:href="#m2ee9300b9a" x="140.103995" y="390.04" style="stroke: #000000; stroke-width: 0.8"/>
      </g>
     </g>
     <g id="text_4">
      <!-- 03 -->
      <g transform="translate(133.741495 404.638438) scale(0.1 -0.1)">
       <use xlink:href="#DejaVuSans-30"/>
       <use xlink:href="#DejaVuSans-33" x="63.623047"/>
      </g>
     </g>
    </g>
    <g id="xtick_5">
     <g id="line2d_9">
      <path d="M 163.479402 390.04 
L 163.479402 26.88 
" clip-path="url(#p119e1c6c1c)" style="fill: none; stroke: #b0b0b0; stroke-width: 0.8; stroke-linecap: square"/>
     </g>
     <g id="line2d_10">
      <g>
       <use xlink:href="#m2ee9300b9a" x="163.479402" y="390.04" style="stroke: #000000; stroke-width: 0.8"/>
      </g>
     </g>
     <g id="text_5">
      <!-- 04 -->
      <g transform="translate(157.116902 404.638438) scale(0.1 -0.1)">
       <defs>
        <path id="DejaVuSans-34" d="M 2419 4116 
L 825 1625 
L 2419 1625 
L 2419 4116 
z
M 2253 4666 
L 3047 4666 
L 3047 1625 
L 3713 1625 
L 3713 1100 
L 3047 1100 
L 3047 0 
L 2419 0 
L 2419 1100 
L 313 1100 
L 313 1709 
L 2253 4666 
z
" transform="scale(0.015625)"/>
       </defs>
       <use xlink:href="#DejaVuSans-30"/>
       <use xlink:href="#DejaVuSans-34" x="63.623047"/>
      </g>
     </g>
    </g>
    <g id="xtick_6">
     <g id="line2d_11">
      <path d="M 186.854809 390.04 
L 186.854809 26.88 
" clip-path="url(#p119e1c6c1c)" style="fill: none; stroke: #b0b0b0; stroke-width: 0.8; stroke-linecap: square"/>
     </g>
     <g id="line2d_12">
      <g>
       <use xlink:href="#m2ee9300b9a" x="186.854809" y="390.04" style="stroke: #000000; stroke-width: 0.8"/>
      </g>
     </g>
     <g id="text_6">
      <!-- 05 -->
      <g transform="translate(180.492309 404.638438) scale(0.1 -0.1)">
       <defs>
        <path id="DejaVuSans-35" d="M 691 4666 
L 3169 4666 
L 3169 4134 
L 1269 4134 
L 1269 2991 
Q 1406 3038 1543 3061 
Q 1681 3084 1819 3084 
Q 2600 3084 3056 2656 
Q 3513 2228 3513 1497 
Q 3513 744 3044 326 
Q 2575 -91 1722 -91 
Q 1428 -91 1123 -41 
Q 819 9 494 109 
L 494 744 
Q 775 591 1075 516 
Q 1375 441 1709 441 
Q 2250 441 2565 725 
Q 2881 1009 2881 1497 
Q 2881 1984 2565 2268 
Q 2250 2553 1709 2553 
Q 1456 2553 1204 2497 
Q 953 2441 691 2322 
L 691 4666 
z
" transform="scale(0.015625)"/>
       </defs>
       <use xlink:href="#DejaVuSans-30"/>
       <use xlink:href="#DejaVuSans-35" x="63.623047"/>
      </g>
     </g>
    </g>
    <g id="xtick_7">
     <g id="line2d_13">
      <path d="M 210.230216 390.04 
L 210.230216 26.88 
" clip-path="url(#p119e1c6c1c)" style="fill: none; stroke: #b0b0b0; stroke-width: 0.8; stroke-linecap: square"/>
     </g>
     <g id="line2d_14">
      <g>
       <use xlink:href="#m2ee9300b9a" x="210.230216" y="390.04" style="stroke: #000000; stroke-width: 0.8"/>
      </g>
     </g>
     <g id="text_7">
      <!-- 06 -->
      <g transform="translate(203.867716 404.638438) scale(0.1 -0.1)">
       <defs>
        <path id="DejaVuSans-36" d="M 2113 2584 
Q 1688 2584 1439 2293 
Q 1191 2003 1191 1497 
Q 1191 994 1439 701 
Q 1688 409 2113 409 
Q 2538 409 2786 701 
Q 3034 994 3034 1497 
Q 3034 2003 2786 2293 
Q 2538 2584 2113 2584 
z
M 3366 4563 
L 3366 3988 
Q 3128 4100 2886 4159 
Q 2644 4219 2406 4219 
Q 1781 4219 1451 3797 
Q 1122 3375 1075 2522 
Q 1259 2794 1537 2939 
Q 1816 3084 2150 3084 
Q 2853 3084 3261 2657 
Q 3669 2231 3669 1497 
Q 3669 778 3244 343 
Q 2819 -91 2113 -91 
Q 1303 -91 875 529 
Q 447 1150 447 2328 
Q 447 3434 972 4092 
Q 1497 4750 2381 4750 
Q 2619 4750 2861 4703 
Q 3103 4656 3366 4563 
z
" transform="scale(0.015625)"/>
       </defs>
       <use xlink:href="#DejaVuSans-30"/>
       <use xlink:href="#DejaVuSans-36" x="63.623047"/>
      </g>
     </g>
    </g>
    <g id="xtick_8">
     <g id="line2d_15">
      <path d="M 233.605623 390.04 
L 233.605623 26.88 
" clip-path="url(#p119e1c6c1c)" style="fill: none; stroke: #b0b0b0; stroke-width: 0.8; stroke-linecap: square"/>
     </g>
     <g id="line2d_16">
      <g>
       <use xlink:href="#m2ee9300b9a" x="233.605623" y="390.04" style="stroke: #000000; stroke-width: 0.8"/>
      </g>
     </g>
     <g id="text_8">
      <!-- 07 -->
      <g transform="translate(227.243123 404.638438) scale(0.1 -0.1)">
       <defs>
        <path id="DejaVuSans-37" d="M 525 4666 
L 3525 4666 
L 3525 4397 
L 1831 0 
L 1172 0 
L 2766 4134 
L 525 4134 
L 525 4666 
z
" transform="scale(0.015625)"/>
       </defs>
       <use xlink:href="#DejaVuSans-30"/>
       <use xlink:href="#DejaVuSans-37" x="63.623047"/>
      </g>
     </g>
    </g>
    <g id="xtick_9">
     <g id="line2d_17">
      <path d="M 256.98103 390.04 
L 256.98103 26.88 
" clip-path="url(#p119e1c6c1c)" style="fill: none; stroke: #b0b0b0; stroke-width: 0.8; stroke-linecap: square"/>
     </g>
     <g id="line2d_18">
      <g>
       <use xlink:href="#m2ee9300b9a" x="256.98103" y="390.04" style="stroke: #000000; stroke-width: 0.8"/>
      </g>
     </g>
     <g id="text_9">
      <!-- 08 -->
      <g transform="translate(250.61853 404.638438) scale(0.1 -0.1)">
       <defs>
        <path id="DejaVuSans-38" d="M 2034 2216 
Q 1584 2216 1326 1975 
Q 1069 1734 1069 1313 
Q 1069 891 1326 650 
Q 1584 409 2034 409 
Q 2484 409 2743 651 
Q 3003 894 3003 1313 
Q 3003 1734 2745 1975 
Q 2488 2216 2034 2216 
z
M 1403 2484 
Q 997 2584 770 2862 
Q 544 3141 544 3541 
Q 544 4100 942 4425 
Q 1341 4750 2034 4750 
Q 2731 4750 3128 4425 
Q 3525 4100 3525 3541 
Q 3525 3141 3298 2862 
Q 3072 2584 2669 2484 
Q 3125 2378 3379 2068 
Q 3634 1759 3634 1313 
Q 3634 634 3220 271 
Q 2806 -91 2034 -91 
Q 1263 -91 848 271 
Q 434 634 434 1313 
Q 434 1759 690 2068 
Q 947 2378 1403 2484 
z
M 1172 3481 
Q 1172 3119 1398 2916 
Q 1625 2713 2034 2713 
Q 2441 2713 2670 2916 
Q 2900 3119 2900 3481 
Q 2900 3844 2670 4047 
Q 2441 4250 2034 4250 
Q 1625 4250 1398 4047 
Q 1172 3844 1172 3481 
z
" transform="scale(0.015625)"/>
       </defs>
       <use xlink:href="#DejaVuSans-30"/>
       <use xlink:href="#DejaVuSans-38" x="63.623047"/>
      </g>
     </g>
    </g>
    <g id="xtick_10">
     <g id="line2d_19">
      <path d="M 280.356436 390.04 
L 280.356436 26.88 
" clip-path="url(#p119e1c6c1c)" style="fill: none; stroke: #b0b0b0; stroke-width: 0.8; stroke-linecap: square"/>
     </g>
     <g id="line2d_20">
      <g>
       <use xlink:href="#m2ee9300b9a" x="280.356436" y="390.04" style="stroke: #000000; stroke-width: 0.8"/>
      </g>
     </g>
     <g id="text_10">
      <!-- 09 -->
      <g transform="translate(273.993936 404.638438) scale(0.1 -0.1)">
       <defs>
        <path id="DejaVuSans-39" d="M 703 97 
L 703 672 
Q 941 559 1184 500 
Q 1428 441 1663 441 
Q 2288 441 2617 861 
Q 2947 1281 2994 2138 
Q 2813 1869 2534 1725 
Q 2256 1581 1919 1581 
Q 1219 1581 811 2004 
Q 403 2428 403 3163 
Q 403 3881 828 4315 
Q 1253 4750 1959 4750 
Q 2769 4750 3195 4129 
Q 3622 3509 3622 2328 
Q 3622 1225 3098 567 
Q 2575 -91 1691 -91 
Q 1453 -91 1209 -44 
Q 966 3 703 97 
z
M 1959 2075 
Q 2384 2075 2632 2365 
Q 2881 2656 2881 3163 
Q 2881 3666 2632 3958 
Q 2384 4250 1959 4250 
Q 1534 4250 1286 3958 
Q 1038 3666 1038 3163 
Q 1038 2656 1286 2365 
Q 1534 2075 1959 2075 
z
" transform="scale(0.015625)"/>
       </defs>
       <use xlink:href="#DejaVuSans-30"/>
       <use xlink:href="#DejaVuSans-39" x="63.623047"/>
      </g>
     </g>
    </g>
    <g id="xtick_11">
     <g id="line2d_21">
      <path d="M 303.731843 390.04 
L 303.731843 26.88 
" clip-path="url(#p119e1c6c1c)" style="fill: none; stroke: #b0b0b0; stroke-width: 0.8; stroke-linecap: square"/>
     </g>
     <g id="line2d_22">
      <g>
       <use xlink:href="#m2ee9300b9a" x="303.731843" y="390.04" style="stroke: #000000; stroke-width: 0.8"/>
      </g>
     </g>
     <g id="text_11">
      <!-- 10 -->
      <g transform="translate(297.369343 404.638438) scale(0.1 -0.1)">
       <use xlink:href="#DejaVuSans-31"/>
       <use xlink:href="#DejaVuSans-30" x="63.623047"/>
      </g>
     </g>
    </g>
    <g id="xtick_12">
     <g id="line2d_23">
      <path d="M 327.10725 390.04 
L 327.10725 26.88 
" clip-path="url(#p119e1c6c1c)" style="fill: none; stroke: #b0b0b0; stroke-width: 0.8; stroke-linecap: square"/>
     </g>
     <g id="line2d_24">
      <g>
       <use xlink:href="#m2ee9300b9a" x="327.10725" y="390.04" style="stroke: #000000; stroke-width: 0.8"/>
      </g>
     </g>
     <g id="text_12">
      <!-- 11 -->
      <g transform="translate(320.74475 404.638438) scale(0.1 -0.1)">
       <use xlink:href="#DejaVuSans-31"/>
       <use xlink:href="#DejaVuSans-31" x="63.623047"/>
      </g>
     </g>
    </g>
    <g id="xtick_13">
     <g id="line2d_25">
      <path d="M 350.482657 390.04 
L 350.482657 26.88 
" clip-path="url(#p119e1c6c1c)" style="fill: none; stroke: #b0b0b0; stroke-width: 0.8; stroke-linecap: square"/>
     </g>
     <g id="line2d_26">
      <g>
       <use xlink:href="#m2ee9300b9a" x="350.482657" y="390.04" style="stroke: #000000; stroke-width: 0.8"/>
      </g>
     </g>
     <g id="text_13">
      <!-- 12 -->
      <g transform="translate(344.120157 404.638438) scale(0.1 -0.1)">
       <use xlink:href="#DejaVuSans-31"/>
       <use xlink:href="#DejaVuSans-32" x="63.623047"/>
      </g>
     </g>
    </g>
    <g id="xtick_14">
     <g id="line2d_27">
      <path d="M 373.858064 390.04 
L 373.858064 26.88 
" clip-path="url(#p119e1c6c1c)" style="fill: none; stroke: #b0b0b0; stroke-width: 0.8; stroke-linecap: square"/>
     </g>
     <g id="line2d_28">
      <g>
       <use xlink:href="#m2ee9300b9a" x="373.858064" y="390.04" style="stroke: #000000; stroke-width: 0.8"/>
      </g>
     </g>
     <g id="text_14">
      <!-- 13 -->
      <g transform="translate(367.495564 404.638438) scale(0.1 -0.1)">
       <use xlink:href="#DejaVuSans-31"/>
       <use xlink:href="#DejaVuSans-33" x="63.623047"/>
      </g>
     </g>
    </g>
    <g id="xtick_15">
     <g id="line2d_29">
      <path d="M 397.233471 390.04 
L 397.233471 26.88 
" clip-path="url(#p119e1c6c1c)" style="fill: none; stroke: #b0b0b0; stroke-width: 0.8; stroke-linecap: square"/>
     </g>
     <g id="line2d_30">
      <g>
       <use xlink:href="#m2ee9300b9a" x="397.233471" y="390.04" style="stroke: #000000; stroke-width: 0.8"/>
      </g>
     </g>
     <g id="text_15">
      <!-- 14 -->
      <g transform="translate(390.870971 404.638438) scale(0.1 -0.1)">
       <use xlink:href="#DejaVuSans-31"/>
       <use xlink:href="#DejaVuSans-34" x="63.623047"/>
      </g>
     </g>
    </g>
    <g id="xtick_16">
     <g id="line2d_31">
      <path d="M 420.608877 390.04 
L 420.608877 26.88 
" clip-path="url(#p119e1c6c1c)" style="fill: none; stroke: #b0b0b0; stroke-width: 0.8; stroke-linecap: square"/>
     </g>
     <g id="line2d_32">
      <g>
       <use xlink:href="#m2ee9300b9a" x="420.608877" y="390.04" style="stroke: #000000; stroke-width: 0.8"/>
      </g>
     </g>
     <g id="text_16">
      <!-- 15 -->
      <g transform="translate(414.246377 404.638438) scale(0.1 -0.1)">
       <use xlink:href="#DejaVuSans-31"/>
       <use xlink:href="#DejaVuSans-35" x="63.623047"/>
      </g>
     </g>
    </g>
    <g id="xtick_17">
     <g id="line2d_33">
      <path d="M 443.984284 390.04 
L 443.984284 26.88 
" clip-path="url(#p119e1c6c1c)" style="fill: none; stroke: #b0b0b0; stroke-width: 0.8; stroke-linecap: square"/>
     </g>
     <g id="line2d_34">
      <g>
       <use xlink:href="#m2ee9300b9a" x="443.984284" y="390.04" style="stroke: #000000; stroke-width: 0.8"/>
      </g>
     </g>
     <g id="text_17">
      <!-- 16 -->
      <g transform="translate(437.621784 404.638438) scale(0.1 -0.1)">
       <use xlink:href="#DejaVuSans-31"/>
       <use xlink:href="#DejaVuSans-36" x="63.623047"/>
      </g>
     </g>
    </g>
    <g id="xtick_18">
     <g id="line2d_35">
      <path d="M 467.359691 390.04 
L 467.359691 26.88 
" clip-path="url(#p119e1c6c1c)" style="fill: none; stroke: #b0b0b0; stroke-width: 0.8; stroke-linecap: square"/>
     </g>
     <g id="line2d_36">
      <g>
       <use xlink:href="#m2ee9300b9a" x="467.359691" y="390.04" style="stroke: #000000; stroke-width: 0.8"/>
      </g>
     </g>
     <g id="text_18">
      <!-- 17 -->
      <g transform="translate(460.997191 404.638438) scale(0.1 -0.1)">
       <use xlink:href="#DejaVuSans-31"/>
       <use xlink:href="#DejaVuSans-37" x="63.623047"/>
      </g>
     </g>
    </g>
    <g id="xtick_19">
     <g id="line2d_37">
      <path d="M 490.735098 390.04 
L 490.735098 26.88 
" clip-path="url(#p119e1c6c1c)" style="fill: none; stroke: #b0b0b0; stroke-width: 0.8; stroke-linecap: square"/>
     </g>
     <g id="line2d_38">
      <g>
       <use xlink:href="#m2ee9300b9a" x="490.735098" y="390.04" style="stroke: #000000; stroke-width: 0.8"/>
      </g>
     </g>
     <g id="text_19">
      <!-- 18 -->
      <g transform="translate(484.372598 404.638438) scale(0.1 -0.1)">
       <use xlink:href="#DejaVuSans-31"/>
       <use xlink:href="#DejaVuSans-38" x="63.623047"/>
      </g>
     </g>
    </g>
    <g id="xtick_20">
     <g id="line2d_39">
      <path d="M 514.110505 390.04 
L 514.110505 26.88 
" clip-path="url(#p119e1c6c1c)" style="fill: none; stroke: #b0b0b0; stroke-width: 0.8; stroke-linecap: square"/>
     </g>
     <g id="line2d_40">
      <g>
       <use xlink:href="#m2ee9300b9a" x="514.110505" y="390.04" style="stroke: #000000; stroke-width: 0.8"/>
      </g>
     </g>
     <g id="text_20">
      <!-- 19 -->
      <g transform="translate(507.748005 404.638438) scale(0.1 -0.1)">
       <use xlink:href="#DejaVuSans-31"/>
       <use xlink:href="#DejaVuSans-39" x="63.623047"/>
      </g>
     </g>
    </g>
    <g id="xtick_21">
     <g id="line2d_41">
      <path d="M 537.485912 390.04 
L 537.485912 26.88 
" clip-path="url(#p119e1c6c1c)" style="fill: none; stroke: #b0b0b0; stroke-width: 0.8; stroke-linecap: square"/>
     </g>
     <g id="line2d_42">
      <g>
       <use xlink:href="#m2ee9300b9a" x="537.485912" y="390.04" style="stroke: #000000; stroke-width: 0.8"/>
      </g>
     </g>
     <g id="text_21">
      <!-- 20 -->
      <g transform="translate(531.123412 404.638438) scale(0.1 -0.1)">
       <use xlink:href="#DejaVuSans-32"/>
       <use xlink:href="#DejaVuSans-30" x="63.623047"/>
      </g>
     </g>
    </g>
    <g id="xtick_22">
     <g id="line2d_43">
      <path d="M 560.861318 390.04 
L 560.861318 26.88 
" clip-path="url(#p119e1c6c1c)" style="fill: none; stroke: #b0b0b0; stroke-width: 0.8; stroke-linecap: square"/>
     </g>
     <g id="line2d_44">
      <g>
       <use xlink:href="#m2ee9300b9a" x="560.861318" y="390.04" style="stroke: #000000; stroke-width: 0.8"/>
      </g>
     </g>
     <g id="text_22">
      <!-- 21 -->
      <g transform="translate(554.498818 404.638438) scale(0.1 -0.1)">
       <use xlink:href="#DejaVuSans-32"/>
       <use xlink:href="#DejaVuSans-31" x="63.623047"/>
      </g>
     </g>
    </g>
    <g id="xtick_23">
     <g id="line2d_45">
      <path d="M 584.236725 390.04 
L 584.236725 26.88 
" clip-path="url(#p119e1c6c1c)" style="fill: none; stroke: #b0b0b0; stroke-width: 0.8; stroke-linecap: square"/>
     </g>
     <g id="line2d_46">
      <g>
       <use xlink:href="#m2ee9300b9a" x="584.236725" y="390.04" style="stroke: #000000; stroke-width: 0.8"/>
      </g>
     </g>
     <g id="text_23">
      <!-- 22 -->
      <g transform="translate(577.874225 404.638438) scale(0.1 -0.1)">
       <use xlink:href="#DejaVuSans-32"/>
       <use xlink:href="#DejaVuSans-32" x="63.623047"/>
      </g>
     </g>
    </g>
    <g id="xtick_24">
     <g id="line2d_47">
      <path d="M 607.612132 390.04 
L 607.612132 26.88 
" clip-path="url(#p119e1c6c1c)" style="fill: none; stroke: #b0b0b0; stroke-width: 0.8; stroke-linecap: square"/>
     </g>
     <g id="line2d_48">
      <g>
       <use xlink:href="#m2ee9300b9a" x="607.612132" y="390.04" style="stroke: #000000; stroke-width: 0.8"/>
      </g>
     </g>
     <g id="text_24">
      <!-- 23 -->
      <g transform="translate(601.249632 404.638438) scale(0.1 -0.1)">
       <use xlink:href="#DejaVuSans-32"/>
       <use xlink:href="#DejaVuSans-33" x="63.623047"/>
      </g>
     </g>
    </g>
    <g id="xtick_25">
     <g id="line2d_49">
      <path d="M 630.987539 390.04 
L 630.987539 26.88 
" clip-path="url(#p119e1c6c1c)" style="fill: none; stroke: #b0b0b0; stroke-width: 0.8; stroke-linecap: square"/>
     </g>
     <g id="line2d_50">
      <g>
       <use xlink:href="#m2ee9300b9a" x="630.987539" y="390.04" style="stroke: #000000; stroke-width: 0.8"/>
      </g>
     </g>
     <g id="text_25">
      <!-- 24 -->
      <g transform="translate(624.625039 404.638438) scale(0.1 -0.1)">
       <use xlink:href="#DejaVuSans-32"/>
       <use xlink:href="#DejaVuSans-34" x="63.623047"/>
      </g>
     </g>
    </g>
    <g id="xtick_26">
     <g id="line2d_51">
      <path d="M 654.362946 390.04 
L 654.362946 26.88 
" clip-path="url(#p119e1c6c1c)" style="fill: none; stroke: #b0b0b0; stroke-width: 0.8; stroke-linecap: square"/>
     </g>
     <g id="line2d_52">
      <g>
       <use xlink:href="#m2ee9300b9a" x="654.362946" y="390.04" style="stroke: #000000; stroke-width: 0.8"/>
      </g>
     </g>
     <g id="text_26">
      <!-- 25 -->
      <g transform="translate(648.000446 404.638438) scale(0.1 -0.1)">
       <use xlink:href="#DejaVuSans-32"/>
       <use xlink:href="#DejaVuSans-35" x="63.623047"/>
      </g>
     </g>
    </g>
    <g id="xtick_27">
     <g id="line2d_53">
      <path d="M 677.738353 390.04 
L 677.738353 26.88 
" clip-path="url(#p119e1c6c1c)" style="fill: none; stroke: #b0b0b0; stroke-width: 0.8; stroke-linecap: square"/>
     </g>
     <g id="line2d_54">
      <g>
       <use xlink:href="#m2ee9300b9a" x="677.738353" y="390.04" style="stroke: #000000; stroke-width: 0.8"/>
      </g>
     </g>
     <g id="text_27">
      <!-- 26 -->
      <g transform="translate(671.375853 404.638438) scale(0.1 -0.1)">
       <use xlink:href="#DejaVuSans-32"/>
       <use xlink:href="#DejaVuSans-36" x="63.623047"/>
      </g>
     </g>
    </g>
    <g id="xtick_28">
     <g id="line2d_55">
      <path d="M 701.113759 390.04 
L 701.113759 26.88 
" clip-path="url(#p119e1c6c1c)" style="fill: none; stroke: #b0b0b0; stroke-width: 0.8; stroke-linecap: square"/>
     </g>
     <g id="line2d_56">
      <g>
       <use xlink:href="#m2ee9300b9a" x="701.113759" y="390.04" style="stroke: #000000; stroke-width: 0.8"/>
      </g>
     </g>
     <g id="text_28">
      <!-- 27 -->
      <g transform="translate(694.751259 404.638438) scale(0.1 -0.1)">
       <use xlink:href="#DejaVuSans-32"/>
       <use xlink:href="#DejaVuSans-37" x="63.623047"/>
      </g>
     </g>
    </g>
    <g id="xtick_29">
     <g id="line2d_57">
      <path d="M 724.489166 390.04 
L 724.489166 26.88 
" clip-path="url(#p119e1c6c1c)" style="fill: none; stroke: #b0b0b0; stroke-width: 0.8; stroke-linecap: square"/>
     </g>
     <g id="line2d_58">
      <g>
       <use xlink:href="#m2ee9300b9a" x="724.489166" y="390.04" style="stroke: #000000; stroke-width: 0.8"/>
      </g>
     </g>
     <g id="text_29">
      <!-- 28 -->
      <g transform="translate(718.126666 404.638438) scale(0.1 -0.1)">
       <use xlink:href="#DejaVuSans-32"/>
       <use xlink:href="#DejaVuSans-38" x="63.623047"/>
      </g>
     </g>
    </g>
    <g id="xtick_30">
     <g id="line2d_59">
      <path d="M 747.864573 390.04 
L 747.864573 26.88 
" clip-path="url(#p119e1c6c1c)" style="fill: none; stroke: #b0b0b0; stroke-width: 0.8; stroke-linecap: square"/>
     </g>
     <g id="line2d_60">
      <g>
       <use xlink:href="#m2ee9300b9a" x="747.864573" y="390.04" style="stroke: #000000; stroke-width: 0.8"/>
      </g>
     </g>
     <g id="text_30">
      <!-- 29 -->
      <g transform="translate(741.502073 404.638438) scale(0.1 -0.1)">
       <use xlink:href="#DejaVuSans-32"/>
       <use xlink:href="#DejaVuSans-39" x="63.623047"/>
      </g>
     </g>
    </g>
    <g id="xtick_31">
     <g id="line2d_61">
      <path d="M 771.23998 390.04 
L 771.23998 26.88 
" clip-path="url(#p119e1c6c1c)" style="fill: none; stroke: #b0b0b0; stroke-width: 0.8; stroke-linecap: square"/>
     </g>
     <g id="line2d_62">
      <g>
       <use xlink:href="#m2ee9300b9a" x="771.23998" y="390.04" style="stroke: #000000; stroke-width: 0.8"/>
      </g>
     </g>
     <g id="text_31">
      <!-- 30 -->
      <g transform="translate(764.87748 404.638438) scale(0.1 -0.1)">
       <use xlink:href="#DejaVuSans-33"/>
       <use xlink:href="#DejaVuSans-30" x="63.623047"/>
      </g>
     </g>
    </g>
    <g id="xtick_32">
     <g id="line2d_63">
      <path d="M 794.615387 390.04 
L 794.615387 26.88 
" clip-path="url(#p119e1c6c1c)" style="fill: none; stroke: #b0b0b0; stroke-width: 0.8; stroke-linecap: square"/>
     </g>
     <g id="line2d_64">
      <g>
       <use xlink:href="#m2ee9300b9a" x="794.615387" y="390.04" style="stroke: #000000; stroke-width: 0.8"/>
      </g>
     </g>
     <g id="text_32">
      <!-- 31 -->
      <g transform="translate(788.252887 404.638438) scale(0.1 -0.1)">
       <use xlink:href="#DejaVuSans-33"/>
       <use xlink:href="#DejaVuSans-31" x="63.623047"/>
      </g>
     </g>
    </g>
    <g id="xtick_33">
     <g id="line2d_65">
      <path d="M 817.990793 390.04 
L 817.990793 26.88 
" clip-path="url(#p119e1c6c1c)" style="fill: none; stroke: #b0b0b0; stroke-width: 0.8; stroke-linecap: square"/>
     </g>
     <g id="line2d_66">
      <g>
       <use xlink:href="#m2ee9300b9a" x="817.990793" y="390.04" style="stroke: #000000; stroke-width: 0.8"/>
      </g>
     </g>
     <g id="text_33">
      <!-- 01 -->
      <g transform="translate(811.628293 404.638438) scale(0.1 -0.1)">
       <use xlink:href="#DejaVuSans-30"/>
       <use xlink:href="#DejaVuSans-31" x="63.623047"/>
      </g>
     </g>
    </g>
    <g id="xtick_34">
     <g id="line2d_67">
      <path d="M 841.3662 390.04 
L 841.3662 26.88 
" clip-path="url(#p119e1c6c1c)" style="fill: none; stroke: #b0b0b0; stroke-width: 0.8; stroke-linecap: square"/>
     </g>
     <g id="line2d_68">
      <g>
       <use xlink:href="#m2ee9300b9a" x="841.3662" y="390.04" style="stroke: #000000; stroke-width: 0.8"/>
      </g>
     </g>
     <g id="text_34">
      <!-- 02 -->
      <g transform="translate(835.0037 404.638438) scale(0.1 -0.1)">
       <use xlink:href="#DejaVuSans-30"/>
       <use xlink:href="#DejaVuSans-32" x="63.623047"/>
      </g>
     </g>
    </g>
    <g id="text_35">
     <!-- Day -->
     <g transform="translate(445.311563 418.316562) scale(0.1 -0.1)">
      <defs>
       <path id="DejaVuSans-44" d="M 1259 4147 
L 1259 519 
L 2022 519 
Q 2988 519 3436 956 
Q 3884 1394 3884 2338 
Q 3884 3275 3436 3711 
Q 2988 4147 2022 4147 
L 1259 4147 
z
M 628 4666 
L 1925 4666 
Q 3281 4666 3915 4102 
Q 4550 3538 4550 2338 
Q 4550 1131 3912 565 
Q 3275 0 1925 0 
L 628 0 
L 628 4666 
z
" transform="scale(0.015625)"/>
       <path id="DejaVuSans-61" d="M 2194 1759 
Q 1497 1759 1228 1600 
Q 959 1441 959 1056 
Q 959 750 1161 570 
Q 1363 391 1709 391 
Q 2188 391 2477 730 
Q 2766 1069 2766 1631 
L 2766 1759 
L 2194 1759 
z
M 3341 1997 
L 3341 0 
L 2766 0 
L 2766 531 
Q 2569 213 2275 61 
Q 1981 -91 1556 -91 
Q 1019 -91 701 211 
Q 384 513 384 1019 
Q 384 1609 779 1909 
Q 1175 2209 1959 2209 
L 2766 2209 
L 2766 2266 
Q 2766 2663 2505 2880 
Q 2244 3097 1772 3097 
Q 1472 3097 1187 3025 
Q 903 2953 641 2809 
L 641 3341 
Q 956 3463 1253 3523 
Q 1550 3584 1831 3584 
Q 2591 3584 2966 3190 
Q 3341 2797 3341 1997 
z
" transform="scale(0.015625)"/>
       <path id="DejaVuSans-79" d="M 2059 -325 
Q 1816 -950 1584 -1140 
Q 1353 -1331 966 -1331 
L 506 -1331 
L 506 -850 
L 844 -850 
Q 1081 -850 1212 -737 
Q 1344 -625 1503 -206 
L 1606 56 
L 191 3500 
L 800 3500 
L 1894 763 
L 2988 3500 
L 3597 3500 
L 2059 -325 
z
" transform="scale(0.015625)"/>
      </defs>
      <use xlink:href="#DejaVuSans-44"/>
      <use xlink:href="#DejaVuSans-61" x="77.001953"/>
      <use xlink:href="#DejaVuSans-79" x="138.28125"/>
     </g>
    </g>
   </g>
   <g id="matplotlib.axis_2">
    <g id="ytick_1">
     <g id="line2d_69">
      <path d="M 57.17 375.384192 
L 853.2 375.384192 
" clip-path="url(#p119e1c6c1c)" style="fill: none; stroke: #b0b0b0; stroke-width: 0.8; stroke-linecap: square"/>
     </g>
     <g id="line2d_70">
      <defs>
       <path id="m5b55786d4c" d="M 0 0 
L -3.5 0 
" style="stroke: #000000; stroke-width: 0.8"/>
      </defs>
      <g>
       <use xlink:href="#m5b55786d4c" x="57.17" y="375.384192" style="stroke: #000000; stroke-width: 0.8"/>
      </g>
     </g>
     <g id="text_36">
      <!-- 0 -->
      <g transform="translate(43.8075 379.183411) scale(0.1 -0.1)">
       <use xlink:href="#DejaVuSans-30"/>
      </g>
     </g>
    </g>
    <g id="ytick_2">
     <g id="line2d_71">
      <path d="M 57.17 326.661427 
L 853.2 326.661427 
" clip-path="url(#p119e1c6c1c)" style="fill: none; stroke: #b0b0b0; stroke-width: 0.8; stroke-linecap: square"/>
     </g>
     <g id="line2d_72">
      <g>
       <use xlink:href="#m5b55786d4c" x="57.17" y="326.661427" style="stroke: #000000; stroke-width: 0.8"/>
      </g>
     </g>
     <g id="text_37">
      <!-- 500 -->
      <g transform="translate(31.0825 330.460646) scale(0.1 -0.1)">
       <use xlink:href="#DejaVuSans-35"/>
       <use xlink:href="#DejaVuSans-30" x="63.623047"/>
       <use xlink:href="#DejaVuSans-30" x="127.246094"/>
      </g>
     </g>
    </g>
    <g id="ytick_3">
     <g id="line2d_73">
      <path d="M 57.17 277.938663 
L 853.2 277.938663 
" clip-path="url(#p119e1c6c1c)" style="fill: none; stroke: #b0b0b0; stroke-width: 0.8; stroke-linecap: square"/>
     </g>
     <g id="line2d_74">
      <g>
       <use xlink:href="#m5b55786d4c" x="57.17" y="277.938663" style="stroke: #000000; stroke-width: 0.8"/>
      </g>
     </g>
     <g id="text_38">
      <!-- 1000 -->
      <g transform="translate(24.72 281.737881) scale(0.1 -0.1)">
       <use xlink:href="#DejaVuSans-31"/>
       <use xlink:href="#DejaVuSans-30" x="63.623047"/>
       <use xlink:href="#DejaVuSans-30" x="127.246094"/>
       <use xlink:href="#DejaVuSans-30" x="190.869141"/>
      </g>
     </g>
    </g>
    <g id="ytick_4">
     <g id="line2d_75">
      <path d="M 57.17 229.215898 
L 853.2 229.215898 
" clip-path="url(#p119e1c6c1c)" style="fill: none; stroke: #b0b0b0; stroke-width: 0.8; stroke-linecap: square"/>
     </g>
     <g id="line2d_76">
      <g>
       <use xlink:href="#m5b55786d4c" x="57.17" y="229.215898" style="stroke: #000000; stroke-width: 0.8"/>
      </g>
     </g>
     <g id="text_39">
      <!-- 1500 -->
      <g transform="translate(24.72 233.015117) scale(0.1 -0.1)">
       <use xlink:href="#DejaVuSans-31"/>
       <use xlink:href="#DejaVuSans-35" x="63.623047"/>
       <use xlink:href="#DejaVuSans-30" x="127.246094"/>
       <use xlink:href="#DejaVuSans-30" x="190.869141"/>
      </g>
     </g>
    </g>
    <g id="ytick_5">
     <g id="line2d_77">
      <path d="M 57.17 180.493133 
L 853.2 180.493133 
" clip-path="url(#p119e1c6c1c)" style="fill: none; stroke: #b0b0b0; stroke-width: 0.8; stroke-linecap: square"/>
     </g>
     <g id="line2d_78">
      <g>
       <use xlink:href="#m5b55786d4c" x="57.17" y="180.493133" style="stroke: #000000; stroke-width: 0.8"/>
      </g>
     </g>
     <g id="text_40">
      <!-- 2000 -->
      <g transform="translate(24.72 184.292352) scale(0.1 -0.1)">
       <use xlink:href="#DejaVuSans-32"/>
       <use xlink:href="#DejaVuSans-30" x="63.623047"/>
       <use xlink:href="#DejaVuSans-30" x="127.246094"/>
       <use xlink:href="#DejaVuSans-30" x="190.869141"/>
      </g>
     </g>
    </g>
    <g id="ytick_6">
     <g id="line2d_79">
      <path d="M 57.17 131.770368 
L 853.2 131.770368 
" clip-path="url(#p119e1c6c1c)" style="fill: none; stroke: #b0b0b0; stroke-width: 0.8; stroke-linecap: square"/>
     </g>
     <g id="line2d_80">
      <g>
       <use xlink:href="#m5b55786d4c" x="57.17" y="131.770368" style="stroke: #000000; stroke-width: 0.8"/>
      </g>
     </g>
     <g id="text_41">
      <!-- 2500 -->
      <g transform="translate(24.72 135.569587) scale(0.1 -0.1)">
       <use xlink:href="#DejaVuSans-32"/>
       <use xlink:href="#DejaVuSans-35" x="63.623047"/>
       <use xlink:href="#DejaVuSans-30" x="127.246094"/>
       <use xlink:href="#DejaVuSans-30" x="190.869141"/>
      </g>
     </g>
    </g>
    <g id="ytick_7">
     <g id="line2d_81">
      <path d="M 57.17 83.047603 
L 853.2 83.047603 
" clip-path="url(#p119e1c6c1c)" style="fill: none; stroke: #b0b0b0; stroke-width: 0.8; stroke-linecap: square"/>
     </g>
     <g id="line2d_82">
      <g>
       <use xlink:href="#m5b55786d4c" x="57.17" y="83.047603" style="stroke: #000000; stroke-width: 0.8"/>
      </g>
     </g>
     <g id="text_42">
      <!-- 3000 -->
      <g transform="translate(24.72 86.846822) scale(0.1 -0.1)">
       <use xlink:href="#DejaVuSans-33"/>
       <use xlink:href="#DejaVuSans-30" x="63.623047"/>
       <use xlink:href="#DejaVuSans-30" x="127.246094"/>
       <use xlink:href="#DejaVuSans-30" x="190.869141"/>
      </g>
     </g>
    </g>
    <g id="ytick_8">
     <g id="line2d_83">
      <path d="M 57.17 34.324838 
L 853.2 34.324838 
" clip-path="url(#p119e1c6c1c)" style="fill: none; stroke: #b0b0b0; stroke-width: 0.8; stroke-linecap: square"/>
     </g>
     <g id="line2d_84">
      <g>
       <use xlink:href="#m5b55786d4c" x="57.17" y="34.324838" style="stroke: #000000; stroke-width: 0.8"/>
      </g>
     </g>
     <g id="text_43">
      <!-- 3500 -->
      <g transform="translate(24.72 38.124057) scale(0.1 -0.1)">
       <use xlink:href="#DejaVuSans-33"/>
       <use xlink:href="#DejaVuSans-35" x="63.623047"/>
       <use xlink:href="#DejaVuSans-30" x="127.246094"/>
       <use xlink:href="#DejaVuSans-30" x="190.869141"/>
      </g>
     </g>
    </g>
    <g id="text_44">
     <!-- Amount -->
     <g transform="translate(18.640312 228.107656) rotate(-90) scale(0.1 -0.1)">
      <defs>
       <path id="DejaVuSans-41" d="M 2188 4044 
L 1331 1722 
L 3047 1722 
L 2188 4044 
z
M 1831 4666 
L 2547 4666 
L 4325 0 
L 3669 0 
L 3244 1197 
L 1141 1197 
L 716 0 
L 50 0 
L 1831 4666 
z
" transform="scale(0.015625)"/>
       <path id="DejaVuSans-6d" d="M 3328 2828 
Q 3544 3216 3844 3400 
Q 4144 3584 4550 3584 
Q 5097 3584 5394 3201 
Q 5691 2819 5691 2113 
L 5691 0 
L 5113 0 
L 5113 2094 
Q 5113 2597 4934 2840 
Q 4756 3084 4391 3084 
Q 3944 3084 3684 2787 
Q 3425 2491 3425 1978 
L 3425 0 
L 2847 0 
L 2847 2094 
Q 2847 2600 2669 2842 
Q 2491 3084 2119 3084 
Q 1678 3084 1418 2786 
Q 1159 2488 1159 1978 
L 1159 0 
L 581 0 
L 581 3500 
L 1159 3500 
L 1159 2956 
Q 1356 3278 1631 3431 
Q 1906 3584 2284 3584 
Q 2666 3584 2933 3390 
Q 3200 3197 3328 2828 
z
" transform="scale(0.015625)"/>
       <path id="DejaVuSans-6f" d="M 1959 3097 
Q 1497 3097 1228 2736 
Q 959 2375 959 1747 
Q 959 1119 1226 758 
Q 1494 397 1959 397 
Q 2419 397 2687 759 
Q 2956 1122 2956 1747 
Q 2956 2369 2687 2733 
Q 2419 3097 1959 3097 
z
M 1959 3584 
Q 2709 3584 3137 3096 
Q 3566 2609 3566 1747 
Q 3566 888 3137 398 
Q 2709 -91 1959 -91 
Q 1206 -91 779 398 
Q 353 888 353 1747 
Q 353 2609 779 3096 
Q 1206 3584 1959 3584 
z
" transform="scale(0.015625)"/>
       <path id="DejaVuSans-75" d="M 544 1381 
L 544 3500 
L 1119 3500 
L 1119 1403 
Q 1119 906 1312 657 
Q 1506 409 1894 409 
Q 2359 409 2629 706 
Q 2900 1003 2900 1516 
L 2900 3500 
L 3475 3500 
L 3475 0 
L 2900 0 
L 2900 538 
Q 2691 219 2414 64 
Q 2138 -91 1772 -91 
Q 1169 -91 856 284 
Q 544 659 544 1381 
z
M 1991 3584 
L 1991 3584 
z
" transform="scale(0.015625)"/>
       <path id="DejaVuSans-6e" d="M 3513 2113 
L 3513 0 
L 2938 0 
L 2938 2094 
Q 2938 2591 2744 2837 
Q 2550 3084 2163 3084 
Q 1697 3084 1428 2787 
Q 1159 2491 1159 1978 
L 1159 0 
L 581 0 
L 581 3500 
L 1159 3500 
L 1159 2956 
Q 1366 3272 1645 3428 
Q 1925 3584 2291 3584 
Q 2894 3584 3203 3211 
Q 3513 2838 3513 2113 
z
" transform="scale(0.015625)"/>
       <path id="DejaVuSans-74" d="M 1172 4494 
L 1172 3500 
L 2356 3500 
L 2356 3053 
L 1172 3053 
L 1172 1153 
Q 1172 725 1289 603 
Q 1406 481 1766 481 
L 2356 481 
L 2356 0 
L 1766 0 
Q 1100 0 847 248 
Q 594 497 594 1153 
L 594 3053 
L 172 3053 
L 172 3500 
L 594 3500 
L 594 4494 
L 1172 4494 
z
" transform="scale(0.015625)"/>
      </defs>
      <use xlink:href="#DejaVuSans-41"/>
      <use xlink:href="#DejaVuSans-6d" x="68.408203"/>
      <use xlink:href="#DejaVuSans-6f" x="165.820312"/>
      <use xlink:href="#DejaVuSans-75" x="227.001953"/>
      <use xlink:href="#DejaVuSans-6e" x="290.380859"/>
      <use xlink:href="#DejaVuSans-74" x="353.759766"/>
     </g>
    </g>
   </g>
   <g id="line2d_85">
    <path d="M 93.353182 344.201623 
L 94.327157 357.161878 
L 95.301132 360.864808 
L 96.275108 365.347303 
L 97.249083 365.639639 
L 99.197034 353.556394 
L 100.171009 290.509136 
L 101.144984 166.071195 
L 102.118959 236.13453 
L 103.092935 242.078708 
L 104.06691 214.501623 
L 105.040885 119.687122 
L 106.014861 174.159174 
L 106.988836 186.047528 
L 107.962811 199.689902 
L 108.936786 180.103351 
L 109.910762 84.119504 
L 110.884737 59.173449 
L 111.858712 77.980436 
L 113.806663 194.232953 
L 114.780638 231.262254 
L 115.754613 253.479835 
L 116.728589 318.281112 
L 117.702564 336.795763 
L 118.676539 349.26879 
L 119.650514 350.633028 
L 120.62449 356.089977 
L 121.598465 341.083366 
L 122.57244 347.807107 
L 123.546416 343.227168 
L 125.494366 250.848805 
L 126.468341 229.021007 
L 127.442317 172.794936 
L 128.416292 150.382464 
L 129.390267 114.035282 
L 130.364243 111.794035 
L 131.338218 116.081638 
L 132.312193 108.383441 
L 133.286168 96.787423 
L 134.260144 100.003125 
L 135.234119 103.706056 
L 136.208094 135.278407 
L 137.18207 201.541367 
L 138.156045 238.375778 
L 139.13002 269.363456 
L 140.103995 322.763606 
L 141.077971 338.452337 
L 142.051946 349.26879 
L 143.025921 351.510038 
L 143.999897 354.628295 
L 144.973872 345.370969 
L 145.947847 344.299068 
L 146.921822 343.714395 
L 147.895798 312.142044 
L 150.817724 181.272697 
L 151.791699 130.795913 
L 152.765674 109.650233 
L 153.739649 111.306807 
L 154.713625 112.086371 
L 155.6876 105.557521 
L 156.661575 116.568866 
L 157.635551 115.691856 
L 158.609526 156.911315 
L 160.557476 277.743772 
L 161.531452 313.506281 
L 162.505427 310.875252 
L 163.479402 352.874275 
L 164.453378 358.331225 
L 165.427353 360.962254 
L 166.401328 364.567739 
L 167.375303 364.470293 
L 168.349279 361.449482 
L 169.323254 349.561127 
L 170.297229 294.99163 
L 171.271205 178.544222 
L 172.24518 251.530924 
L 173.219155 265.855417 
L 174.19313 214.501623 
L 175.167106 140.248129 
L 176.141081 173.866837 
L 177.115056 194.330398 
L 178.089032 205.828971 
L 179.063007 195.402299 
L 180.036982 132.16015 
L 181.010957 118.712667 
L 181.984933 145.802524 
L 183.932883 261.957596 
L 184.906859 288.170443 
L 185.880834 310.193133 
L 186.854809 348.586672 
L 187.828784 361.449482 
L 188.80276 363.593283 
L 189.776735 366.614095 
L 190.75071 367.978332 
L 191.724686 360.280135 
L 192.698661 349.366236 
L 193.672636 286.416424 
L 194.646611 174.646401 
L 195.620587 373.532727 
L 196.594562 258.839339 
L 197.568537 220.933028 
L 198.542513 133.524388 
L 199.516488 194.525289 
L 200.490463 197.448655 
L 201.464438 205.341743 
L 202.438414 193.843171 
L 203.412389 132.452487 
L 204.386364 112.671044 
L 205.36034 146.387198 
L 207.30829 244.514846 
L 208.282265 283.88284 
L 209.256241 308.634005 
L 210.230216 345.858197 
L 211.204191 357.55166 
L 212.178167 364.080511 
L 213.152142 362.229046 
L 214.126117 365.639639 
L 215.100092 361.449482 
L 216.074068 351.217701 
L 217.048043 296.940541 
L 218.022018 196.181863 
L 218.995994 248.802449 
L 219.969969 254.259399 
L 220.943944 213.819504 
L 221.917919 143.561277 
L 222.891895 197.740992 
L 223.86587 202.028595 
L 225.813821 197.448655 
L 226.787796 109.845124 
L 227.761771 103.023937 
L 228.735746 141.514921 
L 231.657672 289.827017 
L 233.605623 350.633028 
L 234.579598 359.792908 
L 235.553573 362.1316 
L 236.527549 364.957521 
L 237.501524 366.614095 
L 238.475499 363.495838 
L 239.449474 355.018077 
L 240.42345 286.806206 
L 241.397425 182.247153 
L 242.3714 246.463757 
L 243.345376 248.510113 
L 244.319351 217.132652 
L 245.293326 130.308685 
L 246.267301 200.17713 
L 247.241277 204.464733 
L 248.215252 211.091029 
L 249.189227 180.005905 
L 250.163203 129.918903 
L 251.137178 110.040015 
L 252.111153 129.918903 
L 253.085128 197.156319 
L 254.059104 245.099519 
L 255.033079 279.497791 
L 256.007054 301.910263 
L 256.98103 342.447603 
L 257.955005 359.30568 
L 258.92898 362.813719 
L 259.902955 365.249857 
L 260.876931 366.029421 
L 261.850906 360.085244 
L 262.824881 351.802374 
L 263.798857 298.986897 
L 264.772832 194.330398 
L 265.746807 240.519579 
L 266.720782 246.950984 
L 267.694758 209.434455 
L 268.668733 135.278407 
L 269.642708 183.124162 
L 270.616684 185.852637 
L 271.590659 197.156319 
L 272.564634 170.066461 
L 273.538609 106.629421 
L 274.512585 67.846101 
L 276.460535 140.930248 
L 277.434511 190.042795 
L 278.408486 216.450533 
L 279.382461 250.069241 
L 280.356436 312.239489 
L 281.330412 337.380436 
L 282.304387 346.540316 
L 283.278362 353.361503 
L 284.252338 355.310413 
L 285.226313 343.227168 
L 286.200288 345.273524 
L 287.174263 348.489226 
L 288.148239 306.490203 
L 289.122214 253.57728 
L 290.096189 218.301998 
L 292.04414 120.076905 
L 293.018115 101.464808 
L 293.99209 95.812968 
L 294.966066 114.814846 
L 295.940041 117.153539 
L 296.914016 84.996514 
L 297.887992 103.121382 
L 298.861967 106.43453 
L 300.809917 184.293509 
L 301.783893 231.944373 
L 302.757868 250.946251 
L 303.731843 322.763606 
L 304.705819 331.923486 
L 305.679794 345.370969 
L 306.653769 347.514771 
L 307.627744 348.781563 
L 308.60172 341.86293 
L 309.575695 348.781563 
L 310.54967 347.222434 
L 311.523646 306.197866 
L 312.497621 247.827994 
L 313.471596 206.998317 
L 314.445571 139.760902 
L 315.419547 94.156394 
L 316.393522 94.253839 
L 317.367497 77.980436 
L 318.341473 86.847979 
L 319.315448 107.116649 
L 320.289423 108.091104 
L 322.237374 170.943471 
L 323.211349 231.846927 
L 324.185324 266.732427 
L 327.10725 342.447603 
L 328.081225 357.161878 
L 329.055201 358.721007 
L 330.029176 362.716273 
L 331.003151 365.347303 
L 332.951102 348.684117 
L 333.925077 291.581037 
L 334.899052 172.112817 
L 335.873028 249.971796 
L 336.847003 252.992607 
L 337.820978 225.415522 
L 338.794954 153.110939 
L 339.768929 185.657746 
L 340.742904 198.42311 
L 341.716879 207.388099 
L 342.690855 198.130774 
L 343.66483 129.139339 
L 344.638805 126.898092 
L 345.61278 155.741968 
L 346.586756 208.752337 
L 347.560731 248.315222 
L 348.534706 294.796739 
L 349.508682 318.378557 
L 350.482657 346.345424 
L 351.456632 357.649106 
L 352.430607 361.254591 
L 353.404583 362.813719 
L 354.378558 365.152412 
L 355.352533 359.403125 
L 356.326509 350.827919 
L 357.300484 291.093809 
L 358.274459 177.374876 
L 359.248434 248.99734 
L 360.22241 257.28021 
L 361.196385 222.881938 
L 362.17036 151.064583 
L 363.144336 173.671946 
L 364.118311 203.392832 
L 365.092286 197.253764 
L 366.066261 188.678557 
L 367.040237 119.882014 
L 368.014212 105.557521 
L 368.988187 142.586822 
L 369.962163 201.638813 
L 370.936138 251.530924 
L 371.910113 288.46278 
L 372.884088 312.531826 
L 373.858064 350.438137 
L 374.832039 356.382314 
L 375.806014 358.915898 
L 376.77999 363.593283 
L 377.753965 364.275402 
L 378.72794 358.038888 
L 379.701915 350.438137 
L 380.675891 285.247077 
L 381.649866 192.478933 
L 382.623841 237.401322 
L 383.597817 269.363456 
L 384.571792 220.835582 
L 385.545767 183.319053 
L 386.519742 215.476078 
L 387.493718 220.640691 
L 388.467693 213.527168 
L 389.441668 190.237686 
L 390.415644 129.139339 
L 391.389619 129.918903 
L 393.337569 225.707859 
L 394.311545 265.56308 
L 395.28552 296.74565 
L 396.259495 332.313268 
L 397.233471 355.407859 
L 398.207446 360.572472 
L 399.181421 362.716273 
L 400.155396 365.737085 
L 401.129372 363.88562 
L 402.103347 357.746551 
L 403.077322 352.776829 
L 404.051298 294.114621 
L 405.025273 178.934005 
L 405.999248 233.211165 
L 406.973223 240.324688 
L 407.947199 211.480811 
L 408.921174 114.522509 
L 409.895149 168.507333 
L 410.869125 184.585845 
L 411.8431 187.996439 
L 412.817075 173.087273 
L 413.79105 119.882014 
L 414.765026 107.603877 
L 415.739001 131.965259 
L 416.712976 176.497866 
L 417.686952 239.934906 
L 418.660927 280.17991 
L 419.634902 305.02852 
L 420.608877 342.545049 
L 421.582853 356.772096 
L 422.556828 363.593283 
L 423.530803 363.88562 
L 424.504779 365.444748 
L 425.478754 356.772096 
L 426.452729 350.243246 
L 427.426704 294.309512 
L 428.40068 184.585845 
L 429.374655 230.48269 
L 430.34863 238.570669 
L 431.322606 221.030473 
L 432.296581 162.563156 
L 433.270556 184.780736 
L 434.244531 196.669091 
L 435.218507 200.956694 
L 436.192482 197.253764 
L 437.166457 125.436409 
L 438.140433 104.875402 
L 439.114408 136.252863 
L 440.088383 172.600045 
L 441.062358 216.547979 
L 442.036334 253.090053 
L 443.010309 272.579159 
L 443.984284 322.666161 
L 444.95826 333.677506 
L 445.932235 346.44287 
L 446.90621 357.746551 
L 447.880185 356.966987 
L 448.854161 346.150533 
L 449.828136 344.493959 
L 450.802111 343.909286 
L 451.776087 307.464658 
L 452.750062 256.500646 
L 453.724037 234.672847 
L 454.698012 187.216875 
L 455.671988 149.895237 
L 456.645963 116.958648 
L 457.619938 107.408986 
L 458.593913 104.095838 
L 459.567889 96.689977 
L 460.541864 83.437385 
L 461.515839 108.675778 
L 462.489815 102.634155 
L 463.46379 154.475177 
L 464.437765 188.678557 
L 465.41174 243.735282 
L 466.385716 273.553614 
L 467.359691 316.234756 
L 468.333666 342.934831 
L 470.281617 353.264057 
L 471.255592 354.238512 
L 472.229567 341.083366 
L 473.203543 347.612216 
L 474.177518 346.637761 
L 475.151493 312.044598 
L 477.099444 197.740992 
L 478.073419 139.858347 
L 479.047394 73.595387 
L 480.02137 54.690954 
L 480.995345 43.387273 
L 481.96932 62.291705 
L 482.943296 70.282239 
L 483.917271 90.648355 
L 484.891246 102.536709 
L 485.865221 121.246251 
L 486.839197 176.108084 
L 487.813172 221.420255 
L 488.787147 253.772171 
L 489.761123 275.794861 
L 490.735098 325.29719 
L 491.709073 340.303802 
L 492.683048 348.489226 
L 493.657024 354.335958 
L 494.630999 352.581938 
L 495.604974 345.370969 
L 496.57895 346.053088 
L 497.552925 346.053088 
L 499.500875 270.532802 
L 500.474851 217.717325 
L 501.448826 153.110939 
L 503.396777 99.90568 
L 504.370752 108.968114 
L 505.344727 123.390053 
L 506.318702 124.656844 
L 507.292678 129.139339 
L 508.266653 125.923636 
L 509.240628 164.414621 
L 510.214604 210.603802 
L 511.188579 277.353989 
L 512.162554 304.833629 
L 513.136529 326.369091 
L 514.110505 353.361503 
L 515.08448 359.30568 
L 516.058455 363.300947 
L 517.032431 363.690729 
L 518.006406 363.690729 
L 518.980381 359.695462 
L 519.954356 348.19689 
L 520.928332 286.70876 
L 521.902307 172.5026 
L 522.876282 257.669992 
L 523.850258 249.387122 
L 524.824233 208.167663 
L 525.798208 136.252863 
L 526.772183 198.033328 
L 527.746159 217.912216 
L 528.720134 229.215898 
L 530.668085 142.099594 
L 531.64206 121.441142 
L 532.616035 154.085394 
L 533.59001 208.167663 
L 534.563986 276.769316 
L 535.537961 291.873373 
L 536.511936 325.589527 
L 537.485912 353.556394 
L 538.459887 362.423937 
L 539.433862 363.690729 
L 540.407837 366.321758 
L 541.381813 368.563005 
L 542.355788 364.275402 
L 543.329763 354.238512 
L 544.303739 287.293434 
L 545.277714 166.16864 
L 546.251689 241.299144 
L 547.225664 240.227243 
L 548.19964 218.107107 
L 549.173615 137.519654 
L 550.14759 187.216875 
L 551.121566 205.146852 
L 552.095541 196.4742 
L 553.069516 178.446777 
L 554.043491 122.707934 
L 555.017467 111.501698 
L 555.991442 143.171495 
L 556.965417 201.93115 
L 557.939393 236.621758 
L 559.887343 319.84024 
L 560.861318 348.781563 
L 561.835294 355.310413 
L 563.783244 363.106056 
L 564.75722 363.398392 
L 565.731195 357.843997 
L 566.70517 346.832652 
L 567.679145 284.857295 
L 568.653121 187.606657 
L 569.627096 231.749482 
L 570.601071 242.565935 
L 571.575046 219.081563 
L 572.549022 146.094861 
L 573.522997 186.242419 
L 574.496972 213.91695 
L 575.470948 209.824237 
L 576.444923 193.940616 
L 577.418898 135.473298 
L 578.392873 123.682389 
L 579.366849 165.973749 
L 581.314799 260.593358 
L 582.288775 296.550759 
L 583.26275 309.023787 
L 584.236725 351.217701 
L 585.2107 357.55166 
L 586.184676 361.839264 
L 587.158651 363.00861 
L 588.132626 364.665184 
L 589.106602 359.403125 
L 590.080577 350.535582 
L 591.054552 297.330323 
L 592.028527 198.812893 
L 593.002503 244.125064 
L 593.976478 246.366311 
L 594.950453 212.065485 
L 595.924429 143.658723 
L 596.898404 204.269842 
L 597.872379 225.90275 
L 598.846354 218.49689 
L 599.82033 209.921683 
L 600.794305 144.828069 
L 601.76828 114.619955 
L 602.742256 128.262329 
L 603.716231 182.636935 
L 606.638157 289.632126 
L 607.612132 331.728595 
L 609.560083 354.335958 
L 610.534058 357.259324 
L 611.508033 361.352036 
L 612.482008 354.043621 
L 613.455984 350.048355 
L 614.429959 347.904553 
L 615.403934 307.367213 
L 616.37791 248.607558 
L 617.351885 218.399444 
L 618.32586 179.811014 
L 619.299835 226.000195 
L 621.247786 129.918903 
L 622.221761 137.519654 
L 623.195737 124.461953 
L 624.169712 112.963381 
L 625.143687 122.610488 
L 626.117662 139.078783 
L 627.091638 168.897115 
L 628.065613 208.654891 
L 629.039588 254.551736 
L 630.013564 275.405079 
L 630.987539 334.846852 
L 631.961514 345.663306 
L 632.935489 349.171345 
L 633.909465 356.577205 
L 634.88344 353.84873 
L 635.857415 349.756018 
L 636.831391 352.192156 
L 637.805366 348.19689 
L 638.779341 304.638738 
L 639.753316 267.024763 
L 640.727292 235.257521 
L 641.701267 180.493133 
L 642.675242 155.157295 
L 643.649218 108.968114 
L 644.623193 119.687122 
L 645.597168 112.476153 
L 646.571143 135.278407 
L 647.545119 136.252863 
L 648.519094 149.018227 
L 649.493069 177.959549 
L 650.467045 240.032352 
L 651.44102 294.796739 
L 653.38897 329.584793 
L 654.362946 352.387047 
L 655.336921 359.792908 
L 656.310896 364.177956 
L 657.284872 365.347303 
L 658.258847 363.788174 
L 659.232822 359.403125 
L 660.206797 348.879008 
L 661.180773 283.980285 
L 662.154748 174.256619 
L 663.128723 225.512968 
L 664.102699 229.60568 
L 665.076674 203.392832 
L 666.050649 111.89148 
L 667.024624 166.558422 
L 667.9986 172.5026 
L 668.972575 166.850759 
L 669.94655 166.460977 
L 670.920526 116.47142 
L 671.894501 83.534831 
L 674.816427 264.198843 
L 675.790402 304.638738 
L 676.764377 319.742795 
L 677.738353 346.053088 
L 678.712328 362.911165 
L 679.686303 363.203501 
L 680.660278 364.665184 
L 681.634254 365.249857 
L 682.608229 357.259324 
L 683.582204 351.412592 
L 684.556179 290.704027 
L 685.530155 185.170518 
L 686.50413 246.268866 
L 687.478105 249.776905 
L 688.452081 208.46 
L 689.426056 132.549932 
L 690.400031 180.493133 
L 691.374006 193.453388 
L 692.347982 188.288775 
L 693.321957 184.780736 
L 694.295932 133.134606 
L 695.269908 113.158272 
L 696.243883 152.526266 
L 697.217858 219.666236 
L 699.165809 291.873373 
L 700.139784 312.824162 
L 701.113759 354.530849 
L 702.087735 360.18269 
L 703.06171 364.957521 
L 704.035685 367.296213 
L 705.00966 363.593283 
L 705.983636 360.475026 
L 706.957611 350.925364 
L 707.931586 295.283967 
L 708.905562 194.915071 
L 709.879537 246.756093 
L 710.853512 252.018152 
L 712.801463 147.751435 
L 713.775438 167.435432 
L 714.749413 183.513944 
L 715.723389 195.792081 
L 716.697364 184.196063 
L 717.671339 124.851736 
L 718.645314 119.394786 
L 720.593265 223.661503 
L 721.56724 264.978407 
L 722.541216 299.474125 
L 723.515191 309.998242 
L 724.489166 348.19689 
L 725.463141 356.382314 
L 726.437117 361.059699 
L 727.411092 362.716273 
L 729.359043 359.500571 
L 730.333018 348.781563 
L 731.306993 297.330323 
L 732.280968 196.4742 
L 733.254944 228.826116 
L 734.228919 225.02574 
L 735.202894 198.130774 
L 736.17687 110.429797 
L 737.150845 160.419354 
L 738.12482 172.210263 
L 739.098795 198.228219 
L 740.072771 188.288775 
L 741.046746 139.273674 
L 742.020721 123.097716 
L 742.994697 154.962404 
L 743.968672 201.638813 
L 744.942647 255.915973 
L 745.916622 286.124087 
L 746.890598 309.316123 
L 747.864573 347.807107 
L 748.838548 354.628295 
L 749.812524 360.377581 
L 750.786499 363.593283 
L 751.760474 363.593283 
L 752.734449 361.059699 
L 753.708425 350.730473 
L 754.6824 295.089076 
L 755.656375 201.249031 
L 756.630351 230.580135 
L 757.604326 226.682314 
L 758.578301 186.144974 
L 759.552276 116.373974 
L 760.526252 163.927393 
L 761.500227 191.796814 
L 762.474202 184.4884 
L 763.448178 171.820481 
L 764.422153 118.127994 
L 765.396128 87.140316 
L 766.370103 116.568866 
L 768.318054 219.763681 
L 769.292029 255.526191 
L 770.266005 281.446702 
L 771.23998 324.225289 
L 772.213955 345.176078 
L 773.18793 355.700195 
L 774.161906 358.038888 
L 775.135881 361.839264 
L 776.109856 348.684117 
L 777.083832 349.366236 
L 778.057807 345.176078 
L 779.031782 306.002975 
L 780.005757 250.946251 
L 780.979733 224.051285 
L 781.953708 171.138362 
L 782.927683 128.944448 
L 783.901659 114.814846 
L 784.875634 119.394786 
L 785.849609 134.401397 
L 786.823584 139.566011 
L 787.79756 123.682389 
L 788.771535 127.287874 
L 789.74551 126.50831 
L 790.719486 174.841292 
L 792.667436 258.15722 
L 793.641411 269.071119 
L 794.615387 330.461803 
L 795.589362 341.083366 
L 796.563337 347.904553 
L 797.537312 357.843997 
L 798.511288 360.864808 
L 799.485263 351.217701 
L 800.459238 348.879008 
L 801.433214 343.519504 
L 802.407189 310.095687 
L 803.381164 256.305755 
L 804.355139 219.276454 
L 805.329115 152.42882 
L 806.30309 126.50831 
L 807.277065 116.081638 
L 808.251041 109.552787 
L 809.225016 142.586822 
L 810.198991 132.647378 
L 811.172966 157.88577 
L 812.146942 164.804403 
L 814.094892 220.640691 
L 815.068868 276.866762 
L 816.042843 307.562104 
L 817.016818 327.440992 
L 817.016818 327.440992 
" clip-path="url(#p119e1c6c1c)" style="fill: none; stroke: #1f77b4; stroke-width: 1.5; stroke-linecap: square"/>
   </g>
   <g id="patch_3">
    <path d="M 57.17 390.04 
L 57.17 26.88 
" style="fill: none; stroke: #000000; stroke-width: 0.8; stroke-linejoin: miter; stroke-linecap: square"/>
   </g>
   <g id="patch_4">
    <path d="M 853.2 390.04 
L 853.2 26.88 
" style="fill: none; stroke: #000000; stroke-width: 0.8; stroke-linejoin: miter; stroke-linecap: square"/>
   </g>
   <g id="patch_5">
    <path d="M 57.17 390.04 
L 853.2 390.04 
" style="fill: none; stroke: #000000; stroke-width: 0.8; stroke-linejoin: miter; stroke-linecap: square"/>
   </g>
   <g id="patch_6">
    <path d="M 57.17 26.88 
L 853.2 26.88 
" style="fill: none; stroke: #000000; stroke-width: 0.8; stroke-linejoin: miter; stroke-linecap: square"/>
   </g>
   <g id="text_45">
    <!-- Amount in July 2022 at Tsuchiya Sewing Machine -->
    <g transform="translate(308.298438 20.88) scale(0.12 -0.12)">
     <defs>
      <path id="DejaVuSans-20" transform="scale(0.015625)"/>
      <path id="DejaVuSans-69" d="M 603 3500 
L 1178 3500 
L 1178 0 
L 603 0 
L 603 3500 
z
M 603 4863 
L 1178 4863 
L 1178 4134 
L 603 4134 
L 603 4863 
z
" transform="scale(0.015625)"/>
      <path id="DejaVuSans-4a" d="M 628 4666 
L 1259 4666 
L 1259 325 
Q 1259 -519 939 -900 
Q 619 -1281 -91 -1281 
L -331 -1281 
L -331 -750 
L -134 -750 
Q 284 -750 456 -515 
Q 628 -281 628 325 
L 628 4666 
z
" transform="scale(0.015625)"/>
      <path id="DejaVuSans-6c" d="M 603 4863 
L 1178 4863 
L 1178 0 
L 603 0 
L 603 4863 
z
" transform="scale(0.015625)"/>
      <path id="DejaVuSans-54" d="M -19 4666 
L 3928 4666 
L 3928 4134 
L 2272 4134 
L 2272 0 
L 1638 0 
L 1638 4134 
L -19 4134 
L -19 4666 
z
" transform="scale(0.015625)"/>
      <path id="DejaVuSans-73" d="M 2834 3397 
L 2834 2853 
Q 2591 2978 2328 3040 
Q 2066 3103 1784 3103 
Q 1356 3103 1142 2972 
Q 928 2841 928 2578 
Q 928 2378 1081 2264 
Q 1234 2150 1697 2047 
L 1894 2003 
Q 2506 1872 2764 1633 
Q 3022 1394 3022 966 
Q 3022 478 2636 193 
Q 2250 -91 1575 -91 
Q 1294 -91 989 -36 
Q 684 19 347 128 
L 347 722 
Q 666 556 975 473 
Q 1284 391 1588 391 
Q 1994 391 2212 530 
Q 2431 669 2431 922 
Q 2431 1156 2273 1281 
Q 2116 1406 1581 1522 
L 1381 1569 
Q 847 1681 609 1914 
Q 372 2147 372 2553 
Q 372 3047 722 3315 
Q 1072 3584 1716 3584 
Q 2034 3584 2315 3537 
Q 2597 3491 2834 3397 
z
" transform="scale(0.015625)"/>
      <path id="DejaVuSans-63" d="M 3122 3366 
L 3122 2828 
Q 2878 2963 2633 3030 
Q 2388 3097 2138 3097 
Q 1578 3097 1268 2742 
Q 959 2388 959 1747 
Q 959 1106 1268 751 
Q 1578 397 2138 397 
Q 2388 397 2633 464 
Q 2878 531 3122 666 
L 3122 134 
Q 2881 22 2623 -34 
Q 2366 -91 2075 -91 
Q 1284 -91 818 406 
Q 353 903 353 1747 
Q 353 2603 823 3093 
Q 1294 3584 2113 3584 
Q 2378 3584 2631 3529 
Q 2884 3475 3122 3366 
z
" transform="scale(0.015625)"/>
      <path id="DejaVuSans-68" d="M 3513 2113 
L 3513 0 
L 2938 0 
L 2938 2094 
Q 2938 2591 2744 2837 
Q 2550 3084 2163 3084 
Q 1697 3084 1428 2787 
Q 1159 2491 1159 1978 
L 1159 0 
L 581 0 
L 581 4863 
L 1159 4863 
L 1159 2956 
Q 1366 3272 1645 3428 
Q 1925 3584 2291 3584 
Q 2894 3584 3203 3211 
Q 3513 2838 3513 2113 
z
" transform="scale(0.015625)"/>
      <path id="DejaVuSans-53" d="M 3425 4513 
L 3425 3897 
Q 3066 4069 2747 4153 
Q 2428 4238 2131 4238 
Q 1616 4238 1336 4038 
Q 1056 3838 1056 3469 
Q 1056 3159 1242 3001 
Q 1428 2844 1947 2747 
L 2328 2669 
Q 3034 2534 3370 2195 
Q 3706 1856 3706 1288 
Q 3706 609 3251 259 
Q 2797 -91 1919 -91 
Q 1588 -91 1214 -16 
Q 841 59 441 206 
L 441 856 
Q 825 641 1194 531 
Q 1563 422 1919 422 
Q 2459 422 2753 634 
Q 3047 847 3047 1241 
Q 3047 1584 2836 1778 
Q 2625 1972 2144 2069 
L 1759 2144 
Q 1053 2284 737 2584 
Q 422 2884 422 3419 
Q 422 4038 858 4394 
Q 1294 4750 2059 4750 
Q 2388 4750 2728 4690 
Q 3069 4631 3425 4513 
z
" transform="scale(0.015625)"/>
      <path id="DejaVuSans-65" d="M 3597 1894 
L 3597 1613 
L 953 1613 
Q 991 1019 1311 708 
Q 1631 397 2203 397 
Q 2534 397 2845 478 
Q 3156 559 3463 722 
L 3463 178 
Q 3153 47 2828 -22 
Q 2503 -91 2169 -91 
Q 1331 -91 842 396 
Q 353 884 353 1716 
Q 353 2575 817 3079 
Q 1281 3584 2069 3584 
Q 2775 3584 3186 3129 
Q 3597 2675 3597 1894 
z
M 3022 2063 
Q 3016 2534 2758 2815 
Q 2500 3097 2075 3097 
Q 1594 3097 1305 2825 
Q 1016 2553 972 2059 
L 3022 2063 
z
" transform="scale(0.015625)"/>
      <path id="DejaVuSans-77" d="M 269 3500 
L 844 3500 
L 1563 769 
L 2278 3500 
L 2956 3500 
L 3675 769 
L 4391 3500 
L 4966 3500 
L 4050 0 
L 3372 0 
L 2619 2869 
L 1863 0 
L 1184 0 
L 269 3500 
z
" transform="scale(0.015625)"/>
      <path id="DejaVuSans-67" d="M 2906 1791 
Q 2906 2416 2648 2759 
Q 2391 3103 1925 3103 
Q 1463 3103 1205 2759 
Q 947 2416 947 1791 
Q 947 1169 1205 825 
Q 1463 481 1925 481 
Q 2391 481 2648 825 
Q 2906 1169 2906 1791 
z
M 3481 434 
Q 3481 -459 3084 -895 
Q 2688 -1331 1869 -1331 
Q 1566 -1331 1297 -1286 
Q 1028 -1241 775 -1147 
L 775 -588 
Q 1028 -725 1275 -790 
Q 1522 -856 1778 -856 
Q 2344 -856 2625 -561 
Q 2906 -266 2906 331 
L 2906 616 
Q 2728 306 2450 153 
Q 2172 0 1784 0 
Q 1141 0 747 490 
Q 353 981 353 1791 
Q 353 2603 747 3093 
Q 1141 3584 1784 3584 
Q 2172 3584 2450 3431 
Q 2728 3278 2906 2969 
L 2906 3500 
L 3481 3500 
L 3481 434 
z
" transform="scale(0.015625)"/>
      <path id="DejaVuSans-4d" d="M 628 4666 
L 1569 4666 
L 2759 1491 
L 3956 4666 
L 4897 4666 
L 4897 0 
L 4281 0 
L 4281 4097 
L 3078 897 
L 2444 897 
L 1241 4097 
L 1241 0 
L 628 0 
L 628 4666 
z
" transform="scale(0.015625)"/>
     </defs>
     <use xlink:href="#DejaVuSans-41"/>
     <use xlink:href="#DejaVuSans-6d" x="68.408203"/>
     <use xlink:href="#DejaVuSans-6f" x="165.820312"/>
     <use xlink:href="#DejaVuSans-75" x="227.001953"/>
     <use xlink:href="#DejaVuSans-6e" x="290.380859"/>
     <use xlink:href="#DejaVuSans-74" x="353.759766"/>
     <use xlink:href="#DejaVuSans-20" x="392.96875"/>
     <use xlink:href="#DejaVuSans-69" x="424.755859"/>
     <use xlink:href="#DejaVuSans-6e" x="452.539062"/>
     <use xlink:href="#DejaVuSans-20" x="515.917969"/>
     <use xlink:href="#DejaVuSans-4a" x="547.705078"/>
     <use xlink:href="#DejaVuSans-75" x="577.197266"/>
     <use xlink:href="#DejaVuSans-6c" x="640.576172"/>
     <use xlink:href="#DejaVuSans-79" x="668.359375"/>
     <use xlink:href="#DejaVuSans-20" x="727.539062"/>
     <use xlink:href="#DejaVuSans-32" x="759.326172"/>
     <use xlink:href="#DejaVuSans-30" x="822.949219"/>
     <use xlink:href="#DejaVuSans-32" x="886.572266"/>
     <use xlink:href="#DejaVuSans-32" x="950.195312"/>
     <use xlink:href="#DejaVuSans-20" x="1013.818359"/>
     <use xlink:href="#DejaVuSans-61" x="1045.605469"/>
     <use xlink:href="#DejaVuSans-74" x="1106.884766"/>
     <use xlink:href="#DejaVuSans-20" x="1146.09375"/>
     <use xlink:href="#DejaVuSans-54" x="1177.880859"/>
     <use xlink:href="#DejaVuSans-73" x="1222.464844"/>
     <use xlink:href="#DejaVuSans-75" x="1274.564453"/>
     <use xlink:href="#DejaVuSans-63" x="1337.943359"/>
     <use xlink:href="#DejaVuSans-68" x="1392.923828"/>
     <use xlink:href="#DejaVuSans-69" x="1456.302734"/>
     <use xlink:href="#DejaVuSans-79" x="1484.085938"/>
     <use xlink:href="#DejaVuSans-61" x="1543.265625"/>
     <use xlink:href="#DejaVuSans-20" x="1604.544922"/>
     <use xlink:href="#DejaVuSans-53" x="1636.332031"/>
     <use xlink:href="#DejaVuSans-65" x="1699.808594"/>
     <use xlink:href="#DejaVuSans-77" x="1761.332031"/>
     <use xlink:href="#DejaVuSans-69" x="1843.119141"/>
     <use xlink:href="#DejaVuSans-6e" x="1870.902344"/>
     <use xlink:href="#DejaVuSans-67" x="1934.28125"/>
     <use xlink:href="#DejaVuSans-20" x="1997.757812"/>
     <use xlink:href="#DejaVuSans-4d" x="2029.544922"/>
     <use xlink:href="#DejaVuSans-61" x="2115.824219"/>
     <use xlink:href="#DejaVuSans-63" x="2177.103516"/>
     <use xlink:href="#DejaVuSans-68" x="2232.083984"/>
     <use xlink:href="#DejaVuSans-69" x="2295.462891"/>
     <use xlink:href="#DejaVuSans-6e" x="2323.246094"/>
     <use xlink:href="#DejaVuSans-65" x="2386.625"/>
    </g>
   </g>
  </g>
 </g>
 <defs>
  <clipPath id="p119e1c6c1c">
   <rect x="57.17" y="26.88" width="796.03" height="363.16"/>
  </clipPath>
 </defs>
</svg>
